G04 #@! TF.GenerationSoftware,KiCad,Pcbnew,(5.1.2)-2*
G04 #@! TF.CreationDate,2019-08-09T23:12:40-04:00*
G04 #@! TF.ProjectId,Controller,436f6e74-726f-46c6-9c65-722e6b696361,rev?*
G04 #@! TF.SameCoordinates,Original*
G04 #@! TF.FileFunction,Copper,L1,Top*
G04 #@! TF.FilePolarity,Positive*
%FSLAX46Y46*%
G04 Gerber Fmt 4.6, Leading zero omitted, Abs format (unit mm)*
G04 Created by KiCad (PCBNEW (5.1.2)-2) date 2019-08-09 23:12:40*
%MOMM*%
%LPD*%
G04 APERTURE LIST*
%ADD10R,1.016000X1.400000*%
%ADD11R,1.700000X2.400000*%
%ADD12C,0.100000*%
%ADD13C,1.350000*%
%ADD14R,0.900000X0.900000*%
%ADD15C,1.600000*%
%ADD16C,1.651000*%
%ADD17R,1.651000X1.651000*%
%ADD18R,0.889000X0.762000*%
%ADD19R,4.500000X2.000000*%
%ADD20R,2.000000X4.500000*%
%ADD21C,2.200000*%
%ADD22R,2.200000X2.200000*%
%ADD23R,1.700000X1.700000*%
%ADD24O,1.700000X1.700000*%
%ADD25R,2.540000X1.270000*%
%ADD26R,0.889000X0.889000*%
%ADD27R,1.200000X2.200000*%
%ADD28R,5.800000X6.400000*%
%ADD29R,0.398780X1.498600*%
%ADD30R,0.558800X1.270000*%
%ADD31R,1.270000X0.558800*%
%ADD32C,1.000000*%
%ADD33C,3.316000*%
%ADD34C,1.428000*%
%ADD35R,1.428000X1.428000*%
%ADD36C,5.000000*%
%ADD37R,2.032000X2.032000*%
%ADD38C,2.032000*%
%ADD39C,0.800000*%
%ADD40C,1.200000*%
%ADD41C,0.250000*%
%ADD42C,1.500000*%
%ADD43C,1.000000*%
%ADD44C,0.500000*%
G04 APERTURE END LIST*
D10*
X193676000Y-38735000D03*
X191897000Y-38735000D03*
D11*
X196651000Y-50038000D03*
X200351000Y-50038000D03*
D12*
G36*
X203903505Y-56531204D02*
G01*
X203927773Y-56534804D01*
X203951572Y-56540765D01*
X203974671Y-56549030D01*
X203996850Y-56559520D01*
X204017893Y-56572132D01*
X204037599Y-56586747D01*
X204055777Y-56603223D01*
X204072253Y-56621401D01*
X204086868Y-56641107D01*
X204099480Y-56662150D01*
X204109970Y-56684329D01*
X204118235Y-56707428D01*
X204124196Y-56731227D01*
X204127796Y-56755495D01*
X204129000Y-56779999D01*
X204129000Y-57680001D01*
X204127796Y-57704505D01*
X204124196Y-57728773D01*
X204118235Y-57752572D01*
X204109970Y-57775671D01*
X204099480Y-57797850D01*
X204086868Y-57818893D01*
X204072253Y-57838599D01*
X204055777Y-57856777D01*
X204037599Y-57873253D01*
X204017893Y-57887868D01*
X203996850Y-57900480D01*
X203974671Y-57910970D01*
X203951572Y-57919235D01*
X203927773Y-57925196D01*
X203903505Y-57928796D01*
X203879001Y-57930000D01*
X203028999Y-57930000D01*
X203004495Y-57928796D01*
X202980227Y-57925196D01*
X202956428Y-57919235D01*
X202933329Y-57910970D01*
X202911150Y-57900480D01*
X202890107Y-57887868D01*
X202870401Y-57873253D01*
X202852223Y-57856777D01*
X202835747Y-57838599D01*
X202821132Y-57818893D01*
X202808520Y-57797850D01*
X202798030Y-57775671D01*
X202789765Y-57752572D01*
X202783804Y-57728773D01*
X202780204Y-57704505D01*
X202779000Y-57680001D01*
X202779000Y-56779999D01*
X202780204Y-56755495D01*
X202783804Y-56731227D01*
X202789765Y-56707428D01*
X202798030Y-56684329D01*
X202808520Y-56662150D01*
X202821132Y-56641107D01*
X202835747Y-56621401D01*
X202852223Y-56603223D01*
X202870401Y-56586747D01*
X202890107Y-56572132D01*
X202911150Y-56559520D01*
X202933329Y-56549030D01*
X202956428Y-56540765D01*
X202980227Y-56534804D01*
X203004495Y-56531204D01*
X203028999Y-56530000D01*
X203879001Y-56530000D01*
X203903505Y-56531204D01*
X203903505Y-56531204D01*
G37*
D13*
X203454000Y-57230000D03*
D12*
G36*
X203903505Y-53831204D02*
G01*
X203927773Y-53834804D01*
X203951572Y-53840765D01*
X203974671Y-53849030D01*
X203996850Y-53859520D01*
X204017893Y-53872132D01*
X204037599Y-53886747D01*
X204055777Y-53903223D01*
X204072253Y-53921401D01*
X204086868Y-53941107D01*
X204099480Y-53962150D01*
X204109970Y-53984329D01*
X204118235Y-54007428D01*
X204124196Y-54031227D01*
X204127796Y-54055495D01*
X204129000Y-54079999D01*
X204129000Y-54980001D01*
X204127796Y-55004505D01*
X204124196Y-55028773D01*
X204118235Y-55052572D01*
X204109970Y-55075671D01*
X204099480Y-55097850D01*
X204086868Y-55118893D01*
X204072253Y-55138599D01*
X204055777Y-55156777D01*
X204037599Y-55173253D01*
X204017893Y-55187868D01*
X203996850Y-55200480D01*
X203974671Y-55210970D01*
X203951572Y-55219235D01*
X203927773Y-55225196D01*
X203903505Y-55228796D01*
X203879001Y-55230000D01*
X203028999Y-55230000D01*
X203004495Y-55228796D01*
X202980227Y-55225196D01*
X202956428Y-55219235D01*
X202933329Y-55210970D01*
X202911150Y-55200480D01*
X202890107Y-55187868D01*
X202870401Y-55173253D01*
X202852223Y-55156777D01*
X202835747Y-55138599D01*
X202821132Y-55118893D01*
X202808520Y-55097850D01*
X202798030Y-55075671D01*
X202789765Y-55052572D01*
X202783804Y-55028773D01*
X202780204Y-55004505D01*
X202779000Y-54980001D01*
X202779000Y-54079999D01*
X202780204Y-54055495D01*
X202783804Y-54031227D01*
X202789765Y-54007428D01*
X202798030Y-53984329D01*
X202808520Y-53962150D01*
X202821132Y-53941107D01*
X202835747Y-53921401D01*
X202852223Y-53903223D01*
X202870401Y-53886747D01*
X202890107Y-53872132D01*
X202911150Y-53859520D01*
X202933329Y-53849030D01*
X202956428Y-53840765D01*
X202980227Y-53834804D01*
X203004495Y-53831204D01*
X203028999Y-53830000D01*
X203879001Y-53830000D01*
X203903505Y-53831204D01*
X203903505Y-53831204D01*
G37*
D13*
X203454000Y-54530000D03*
D12*
G36*
X194251505Y-53831204D02*
G01*
X194275773Y-53834804D01*
X194299572Y-53840765D01*
X194322671Y-53849030D01*
X194344850Y-53859520D01*
X194365893Y-53872132D01*
X194385599Y-53886747D01*
X194403777Y-53903223D01*
X194420253Y-53921401D01*
X194434868Y-53941107D01*
X194447480Y-53962150D01*
X194457970Y-53984329D01*
X194466235Y-54007428D01*
X194472196Y-54031227D01*
X194475796Y-54055495D01*
X194477000Y-54079999D01*
X194477000Y-54980001D01*
X194475796Y-55004505D01*
X194472196Y-55028773D01*
X194466235Y-55052572D01*
X194457970Y-55075671D01*
X194447480Y-55097850D01*
X194434868Y-55118893D01*
X194420253Y-55138599D01*
X194403777Y-55156777D01*
X194385599Y-55173253D01*
X194365893Y-55187868D01*
X194344850Y-55200480D01*
X194322671Y-55210970D01*
X194299572Y-55219235D01*
X194275773Y-55225196D01*
X194251505Y-55228796D01*
X194227001Y-55230000D01*
X193376999Y-55230000D01*
X193352495Y-55228796D01*
X193328227Y-55225196D01*
X193304428Y-55219235D01*
X193281329Y-55210970D01*
X193259150Y-55200480D01*
X193238107Y-55187868D01*
X193218401Y-55173253D01*
X193200223Y-55156777D01*
X193183747Y-55138599D01*
X193169132Y-55118893D01*
X193156520Y-55097850D01*
X193146030Y-55075671D01*
X193137765Y-55052572D01*
X193131804Y-55028773D01*
X193128204Y-55004505D01*
X193127000Y-54980001D01*
X193127000Y-54079999D01*
X193128204Y-54055495D01*
X193131804Y-54031227D01*
X193137765Y-54007428D01*
X193146030Y-53984329D01*
X193156520Y-53962150D01*
X193169132Y-53941107D01*
X193183747Y-53921401D01*
X193200223Y-53903223D01*
X193218401Y-53886747D01*
X193238107Y-53872132D01*
X193259150Y-53859520D01*
X193281329Y-53849030D01*
X193304428Y-53840765D01*
X193328227Y-53834804D01*
X193352495Y-53831204D01*
X193376999Y-53830000D01*
X194227001Y-53830000D01*
X194251505Y-53831204D01*
X194251505Y-53831204D01*
G37*
D13*
X193802000Y-54530000D03*
D12*
G36*
X194251505Y-56531204D02*
G01*
X194275773Y-56534804D01*
X194299572Y-56540765D01*
X194322671Y-56549030D01*
X194344850Y-56559520D01*
X194365893Y-56572132D01*
X194385599Y-56586747D01*
X194403777Y-56603223D01*
X194420253Y-56621401D01*
X194434868Y-56641107D01*
X194447480Y-56662150D01*
X194457970Y-56684329D01*
X194466235Y-56707428D01*
X194472196Y-56731227D01*
X194475796Y-56755495D01*
X194477000Y-56779999D01*
X194477000Y-57680001D01*
X194475796Y-57704505D01*
X194472196Y-57728773D01*
X194466235Y-57752572D01*
X194457970Y-57775671D01*
X194447480Y-57797850D01*
X194434868Y-57818893D01*
X194420253Y-57838599D01*
X194403777Y-57856777D01*
X194385599Y-57873253D01*
X194365893Y-57887868D01*
X194344850Y-57900480D01*
X194322671Y-57910970D01*
X194299572Y-57919235D01*
X194275773Y-57925196D01*
X194251505Y-57928796D01*
X194227001Y-57930000D01*
X193376999Y-57930000D01*
X193352495Y-57928796D01*
X193328227Y-57925196D01*
X193304428Y-57919235D01*
X193281329Y-57910970D01*
X193259150Y-57900480D01*
X193238107Y-57887868D01*
X193218401Y-57873253D01*
X193200223Y-57856777D01*
X193183747Y-57838599D01*
X193169132Y-57818893D01*
X193156520Y-57797850D01*
X193146030Y-57775671D01*
X193137765Y-57752572D01*
X193131804Y-57728773D01*
X193128204Y-57704505D01*
X193127000Y-57680001D01*
X193127000Y-56779999D01*
X193128204Y-56755495D01*
X193131804Y-56731227D01*
X193137765Y-56707428D01*
X193146030Y-56684329D01*
X193156520Y-56662150D01*
X193169132Y-56641107D01*
X193183747Y-56621401D01*
X193200223Y-56603223D01*
X193218401Y-56586747D01*
X193238107Y-56572132D01*
X193259150Y-56559520D01*
X193281329Y-56549030D01*
X193304428Y-56540765D01*
X193328227Y-56534804D01*
X193352495Y-56531204D01*
X193376999Y-56530000D01*
X194227001Y-56530000D01*
X194251505Y-56531204D01*
X194251505Y-56531204D01*
G37*
D13*
X193802000Y-57230000D03*
D14*
X194564000Y-51562000D03*
X194564000Y-50038000D03*
D10*
X194310000Y-48133000D03*
X192531000Y-48133000D03*
D14*
X202438000Y-50038000D03*
X202438000Y-51562000D03*
X185928000Y-34163000D03*
X185928000Y-35687000D03*
X184277000Y-35306000D03*
X184277000Y-33782000D03*
X176403000Y-35306000D03*
X176403000Y-33782000D03*
D12*
G36*
X188282505Y-34687204D02*
G01*
X188306773Y-34690804D01*
X188330572Y-34696765D01*
X188353671Y-34705030D01*
X188375850Y-34715520D01*
X188396893Y-34728132D01*
X188416599Y-34742747D01*
X188434777Y-34759223D01*
X188451253Y-34777401D01*
X188465868Y-34797107D01*
X188478480Y-34818150D01*
X188488970Y-34840329D01*
X188497235Y-34863428D01*
X188503196Y-34887227D01*
X188506796Y-34911495D01*
X188508000Y-34935999D01*
X188508000Y-35836001D01*
X188506796Y-35860505D01*
X188503196Y-35884773D01*
X188497235Y-35908572D01*
X188488970Y-35931671D01*
X188478480Y-35953850D01*
X188465868Y-35974893D01*
X188451253Y-35994599D01*
X188434777Y-36012777D01*
X188416599Y-36029253D01*
X188396893Y-36043868D01*
X188375850Y-36056480D01*
X188353671Y-36066970D01*
X188330572Y-36075235D01*
X188306773Y-36081196D01*
X188282505Y-36084796D01*
X188258001Y-36086000D01*
X187407999Y-36086000D01*
X187383495Y-36084796D01*
X187359227Y-36081196D01*
X187335428Y-36075235D01*
X187312329Y-36066970D01*
X187290150Y-36056480D01*
X187269107Y-36043868D01*
X187249401Y-36029253D01*
X187231223Y-36012777D01*
X187214747Y-35994599D01*
X187200132Y-35974893D01*
X187187520Y-35953850D01*
X187177030Y-35931671D01*
X187168765Y-35908572D01*
X187162804Y-35884773D01*
X187159204Y-35860505D01*
X187158000Y-35836001D01*
X187158000Y-34935999D01*
X187159204Y-34911495D01*
X187162804Y-34887227D01*
X187168765Y-34863428D01*
X187177030Y-34840329D01*
X187187520Y-34818150D01*
X187200132Y-34797107D01*
X187214747Y-34777401D01*
X187231223Y-34759223D01*
X187249401Y-34742747D01*
X187269107Y-34728132D01*
X187290150Y-34715520D01*
X187312329Y-34705030D01*
X187335428Y-34696765D01*
X187359227Y-34690804D01*
X187383495Y-34687204D01*
X187407999Y-34686000D01*
X188258001Y-34686000D01*
X188282505Y-34687204D01*
X188282505Y-34687204D01*
G37*
D13*
X187833000Y-35386000D03*
D12*
G36*
X188282505Y-31987204D02*
G01*
X188306773Y-31990804D01*
X188330572Y-31996765D01*
X188353671Y-32005030D01*
X188375850Y-32015520D01*
X188396893Y-32028132D01*
X188416599Y-32042747D01*
X188434777Y-32059223D01*
X188451253Y-32077401D01*
X188465868Y-32097107D01*
X188478480Y-32118150D01*
X188488970Y-32140329D01*
X188497235Y-32163428D01*
X188503196Y-32187227D01*
X188506796Y-32211495D01*
X188508000Y-32235999D01*
X188508000Y-33136001D01*
X188506796Y-33160505D01*
X188503196Y-33184773D01*
X188497235Y-33208572D01*
X188488970Y-33231671D01*
X188478480Y-33253850D01*
X188465868Y-33274893D01*
X188451253Y-33294599D01*
X188434777Y-33312777D01*
X188416599Y-33329253D01*
X188396893Y-33343868D01*
X188375850Y-33356480D01*
X188353671Y-33366970D01*
X188330572Y-33375235D01*
X188306773Y-33381196D01*
X188282505Y-33384796D01*
X188258001Y-33386000D01*
X187407999Y-33386000D01*
X187383495Y-33384796D01*
X187359227Y-33381196D01*
X187335428Y-33375235D01*
X187312329Y-33366970D01*
X187290150Y-33356480D01*
X187269107Y-33343868D01*
X187249401Y-33329253D01*
X187231223Y-33312777D01*
X187214747Y-33294599D01*
X187200132Y-33274893D01*
X187187520Y-33253850D01*
X187177030Y-33231671D01*
X187168765Y-33208572D01*
X187162804Y-33184773D01*
X187159204Y-33160505D01*
X187158000Y-33136001D01*
X187158000Y-32235999D01*
X187159204Y-32211495D01*
X187162804Y-32187227D01*
X187168765Y-32163428D01*
X187177030Y-32140329D01*
X187187520Y-32118150D01*
X187200132Y-32097107D01*
X187214747Y-32077401D01*
X187231223Y-32059223D01*
X187249401Y-32042747D01*
X187269107Y-32028132D01*
X187290150Y-32015520D01*
X187312329Y-32005030D01*
X187335428Y-31996765D01*
X187359227Y-31990804D01*
X187383495Y-31987204D01*
X187407999Y-31986000D01*
X188258001Y-31986000D01*
X188282505Y-31987204D01*
X188282505Y-31987204D01*
G37*
D13*
X187833000Y-32686000D03*
D10*
X189801500Y-46037500D03*
X191580500Y-46037500D03*
D14*
X189738000Y-35687000D03*
X189738000Y-34163000D03*
D12*
G36*
X165547504Y-40536204D02*
G01*
X165571773Y-40539804D01*
X165595571Y-40545765D01*
X165618671Y-40554030D01*
X165640849Y-40564520D01*
X165661893Y-40577133D01*
X165681598Y-40591747D01*
X165699777Y-40608223D01*
X165716253Y-40626402D01*
X165730867Y-40646107D01*
X165743480Y-40667151D01*
X165753970Y-40689329D01*
X165762235Y-40712429D01*
X165768196Y-40736227D01*
X165771796Y-40760496D01*
X165773000Y-40785000D01*
X165773000Y-43785000D01*
X165771796Y-43809504D01*
X165768196Y-43833773D01*
X165762235Y-43857571D01*
X165753970Y-43880671D01*
X165743480Y-43902849D01*
X165730867Y-43923893D01*
X165716253Y-43943598D01*
X165699777Y-43961777D01*
X165681598Y-43978253D01*
X165661893Y-43992867D01*
X165640849Y-44005480D01*
X165618671Y-44015970D01*
X165595571Y-44024235D01*
X165571773Y-44030196D01*
X165547504Y-44033796D01*
X165523000Y-44035000D01*
X164423000Y-44035000D01*
X164398496Y-44033796D01*
X164374227Y-44030196D01*
X164350429Y-44024235D01*
X164327329Y-44015970D01*
X164305151Y-44005480D01*
X164284107Y-43992867D01*
X164264402Y-43978253D01*
X164246223Y-43961777D01*
X164229747Y-43943598D01*
X164215133Y-43923893D01*
X164202520Y-43902849D01*
X164192030Y-43880671D01*
X164183765Y-43857571D01*
X164177804Y-43833773D01*
X164174204Y-43809504D01*
X164173000Y-43785000D01*
X164173000Y-40785000D01*
X164174204Y-40760496D01*
X164177804Y-40736227D01*
X164183765Y-40712429D01*
X164192030Y-40689329D01*
X164202520Y-40667151D01*
X164215133Y-40646107D01*
X164229747Y-40626402D01*
X164246223Y-40608223D01*
X164264402Y-40591747D01*
X164284107Y-40577133D01*
X164305151Y-40564520D01*
X164327329Y-40554030D01*
X164350429Y-40545765D01*
X164374227Y-40539804D01*
X164398496Y-40536204D01*
X164423000Y-40535000D01*
X165523000Y-40535000D01*
X165547504Y-40536204D01*
X165547504Y-40536204D01*
G37*
D15*
X164973000Y-42285000D03*
D12*
G36*
X165547504Y-46136204D02*
G01*
X165571773Y-46139804D01*
X165595571Y-46145765D01*
X165618671Y-46154030D01*
X165640849Y-46164520D01*
X165661893Y-46177133D01*
X165681598Y-46191747D01*
X165699777Y-46208223D01*
X165716253Y-46226402D01*
X165730867Y-46246107D01*
X165743480Y-46267151D01*
X165753970Y-46289329D01*
X165762235Y-46312429D01*
X165768196Y-46336227D01*
X165771796Y-46360496D01*
X165773000Y-46385000D01*
X165773000Y-49385000D01*
X165771796Y-49409504D01*
X165768196Y-49433773D01*
X165762235Y-49457571D01*
X165753970Y-49480671D01*
X165743480Y-49502849D01*
X165730867Y-49523893D01*
X165716253Y-49543598D01*
X165699777Y-49561777D01*
X165681598Y-49578253D01*
X165661893Y-49592867D01*
X165640849Y-49605480D01*
X165618671Y-49615970D01*
X165595571Y-49624235D01*
X165571773Y-49630196D01*
X165547504Y-49633796D01*
X165523000Y-49635000D01*
X164423000Y-49635000D01*
X164398496Y-49633796D01*
X164374227Y-49630196D01*
X164350429Y-49624235D01*
X164327329Y-49615970D01*
X164305151Y-49605480D01*
X164284107Y-49592867D01*
X164264402Y-49578253D01*
X164246223Y-49561777D01*
X164229747Y-49543598D01*
X164215133Y-49523893D01*
X164202520Y-49502849D01*
X164192030Y-49480671D01*
X164183765Y-49457571D01*
X164177804Y-49433773D01*
X164174204Y-49409504D01*
X164173000Y-49385000D01*
X164173000Y-46385000D01*
X164174204Y-46360496D01*
X164177804Y-46336227D01*
X164183765Y-46312429D01*
X164192030Y-46289329D01*
X164202520Y-46267151D01*
X164215133Y-46246107D01*
X164229747Y-46226402D01*
X164246223Y-46208223D01*
X164264402Y-46191747D01*
X164284107Y-46177133D01*
X164305151Y-46164520D01*
X164327329Y-46154030D01*
X164350429Y-46145765D01*
X164374227Y-46139804D01*
X164398496Y-46136204D01*
X164423000Y-46135000D01*
X165523000Y-46135000D01*
X165547504Y-46136204D01*
X165547504Y-46136204D01*
G37*
D15*
X164973000Y-47885000D03*
D12*
G36*
X165547504Y-67726204D02*
G01*
X165571773Y-67729804D01*
X165595571Y-67735765D01*
X165618671Y-67744030D01*
X165640849Y-67754520D01*
X165661893Y-67767133D01*
X165681598Y-67781747D01*
X165699777Y-67798223D01*
X165716253Y-67816402D01*
X165730867Y-67836107D01*
X165743480Y-67857151D01*
X165753970Y-67879329D01*
X165762235Y-67902429D01*
X165768196Y-67926227D01*
X165771796Y-67950496D01*
X165773000Y-67975000D01*
X165773000Y-70975000D01*
X165771796Y-70999504D01*
X165768196Y-71023773D01*
X165762235Y-71047571D01*
X165753970Y-71070671D01*
X165743480Y-71092849D01*
X165730867Y-71113893D01*
X165716253Y-71133598D01*
X165699777Y-71151777D01*
X165681598Y-71168253D01*
X165661893Y-71182867D01*
X165640849Y-71195480D01*
X165618671Y-71205970D01*
X165595571Y-71214235D01*
X165571773Y-71220196D01*
X165547504Y-71223796D01*
X165523000Y-71225000D01*
X164423000Y-71225000D01*
X164398496Y-71223796D01*
X164374227Y-71220196D01*
X164350429Y-71214235D01*
X164327329Y-71205970D01*
X164305151Y-71195480D01*
X164284107Y-71182867D01*
X164264402Y-71168253D01*
X164246223Y-71151777D01*
X164229747Y-71133598D01*
X164215133Y-71113893D01*
X164202520Y-71092849D01*
X164192030Y-71070671D01*
X164183765Y-71047571D01*
X164177804Y-71023773D01*
X164174204Y-70999504D01*
X164173000Y-70975000D01*
X164173000Y-67975000D01*
X164174204Y-67950496D01*
X164177804Y-67926227D01*
X164183765Y-67902429D01*
X164192030Y-67879329D01*
X164202520Y-67857151D01*
X164215133Y-67836107D01*
X164229747Y-67816402D01*
X164246223Y-67798223D01*
X164264402Y-67781747D01*
X164284107Y-67767133D01*
X164305151Y-67754520D01*
X164327329Y-67744030D01*
X164350429Y-67735765D01*
X164374227Y-67729804D01*
X164398496Y-67726204D01*
X164423000Y-67725000D01*
X165523000Y-67725000D01*
X165547504Y-67726204D01*
X165547504Y-67726204D01*
G37*
D15*
X164973000Y-69475000D03*
D12*
G36*
X165547504Y-62126204D02*
G01*
X165571773Y-62129804D01*
X165595571Y-62135765D01*
X165618671Y-62144030D01*
X165640849Y-62154520D01*
X165661893Y-62167133D01*
X165681598Y-62181747D01*
X165699777Y-62198223D01*
X165716253Y-62216402D01*
X165730867Y-62236107D01*
X165743480Y-62257151D01*
X165753970Y-62279329D01*
X165762235Y-62302429D01*
X165768196Y-62326227D01*
X165771796Y-62350496D01*
X165773000Y-62375000D01*
X165773000Y-65375000D01*
X165771796Y-65399504D01*
X165768196Y-65423773D01*
X165762235Y-65447571D01*
X165753970Y-65470671D01*
X165743480Y-65492849D01*
X165730867Y-65513893D01*
X165716253Y-65533598D01*
X165699777Y-65551777D01*
X165681598Y-65568253D01*
X165661893Y-65582867D01*
X165640849Y-65595480D01*
X165618671Y-65605970D01*
X165595571Y-65614235D01*
X165571773Y-65620196D01*
X165547504Y-65623796D01*
X165523000Y-65625000D01*
X164423000Y-65625000D01*
X164398496Y-65623796D01*
X164374227Y-65620196D01*
X164350429Y-65614235D01*
X164327329Y-65605970D01*
X164305151Y-65595480D01*
X164284107Y-65582867D01*
X164264402Y-65568253D01*
X164246223Y-65551777D01*
X164229747Y-65533598D01*
X164215133Y-65513893D01*
X164202520Y-65492849D01*
X164192030Y-65470671D01*
X164183765Y-65447571D01*
X164177804Y-65423773D01*
X164174204Y-65399504D01*
X164173000Y-65375000D01*
X164173000Y-62375000D01*
X164174204Y-62350496D01*
X164177804Y-62326227D01*
X164183765Y-62302429D01*
X164192030Y-62279329D01*
X164202520Y-62257151D01*
X164215133Y-62236107D01*
X164229747Y-62216402D01*
X164246223Y-62198223D01*
X164264402Y-62181747D01*
X164284107Y-62167133D01*
X164305151Y-62154520D01*
X164327329Y-62144030D01*
X164350429Y-62135765D01*
X164374227Y-62129804D01*
X164398496Y-62126204D01*
X164423000Y-62125000D01*
X165523000Y-62125000D01*
X165547504Y-62126204D01*
X165547504Y-62126204D01*
G37*
D15*
X164973000Y-63875000D03*
D16*
X179705000Y-65405000D03*
X182245000Y-65405000D03*
D17*
X184785000Y-65405000D03*
X161798000Y-37465000D03*
D16*
X164338000Y-37465000D03*
X166878000Y-37465000D03*
D17*
X161798000Y-34290000D03*
D16*
X164338000Y-34290000D03*
X166878000Y-34290000D03*
X166878000Y-31115000D03*
X164338000Y-31115000D03*
D17*
X161798000Y-31115000D03*
D16*
X171323000Y-31115000D03*
X171323000Y-33655000D03*
X171323000Y-36195000D03*
X171323000Y-38735000D03*
X171323000Y-41275000D03*
X171323000Y-43815000D03*
X171323000Y-46355000D03*
D17*
X171323000Y-48895000D03*
D16*
X158623000Y-31115000D03*
X158623000Y-33655000D03*
X158623000Y-36195000D03*
X158623000Y-38735000D03*
X158623000Y-41275000D03*
X158623000Y-43815000D03*
X158623000Y-46355000D03*
D17*
X158623000Y-48895000D03*
D16*
X166878000Y-59055000D03*
X164338000Y-59055000D03*
D17*
X161798000Y-59055000D03*
D16*
X166878000Y-55880000D03*
X164338000Y-55880000D03*
D17*
X161798000Y-55880000D03*
X161798000Y-52705000D03*
D16*
X164338000Y-52705000D03*
X166878000Y-52705000D03*
D17*
X171323000Y-70485000D03*
D16*
X171323000Y-67945000D03*
X171323000Y-65405000D03*
X171323000Y-62865000D03*
X171323000Y-60325000D03*
X171323000Y-57785000D03*
X171323000Y-55245000D03*
X171323000Y-52705000D03*
D17*
X158623000Y-70485000D03*
D16*
X158623000Y-67945000D03*
X158623000Y-65405000D03*
X158623000Y-62865000D03*
X158623000Y-60325000D03*
X158623000Y-57785000D03*
X158623000Y-55245000D03*
X158623000Y-52705000D03*
D18*
X207645000Y-34798000D03*
X207645000Y-36322000D03*
X205105000Y-36322000D03*
X205105000Y-34798000D03*
D19*
X209550000Y-54990000D03*
D20*
X206550000Y-59690000D03*
X212550000Y-59690000D03*
D21*
X186055000Y-79375000D03*
X183515000Y-79375000D03*
X180975000Y-79375000D03*
D22*
X178435000Y-79375000D03*
X190500000Y-79375000D03*
D21*
X193040000Y-79375000D03*
X195580000Y-79375000D03*
X198120000Y-79375000D03*
D17*
X179705000Y-73025000D03*
D16*
X179705000Y-70485000D03*
X184785000Y-70485000D03*
D17*
X184785000Y-73025000D03*
D21*
X210185000Y-79375000D03*
X207645000Y-79375000D03*
X205105000Y-79375000D03*
D22*
X202565000Y-79375000D03*
X154305000Y-79375000D03*
D21*
X156845000Y-79375000D03*
X159385000Y-79375000D03*
X161925000Y-79375000D03*
X173990000Y-79375000D03*
X171450000Y-79375000D03*
X168910000Y-79375000D03*
D22*
X166370000Y-79375000D03*
D23*
X178181000Y-50419000D03*
D24*
X180721000Y-50419000D03*
X178181000Y-52959000D03*
X180721000Y-52959000D03*
X178181000Y-55499000D03*
X180721000Y-55499000D03*
D22*
X150241000Y-36195000D03*
D21*
X150241000Y-38735000D03*
X150241000Y-41275000D03*
X150241000Y-43815000D03*
D17*
X155448000Y-36195000D03*
D16*
X155448000Y-38735000D03*
X155448000Y-41275000D03*
X155448000Y-43815000D03*
D22*
X150241000Y-57785000D03*
D21*
X150241000Y-60325000D03*
X150241000Y-62865000D03*
X150241000Y-65405000D03*
D16*
X155448000Y-65405000D03*
X155448000Y-62865000D03*
X155448000Y-60325000D03*
D17*
X155448000Y-57785000D03*
D25*
X192214500Y-36068000D03*
X192214500Y-31750000D03*
X200469500Y-31750000D03*
X200469500Y-36068000D03*
D26*
X183642000Y-54991000D03*
X183642000Y-53467000D03*
X193294000Y-41021000D03*
X191770000Y-41021000D03*
X191770000Y-44069000D03*
X193294000Y-44069000D03*
X193294000Y-42545000D03*
X191770000Y-42545000D03*
X207645000Y-31623000D03*
X207645000Y-33147000D03*
X205105000Y-33147000D03*
X205105000Y-31623000D03*
D27*
X200908000Y-54728000D03*
X196348000Y-54728000D03*
D28*
X198628000Y-61028000D03*
D29*
X195577460Y-46169580D03*
X196227700Y-46169580D03*
X196877940Y-46169580D03*
X197528180Y-46169580D03*
X198178420Y-46169580D03*
X198823580Y-46169580D03*
X199473820Y-46169580D03*
X200124060Y-46169580D03*
X200774300Y-46169580D03*
X201424540Y-46169580D03*
X201424540Y-38920420D03*
X200774300Y-38920420D03*
X200124060Y-38920420D03*
X199473820Y-38920420D03*
X198823580Y-38920420D03*
X198178420Y-38920420D03*
X197528180Y-38920420D03*
X196877940Y-38920420D03*
X196227700Y-38920420D03*
X195577460Y-38920420D03*
D30*
X185552080Y-38252400D03*
X184751980Y-38252400D03*
X183951880Y-38252400D03*
X183151780Y-38252400D03*
X182354220Y-38252400D03*
X181554120Y-38252400D03*
X180754020Y-38252400D03*
X179953920Y-38252400D03*
D31*
X178460400Y-39745920D03*
X178460400Y-40546020D03*
X178460400Y-41346120D03*
X178460400Y-42146220D03*
X178460400Y-42943780D03*
X178460400Y-43743880D03*
X178460400Y-44543980D03*
X178460400Y-45344080D03*
D30*
X179953920Y-46837600D03*
X180754020Y-46837600D03*
X181554120Y-46837600D03*
X182354220Y-46837600D03*
X183151780Y-46837600D03*
X183951880Y-46837600D03*
X184751980Y-46837600D03*
X185552080Y-46837600D03*
D31*
X187045600Y-45344080D03*
X187045600Y-44543980D03*
X187045600Y-43743880D03*
X187045600Y-42943780D03*
X187045600Y-42146220D03*
X187045600Y-41346120D03*
X187045600Y-40546020D03*
X187045600Y-39745920D03*
D11*
X182190000Y-35433000D03*
X178490000Y-35433000D03*
D32*
X150000000Y-51000000D03*
X205000000Y-73000000D03*
D33*
X210196000Y-39045000D03*
X210196000Y-51085000D03*
D34*
X207486000Y-43815000D03*
X207486000Y-46315000D03*
D35*
X205486000Y-43815000D03*
D34*
X205486000Y-46315000D03*
D36*
X216750000Y-31250000D03*
X148250000Y-81750000D03*
X148250000Y-31250000D03*
X216750000Y-81750000D03*
D18*
X210185000Y-36322000D03*
X210185000Y-34798000D03*
D26*
X210185000Y-33147000D03*
X210185000Y-31623000D03*
D37*
X215723000Y-72985000D03*
D38*
X215723000Y-67985000D03*
D39*
X199009000Y-47752000D03*
X183134000Y-45466000D03*
X183134000Y-39624000D03*
X192659000Y-34798000D03*
X189484000Y-32258000D03*
X182626000Y-33147000D03*
X167000000Y-63000000D03*
D40*
X166846703Y-42449298D03*
X196088000Y-40513000D03*
X203454000Y-32258000D03*
X186955998Y-37084000D03*
X193040000Y-52705000D03*
X196342000Y-53086000D03*
D39*
X188785500Y-46037500D03*
X182372000Y-44767500D03*
X190627000Y-39370000D03*
X188468000Y-42071120D03*
X185547000Y-42164000D03*
X185039000Y-39624000D03*
X194564000Y-43307000D03*
X196977000Y-43307000D03*
D41*
X202126000Y-57230000D02*
X198628000Y-60728000D01*
X203454000Y-57230000D02*
X202126000Y-57230000D01*
X198628000Y-60728000D02*
X198628000Y-61028000D01*
X193802000Y-57230000D02*
X195130000Y-57230000D01*
X195130000Y-57230000D02*
X198628000Y-60728000D01*
D42*
X212550000Y-60940000D02*
X212550000Y-59690000D01*
X210050000Y-63440000D02*
X212550000Y-60940000D01*
X205440000Y-63440000D02*
X210050000Y-63440000D01*
X203028000Y-61028000D02*
X205440000Y-63440000D01*
X198628000Y-61028000D02*
X203028000Y-61028000D01*
X209550000Y-56690000D02*
X212550000Y-59690000D01*
X209550000Y-54990000D02*
X209550000Y-56690000D01*
X209550000Y-51731000D02*
X210196000Y-51085000D01*
X209550000Y-54990000D02*
X209550000Y-51731000D01*
X210196000Y-51085000D02*
X210196000Y-39045000D01*
D41*
X201738000Y-51562000D02*
X202438000Y-51562000D01*
X201736999Y-51563001D02*
X201738000Y-51562000D01*
X195265001Y-51563001D02*
X201736999Y-51563001D01*
X195264000Y-51562000D02*
X195265001Y-51563001D01*
X194564000Y-51562000D02*
X195264000Y-51562000D01*
X209719000Y-51562000D02*
X210196000Y-51085000D01*
X202438000Y-51562000D02*
X209719000Y-51562000D01*
X199400590Y-47752000D02*
X199009000Y-47752000D01*
X200124060Y-46169580D02*
X200124060Y-47028530D01*
X200124060Y-47028530D02*
X199400590Y-47752000D01*
X193864000Y-51562000D02*
X194564000Y-51562000D01*
X192531000Y-50229000D02*
X193864000Y-51562000D01*
X192531000Y-48133000D02*
X192531000Y-50229000D01*
X176657000Y-33782000D02*
X184023000Y-33782000D01*
X210196000Y-36964000D02*
X210196000Y-39045000D01*
X210185000Y-36953000D02*
X210196000Y-36964000D01*
X210185000Y-36322000D02*
X210185000Y-36953000D01*
X183134000Y-46819820D02*
X183151780Y-46837600D01*
X183134000Y-45466000D02*
X183134000Y-46819820D01*
X183951880Y-39137400D02*
X183951880Y-38252400D01*
X183876879Y-39212401D02*
X183951880Y-39137400D01*
X182354220Y-39137400D02*
X182429221Y-39212401D01*
X182354220Y-38252400D02*
X182354220Y-39137400D01*
X183134000Y-39308802D02*
X183037599Y-39212401D01*
X183134000Y-39624000D02*
X183134000Y-39308802D01*
X182429221Y-39212401D02*
X183037599Y-39212401D01*
X183037599Y-39212401D02*
X183876879Y-39212401D01*
X187058000Y-32686000D02*
X187833000Y-32686000D01*
X186705000Y-32686000D02*
X187058000Y-32686000D01*
X185928000Y-33463000D02*
X186705000Y-32686000D01*
X185928000Y-34163000D02*
X185928000Y-33463000D01*
X188608000Y-32686000D02*
X187833000Y-32686000D01*
X188961000Y-32686000D02*
X188608000Y-32686000D01*
X189738000Y-33463000D02*
X188961000Y-32686000D01*
X189738000Y-34163000D02*
X189738000Y-33463000D01*
X192214500Y-35939500D02*
X192214500Y-36068000D01*
X190438000Y-34163000D02*
X192214500Y-35939500D01*
X189738000Y-34163000D02*
X190438000Y-34163000D01*
X192531000Y-47183000D02*
X192531000Y-48133000D01*
X192531000Y-46230000D02*
X192531000Y-47183000D01*
X192338500Y-46037500D02*
X192531000Y-46230000D01*
X191580500Y-46037500D02*
X192338500Y-46037500D01*
D43*
X160903000Y-46355000D02*
X164973000Y-42285000D01*
X158623000Y-46355000D02*
X160903000Y-46355000D01*
X160903000Y-67945000D02*
X164973000Y-63875000D01*
X158623000Y-67945000D02*
X160903000Y-67945000D01*
D41*
X192214500Y-36068000D02*
X192214500Y-35242500D01*
X192214500Y-35242500D02*
X192659000Y-34798000D01*
X185547000Y-33782000D02*
X185928000Y-34163000D01*
X184023000Y-33782000D02*
X185547000Y-33782000D01*
X188261000Y-32258000D02*
X187833000Y-32686000D01*
X189484000Y-32258000D02*
X188261000Y-32258000D01*
X183388000Y-33147000D02*
X184023000Y-33782000D01*
X182626000Y-33147000D02*
X183388000Y-33147000D01*
X181229000Y-54991000D02*
X180721000Y-55499000D01*
X183642000Y-54991000D02*
X181229000Y-54991000D01*
D43*
X164973000Y-63875000D02*
X166125000Y-63875000D01*
X166125000Y-63875000D02*
X167000000Y-63000000D01*
X164973000Y-42285000D02*
X166682405Y-42285000D01*
X166682405Y-42285000D02*
X166846703Y-42449298D01*
D41*
X200774300Y-47014700D02*
X200774300Y-46169580D01*
X197751000Y-50038000D02*
X200774300Y-47014700D01*
X196651000Y-50038000D02*
X197751000Y-50038000D01*
X194564000Y-50038000D02*
X196651000Y-50038000D01*
X195068000Y-48133000D02*
X194310000Y-48133000D01*
X197214300Y-48133000D02*
X195068000Y-48133000D01*
X198178420Y-47168880D02*
X197214300Y-48133000D01*
X198178420Y-46169580D02*
X198178420Y-47168880D01*
X201424540Y-47168880D02*
X201424540Y-46169580D01*
X201424540Y-47514460D02*
X201424540Y-47168880D01*
X200351000Y-48588000D02*
X201424540Y-47514460D01*
X200351000Y-50038000D02*
X200351000Y-48588000D01*
X202438000Y-50038000D02*
X200351000Y-50038000D01*
D44*
X196150000Y-54530000D02*
X196348000Y-54728000D01*
X193802000Y-54530000D02*
X196150000Y-54530000D01*
X196227700Y-40373300D02*
X196227700Y-38920420D01*
X196088000Y-40513000D02*
X196227700Y-40373300D01*
X204053999Y-31658001D02*
X204124001Y-31658001D01*
X203454000Y-32258000D02*
X204053999Y-31658001D01*
X204159002Y-31623000D02*
X205105000Y-31623000D01*
X204124001Y-31658001D02*
X204159002Y-31623000D01*
X205105000Y-31623000D02*
X207645000Y-31623000D01*
X207645000Y-31623000D02*
X210185000Y-31623000D01*
X183151780Y-37117400D02*
X183151780Y-38252400D01*
X183185180Y-37084000D02*
X183151780Y-37117400D01*
X181554120Y-37117400D02*
X181554120Y-38252400D01*
X181587520Y-37084000D02*
X181554120Y-37117400D01*
X183185180Y-37084000D02*
X181587520Y-37084000D01*
X185928000Y-36830000D02*
X185928000Y-35687000D01*
X185674000Y-37084000D02*
X185928000Y-36830000D01*
X185674000Y-37084000D02*
X183185180Y-37084000D01*
X186955998Y-37084000D02*
X185674000Y-37084000D01*
X187532000Y-35687000D02*
X187833000Y-35386000D01*
X185928000Y-35687000D02*
X187532000Y-35687000D01*
X188134000Y-35687000D02*
X187833000Y-35386000D01*
X189738000Y-35687000D02*
X188134000Y-35687000D01*
X193802000Y-54530000D02*
X193040000Y-53768000D01*
X193040000Y-53768000D02*
X193040000Y-52705000D01*
X195580000Y-41021000D02*
X196088000Y-40513000D01*
X193294000Y-41021000D02*
X195580000Y-41021000D01*
X196348000Y-54728000D02*
X196348000Y-53092000D01*
X196348000Y-53092000D02*
X196342000Y-53086000D01*
X180721000Y-46870620D02*
X180754020Y-46837600D01*
X180721000Y-50419000D02*
X180721000Y-46870620D01*
D41*
X180754020Y-37367400D02*
X180754020Y-38252400D01*
X180754020Y-35768980D02*
X180754020Y-37367400D01*
X181090000Y-35433000D02*
X180754020Y-35768980D01*
X182190000Y-35433000D02*
X181090000Y-35433000D01*
X182317000Y-35306000D02*
X182190000Y-35433000D01*
X184023000Y-35306000D02*
X182317000Y-35306000D01*
X179953920Y-37367400D02*
X179953920Y-38252400D01*
X179953920Y-35796920D02*
X179953920Y-37367400D01*
X179590000Y-35433000D02*
X179953920Y-35796920D01*
X178490000Y-35433000D02*
X179590000Y-35433000D01*
X178363000Y-35306000D02*
X178490000Y-35433000D01*
X176657000Y-35306000D02*
X178363000Y-35306000D01*
X189801500Y-46037500D02*
X188785500Y-46037500D01*
X182372000Y-46819820D02*
X182354220Y-46837600D01*
X182372000Y-44767500D02*
X182372000Y-46819820D01*
X191770000Y-41021000D02*
X191770000Y-40513000D01*
X191770000Y-40513000D02*
X190627000Y-39370000D01*
X187120700Y-42071120D02*
X187045600Y-42146220D01*
X188468000Y-42071120D02*
X187120700Y-42071120D01*
X191262000Y-39370000D02*
X191897000Y-38735000D01*
X190627000Y-39370000D02*
X191262000Y-39370000D01*
X192214500Y-32635000D02*
X192214500Y-31750000D01*
X191897000Y-38543000D02*
X193411999Y-37028001D01*
X191897000Y-38735000D02*
X191897000Y-38543000D01*
X193411999Y-37028001D02*
X193744501Y-37028001D01*
X193744501Y-37028001D02*
X193809501Y-36963001D01*
X193809501Y-36963001D02*
X193809501Y-34230001D01*
X193809501Y-34230001D02*
X192214500Y-32635000D01*
X187027820Y-42164000D02*
X187045600Y-42146220D01*
X185547000Y-42164000D02*
X187027820Y-42164000D01*
X190500000Y-67818000D02*
X178181000Y-55499000D01*
X190500000Y-79375000D02*
X190500000Y-67818000D01*
D42*
X201106000Y-54530000D02*
X200908000Y-54728000D01*
X203454000Y-54530000D02*
X201106000Y-54530000D01*
X206550000Y-59690000D02*
X206550000Y-59230000D01*
X206550000Y-59230000D02*
X205486000Y-58166000D01*
X205486000Y-56562000D02*
X203454000Y-54530000D01*
X205486000Y-58166000D02*
X205486000Y-56562000D01*
D43*
X163963000Y-70485000D02*
X164973000Y-69475000D01*
X158623000Y-70485000D02*
X163963000Y-70485000D01*
X163963000Y-48895000D02*
X164973000Y-47885000D01*
X158623000Y-48895000D02*
X163963000Y-48895000D01*
D41*
X185860500Y-73025000D02*
X184785000Y-73025000D01*
X185935501Y-72949999D02*
X185860500Y-73025000D01*
X185935501Y-67631001D02*
X185935501Y-72949999D01*
X184785000Y-65405000D02*
X184785000Y-66480500D01*
X184785000Y-66480500D02*
X185935501Y-67631001D01*
X184785000Y-73025000D02*
X184785000Y-76327000D01*
X184785000Y-76327000D02*
X183515000Y-77597000D01*
X183515000Y-77597000D02*
X183515000Y-79375000D01*
X179871001Y-53808999D02*
X180721000Y-52959000D01*
X177575400Y-44543980D02*
X177005999Y-45113381D01*
X178460400Y-44543980D02*
X177575400Y-44543980D01*
X177005999Y-53523001D02*
X177616999Y-54134001D01*
X177005999Y-45113381D02*
X177005999Y-53523001D01*
X177616999Y-54134001D02*
X179545999Y-54134001D01*
X179545999Y-54134001D02*
X179871001Y-53808999D01*
X184785000Y-64329500D02*
X184785000Y-65405000D01*
X177005999Y-53523001D02*
X177005999Y-56550499D01*
X177005999Y-56550499D02*
X184785000Y-64329500D01*
X181229000Y-53467000D02*
X180721000Y-52959000D01*
X183642000Y-53467000D02*
X181229000Y-53467000D01*
X164338000Y-38632433D02*
X168000000Y-42294433D01*
X164338000Y-37465000D02*
X164338000Y-38632433D01*
X168000000Y-43032000D02*
X171323000Y-46355000D01*
X168000000Y-42294433D02*
X168000000Y-43032000D01*
X165163499Y-35115499D02*
X164338000Y-34290000D01*
X165727499Y-35679499D02*
X165163499Y-35115499D01*
X171323000Y-43815000D02*
X165727499Y-38219499D01*
X165727499Y-38219499D02*
X165727499Y-35679499D01*
X170000000Y-41000000D02*
X171048000Y-41000000D01*
X168000000Y-39000000D02*
X170000000Y-41000000D01*
X164338000Y-31115000D02*
X166362499Y-33139499D01*
X171048000Y-41000000D02*
X171323000Y-41275000D01*
X167430241Y-33139499D02*
X168028501Y-33737759D01*
X168028501Y-33737759D02*
X168028501Y-38017241D01*
X166362499Y-33139499D02*
X167430241Y-33139499D01*
X168028501Y-38017241D02*
X168000000Y-38045742D01*
X168000000Y-38045742D02*
X168000000Y-39000000D01*
X177575400Y-39745920D02*
X174371000Y-36541520D01*
X178460400Y-39745920D02*
X177575400Y-39745920D01*
X174371000Y-34163000D02*
X171323000Y-31115000D01*
X174371000Y-36541520D02*
X174371000Y-34163000D01*
X180562883Y-40349001D02*
X185557519Y-40349001D01*
X186160600Y-39745920D02*
X187045600Y-39745920D01*
X177419000Y-38862000D02*
X179075882Y-38862000D01*
X185557519Y-40349001D02*
X186160600Y-39745920D01*
X174821010Y-36264010D02*
X177419000Y-38862000D01*
X170172499Y-32504499D02*
X170172499Y-30562759D01*
X170172499Y-30562759D02*
X170770759Y-29964499D01*
X170770759Y-29964499D02*
X171875241Y-29964499D01*
X171875241Y-29964499D02*
X174821010Y-32910268D01*
X179075882Y-38862000D02*
X180562883Y-40349001D01*
X171323000Y-33655000D02*
X170172499Y-32504499D01*
X174821010Y-32910268D02*
X174821010Y-36264010D01*
X178460400Y-42146220D02*
X173880780Y-42146220D01*
X172398500Y-48895000D02*
X171323000Y-48895000D01*
X172923511Y-48369989D02*
X172398500Y-48895000D01*
X173880780Y-42146220D02*
X172923511Y-43103489D01*
X172923511Y-43103489D02*
X172923511Y-48369989D01*
D42*
X158623000Y-36195000D02*
X155321000Y-36195000D01*
X155321000Y-36195000D02*
X150241000Y-36195000D01*
X150241000Y-38735000D02*
X155321000Y-38735000D01*
X155321000Y-38735000D02*
X158623000Y-38735000D01*
X158623000Y-41275000D02*
X155321000Y-41275000D01*
X155321000Y-41275000D02*
X150241000Y-41275000D01*
X150241000Y-43815000D02*
X155321000Y-43815000D01*
X155321000Y-43815000D02*
X158623000Y-43815000D01*
D41*
X171323000Y-67945000D02*
X169000000Y-65622000D01*
X169000000Y-63717000D02*
X164338000Y-59055000D01*
X169000000Y-65622000D02*
X169000000Y-63717000D01*
X165163499Y-56705499D02*
X164338000Y-55880000D01*
X165727499Y-57269499D02*
X165163499Y-56705499D01*
X165727499Y-59607241D02*
X165727499Y-57269499D01*
X170172499Y-64052241D02*
X165727499Y-59607241D01*
X171323000Y-65405000D02*
X170172499Y-64254499D01*
X170172499Y-64254499D02*
X170172499Y-64052241D01*
X168028501Y-55327759D02*
X168028501Y-59971499D01*
X166556243Y-53855501D02*
X168028501Y-55327759D01*
X164338000Y-52705000D02*
X165488501Y-53855501D01*
X165488501Y-53855501D02*
X166556243Y-53855501D01*
X168028501Y-59971499D02*
X168000000Y-60000000D01*
X168000000Y-60000000D02*
X168000000Y-61000000D01*
X168000000Y-61000000D02*
X169000000Y-62000000D01*
X170458000Y-62000000D02*
X171323000Y-62865000D01*
X169000000Y-62000000D02*
X170458000Y-62000000D01*
X185552080Y-38252400D02*
X185552080Y-39110920D01*
X185552080Y-39110920D02*
X185039000Y-39624000D01*
X177575400Y-40546020D02*
X177542380Y-40513000D01*
X178460400Y-40546020D02*
X177575400Y-40546020D01*
X177542380Y-40513000D02*
X174498000Y-40513000D01*
X170497501Y-51879501D02*
X171323000Y-52705000D01*
X170172499Y-51554499D02*
X170497501Y-51879501D01*
X172473501Y-42537499D02*
X172473501Y-46907241D01*
X172473501Y-46907241D02*
X171636243Y-47744499D01*
X174498000Y-40513000D02*
X172473501Y-42537499D01*
X171636243Y-47744499D02*
X170237499Y-47744499D01*
X170237499Y-47744499D02*
X170172499Y-47809499D01*
X170172499Y-47809499D02*
X170172499Y-51554499D01*
D42*
X158623000Y-65405000D02*
X155321000Y-65405000D01*
X155321000Y-65405000D02*
X150241000Y-65405000D01*
X150241000Y-62865000D02*
X155321000Y-62865000D01*
X155321000Y-62865000D02*
X158623000Y-62865000D01*
X158623000Y-60325000D02*
X155321000Y-60325000D01*
X155321000Y-60325000D02*
X150241000Y-60325000D01*
X150241000Y-57785000D02*
X155321000Y-57785000D01*
X155321000Y-57785000D02*
X158623000Y-57785000D01*
D41*
X207645000Y-34798000D02*
X207645000Y-33147000D01*
X193988500Y-44069000D02*
X193294000Y-44069000D01*
X196877940Y-45170280D02*
X195776660Y-44069000D01*
X196877940Y-46169580D02*
X196877940Y-45170280D01*
X194310000Y-43561000D02*
X194564000Y-43307000D01*
X194310000Y-44069000D02*
X194310000Y-43561000D01*
X194310000Y-44069000D02*
X193988500Y-44069000D01*
X195776660Y-44069000D02*
X194310000Y-44069000D01*
X207645000Y-36953000D02*
X207645000Y-36322000D01*
X201291000Y-43307000D02*
X207645000Y-36953000D01*
X196977000Y-43307000D02*
X201291000Y-43307000D01*
X193988500Y-42545000D02*
X193294000Y-42545000D01*
X194902900Y-42545000D02*
X193988500Y-42545000D01*
X197528180Y-45170280D02*
X194902900Y-42545000D01*
X197528180Y-46169580D02*
X197528180Y-45170280D01*
X193294000Y-42545000D02*
X201041000Y-42545000D01*
X205105000Y-38481000D02*
X205105000Y-36322000D01*
X201041000Y-42545000D02*
X205105000Y-38481000D01*
X205105000Y-33147000D02*
X205105000Y-34798000D01*
X195580000Y-79375000D02*
X195580000Y-71755000D01*
X184751980Y-60926980D02*
X184751980Y-46837600D01*
X195580000Y-71755000D02*
X184751980Y-60926980D01*
X185552080Y-47722600D02*
X185552080Y-46837600D01*
X185552080Y-61012080D02*
X185552080Y-47722600D01*
X202565000Y-79375000D02*
X202565000Y-78025000D01*
X202565000Y-78025000D02*
X185552080Y-61012080D01*
X207214002Y-79375000D02*
X203785002Y-75946000D01*
X207645000Y-79375000D02*
X207214002Y-79375000D01*
X203785002Y-75946000D02*
X201803000Y-75946000D01*
X187045600Y-61188600D02*
X187045600Y-45344080D01*
X201803000Y-75946000D02*
X187045600Y-61188600D01*
X178460400Y-42943780D02*
X174244741Y-42943780D01*
X174244741Y-42943780D02*
X173373521Y-43815000D01*
X173373521Y-70670481D02*
X171654002Y-72390000D01*
X173373521Y-43815000D02*
X173373521Y-70670481D01*
X171654002Y-72390000D02*
X155575000Y-72390000D01*
X154305000Y-73660000D02*
X154305000Y-79375000D01*
X155575000Y-72390000D02*
X154305000Y-73660000D01*
X159385000Y-74549000D02*
X159385000Y-79375000D01*
X178460400Y-43743880D02*
X174442120Y-43743880D01*
X173863000Y-44323000D02*
X173863000Y-70817412D01*
X173863000Y-70817412D02*
X171782412Y-72898000D01*
X174442120Y-43743880D02*
X173863000Y-44323000D01*
X171782412Y-72898000D02*
X161036000Y-72898000D01*
X161036000Y-72898000D02*
X159385000Y-74549000D01*
X178460400Y-50139600D02*
X178181000Y-50419000D01*
X178460400Y-45344080D02*
X178460400Y-50139600D01*
X179030999Y-52109001D02*
X178181000Y-52959000D01*
X179356001Y-51783999D02*
X179030999Y-52109001D01*
X179356001Y-50005999D02*
X179356001Y-51783999D01*
X179953920Y-46837600D02*
X179953920Y-49408080D01*
X179953920Y-49408080D02*
X179356001Y-50005999D01*
X191000499Y-43993999D02*
X191000499Y-43106409D01*
X191770000Y-44069000D02*
X191075500Y-44069000D01*
X191075500Y-44069000D02*
X191000499Y-43993999D01*
X189240210Y-41346120D02*
X187045600Y-41346120D01*
X191000499Y-43106409D02*
X189240210Y-41346120D01*
X187930600Y-40546020D02*
X187045600Y-40546020D01*
X189076520Y-40546020D02*
X187930600Y-40546020D01*
X191075500Y-42545000D02*
X189076520Y-40546020D01*
X191770000Y-42545000D02*
X191075500Y-42545000D01*
X210185000Y-33147000D02*
X210185000Y-34798000D01*
X198823580Y-37921120D02*
X198823580Y-38920420D01*
X198748579Y-37846119D02*
X198823580Y-37921120D01*
X194372881Y-37846119D02*
X198748579Y-37846119D01*
X193676000Y-38735000D02*
X193676000Y-38543000D01*
X193676000Y-38543000D02*
X194372881Y-37846119D01*
X198823580Y-45170280D02*
X198823580Y-46169580D01*
X199348591Y-44645269D02*
X198823580Y-45170280D01*
X201999679Y-44645269D02*
X199348591Y-44645269D01*
X202630409Y-45275999D02*
X201999679Y-44645269D01*
X206446999Y-45275999D02*
X202630409Y-45275999D01*
X207486000Y-46315000D02*
X206446999Y-45275999D01*
X199664669Y-45095279D02*
X201813279Y-45095279D01*
X199473820Y-46169580D02*
X199473820Y-45286128D01*
X199473820Y-45286128D02*
X199664669Y-45095279D01*
X203033000Y-46315000D02*
X205486000Y-46315000D01*
X201813279Y-45095279D02*
X203033000Y-46315000D01*
M02*
