G04 #@! TF.GenerationSoftware,KiCad,Pcbnew,(5.1.2)-2*
G04 #@! TF.CreationDate,2019-08-13T21:45:23-04:00*
G04 #@! TF.ProjectId,Controller,436f6e74-726f-46c6-9c65-722e6b696361,rev?*
G04 #@! TF.SameCoordinates,Original*
G04 #@! TF.FileFunction,Soldermask,Bot*
G04 #@! TF.FilePolarity,Negative*
%FSLAX46Y46*%
G04 Gerber Fmt 4.6, Leading zero omitted, Abs format (unit mm)*
G04 Created by KiCad (PCBNEW (5.1.2)-2) date 2019-08-13 21:45:23*
%MOMM*%
%LPD*%
G04 APERTURE LIST*
%ADD10C,0.100000*%
G04 APERTURE END LIST*
D10*
G36*
X217494098Y-79297033D02*
G01*
X217956013Y-79488364D01*
X217958352Y-79489333D01*
X218376168Y-79768509D01*
X218731491Y-80123832D01*
X218970656Y-80481768D01*
X219010668Y-80541650D01*
X219202967Y-81005902D01*
X219301000Y-81498747D01*
X219301000Y-82001253D01*
X219202967Y-82494098D01*
X219010668Y-82958350D01*
X219010667Y-82958352D01*
X218731491Y-83376168D01*
X218376168Y-83731491D01*
X217958352Y-84010667D01*
X217958351Y-84010668D01*
X217958350Y-84010668D01*
X217494098Y-84202967D01*
X217001253Y-84301000D01*
X216498747Y-84301000D01*
X216005902Y-84202967D01*
X215541650Y-84010668D01*
X215541649Y-84010668D01*
X215541648Y-84010667D01*
X215123832Y-83731491D01*
X214768509Y-83376168D01*
X214489333Y-82958352D01*
X214489332Y-82958350D01*
X214297033Y-82494098D01*
X214199000Y-82001253D01*
X214199000Y-81498747D01*
X214297033Y-81005902D01*
X214489332Y-80541650D01*
X214529344Y-80481768D01*
X214768509Y-80123832D01*
X215123832Y-79768509D01*
X215541648Y-79489333D01*
X215543987Y-79488364D01*
X216005902Y-79297033D01*
X216498747Y-79199000D01*
X217001253Y-79199000D01*
X217494098Y-79297033D01*
X217494098Y-79297033D01*
G37*
G36*
X148994098Y-79297033D02*
G01*
X149456013Y-79488364D01*
X149458352Y-79489333D01*
X149876168Y-79768509D01*
X150231491Y-80123832D01*
X150470656Y-80481768D01*
X150510668Y-80541650D01*
X150702967Y-81005902D01*
X150801000Y-81498747D01*
X150801000Y-82001253D01*
X150702967Y-82494098D01*
X150510668Y-82958350D01*
X150510667Y-82958352D01*
X150231491Y-83376168D01*
X149876168Y-83731491D01*
X149458352Y-84010667D01*
X149458351Y-84010668D01*
X149458350Y-84010668D01*
X148994098Y-84202967D01*
X148501253Y-84301000D01*
X147998747Y-84301000D01*
X147505902Y-84202967D01*
X147041650Y-84010668D01*
X147041649Y-84010668D01*
X147041648Y-84010667D01*
X146623832Y-83731491D01*
X146268509Y-83376168D01*
X145989333Y-82958352D01*
X145989332Y-82958350D01*
X145797033Y-82494098D01*
X145699000Y-82001253D01*
X145699000Y-81498747D01*
X145797033Y-81005902D01*
X145989332Y-80541650D01*
X146029344Y-80481768D01*
X146268509Y-80123832D01*
X146623832Y-79768509D01*
X147041648Y-79489333D01*
X147043987Y-79488364D01*
X147505902Y-79297033D01*
X147998747Y-79199000D01*
X148501253Y-79199000D01*
X148994098Y-79297033D01*
X148994098Y-79297033D01*
G37*
G36*
X167521000Y-79189007D02*
G01*
X167523402Y-79213393D01*
X167530515Y-79236842D01*
X167542066Y-79258453D01*
X167557611Y-79277395D01*
X167576553Y-79292940D01*
X167598164Y-79304491D01*
X167621613Y-79311604D01*
X167645999Y-79314006D01*
X167670385Y-79311604D01*
X167693834Y-79304491D01*
X167715445Y-79292940D01*
X167734387Y-79277395D01*
X167749932Y-79258453D01*
X167761483Y-79236842D01*
X167768596Y-79213393D01*
X167803232Y-79039267D01*
X167889996Y-78829799D01*
X167889997Y-78829797D01*
X168015960Y-78641280D01*
X168176280Y-78480960D01*
X168364797Y-78354997D01*
X168574266Y-78268232D01*
X168685451Y-78246116D01*
X168796635Y-78224000D01*
X169023365Y-78224000D01*
X169134549Y-78246116D01*
X169245734Y-78268232D01*
X169455203Y-78354997D01*
X169643720Y-78480960D01*
X169804040Y-78641280D01*
X169930003Y-78829797D01*
X169930004Y-78829799D01*
X170016768Y-79039267D01*
X170057403Y-79243552D01*
X170064516Y-79267001D01*
X170076067Y-79288612D01*
X170091612Y-79307554D01*
X170110554Y-79323099D01*
X170132165Y-79334650D01*
X170155614Y-79341763D01*
X170180000Y-79344165D01*
X170204386Y-79341763D01*
X170227835Y-79334650D01*
X170249446Y-79323099D01*
X170268388Y-79307554D01*
X170283933Y-79288612D01*
X170295484Y-79267001D01*
X170302597Y-79243552D01*
X170343232Y-79039267D01*
X170429996Y-78829799D01*
X170429997Y-78829797D01*
X170555960Y-78641280D01*
X170716280Y-78480960D01*
X170904797Y-78354997D01*
X171114266Y-78268232D01*
X171225451Y-78246116D01*
X171336635Y-78224000D01*
X171563365Y-78224000D01*
X171674549Y-78246116D01*
X171785734Y-78268232D01*
X171995203Y-78354997D01*
X172183720Y-78480960D01*
X172344040Y-78641280D01*
X172470003Y-78829797D01*
X172470004Y-78829799D01*
X172556768Y-79039267D01*
X172597403Y-79243552D01*
X172604516Y-79267001D01*
X172616067Y-79288612D01*
X172631612Y-79307554D01*
X172650554Y-79323099D01*
X172672165Y-79334650D01*
X172695614Y-79341763D01*
X172720000Y-79344165D01*
X172744386Y-79341763D01*
X172767835Y-79334650D01*
X172789446Y-79323099D01*
X172808388Y-79307554D01*
X172823933Y-79288612D01*
X172835484Y-79267001D01*
X172842597Y-79243552D01*
X172883232Y-79039267D01*
X172969996Y-78829799D01*
X172969997Y-78829797D01*
X173095960Y-78641280D01*
X173256280Y-78480960D01*
X173444797Y-78354997D01*
X173654266Y-78268232D01*
X173765451Y-78246116D01*
X173876635Y-78224000D01*
X174103365Y-78224000D01*
X174214549Y-78246116D01*
X174325734Y-78268232D01*
X174535203Y-78354997D01*
X174723720Y-78480960D01*
X174884040Y-78641280D01*
X175010003Y-78829797D01*
X175010004Y-78829799D01*
X175096768Y-79039267D01*
X175141000Y-79261635D01*
X175141000Y-79488365D01*
X175140807Y-79489333D01*
X175096768Y-79710734D01*
X175010003Y-79920203D01*
X174884040Y-80108720D01*
X174723720Y-80269040D01*
X174535203Y-80395003D01*
X174325734Y-80481768D01*
X174214549Y-80503884D01*
X174103365Y-80526000D01*
X173876635Y-80526000D01*
X173765451Y-80503884D01*
X173654266Y-80481768D01*
X173444797Y-80395003D01*
X173256280Y-80269040D01*
X173095960Y-80108720D01*
X172969997Y-79920203D01*
X172883232Y-79710734D01*
X172842597Y-79506448D01*
X172835484Y-79482999D01*
X172823933Y-79461388D01*
X172808388Y-79442446D01*
X172789446Y-79426901D01*
X172767835Y-79415350D01*
X172744386Y-79408237D01*
X172720000Y-79405835D01*
X172695614Y-79408237D01*
X172672165Y-79415350D01*
X172650554Y-79426901D01*
X172631612Y-79442446D01*
X172616067Y-79461388D01*
X172604516Y-79482999D01*
X172597403Y-79506448D01*
X172556768Y-79710734D01*
X172470003Y-79920203D01*
X172344040Y-80108720D01*
X172183720Y-80269040D01*
X171995203Y-80395003D01*
X171785734Y-80481768D01*
X171674549Y-80503884D01*
X171563365Y-80526000D01*
X171336635Y-80526000D01*
X171225451Y-80503884D01*
X171114266Y-80481768D01*
X170904797Y-80395003D01*
X170716280Y-80269040D01*
X170555960Y-80108720D01*
X170429997Y-79920203D01*
X170343232Y-79710734D01*
X170302597Y-79506448D01*
X170295484Y-79482999D01*
X170283933Y-79461388D01*
X170268388Y-79442446D01*
X170249446Y-79426901D01*
X170227835Y-79415350D01*
X170204386Y-79408237D01*
X170180000Y-79405835D01*
X170155614Y-79408237D01*
X170132165Y-79415350D01*
X170110554Y-79426901D01*
X170091612Y-79442446D01*
X170076067Y-79461388D01*
X170064516Y-79482999D01*
X170057403Y-79506448D01*
X170016768Y-79710734D01*
X169930003Y-79920203D01*
X169804040Y-80108720D01*
X169643720Y-80269040D01*
X169455203Y-80395003D01*
X169245734Y-80481768D01*
X169134549Y-80503884D01*
X169023365Y-80526000D01*
X168796635Y-80526000D01*
X168685451Y-80503884D01*
X168574266Y-80481768D01*
X168364797Y-80395003D01*
X168176280Y-80269040D01*
X168015960Y-80108720D01*
X167889997Y-79920203D01*
X167803232Y-79710734D01*
X167768596Y-79536607D01*
X167761483Y-79513158D01*
X167749932Y-79491547D01*
X167734387Y-79472605D01*
X167715445Y-79457060D01*
X167693834Y-79445509D01*
X167670385Y-79438396D01*
X167645999Y-79435994D01*
X167621613Y-79438396D01*
X167598164Y-79445509D01*
X167576553Y-79457060D01*
X167557611Y-79472605D01*
X167542066Y-79491547D01*
X167530515Y-79513158D01*
X167523402Y-79536607D01*
X167521000Y-79560993D01*
X167521000Y-80526000D01*
X165219000Y-80526000D01*
X165219000Y-78224000D01*
X167521000Y-78224000D01*
X167521000Y-79189007D01*
X167521000Y-79189007D01*
G37*
G36*
X191651000Y-79189007D02*
G01*
X191653402Y-79213393D01*
X191660515Y-79236842D01*
X191672066Y-79258453D01*
X191687611Y-79277395D01*
X191706553Y-79292940D01*
X191728164Y-79304491D01*
X191751613Y-79311604D01*
X191775999Y-79314006D01*
X191800385Y-79311604D01*
X191823834Y-79304491D01*
X191845445Y-79292940D01*
X191864387Y-79277395D01*
X191879932Y-79258453D01*
X191891483Y-79236842D01*
X191898596Y-79213393D01*
X191933232Y-79039267D01*
X192019996Y-78829799D01*
X192019997Y-78829797D01*
X192145960Y-78641280D01*
X192306280Y-78480960D01*
X192494797Y-78354997D01*
X192704266Y-78268232D01*
X192815451Y-78246116D01*
X192926635Y-78224000D01*
X193153365Y-78224000D01*
X193264549Y-78246116D01*
X193375734Y-78268232D01*
X193585203Y-78354997D01*
X193773720Y-78480960D01*
X193934040Y-78641280D01*
X194060003Y-78829797D01*
X194060004Y-78829799D01*
X194146768Y-79039267D01*
X194187403Y-79243552D01*
X194194516Y-79267001D01*
X194206067Y-79288612D01*
X194221612Y-79307554D01*
X194240554Y-79323099D01*
X194262165Y-79334650D01*
X194285614Y-79341763D01*
X194310000Y-79344165D01*
X194334386Y-79341763D01*
X194357835Y-79334650D01*
X194379446Y-79323099D01*
X194398388Y-79307554D01*
X194413933Y-79288612D01*
X194425484Y-79267001D01*
X194432597Y-79243552D01*
X194473232Y-79039267D01*
X194559996Y-78829799D01*
X194559997Y-78829797D01*
X194685960Y-78641280D01*
X194846280Y-78480960D01*
X195034797Y-78354997D01*
X195244266Y-78268232D01*
X195355451Y-78246116D01*
X195466635Y-78224000D01*
X195693365Y-78224000D01*
X195804549Y-78246116D01*
X195915734Y-78268232D01*
X196125203Y-78354997D01*
X196313720Y-78480960D01*
X196474040Y-78641280D01*
X196600003Y-78829797D01*
X196600004Y-78829799D01*
X196686768Y-79039267D01*
X196727403Y-79243552D01*
X196734516Y-79267001D01*
X196746067Y-79288612D01*
X196761612Y-79307554D01*
X196780554Y-79323099D01*
X196802165Y-79334650D01*
X196825614Y-79341763D01*
X196850000Y-79344165D01*
X196874386Y-79341763D01*
X196897835Y-79334650D01*
X196919446Y-79323099D01*
X196938388Y-79307554D01*
X196953933Y-79288612D01*
X196965484Y-79267001D01*
X196972597Y-79243552D01*
X197013232Y-79039267D01*
X197099996Y-78829799D01*
X197099997Y-78829797D01*
X197225960Y-78641280D01*
X197386280Y-78480960D01*
X197574797Y-78354997D01*
X197784266Y-78268232D01*
X197895451Y-78246116D01*
X198006635Y-78224000D01*
X198233365Y-78224000D01*
X198344549Y-78246116D01*
X198455734Y-78268232D01*
X198665203Y-78354997D01*
X198853720Y-78480960D01*
X199014040Y-78641280D01*
X199140003Y-78829797D01*
X199140004Y-78829799D01*
X199226768Y-79039267D01*
X199271000Y-79261635D01*
X199271000Y-79488365D01*
X199270807Y-79489333D01*
X199226768Y-79710734D01*
X199140003Y-79920203D01*
X199014040Y-80108720D01*
X198853720Y-80269040D01*
X198665203Y-80395003D01*
X198455734Y-80481768D01*
X198344549Y-80503884D01*
X198233365Y-80526000D01*
X198006635Y-80526000D01*
X197895451Y-80503884D01*
X197784266Y-80481768D01*
X197574797Y-80395003D01*
X197386280Y-80269040D01*
X197225960Y-80108720D01*
X197099997Y-79920203D01*
X197013232Y-79710734D01*
X196972597Y-79506448D01*
X196965484Y-79482999D01*
X196953933Y-79461388D01*
X196938388Y-79442446D01*
X196919446Y-79426901D01*
X196897835Y-79415350D01*
X196874386Y-79408237D01*
X196850000Y-79405835D01*
X196825614Y-79408237D01*
X196802165Y-79415350D01*
X196780554Y-79426901D01*
X196761612Y-79442446D01*
X196746067Y-79461388D01*
X196734516Y-79482999D01*
X196727403Y-79506448D01*
X196686768Y-79710734D01*
X196600003Y-79920203D01*
X196474040Y-80108720D01*
X196313720Y-80269040D01*
X196125203Y-80395003D01*
X195915734Y-80481768D01*
X195804549Y-80503884D01*
X195693365Y-80526000D01*
X195466635Y-80526000D01*
X195355451Y-80503884D01*
X195244266Y-80481768D01*
X195034797Y-80395003D01*
X194846280Y-80269040D01*
X194685960Y-80108720D01*
X194559997Y-79920203D01*
X194473232Y-79710734D01*
X194432597Y-79506448D01*
X194425484Y-79482999D01*
X194413933Y-79461388D01*
X194398388Y-79442446D01*
X194379446Y-79426901D01*
X194357835Y-79415350D01*
X194334386Y-79408237D01*
X194310000Y-79405835D01*
X194285614Y-79408237D01*
X194262165Y-79415350D01*
X194240554Y-79426901D01*
X194221612Y-79442446D01*
X194206067Y-79461388D01*
X194194516Y-79482999D01*
X194187403Y-79506448D01*
X194146768Y-79710734D01*
X194060003Y-79920203D01*
X193934040Y-80108720D01*
X193773720Y-80269040D01*
X193585203Y-80395003D01*
X193375734Y-80481768D01*
X193264549Y-80503884D01*
X193153365Y-80526000D01*
X192926635Y-80526000D01*
X192815451Y-80503884D01*
X192704266Y-80481768D01*
X192494797Y-80395003D01*
X192306280Y-80269040D01*
X192145960Y-80108720D01*
X192019997Y-79920203D01*
X191933232Y-79710734D01*
X191898596Y-79536607D01*
X191891483Y-79513158D01*
X191879932Y-79491547D01*
X191864387Y-79472605D01*
X191845445Y-79457060D01*
X191823834Y-79445509D01*
X191800385Y-79438396D01*
X191775999Y-79435994D01*
X191751613Y-79438396D01*
X191728164Y-79445509D01*
X191706553Y-79457060D01*
X191687611Y-79472605D01*
X191672066Y-79491547D01*
X191660515Y-79513158D01*
X191653402Y-79536607D01*
X191651000Y-79560993D01*
X191651000Y-80526000D01*
X189349000Y-80526000D01*
X189349000Y-78224000D01*
X191651000Y-78224000D01*
X191651000Y-79189007D01*
X191651000Y-79189007D01*
G37*
G36*
X203716000Y-79189007D02*
G01*
X203718402Y-79213393D01*
X203725515Y-79236842D01*
X203737066Y-79258453D01*
X203752611Y-79277395D01*
X203771553Y-79292940D01*
X203793164Y-79304491D01*
X203816613Y-79311604D01*
X203840999Y-79314006D01*
X203865385Y-79311604D01*
X203888834Y-79304491D01*
X203910445Y-79292940D01*
X203929387Y-79277395D01*
X203944932Y-79258453D01*
X203956483Y-79236842D01*
X203963596Y-79213393D01*
X203998232Y-79039267D01*
X204084996Y-78829799D01*
X204084997Y-78829797D01*
X204210960Y-78641280D01*
X204371280Y-78480960D01*
X204559797Y-78354997D01*
X204769266Y-78268232D01*
X204880451Y-78246116D01*
X204991635Y-78224000D01*
X205218365Y-78224000D01*
X205329549Y-78246116D01*
X205440734Y-78268232D01*
X205650203Y-78354997D01*
X205838720Y-78480960D01*
X205999040Y-78641280D01*
X206125003Y-78829797D01*
X206125004Y-78829799D01*
X206211768Y-79039267D01*
X206252403Y-79243552D01*
X206259516Y-79267001D01*
X206271067Y-79288612D01*
X206286612Y-79307554D01*
X206305554Y-79323099D01*
X206327165Y-79334650D01*
X206350614Y-79341763D01*
X206375000Y-79344165D01*
X206399386Y-79341763D01*
X206422835Y-79334650D01*
X206444446Y-79323099D01*
X206463388Y-79307554D01*
X206478933Y-79288612D01*
X206490484Y-79267001D01*
X206497597Y-79243552D01*
X206538232Y-79039267D01*
X206624996Y-78829799D01*
X206624997Y-78829797D01*
X206750960Y-78641280D01*
X206911280Y-78480960D01*
X207099797Y-78354997D01*
X207309266Y-78268232D01*
X207420451Y-78246116D01*
X207531635Y-78224000D01*
X207758365Y-78224000D01*
X207869549Y-78246116D01*
X207980734Y-78268232D01*
X208190203Y-78354997D01*
X208378720Y-78480960D01*
X208539040Y-78641280D01*
X208665003Y-78829797D01*
X208665004Y-78829799D01*
X208751768Y-79039267D01*
X208792403Y-79243552D01*
X208799516Y-79267001D01*
X208811067Y-79288612D01*
X208826612Y-79307554D01*
X208845554Y-79323099D01*
X208867165Y-79334650D01*
X208890614Y-79341763D01*
X208915000Y-79344165D01*
X208939386Y-79341763D01*
X208962835Y-79334650D01*
X208984446Y-79323099D01*
X209003388Y-79307554D01*
X209018933Y-79288612D01*
X209030484Y-79267001D01*
X209037597Y-79243552D01*
X209078232Y-79039267D01*
X209164996Y-78829799D01*
X209164997Y-78829797D01*
X209290960Y-78641280D01*
X209451280Y-78480960D01*
X209639797Y-78354997D01*
X209849266Y-78268232D01*
X209960451Y-78246116D01*
X210071635Y-78224000D01*
X210298365Y-78224000D01*
X210409549Y-78246116D01*
X210520734Y-78268232D01*
X210730203Y-78354997D01*
X210918720Y-78480960D01*
X211079040Y-78641280D01*
X211205003Y-78829797D01*
X211205004Y-78829799D01*
X211291768Y-79039267D01*
X211336000Y-79261635D01*
X211336000Y-79488365D01*
X211335807Y-79489333D01*
X211291768Y-79710734D01*
X211205003Y-79920203D01*
X211079040Y-80108720D01*
X210918720Y-80269040D01*
X210730203Y-80395003D01*
X210520734Y-80481768D01*
X210409549Y-80503884D01*
X210298365Y-80526000D01*
X210071635Y-80526000D01*
X209960451Y-80503884D01*
X209849266Y-80481768D01*
X209639797Y-80395003D01*
X209451280Y-80269040D01*
X209290960Y-80108720D01*
X209164997Y-79920203D01*
X209078232Y-79710734D01*
X209037597Y-79506448D01*
X209030484Y-79482999D01*
X209018933Y-79461388D01*
X209003388Y-79442446D01*
X208984446Y-79426901D01*
X208962835Y-79415350D01*
X208939386Y-79408237D01*
X208915000Y-79405835D01*
X208890614Y-79408237D01*
X208867165Y-79415350D01*
X208845554Y-79426901D01*
X208826612Y-79442446D01*
X208811067Y-79461388D01*
X208799516Y-79482999D01*
X208792403Y-79506448D01*
X208751768Y-79710734D01*
X208665003Y-79920203D01*
X208539040Y-80108720D01*
X208378720Y-80269040D01*
X208190203Y-80395003D01*
X207980734Y-80481768D01*
X207869549Y-80503884D01*
X207758365Y-80526000D01*
X207531635Y-80526000D01*
X207420451Y-80503884D01*
X207309266Y-80481768D01*
X207099797Y-80395003D01*
X206911280Y-80269040D01*
X206750960Y-80108720D01*
X206624997Y-79920203D01*
X206538232Y-79710734D01*
X206497597Y-79506448D01*
X206490484Y-79482999D01*
X206478933Y-79461388D01*
X206463388Y-79442446D01*
X206444446Y-79426901D01*
X206422835Y-79415350D01*
X206399386Y-79408237D01*
X206375000Y-79405835D01*
X206350614Y-79408237D01*
X206327165Y-79415350D01*
X206305554Y-79426901D01*
X206286612Y-79442446D01*
X206271067Y-79461388D01*
X206259516Y-79482999D01*
X206252403Y-79506448D01*
X206211768Y-79710734D01*
X206125003Y-79920203D01*
X205999040Y-80108720D01*
X205838720Y-80269040D01*
X205650203Y-80395003D01*
X205440734Y-80481768D01*
X205329549Y-80503884D01*
X205218365Y-80526000D01*
X204991635Y-80526000D01*
X204880451Y-80503884D01*
X204769266Y-80481768D01*
X204559797Y-80395003D01*
X204371280Y-80269040D01*
X204210960Y-80108720D01*
X204084997Y-79920203D01*
X203998232Y-79710734D01*
X203963596Y-79536607D01*
X203956483Y-79513158D01*
X203944932Y-79491547D01*
X203929387Y-79472605D01*
X203910445Y-79457060D01*
X203888834Y-79445509D01*
X203865385Y-79438396D01*
X203840999Y-79435994D01*
X203816613Y-79438396D01*
X203793164Y-79445509D01*
X203771553Y-79457060D01*
X203752611Y-79472605D01*
X203737066Y-79491547D01*
X203725515Y-79513158D01*
X203718402Y-79536607D01*
X203716000Y-79560993D01*
X203716000Y-80526000D01*
X201414000Y-80526000D01*
X201414000Y-78224000D01*
X203716000Y-78224000D01*
X203716000Y-79189007D01*
X203716000Y-79189007D01*
G37*
G36*
X155456000Y-79189007D02*
G01*
X155458402Y-79213393D01*
X155465515Y-79236842D01*
X155477066Y-79258453D01*
X155492611Y-79277395D01*
X155511553Y-79292940D01*
X155533164Y-79304491D01*
X155556613Y-79311604D01*
X155580999Y-79314006D01*
X155605385Y-79311604D01*
X155628834Y-79304491D01*
X155650445Y-79292940D01*
X155669387Y-79277395D01*
X155684932Y-79258453D01*
X155696483Y-79236842D01*
X155703596Y-79213393D01*
X155738232Y-79039267D01*
X155824996Y-78829799D01*
X155824997Y-78829797D01*
X155950960Y-78641280D01*
X156111280Y-78480960D01*
X156299797Y-78354997D01*
X156509266Y-78268232D01*
X156620451Y-78246116D01*
X156731635Y-78224000D01*
X156958365Y-78224000D01*
X157069549Y-78246116D01*
X157180734Y-78268232D01*
X157390203Y-78354997D01*
X157578720Y-78480960D01*
X157739040Y-78641280D01*
X157865003Y-78829797D01*
X157865004Y-78829799D01*
X157951768Y-79039267D01*
X157992403Y-79243552D01*
X157999516Y-79267001D01*
X158011067Y-79288612D01*
X158026612Y-79307554D01*
X158045554Y-79323099D01*
X158067165Y-79334650D01*
X158090614Y-79341763D01*
X158115000Y-79344165D01*
X158139386Y-79341763D01*
X158162835Y-79334650D01*
X158184446Y-79323099D01*
X158203388Y-79307554D01*
X158218933Y-79288612D01*
X158230484Y-79267001D01*
X158237597Y-79243552D01*
X158278232Y-79039267D01*
X158364996Y-78829799D01*
X158364997Y-78829797D01*
X158490960Y-78641280D01*
X158651280Y-78480960D01*
X158839797Y-78354997D01*
X159049266Y-78268232D01*
X159160451Y-78246116D01*
X159271635Y-78224000D01*
X159498365Y-78224000D01*
X159609549Y-78246116D01*
X159720734Y-78268232D01*
X159930203Y-78354997D01*
X160118720Y-78480960D01*
X160279040Y-78641280D01*
X160405003Y-78829797D01*
X160405004Y-78829799D01*
X160491768Y-79039267D01*
X160532403Y-79243552D01*
X160539516Y-79267001D01*
X160551067Y-79288612D01*
X160566612Y-79307554D01*
X160585554Y-79323099D01*
X160607165Y-79334650D01*
X160630614Y-79341763D01*
X160655000Y-79344165D01*
X160679386Y-79341763D01*
X160702835Y-79334650D01*
X160724446Y-79323099D01*
X160743388Y-79307554D01*
X160758933Y-79288612D01*
X160770484Y-79267001D01*
X160777597Y-79243552D01*
X160818232Y-79039267D01*
X160904996Y-78829799D01*
X160904997Y-78829797D01*
X161030960Y-78641280D01*
X161191280Y-78480960D01*
X161379797Y-78354997D01*
X161589266Y-78268232D01*
X161700451Y-78246116D01*
X161811635Y-78224000D01*
X162038365Y-78224000D01*
X162149549Y-78246116D01*
X162260734Y-78268232D01*
X162470203Y-78354997D01*
X162658720Y-78480960D01*
X162819040Y-78641280D01*
X162945003Y-78829797D01*
X162945004Y-78829799D01*
X163031768Y-79039267D01*
X163076000Y-79261635D01*
X163076000Y-79488365D01*
X163075807Y-79489333D01*
X163031768Y-79710734D01*
X162945003Y-79920203D01*
X162819040Y-80108720D01*
X162658720Y-80269040D01*
X162470203Y-80395003D01*
X162260734Y-80481768D01*
X162149549Y-80503884D01*
X162038365Y-80526000D01*
X161811635Y-80526000D01*
X161700451Y-80503884D01*
X161589266Y-80481768D01*
X161379797Y-80395003D01*
X161191280Y-80269040D01*
X161030960Y-80108720D01*
X160904997Y-79920203D01*
X160818232Y-79710734D01*
X160777597Y-79506448D01*
X160770484Y-79482999D01*
X160758933Y-79461388D01*
X160743388Y-79442446D01*
X160724446Y-79426901D01*
X160702835Y-79415350D01*
X160679386Y-79408237D01*
X160655000Y-79405835D01*
X160630614Y-79408237D01*
X160607165Y-79415350D01*
X160585554Y-79426901D01*
X160566612Y-79442446D01*
X160551067Y-79461388D01*
X160539516Y-79482999D01*
X160532403Y-79506448D01*
X160491768Y-79710734D01*
X160405003Y-79920203D01*
X160279040Y-80108720D01*
X160118720Y-80269040D01*
X159930203Y-80395003D01*
X159720734Y-80481768D01*
X159609549Y-80503884D01*
X159498365Y-80526000D01*
X159271635Y-80526000D01*
X159160451Y-80503884D01*
X159049266Y-80481768D01*
X158839797Y-80395003D01*
X158651280Y-80269040D01*
X158490960Y-80108720D01*
X158364997Y-79920203D01*
X158278232Y-79710734D01*
X158237597Y-79506448D01*
X158230484Y-79482999D01*
X158218933Y-79461388D01*
X158203388Y-79442446D01*
X158184446Y-79426901D01*
X158162835Y-79415350D01*
X158139386Y-79408237D01*
X158115000Y-79405835D01*
X158090614Y-79408237D01*
X158067165Y-79415350D01*
X158045554Y-79426901D01*
X158026612Y-79442446D01*
X158011067Y-79461388D01*
X157999516Y-79482999D01*
X157992403Y-79506448D01*
X157951768Y-79710734D01*
X157865003Y-79920203D01*
X157739040Y-80108720D01*
X157578720Y-80269040D01*
X157390203Y-80395003D01*
X157180734Y-80481768D01*
X157069549Y-80503884D01*
X156958365Y-80526000D01*
X156731635Y-80526000D01*
X156620451Y-80503884D01*
X156509266Y-80481768D01*
X156299797Y-80395003D01*
X156111280Y-80269040D01*
X155950960Y-80108720D01*
X155824997Y-79920203D01*
X155738232Y-79710734D01*
X155703596Y-79536607D01*
X155696483Y-79513158D01*
X155684932Y-79491547D01*
X155669387Y-79472605D01*
X155650445Y-79457060D01*
X155628834Y-79445509D01*
X155605385Y-79438396D01*
X155580999Y-79435994D01*
X155556613Y-79438396D01*
X155533164Y-79445509D01*
X155511553Y-79457060D01*
X155492611Y-79472605D01*
X155477066Y-79491547D01*
X155465515Y-79513158D01*
X155458402Y-79536607D01*
X155456000Y-79560993D01*
X155456000Y-80526000D01*
X153154000Y-80526000D01*
X153154000Y-78224000D01*
X155456000Y-78224000D01*
X155456000Y-79189007D01*
X155456000Y-79189007D01*
G37*
G36*
X179586000Y-79189007D02*
G01*
X179588402Y-79213393D01*
X179595515Y-79236842D01*
X179607066Y-79258453D01*
X179622611Y-79277395D01*
X179641553Y-79292940D01*
X179663164Y-79304491D01*
X179686613Y-79311604D01*
X179710999Y-79314006D01*
X179735385Y-79311604D01*
X179758834Y-79304491D01*
X179780445Y-79292940D01*
X179799387Y-79277395D01*
X179814932Y-79258453D01*
X179826483Y-79236842D01*
X179833596Y-79213393D01*
X179868232Y-79039267D01*
X179954996Y-78829799D01*
X179954997Y-78829797D01*
X180080960Y-78641280D01*
X180241280Y-78480960D01*
X180429797Y-78354997D01*
X180639266Y-78268232D01*
X180750451Y-78246116D01*
X180861635Y-78224000D01*
X181088365Y-78224000D01*
X181199549Y-78246116D01*
X181310734Y-78268232D01*
X181520203Y-78354997D01*
X181708720Y-78480960D01*
X181869040Y-78641280D01*
X181995003Y-78829797D01*
X181995004Y-78829799D01*
X182081768Y-79039267D01*
X182122403Y-79243552D01*
X182129516Y-79267001D01*
X182141067Y-79288612D01*
X182156612Y-79307554D01*
X182175554Y-79323099D01*
X182197165Y-79334650D01*
X182220614Y-79341763D01*
X182245000Y-79344165D01*
X182269386Y-79341763D01*
X182292835Y-79334650D01*
X182314446Y-79323099D01*
X182333388Y-79307554D01*
X182348933Y-79288612D01*
X182360484Y-79267001D01*
X182367597Y-79243552D01*
X182408232Y-79039267D01*
X182494996Y-78829799D01*
X182494997Y-78829797D01*
X182620960Y-78641280D01*
X182781280Y-78480960D01*
X182969797Y-78354997D01*
X183179266Y-78268232D01*
X183290451Y-78246116D01*
X183401635Y-78224000D01*
X183628365Y-78224000D01*
X183739549Y-78246116D01*
X183850734Y-78268232D01*
X184060203Y-78354997D01*
X184248720Y-78480960D01*
X184409040Y-78641280D01*
X184535003Y-78829797D01*
X184535004Y-78829799D01*
X184621768Y-79039267D01*
X184662403Y-79243552D01*
X184669516Y-79267001D01*
X184681067Y-79288612D01*
X184696612Y-79307554D01*
X184715554Y-79323099D01*
X184737165Y-79334650D01*
X184760614Y-79341763D01*
X184785000Y-79344165D01*
X184809386Y-79341763D01*
X184832835Y-79334650D01*
X184854446Y-79323099D01*
X184873388Y-79307554D01*
X184888933Y-79288612D01*
X184900484Y-79267001D01*
X184907597Y-79243552D01*
X184948232Y-79039267D01*
X185034996Y-78829799D01*
X185034997Y-78829797D01*
X185160960Y-78641280D01*
X185321280Y-78480960D01*
X185509797Y-78354997D01*
X185719266Y-78268232D01*
X185830451Y-78246116D01*
X185941635Y-78224000D01*
X186168365Y-78224000D01*
X186279549Y-78246116D01*
X186390734Y-78268232D01*
X186600203Y-78354997D01*
X186788720Y-78480960D01*
X186949040Y-78641280D01*
X187075003Y-78829797D01*
X187075004Y-78829799D01*
X187161768Y-79039267D01*
X187206000Y-79261635D01*
X187206000Y-79488365D01*
X187205807Y-79489333D01*
X187161768Y-79710734D01*
X187075003Y-79920203D01*
X186949040Y-80108720D01*
X186788720Y-80269040D01*
X186600203Y-80395003D01*
X186390734Y-80481768D01*
X186279549Y-80503884D01*
X186168365Y-80526000D01*
X185941635Y-80526000D01*
X185830451Y-80503884D01*
X185719266Y-80481768D01*
X185509797Y-80395003D01*
X185321280Y-80269040D01*
X185160960Y-80108720D01*
X185034997Y-79920203D01*
X184948232Y-79710734D01*
X184907597Y-79506448D01*
X184900484Y-79482999D01*
X184888933Y-79461388D01*
X184873388Y-79442446D01*
X184854446Y-79426901D01*
X184832835Y-79415350D01*
X184809386Y-79408237D01*
X184785000Y-79405835D01*
X184760614Y-79408237D01*
X184737165Y-79415350D01*
X184715554Y-79426901D01*
X184696612Y-79442446D01*
X184681067Y-79461388D01*
X184669516Y-79482999D01*
X184662403Y-79506448D01*
X184621768Y-79710734D01*
X184535003Y-79920203D01*
X184409040Y-80108720D01*
X184248720Y-80269040D01*
X184060203Y-80395003D01*
X183850734Y-80481768D01*
X183739549Y-80503884D01*
X183628365Y-80526000D01*
X183401635Y-80526000D01*
X183290451Y-80503884D01*
X183179266Y-80481768D01*
X182969797Y-80395003D01*
X182781280Y-80269040D01*
X182620960Y-80108720D01*
X182494997Y-79920203D01*
X182408232Y-79710734D01*
X182367597Y-79506448D01*
X182360484Y-79482999D01*
X182348933Y-79461388D01*
X182333388Y-79442446D01*
X182314446Y-79426901D01*
X182292835Y-79415350D01*
X182269386Y-79408237D01*
X182245000Y-79405835D01*
X182220614Y-79408237D01*
X182197165Y-79415350D01*
X182175554Y-79426901D01*
X182156612Y-79442446D01*
X182141067Y-79461388D01*
X182129516Y-79482999D01*
X182122403Y-79506448D01*
X182081768Y-79710734D01*
X181995003Y-79920203D01*
X181869040Y-80108720D01*
X181708720Y-80269040D01*
X181520203Y-80395003D01*
X181310734Y-80481768D01*
X181199549Y-80503884D01*
X181088365Y-80526000D01*
X180861635Y-80526000D01*
X180750451Y-80503884D01*
X180639266Y-80481768D01*
X180429797Y-80395003D01*
X180241280Y-80269040D01*
X180080960Y-80108720D01*
X179954997Y-79920203D01*
X179868232Y-79710734D01*
X179833596Y-79536607D01*
X179826483Y-79513158D01*
X179814932Y-79491547D01*
X179799387Y-79472605D01*
X179780445Y-79457060D01*
X179758834Y-79445509D01*
X179735385Y-79438396D01*
X179710999Y-79435994D01*
X179686613Y-79438396D01*
X179663164Y-79445509D01*
X179641553Y-79457060D01*
X179622611Y-79472605D01*
X179607066Y-79491547D01*
X179595515Y-79513158D01*
X179588402Y-79536607D01*
X179586000Y-79560993D01*
X179586000Y-80526000D01*
X177284000Y-80526000D01*
X177284000Y-78224000D01*
X179586000Y-78224000D01*
X179586000Y-79189007D01*
X179586000Y-79189007D01*
G37*
G36*
X180581500Y-73901500D02*
G01*
X178828500Y-73901500D01*
X178828500Y-72148500D01*
X180581500Y-72148500D01*
X180581500Y-73901500D01*
X180581500Y-73901500D01*
G37*
G36*
X185661500Y-73901500D02*
G01*
X183908500Y-73901500D01*
X183908500Y-72148500D01*
X185661500Y-72148500D01*
X185661500Y-73901500D01*
X185661500Y-73901500D01*
G37*
G36*
X216134231Y-71324003D02*
G01*
X216328412Y-71404436D01*
X216328414Y-71404437D01*
X216503173Y-71521207D01*
X216651793Y-71669827D01*
X216768563Y-71844586D01*
X216768564Y-71844588D01*
X216848997Y-72038769D01*
X216890000Y-72244908D01*
X216890000Y-72455092D01*
X216848997Y-72661231D01*
X216768564Y-72855412D01*
X216768563Y-72855414D01*
X216651793Y-73030173D01*
X216503173Y-73178793D01*
X216328414Y-73295563D01*
X216328413Y-73295564D01*
X216328412Y-73295564D01*
X216134231Y-73375997D01*
X215928092Y-73417000D01*
X215717908Y-73417000D01*
X215511769Y-73375997D01*
X215317588Y-73295564D01*
X215317587Y-73295564D01*
X215317586Y-73295563D01*
X215142827Y-73178793D01*
X214994207Y-73030173D01*
X214877437Y-72855414D01*
X214877436Y-72855412D01*
X214797003Y-72661231D01*
X214756000Y-72455092D01*
X214756000Y-72244908D01*
X214797003Y-72038769D01*
X214877436Y-71844588D01*
X214877437Y-71844586D01*
X214994207Y-71669827D01*
X215142827Y-71521207D01*
X215317586Y-71404437D01*
X215317588Y-71404436D01*
X215511769Y-71324003D01*
X215717908Y-71283000D01*
X215928092Y-71283000D01*
X216134231Y-71324003D01*
X216134231Y-71324003D01*
G37*
G36*
X159499500Y-71361500D02*
G01*
X157746500Y-71361500D01*
X157746500Y-69608500D01*
X159499500Y-69608500D01*
X159499500Y-71361500D01*
X159499500Y-71361500D01*
G37*
G36*
X172199500Y-71361500D02*
G01*
X170446500Y-71361500D01*
X170446500Y-69608500D01*
X172199500Y-69608500D01*
X172199500Y-71361500D01*
X172199500Y-71361500D01*
G37*
G36*
X184955997Y-69625341D02*
G01*
X185040666Y-69642183D01*
X185106738Y-69669551D01*
X185200177Y-69708255D01*
X185343736Y-69804178D01*
X185465822Y-69926264D01*
X185561745Y-70069823D01*
X185627817Y-70229335D01*
X185661500Y-70398671D01*
X185661500Y-70571329D01*
X185627817Y-70740665D01*
X185561745Y-70900177D01*
X185465822Y-71043736D01*
X185343736Y-71165822D01*
X185200177Y-71261745D01*
X185106738Y-71300449D01*
X185040666Y-71327817D01*
X184955997Y-71344658D01*
X184871329Y-71361500D01*
X184698671Y-71361500D01*
X184614003Y-71344659D01*
X184529334Y-71327817D01*
X184463262Y-71300449D01*
X184369823Y-71261745D01*
X184226264Y-71165822D01*
X184104178Y-71043736D01*
X184008255Y-70900177D01*
X183942183Y-70740665D01*
X183908500Y-70571329D01*
X183908500Y-70398671D01*
X183942183Y-70229335D01*
X184008255Y-70069823D01*
X184104178Y-69926264D01*
X184226264Y-69804178D01*
X184369823Y-69708255D01*
X184463262Y-69669551D01*
X184529334Y-69642183D01*
X184614003Y-69625341D01*
X184698671Y-69608500D01*
X184871329Y-69608500D01*
X184955997Y-69625341D01*
X184955997Y-69625341D01*
G37*
G36*
X179875997Y-69625341D02*
G01*
X179960666Y-69642183D01*
X180026738Y-69669551D01*
X180120177Y-69708255D01*
X180263736Y-69804178D01*
X180385822Y-69926264D01*
X180481745Y-70069823D01*
X180547817Y-70229335D01*
X180581500Y-70398671D01*
X180581500Y-70571329D01*
X180547817Y-70740665D01*
X180481745Y-70900177D01*
X180385822Y-71043736D01*
X180263736Y-71165822D01*
X180120177Y-71261745D01*
X180026738Y-71300449D01*
X179960666Y-71327817D01*
X179875997Y-71344658D01*
X179791329Y-71361500D01*
X179618671Y-71361500D01*
X179534003Y-71344659D01*
X179449334Y-71327817D01*
X179383262Y-71300449D01*
X179289823Y-71261745D01*
X179146264Y-71165822D01*
X179024178Y-71043736D01*
X178928255Y-70900177D01*
X178862183Y-70740665D01*
X178828500Y-70571329D01*
X178828500Y-70398671D01*
X178862183Y-70229335D01*
X178928255Y-70069823D01*
X179024178Y-69926264D01*
X179146264Y-69804178D01*
X179289823Y-69708255D01*
X179383262Y-69669551D01*
X179449334Y-69642183D01*
X179534003Y-69625341D01*
X179618671Y-69608500D01*
X179791329Y-69608500D01*
X179875997Y-69625341D01*
X179875997Y-69625341D01*
G37*
G36*
X171493997Y-67085341D02*
G01*
X171578666Y-67102183D01*
X171644738Y-67129551D01*
X171738177Y-67168255D01*
X171881736Y-67264178D01*
X172003822Y-67386264D01*
X172099745Y-67529823D01*
X172165817Y-67689335D01*
X172199500Y-67858671D01*
X172199500Y-68031329D01*
X172165817Y-68200665D01*
X172099745Y-68360177D01*
X172003822Y-68503736D01*
X171881736Y-68625822D01*
X171738177Y-68721745D01*
X171644738Y-68760449D01*
X171578666Y-68787817D01*
X171493997Y-68804659D01*
X171409329Y-68821500D01*
X171236671Y-68821500D01*
X171152003Y-68804659D01*
X171067334Y-68787817D01*
X171001262Y-68760449D01*
X170907823Y-68721745D01*
X170764264Y-68625822D01*
X170642178Y-68503736D01*
X170546255Y-68360177D01*
X170480183Y-68200665D01*
X170446500Y-68031329D01*
X170446500Y-67858671D01*
X170480183Y-67689335D01*
X170546255Y-67529823D01*
X170642178Y-67386264D01*
X170764264Y-67264178D01*
X170907823Y-67168255D01*
X171001262Y-67129551D01*
X171067334Y-67102183D01*
X171152003Y-67085341D01*
X171236671Y-67068500D01*
X171409329Y-67068500D01*
X171493997Y-67085341D01*
X171493997Y-67085341D01*
G37*
G36*
X158793997Y-67085341D02*
G01*
X158878666Y-67102183D01*
X158944738Y-67129551D01*
X159038177Y-67168255D01*
X159181736Y-67264178D01*
X159303822Y-67386264D01*
X159399745Y-67529823D01*
X159465817Y-67689335D01*
X159499500Y-67858671D01*
X159499500Y-68031329D01*
X159465817Y-68200665D01*
X159399745Y-68360177D01*
X159303822Y-68503736D01*
X159181736Y-68625822D01*
X159038177Y-68721745D01*
X158944738Y-68760449D01*
X158878666Y-68787817D01*
X158793997Y-68804659D01*
X158709329Y-68821500D01*
X158536671Y-68821500D01*
X158452003Y-68804659D01*
X158367334Y-68787817D01*
X158301262Y-68760449D01*
X158207823Y-68721745D01*
X158064264Y-68625822D01*
X157942178Y-68503736D01*
X157846255Y-68360177D01*
X157780183Y-68200665D01*
X157746500Y-68031329D01*
X157746500Y-67858671D01*
X157780183Y-67689335D01*
X157846255Y-67529823D01*
X157942178Y-67386264D01*
X158064264Y-67264178D01*
X158207823Y-67168255D01*
X158301262Y-67129551D01*
X158367334Y-67102183D01*
X158452003Y-67085341D01*
X158536671Y-67068500D01*
X158709329Y-67068500D01*
X158793997Y-67085341D01*
X158793997Y-67085341D01*
G37*
G36*
X216890000Y-68417000D02*
G01*
X214756000Y-68417000D01*
X214756000Y-66283000D01*
X216890000Y-66283000D01*
X216890000Y-68417000D01*
X216890000Y-68417000D01*
G37*
G36*
X151392000Y-58936000D02*
G01*
X150426993Y-58936000D01*
X150402607Y-58938402D01*
X150379158Y-58945515D01*
X150357547Y-58957066D01*
X150338605Y-58972611D01*
X150323060Y-58991553D01*
X150311509Y-59013164D01*
X150304396Y-59036613D01*
X150301994Y-59060999D01*
X150304396Y-59085385D01*
X150311509Y-59108834D01*
X150323060Y-59130445D01*
X150338605Y-59149387D01*
X150357547Y-59164932D01*
X150379158Y-59176483D01*
X150402608Y-59183596D01*
X150576734Y-59218232D01*
X150786203Y-59304997D01*
X150974720Y-59430960D01*
X151135040Y-59591280D01*
X151261003Y-59779797D01*
X151347768Y-59989266D01*
X151392000Y-60211636D01*
X151392000Y-60438364D01*
X151347768Y-60660734D01*
X151261003Y-60870203D01*
X151135040Y-61058720D01*
X150974720Y-61219040D01*
X150786203Y-61345003D01*
X150576734Y-61431768D01*
X150449161Y-61457144D01*
X150372448Y-61472403D01*
X150348999Y-61479516D01*
X150327388Y-61491067D01*
X150308446Y-61506612D01*
X150292901Y-61525554D01*
X150281350Y-61547165D01*
X150274237Y-61570614D01*
X150271835Y-61595000D01*
X150274237Y-61619386D01*
X150281350Y-61642835D01*
X150292901Y-61664446D01*
X150308446Y-61683388D01*
X150327388Y-61698933D01*
X150348999Y-61710484D01*
X150372448Y-61717597D01*
X150449161Y-61732856D01*
X150576734Y-61758232D01*
X150786203Y-61844997D01*
X150974720Y-61970960D01*
X151135040Y-62131280D01*
X151261003Y-62319797D01*
X151347768Y-62529266D01*
X151392000Y-62751636D01*
X151392000Y-62978364D01*
X151347768Y-63200734D01*
X151261003Y-63410203D01*
X151135040Y-63598720D01*
X150974720Y-63759040D01*
X150786203Y-63885003D01*
X150576734Y-63971768D01*
X150449161Y-63997144D01*
X150372448Y-64012403D01*
X150348999Y-64019516D01*
X150327388Y-64031067D01*
X150308446Y-64046612D01*
X150292901Y-64065554D01*
X150281350Y-64087165D01*
X150274237Y-64110614D01*
X150271835Y-64135000D01*
X150274237Y-64159386D01*
X150281350Y-64182835D01*
X150292901Y-64204446D01*
X150308446Y-64223388D01*
X150327388Y-64238933D01*
X150348999Y-64250484D01*
X150372448Y-64257597D01*
X150449161Y-64272856D01*
X150576734Y-64298232D01*
X150786203Y-64384997D01*
X150974720Y-64510960D01*
X151135040Y-64671280D01*
X151261003Y-64859797D01*
X151347768Y-65069266D01*
X151392000Y-65291636D01*
X151392000Y-65518364D01*
X151347768Y-65740734D01*
X151261003Y-65950203D01*
X151135040Y-66138720D01*
X150974720Y-66299040D01*
X150786203Y-66425003D01*
X150576734Y-66511768D01*
X150465549Y-66533884D01*
X150354365Y-66556000D01*
X150127635Y-66556000D01*
X150016451Y-66533884D01*
X149905266Y-66511768D01*
X149695797Y-66425003D01*
X149507280Y-66299040D01*
X149346960Y-66138720D01*
X149220997Y-65950203D01*
X149134232Y-65740734D01*
X149090000Y-65518364D01*
X149090000Y-65291636D01*
X149134232Y-65069266D01*
X149220997Y-64859797D01*
X149346960Y-64671280D01*
X149507280Y-64510960D01*
X149695797Y-64384997D01*
X149905266Y-64298232D01*
X150032839Y-64272856D01*
X150109552Y-64257597D01*
X150133001Y-64250484D01*
X150154612Y-64238933D01*
X150173554Y-64223388D01*
X150189099Y-64204446D01*
X150200650Y-64182835D01*
X150207763Y-64159386D01*
X150210165Y-64135000D01*
X150207763Y-64110614D01*
X150200650Y-64087165D01*
X150189099Y-64065554D01*
X150173554Y-64046612D01*
X150154612Y-64031067D01*
X150133001Y-64019516D01*
X150109552Y-64012403D01*
X150032839Y-63997144D01*
X149905266Y-63971768D01*
X149695797Y-63885003D01*
X149507280Y-63759040D01*
X149346960Y-63598720D01*
X149220997Y-63410203D01*
X149134232Y-63200734D01*
X149090000Y-62978364D01*
X149090000Y-62751636D01*
X149134232Y-62529266D01*
X149220997Y-62319797D01*
X149346960Y-62131280D01*
X149507280Y-61970960D01*
X149695797Y-61844997D01*
X149905266Y-61758232D01*
X150032839Y-61732856D01*
X150109552Y-61717597D01*
X150133001Y-61710484D01*
X150154612Y-61698933D01*
X150173554Y-61683388D01*
X150189099Y-61664446D01*
X150200650Y-61642835D01*
X150207763Y-61619386D01*
X150210165Y-61595000D01*
X150207763Y-61570614D01*
X150200650Y-61547165D01*
X150189099Y-61525554D01*
X150173554Y-61506612D01*
X150154612Y-61491067D01*
X150133001Y-61479516D01*
X150109552Y-61472403D01*
X150032839Y-61457144D01*
X149905266Y-61431768D01*
X149695797Y-61345003D01*
X149507280Y-61219040D01*
X149346960Y-61058720D01*
X149220997Y-60870203D01*
X149134232Y-60660734D01*
X149090000Y-60438364D01*
X149090000Y-60211636D01*
X149134232Y-59989266D01*
X149220997Y-59779797D01*
X149346960Y-59591280D01*
X149507280Y-59430960D01*
X149695797Y-59304997D01*
X149905266Y-59218232D01*
X150079392Y-59183596D01*
X150102842Y-59176483D01*
X150124453Y-59164932D01*
X150143395Y-59149387D01*
X150158940Y-59130445D01*
X150170491Y-59108834D01*
X150177604Y-59085385D01*
X150180006Y-59060999D01*
X150177604Y-59036613D01*
X150170491Y-59013164D01*
X150158940Y-58991553D01*
X150143395Y-58972611D01*
X150124453Y-58957066D01*
X150102842Y-58945515D01*
X150079393Y-58938402D01*
X150055007Y-58936000D01*
X149090000Y-58936000D01*
X149090000Y-56634000D01*
X151392000Y-56634000D01*
X151392000Y-58936000D01*
X151392000Y-58936000D01*
G37*
G36*
X171493997Y-64545342D02*
G01*
X171578666Y-64562183D01*
X171644738Y-64589551D01*
X171738177Y-64628255D01*
X171881736Y-64724178D01*
X172003822Y-64846264D01*
X172099745Y-64989823D01*
X172165817Y-65149335D01*
X172199500Y-65318671D01*
X172199500Y-65491329D01*
X172165817Y-65660665D01*
X172099745Y-65820177D01*
X172003822Y-65963736D01*
X171881736Y-66085822D01*
X171738177Y-66181745D01*
X171644738Y-66220449D01*
X171578666Y-66247817D01*
X171493997Y-66264658D01*
X171409329Y-66281500D01*
X171236671Y-66281500D01*
X171152003Y-66264658D01*
X171067334Y-66247817D01*
X171001262Y-66220449D01*
X170907823Y-66181745D01*
X170764264Y-66085822D01*
X170642178Y-65963736D01*
X170546255Y-65820177D01*
X170480183Y-65660665D01*
X170446500Y-65491329D01*
X170446500Y-65318671D01*
X170480183Y-65149335D01*
X170546255Y-64989823D01*
X170642178Y-64846264D01*
X170764264Y-64724178D01*
X170907823Y-64628255D01*
X171001262Y-64589551D01*
X171067334Y-64562183D01*
X171152003Y-64545342D01*
X171236671Y-64528500D01*
X171409329Y-64528500D01*
X171493997Y-64545342D01*
X171493997Y-64545342D01*
G37*
G36*
X185661500Y-66281500D02*
G01*
X183908500Y-66281500D01*
X183908500Y-64528500D01*
X185661500Y-64528500D01*
X185661500Y-66281500D01*
X185661500Y-66281500D01*
G37*
G36*
X182415997Y-64545342D02*
G01*
X182500666Y-64562183D01*
X182566738Y-64589551D01*
X182660177Y-64628255D01*
X182803736Y-64724178D01*
X182925822Y-64846264D01*
X183021745Y-64989823D01*
X183087817Y-65149335D01*
X183121500Y-65318671D01*
X183121500Y-65491329D01*
X183087817Y-65660665D01*
X183021745Y-65820177D01*
X182925822Y-65963736D01*
X182803736Y-66085822D01*
X182660177Y-66181745D01*
X182566738Y-66220449D01*
X182500666Y-66247817D01*
X182415997Y-66264658D01*
X182331329Y-66281500D01*
X182158671Y-66281500D01*
X182074003Y-66264658D01*
X181989334Y-66247817D01*
X181923262Y-66220449D01*
X181829823Y-66181745D01*
X181686264Y-66085822D01*
X181564178Y-65963736D01*
X181468255Y-65820177D01*
X181402183Y-65660665D01*
X181368500Y-65491329D01*
X181368500Y-65318671D01*
X181402183Y-65149335D01*
X181468255Y-64989823D01*
X181564178Y-64846264D01*
X181686264Y-64724178D01*
X181829823Y-64628255D01*
X181923262Y-64589551D01*
X181989334Y-64562183D01*
X182074003Y-64545342D01*
X182158671Y-64528500D01*
X182331329Y-64528500D01*
X182415997Y-64545342D01*
X182415997Y-64545342D01*
G37*
G36*
X155618997Y-64545342D02*
G01*
X155703666Y-64562183D01*
X155769738Y-64589551D01*
X155863177Y-64628255D01*
X156006736Y-64724178D01*
X156128822Y-64846264D01*
X156224745Y-64989823D01*
X156290817Y-65149335D01*
X156324500Y-65318671D01*
X156324500Y-65491329D01*
X156290817Y-65660665D01*
X156224745Y-65820177D01*
X156128822Y-65963736D01*
X156006736Y-66085822D01*
X155863177Y-66181745D01*
X155769738Y-66220449D01*
X155703666Y-66247817D01*
X155618997Y-66264658D01*
X155534329Y-66281500D01*
X155361671Y-66281500D01*
X155277003Y-66264658D01*
X155192334Y-66247817D01*
X155126262Y-66220449D01*
X155032823Y-66181745D01*
X154889264Y-66085822D01*
X154767178Y-65963736D01*
X154671255Y-65820177D01*
X154605183Y-65660665D01*
X154571500Y-65491329D01*
X154571500Y-65318671D01*
X154605183Y-65149335D01*
X154671255Y-64989823D01*
X154767178Y-64846264D01*
X154889264Y-64724178D01*
X155032823Y-64628255D01*
X155126262Y-64589551D01*
X155192334Y-64562183D01*
X155277003Y-64545342D01*
X155361671Y-64528500D01*
X155534329Y-64528500D01*
X155618997Y-64545342D01*
X155618997Y-64545342D01*
G37*
G36*
X179875997Y-64545342D02*
G01*
X179960666Y-64562183D01*
X180026738Y-64589551D01*
X180120177Y-64628255D01*
X180263736Y-64724178D01*
X180385822Y-64846264D01*
X180481745Y-64989823D01*
X180547817Y-65149335D01*
X180581500Y-65318671D01*
X180581500Y-65491329D01*
X180547817Y-65660665D01*
X180481745Y-65820177D01*
X180385822Y-65963736D01*
X180263736Y-66085822D01*
X180120177Y-66181745D01*
X180026738Y-66220449D01*
X179960666Y-66247817D01*
X179875997Y-66264658D01*
X179791329Y-66281500D01*
X179618671Y-66281500D01*
X179534003Y-66264658D01*
X179449334Y-66247817D01*
X179383262Y-66220449D01*
X179289823Y-66181745D01*
X179146264Y-66085822D01*
X179024178Y-65963736D01*
X178928255Y-65820177D01*
X178862183Y-65660665D01*
X178828500Y-65491329D01*
X178828500Y-65318671D01*
X178862183Y-65149335D01*
X178928255Y-64989823D01*
X179024178Y-64846264D01*
X179146264Y-64724178D01*
X179289823Y-64628255D01*
X179383262Y-64589551D01*
X179449334Y-64562183D01*
X179534003Y-64545342D01*
X179618671Y-64528500D01*
X179791329Y-64528500D01*
X179875997Y-64545342D01*
X179875997Y-64545342D01*
G37*
G36*
X158793997Y-64545342D02*
G01*
X158878666Y-64562183D01*
X158944738Y-64589551D01*
X159038177Y-64628255D01*
X159181736Y-64724178D01*
X159303822Y-64846264D01*
X159399745Y-64989823D01*
X159465817Y-65149335D01*
X159499500Y-65318671D01*
X159499500Y-65491329D01*
X159465817Y-65660665D01*
X159399745Y-65820177D01*
X159303822Y-65963736D01*
X159181736Y-66085822D01*
X159038177Y-66181745D01*
X158944738Y-66220449D01*
X158878666Y-66247817D01*
X158793997Y-66264658D01*
X158709329Y-66281500D01*
X158536671Y-66281500D01*
X158452003Y-66264658D01*
X158367334Y-66247817D01*
X158301262Y-66220449D01*
X158207823Y-66181745D01*
X158064264Y-66085822D01*
X157942178Y-65963736D01*
X157846255Y-65820177D01*
X157780183Y-65660665D01*
X157746500Y-65491329D01*
X157746500Y-65318671D01*
X157780183Y-65149335D01*
X157846255Y-64989823D01*
X157942178Y-64846264D01*
X158064264Y-64724178D01*
X158207823Y-64628255D01*
X158301262Y-64589551D01*
X158367334Y-64562183D01*
X158452003Y-64545342D01*
X158536671Y-64528500D01*
X158709329Y-64528500D01*
X158793997Y-64545342D01*
X158793997Y-64545342D01*
G37*
G36*
X171421897Y-61991000D02*
G01*
X171578666Y-62022183D01*
X171644738Y-62049551D01*
X171738177Y-62088255D01*
X171881736Y-62184178D01*
X172003822Y-62306264D01*
X172099745Y-62449823D01*
X172165817Y-62609335D01*
X172199500Y-62778671D01*
X172199500Y-62951329D01*
X172165817Y-63120665D01*
X172099745Y-63280177D01*
X172003822Y-63423736D01*
X171881736Y-63545822D01*
X171738177Y-63641745D01*
X171644738Y-63680449D01*
X171578666Y-63707817D01*
X171493997Y-63724659D01*
X171409329Y-63741500D01*
X171236671Y-63741500D01*
X171152003Y-63724659D01*
X171067334Y-63707817D01*
X171001262Y-63680449D01*
X170907823Y-63641745D01*
X170764264Y-63545822D01*
X170642178Y-63423736D01*
X170546255Y-63280177D01*
X170480183Y-63120665D01*
X170446500Y-62951329D01*
X170446500Y-62778671D01*
X170480183Y-62609335D01*
X170546255Y-62449823D01*
X170642178Y-62306264D01*
X170764264Y-62184178D01*
X170907823Y-62088255D01*
X171001262Y-62049551D01*
X171067334Y-62022183D01*
X171224103Y-61991000D01*
X171236671Y-61988500D01*
X171409329Y-61988500D01*
X171421897Y-61991000D01*
X171421897Y-61991000D01*
G37*
G36*
X158721897Y-61991000D02*
G01*
X158878666Y-62022183D01*
X158944738Y-62049551D01*
X159038177Y-62088255D01*
X159181736Y-62184178D01*
X159303822Y-62306264D01*
X159399745Y-62449823D01*
X159465817Y-62609335D01*
X159499500Y-62778671D01*
X159499500Y-62951329D01*
X159465817Y-63120665D01*
X159399745Y-63280177D01*
X159303822Y-63423736D01*
X159181736Y-63545822D01*
X159038177Y-63641745D01*
X158944738Y-63680449D01*
X158878666Y-63707817D01*
X158793997Y-63724659D01*
X158709329Y-63741500D01*
X158536671Y-63741500D01*
X158452003Y-63724659D01*
X158367334Y-63707817D01*
X158301262Y-63680449D01*
X158207823Y-63641745D01*
X158064264Y-63545822D01*
X157942178Y-63423736D01*
X157846255Y-63280177D01*
X157780183Y-63120665D01*
X157746500Y-62951329D01*
X157746500Y-62778671D01*
X157780183Y-62609335D01*
X157846255Y-62449823D01*
X157942178Y-62306264D01*
X158064264Y-62184178D01*
X158207823Y-62088255D01*
X158301262Y-62049551D01*
X158367334Y-62022183D01*
X158524103Y-61991000D01*
X158536671Y-61988500D01*
X158709329Y-61988500D01*
X158721897Y-61991000D01*
X158721897Y-61991000D01*
G37*
G36*
X155546897Y-61991000D02*
G01*
X155703666Y-62022183D01*
X155769738Y-62049551D01*
X155863177Y-62088255D01*
X156006736Y-62184178D01*
X156128822Y-62306264D01*
X156224745Y-62449823D01*
X156290817Y-62609335D01*
X156324500Y-62778671D01*
X156324500Y-62951329D01*
X156290817Y-63120665D01*
X156224745Y-63280177D01*
X156128822Y-63423736D01*
X156006736Y-63545822D01*
X155863177Y-63641745D01*
X155769738Y-63680449D01*
X155703666Y-63707817D01*
X155618997Y-63724659D01*
X155534329Y-63741500D01*
X155361671Y-63741500D01*
X155277003Y-63724659D01*
X155192334Y-63707817D01*
X155126262Y-63680449D01*
X155032823Y-63641745D01*
X154889264Y-63545822D01*
X154767178Y-63423736D01*
X154671255Y-63280177D01*
X154605183Y-63120665D01*
X154571500Y-62951329D01*
X154571500Y-62778671D01*
X154605183Y-62609335D01*
X154671255Y-62449823D01*
X154767178Y-62306264D01*
X154889264Y-62184178D01*
X155032823Y-62088255D01*
X155126262Y-62049551D01*
X155192334Y-62022183D01*
X155349103Y-61991000D01*
X155361671Y-61988500D01*
X155534329Y-61988500D01*
X155546897Y-61991000D01*
X155546897Y-61991000D01*
G37*
G36*
X213601000Y-61991000D02*
G01*
X211499000Y-61991000D01*
X211499000Y-57389000D01*
X213601000Y-57389000D01*
X213601000Y-61991000D01*
X213601000Y-61991000D01*
G37*
G36*
X207601000Y-61991000D02*
G01*
X205499000Y-61991000D01*
X205499000Y-57389000D01*
X207601000Y-57389000D01*
X207601000Y-61991000D01*
X207601000Y-61991000D01*
G37*
G36*
X171493997Y-59465342D02*
G01*
X171578666Y-59482183D01*
X171644738Y-59509551D01*
X171738177Y-59548255D01*
X171881736Y-59644178D01*
X172003822Y-59766264D01*
X172099745Y-59909823D01*
X172165817Y-60069335D01*
X172199500Y-60238671D01*
X172199500Y-60411329D01*
X172165817Y-60580665D01*
X172099745Y-60740177D01*
X172003822Y-60883736D01*
X171881736Y-61005822D01*
X171738177Y-61101745D01*
X171644738Y-61140449D01*
X171578666Y-61167817D01*
X171493997Y-61184659D01*
X171409329Y-61201500D01*
X171236671Y-61201500D01*
X171152003Y-61184659D01*
X171067334Y-61167817D01*
X171001262Y-61140449D01*
X170907823Y-61101745D01*
X170764264Y-61005822D01*
X170642178Y-60883736D01*
X170546255Y-60740177D01*
X170480183Y-60580665D01*
X170446500Y-60411329D01*
X170446500Y-60238671D01*
X170480183Y-60069335D01*
X170546255Y-59909823D01*
X170642178Y-59766264D01*
X170764264Y-59644178D01*
X170907823Y-59548255D01*
X171001262Y-59509551D01*
X171067334Y-59482183D01*
X171152003Y-59465342D01*
X171236671Y-59448500D01*
X171409329Y-59448500D01*
X171493997Y-59465342D01*
X171493997Y-59465342D01*
G37*
G36*
X158793997Y-59465342D02*
G01*
X158878666Y-59482183D01*
X158944738Y-59509551D01*
X159038177Y-59548255D01*
X159181736Y-59644178D01*
X159303822Y-59766264D01*
X159399745Y-59909823D01*
X159465817Y-60069335D01*
X159499500Y-60238671D01*
X159499500Y-60411329D01*
X159465817Y-60580665D01*
X159399745Y-60740177D01*
X159303822Y-60883736D01*
X159181736Y-61005822D01*
X159038177Y-61101745D01*
X158944738Y-61140449D01*
X158878666Y-61167817D01*
X158793997Y-61184659D01*
X158709329Y-61201500D01*
X158536671Y-61201500D01*
X158452003Y-61184659D01*
X158367334Y-61167817D01*
X158301262Y-61140449D01*
X158207823Y-61101745D01*
X158064264Y-61005822D01*
X157942178Y-60883736D01*
X157846255Y-60740177D01*
X157780183Y-60580665D01*
X157746500Y-60411329D01*
X157746500Y-60238671D01*
X157780183Y-60069335D01*
X157846255Y-59909823D01*
X157942178Y-59766264D01*
X158064264Y-59644178D01*
X158207823Y-59548255D01*
X158301262Y-59509551D01*
X158367334Y-59482183D01*
X158452003Y-59465342D01*
X158536671Y-59448500D01*
X158709329Y-59448500D01*
X158793997Y-59465342D01*
X158793997Y-59465342D01*
G37*
G36*
X155618997Y-59465342D02*
G01*
X155703666Y-59482183D01*
X155769738Y-59509551D01*
X155863177Y-59548255D01*
X156006736Y-59644178D01*
X156128822Y-59766264D01*
X156224745Y-59909823D01*
X156290817Y-60069335D01*
X156324500Y-60238671D01*
X156324500Y-60411329D01*
X156290817Y-60580665D01*
X156224745Y-60740177D01*
X156128822Y-60883736D01*
X156006736Y-61005822D01*
X155863177Y-61101745D01*
X155769738Y-61140449D01*
X155703666Y-61167817D01*
X155618997Y-61184659D01*
X155534329Y-61201500D01*
X155361671Y-61201500D01*
X155277003Y-61184659D01*
X155192334Y-61167817D01*
X155126262Y-61140449D01*
X155032823Y-61101745D01*
X154889264Y-61005822D01*
X154767178Y-60883736D01*
X154671255Y-60740177D01*
X154605183Y-60580665D01*
X154571500Y-60411329D01*
X154571500Y-60238671D01*
X154605183Y-60069335D01*
X154671255Y-59909823D01*
X154767178Y-59766264D01*
X154889264Y-59644178D01*
X155032823Y-59548255D01*
X155126262Y-59509551D01*
X155192334Y-59482183D01*
X155277003Y-59465342D01*
X155361671Y-59448500D01*
X155534329Y-59448500D01*
X155618997Y-59465342D01*
X155618997Y-59465342D01*
G37*
G36*
X164508997Y-58195342D02*
G01*
X164593666Y-58212183D01*
X164659738Y-58239551D01*
X164753177Y-58278255D01*
X164896736Y-58374178D01*
X165018822Y-58496264D01*
X165114745Y-58639823D01*
X165180817Y-58799335D01*
X165214500Y-58968671D01*
X165214500Y-59141329D01*
X165199203Y-59218232D01*
X165181945Y-59304997D01*
X165180817Y-59310665D01*
X165114745Y-59470177D01*
X165018822Y-59613736D01*
X164896736Y-59735822D01*
X164753177Y-59831745D01*
X164659738Y-59870449D01*
X164593666Y-59897817D01*
X164533312Y-59909822D01*
X164424329Y-59931500D01*
X164251671Y-59931500D01*
X164142688Y-59909822D01*
X164082334Y-59897817D01*
X164016262Y-59870449D01*
X163922823Y-59831745D01*
X163779264Y-59735822D01*
X163657178Y-59613736D01*
X163561255Y-59470177D01*
X163495183Y-59310665D01*
X163494056Y-59304997D01*
X163476797Y-59218232D01*
X163461500Y-59141329D01*
X163461500Y-58968671D01*
X163495183Y-58799335D01*
X163561255Y-58639823D01*
X163657178Y-58496264D01*
X163779264Y-58374178D01*
X163922823Y-58278255D01*
X164016262Y-58239551D01*
X164082334Y-58212183D01*
X164167003Y-58195342D01*
X164251671Y-58178500D01*
X164424329Y-58178500D01*
X164508997Y-58195342D01*
X164508997Y-58195342D01*
G37*
G36*
X162674500Y-59931500D02*
G01*
X160921500Y-59931500D01*
X160921500Y-58178500D01*
X162674500Y-58178500D01*
X162674500Y-59931500D01*
X162674500Y-59931500D01*
G37*
G36*
X167048997Y-58195342D02*
G01*
X167133666Y-58212183D01*
X167199738Y-58239551D01*
X167293177Y-58278255D01*
X167436736Y-58374178D01*
X167558822Y-58496264D01*
X167654745Y-58639823D01*
X167720817Y-58799335D01*
X167754500Y-58968671D01*
X167754500Y-59141329D01*
X167739203Y-59218232D01*
X167721945Y-59304997D01*
X167720817Y-59310665D01*
X167654745Y-59470177D01*
X167558822Y-59613736D01*
X167436736Y-59735822D01*
X167293177Y-59831745D01*
X167199738Y-59870449D01*
X167133666Y-59897817D01*
X167073312Y-59909822D01*
X166964329Y-59931500D01*
X166791671Y-59931500D01*
X166682688Y-59909822D01*
X166622334Y-59897817D01*
X166556262Y-59870449D01*
X166462823Y-59831745D01*
X166319264Y-59735822D01*
X166197178Y-59613736D01*
X166101255Y-59470177D01*
X166035183Y-59310665D01*
X166034056Y-59304997D01*
X166016797Y-59218232D01*
X166001500Y-59141329D01*
X166001500Y-58968671D01*
X166035183Y-58799335D01*
X166101255Y-58639823D01*
X166197178Y-58496264D01*
X166319264Y-58374178D01*
X166462823Y-58278255D01*
X166556262Y-58239551D01*
X166622334Y-58212183D01*
X166707003Y-58195342D01*
X166791671Y-58178500D01*
X166964329Y-58178500D01*
X167048997Y-58195342D01*
X167048997Y-58195342D01*
G37*
G36*
X171493997Y-56925341D02*
G01*
X171578666Y-56942183D01*
X171644738Y-56969551D01*
X171738177Y-57008255D01*
X171881736Y-57104178D01*
X172003822Y-57226264D01*
X172099745Y-57369823D01*
X172165817Y-57529335D01*
X172199500Y-57698671D01*
X172199500Y-57871329D01*
X172165817Y-58040665D01*
X172099745Y-58200177D01*
X172003822Y-58343736D01*
X171881736Y-58465822D01*
X171738177Y-58561745D01*
X171644738Y-58600449D01*
X171578666Y-58627817D01*
X171518312Y-58639822D01*
X171409329Y-58661500D01*
X171236671Y-58661500D01*
X171127688Y-58639822D01*
X171067334Y-58627817D01*
X171001262Y-58600449D01*
X170907823Y-58561745D01*
X170764264Y-58465822D01*
X170642178Y-58343736D01*
X170546255Y-58200177D01*
X170480183Y-58040665D01*
X170446500Y-57871329D01*
X170446500Y-57698671D01*
X170480183Y-57529335D01*
X170546255Y-57369823D01*
X170642178Y-57226264D01*
X170764264Y-57104178D01*
X170907823Y-57008255D01*
X171001262Y-56969551D01*
X171067334Y-56942183D01*
X171152003Y-56925341D01*
X171236671Y-56908500D01*
X171409329Y-56908500D01*
X171493997Y-56925341D01*
X171493997Y-56925341D01*
G37*
G36*
X158793997Y-56925341D02*
G01*
X158878666Y-56942183D01*
X158944738Y-56969551D01*
X159038177Y-57008255D01*
X159181736Y-57104178D01*
X159303822Y-57226264D01*
X159399745Y-57369823D01*
X159465817Y-57529335D01*
X159499500Y-57698671D01*
X159499500Y-57871329D01*
X159465817Y-58040665D01*
X159399745Y-58200177D01*
X159303822Y-58343736D01*
X159181736Y-58465822D01*
X159038177Y-58561745D01*
X158944738Y-58600449D01*
X158878666Y-58627817D01*
X158818312Y-58639822D01*
X158709329Y-58661500D01*
X158536671Y-58661500D01*
X158427688Y-58639822D01*
X158367334Y-58627817D01*
X158301262Y-58600449D01*
X158207823Y-58561745D01*
X158064264Y-58465822D01*
X157942178Y-58343736D01*
X157846255Y-58200177D01*
X157780183Y-58040665D01*
X157746500Y-57871329D01*
X157746500Y-57698671D01*
X157780183Y-57529335D01*
X157846255Y-57369823D01*
X157942178Y-57226264D01*
X158064264Y-57104178D01*
X158207823Y-57008255D01*
X158301262Y-56969551D01*
X158367334Y-56942183D01*
X158452003Y-56925341D01*
X158536671Y-56908500D01*
X158709329Y-56908500D01*
X158793997Y-56925341D01*
X158793997Y-56925341D01*
G37*
G36*
X156324500Y-58661500D02*
G01*
X154571500Y-58661500D01*
X154571500Y-56908500D01*
X156324500Y-56908500D01*
X156324500Y-58661500D01*
X156324500Y-58661500D01*
G37*
G36*
X167048997Y-55020342D02*
G01*
X167133666Y-55037183D01*
X167199738Y-55064551D01*
X167293177Y-55103255D01*
X167436736Y-55199178D01*
X167558822Y-55321264D01*
X167654745Y-55464823D01*
X167693449Y-55558262D01*
X167720817Y-55624334D01*
X167727947Y-55660178D01*
X167754500Y-55793671D01*
X167754500Y-55966329D01*
X167720817Y-56135665D01*
X167654745Y-56295177D01*
X167558822Y-56438736D01*
X167436736Y-56560822D01*
X167293177Y-56656745D01*
X167199738Y-56695449D01*
X167133666Y-56722817D01*
X167048997Y-56739658D01*
X166964329Y-56756500D01*
X166791671Y-56756500D01*
X166707003Y-56739658D01*
X166622334Y-56722817D01*
X166556262Y-56695449D01*
X166462823Y-56656745D01*
X166319264Y-56560822D01*
X166197178Y-56438736D01*
X166101255Y-56295177D01*
X166035183Y-56135665D01*
X166001500Y-55966329D01*
X166001500Y-55793671D01*
X166028053Y-55660178D01*
X166035183Y-55624334D01*
X166062551Y-55558262D01*
X166101255Y-55464823D01*
X166197178Y-55321264D01*
X166319264Y-55199178D01*
X166462823Y-55103255D01*
X166556262Y-55064551D01*
X166622334Y-55037183D01*
X166707003Y-55020342D01*
X166791671Y-55003500D01*
X166964329Y-55003500D01*
X167048997Y-55020342D01*
X167048997Y-55020342D01*
G37*
G36*
X164508997Y-55020342D02*
G01*
X164593666Y-55037183D01*
X164659738Y-55064551D01*
X164753177Y-55103255D01*
X164896736Y-55199178D01*
X165018822Y-55321264D01*
X165114745Y-55464823D01*
X165153449Y-55558262D01*
X165180817Y-55624334D01*
X165187947Y-55660178D01*
X165214500Y-55793671D01*
X165214500Y-55966329D01*
X165180817Y-56135665D01*
X165114745Y-56295177D01*
X165018822Y-56438736D01*
X164896736Y-56560822D01*
X164753177Y-56656745D01*
X164659738Y-56695449D01*
X164593666Y-56722817D01*
X164508997Y-56739658D01*
X164424329Y-56756500D01*
X164251671Y-56756500D01*
X164167003Y-56739658D01*
X164082334Y-56722817D01*
X164016262Y-56695449D01*
X163922823Y-56656745D01*
X163779264Y-56560822D01*
X163657178Y-56438736D01*
X163561255Y-56295177D01*
X163495183Y-56135665D01*
X163461500Y-55966329D01*
X163461500Y-55793671D01*
X163488053Y-55660178D01*
X163495183Y-55624334D01*
X163522551Y-55558262D01*
X163561255Y-55464823D01*
X163657178Y-55321264D01*
X163779264Y-55199178D01*
X163922823Y-55103255D01*
X164016262Y-55064551D01*
X164082334Y-55037183D01*
X164167003Y-55020342D01*
X164251671Y-55003500D01*
X164424329Y-55003500D01*
X164508997Y-55020342D01*
X164508997Y-55020342D01*
G37*
G36*
X162674500Y-56756500D02*
G01*
X160921500Y-56756500D01*
X160921500Y-55003500D01*
X162674500Y-55003500D01*
X162674500Y-56756500D01*
X162674500Y-56756500D01*
G37*
G36*
X180831442Y-54604518D02*
G01*
X180897627Y-54611037D01*
X181067466Y-54662557D01*
X181223991Y-54746222D01*
X181259729Y-54775552D01*
X181361186Y-54858814D01*
X181444448Y-54960271D01*
X181473778Y-54996009D01*
X181557443Y-55152534D01*
X181608963Y-55322373D01*
X181626359Y-55499000D01*
X181608963Y-55675627D01*
X181557443Y-55845466D01*
X181473778Y-56001991D01*
X181457567Y-56021744D01*
X181361186Y-56139186D01*
X181259729Y-56222448D01*
X181223991Y-56251778D01*
X181067466Y-56335443D01*
X180897627Y-56386963D01*
X180831442Y-56393482D01*
X180765260Y-56400000D01*
X180676740Y-56400000D01*
X180610558Y-56393482D01*
X180544373Y-56386963D01*
X180374534Y-56335443D01*
X180218009Y-56251778D01*
X180182271Y-56222448D01*
X180080814Y-56139186D01*
X179984433Y-56021744D01*
X179968222Y-56001991D01*
X179884557Y-55845466D01*
X179833037Y-55675627D01*
X179815641Y-55499000D01*
X179833037Y-55322373D01*
X179884557Y-55152534D01*
X179968222Y-54996009D01*
X179997552Y-54960271D01*
X180080814Y-54858814D01*
X180182271Y-54775552D01*
X180218009Y-54746222D01*
X180374534Y-54662557D01*
X180544373Y-54611037D01*
X180610558Y-54604518D01*
X180676740Y-54598000D01*
X180765260Y-54598000D01*
X180831442Y-54604518D01*
X180831442Y-54604518D01*
G37*
G36*
X178291442Y-54604518D02*
G01*
X178357627Y-54611037D01*
X178527466Y-54662557D01*
X178683991Y-54746222D01*
X178719729Y-54775552D01*
X178821186Y-54858814D01*
X178904448Y-54960271D01*
X178933778Y-54996009D01*
X179017443Y-55152534D01*
X179068963Y-55322373D01*
X179086359Y-55499000D01*
X179068963Y-55675627D01*
X179017443Y-55845466D01*
X178933778Y-56001991D01*
X178917567Y-56021744D01*
X178821186Y-56139186D01*
X178719729Y-56222448D01*
X178683991Y-56251778D01*
X178527466Y-56335443D01*
X178357627Y-56386963D01*
X178291442Y-56393482D01*
X178225260Y-56400000D01*
X178136740Y-56400000D01*
X178070558Y-56393482D01*
X178004373Y-56386963D01*
X177834534Y-56335443D01*
X177678009Y-56251778D01*
X177642271Y-56222448D01*
X177540814Y-56139186D01*
X177444433Y-56021744D01*
X177428222Y-56001991D01*
X177344557Y-55845466D01*
X177293037Y-55675627D01*
X177275641Y-55499000D01*
X177293037Y-55322373D01*
X177344557Y-55152534D01*
X177428222Y-54996009D01*
X177457552Y-54960271D01*
X177540814Y-54858814D01*
X177642271Y-54775552D01*
X177678009Y-54746222D01*
X177834534Y-54662557D01*
X178004373Y-54611037D01*
X178070558Y-54604518D01*
X178136740Y-54598000D01*
X178225260Y-54598000D01*
X178291442Y-54604518D01*
X178291442Y-54604518D01*
G37*
G36*
X171493997Y-54385341D02*
G01*
X171578666Y-54402183D01*
X171644738Y-54429551D01*
X171738177Y-54468255D01*
X171881736Y-54564178D01*
X172003822Y-54686264D01*
X172099745Y-54829823D01*
X172138449Y-54923262D01*
X172165817Y-54989334D01*
X172199500Y-55158672D01*
X172199500Y-55331328D01*
X172172947Y-55464823D01*
X172165817Y-55500665D01*
X172099745Y-55660177D01*
X172003822Y-55803736D01*
X171881736Y-55925822D01*
X171738177Y-56021745D01*
X171691691Y-56041000D01*
X171578666Y-56087817D01*
X171493997Y-56104659D01*
X171409329Y-56121500D01*
X171236671Y-56121500D01*
X171152003Y-56104659D01*
X171067334Y-56087817D01*
X170954309Y-56041000D01*
X170907823Y-56021745D01*
X170764264Y-55925822D01*
X170642178Y-55803736D01*
X170546255Y-55660177D01*
X170480183Y-55500665D01*
X170473054Y-55464823D01*
X170446500Y-55331328D01*
X170446500Y-55158672D01*
X170480183Y-54989334D01*
X170507551Y-54923262D01*
X170546255Y-54829823D01*
X170642178Y-54686264D01*
X170764264Y-54564178D01*
X170907823Y-54468255D01*
X171001262Y-54429551D01*
X171067334Y-54402183D01*
X171152003Y-54385341D01*
X171236671Y-54368500D01*
X171409329Y-54368500D01*
X171493997Y-54385341D01*
X171493997Y-54385341D01*
G37*
G36*
X158793997Y-54385341D02*
G01*
X158878666Y-54402183D01*
X158944738Y-54429551D01*
X159038177Y-54468255D01*
X159181736Y-54564178D01*
X159303822Y-54686264D01*
X159399745Y-54829823D01*
X159438449Y-54923262D01*
X159465817Y-54989334D01*
X159499500Y-55158672D01*
X159499500Y-55331328D01*
X159472947Y-55464823D01*
X159465817Y-55500665D01*
X159399745Y-55660177D01*
X159303822Y-55803736D01*
X159181736Y-55925822D01*
X159038177Y-56021745D01*
X158991691Y-56041000D01*
X158878666Y-56087817D01*
X158793997Y-56104659D01*
X158709329Y-56121500D01*
X158536671Y-56121500D01*
X158452003Y-56104659D01*
X158367334Y-56087817D01*
X158254309Y-56041000D01*
X158207823Y-56021745D01*
X158064264Y-55925822D01*
X157942178Y-55803736D01*
X157846255Y-55660177D01*
X157780183Y-55500665D01*
X157773054Y-55464823D01*
X157746500Y-55331328D01*
X157746500Y-55158672D01*
X157780183Y-54989334D01*
X157807551Y-54923262D01*
X157846255Y-54829823D01*
X157942178Y-54686264D01*
X158064264Y-54564178D01*
X158207823Y-54468255D01*
X158301262Y-54429551D01*
X158367334Y-54402183D01*
X158452003Y-54385341D01*
X158536671Y-54368500D01*
X158709329Y-54368500D01*
X158793997Y-54385341D01*
X158793997Y-54385341D01*
G37*
G36*
X211851000Y-56041000D02*
G01*
X207249000Y-56041000D01*
X207249000Y-53939000D01*
X211851000Y-53939000D01*
X211851000Y-56041000D01*
X211851000Y-56041000D01*
G37*
G36*
X180831443Y-52064519D02*
G01*
X180897627Y-52071037D01*
X181067466Y-52122557D01*
X181223991Y-52206222D01*
X181259729Y-52235552D01*
X181361186Y-52318814D01*
X181438044Y-52412467D01*
X181473778Y-52456009D01*
X181557443Y-52612534D01*
X181608963Y-52782373D01*
X181626359Y-52959000D01*
X181608963Y-53135627D01*
X181557443Y-53305466D01*
X181473778Y-53461991D01*
X181457567Y-53481744D01*
X181361186Y-53599186D01*
X181259729Y-53682448D01*
X181223991Y-53711778D01*
X181067466Y-53795443D01*
X180897627Y-53846963D01*
X180831443Y-53853481D01*
X180765260Y-53860000D01*
X180676740Y-53860000D01*
X180610557Y-53853481D01*
X180544373Y-53846963D01*
X180374534Y-53795443D01*
X180218009Y-53711778D01*
X180182271Y-53682448D01*
X180080814Y-53599186D01*
X179984433Y-53481744D01*
X179968222Y-53461991D01*
X179884557Y-53305466D01*
X179833037Y-53135627D01*
X179815641Y-52959000D01*
X179833037Y-52782373D01*
X179884557Y-52612534D01*
X179968222Y-52456009D01*
X180003956Y-52412467D01*
X180080814Y-52318814D01*
X180182271Y-52235552D01*
X180218009Y-52206222D01*
X180374534Y-52122557D01*
X180544373Y-52071037D01*
X180610557Y-52064519D01*
X180676740Y-52058000D01*
X180765260Y-52058000D01*
X180831443Y-52064519D01*
X180831443Y-52064519D01*
G37*
G36*
X178291443Y-52064519D02*
G01*
X178357627Y-52071037D01*
X178527466Y-52122557D01*
X178683991Y-52206222D01*
X178719729Y-52235552D01*
X178821186Y-52318814D01*
X178898044Y-52412467D01*
X178933778Y-52456009D01*
X179017443Y-52612534D01*
X179068963Y-52782373D01*
X179086359Y-52959000D01*
X179068963Y-53135627D01*
X179017443Y-53305466D01*
X178933778Y-53461991D01*
X178917567Y-53481744D01*
X178821186Y-53599186D01*
X178719729Y-53682448D01*
X178683991Y-53711778D01*
X178527466Y-53795443D01*
X178357627Y-53846963D01*
X178291443Y-53853481D01*
X178225260Y-53860000D01*
X178136740Y-53860000D01*
X178070557Y-53853481D01*
X178004373Y-53846963D01*
X177834534Y-53795443D01*
X177678009Y-53711778D01*
X177642271Y-53682448D01*
X177540814Y-53599186D01*
X177444433Y-53481744D01*
X177428222Y-53461991D01*
X177344557Y-53305466D01*
X177293037Y-53135627D01*
X177275641Y-52959000D01*
X177293037Y-52782373D01*
X177344557Y-52612534D01*
X177428222Y-52456009D01*
X177463956Y-52412467D01*
X177540814Y-52318814D01*
X177642271Y-52235552D01*
X177678009Y-52206222D01*
X177834534Y-52122557D01*
X178004373Y-52071037D01*
X178070557Y-52064519D01*
X178136740Y-52058000D01*
X178225260Y-52058000D01*
X178291443Y-52064519D01*
X178291443Y-52064519D01*
G37*
G36*
X162674500Y-53581500D02*
G01*
X160921500Y-53581500D01*
X160921500Y-51828500D01*
X162674500Y-51828500D01*
X162674500Y-53581500D01*
X162674500Y-53581500D01*
G37*
G36*
X164508997Y-51845342D02*
G01*
X164593666Y-51862183D01*
X164659738Y-51889551D01*
X164753177Y-51928255D01*
X164896736Y-52024178D01*
X165018822Y-52146264D01*
X165114745Y-52289823D01*
X165180817Y-52449335D01*
X165214500Y-52618671D01*
X165214500Y-52791329D01*
X165180817Y-52960665D01*
X165114745Y-53120177D01*
X165018822Y-53263736D01*
X164896736Y-53385822D01*
X164753177Y-53481745D01*
X164659738Y-53520449D01*
X164593666Y-53547817D01*
X164508997Y-53564659D01*
X164424329Y-53581500D01*
X164251671Y-53581500D01*
X164167003Y-53564659D01*
X164082334Y-53547817D01*
X164016262Y-53520449D01*
X163922823Y-53481745D01*
X163779264Y-53385822D01*
X163657178Y-53263736D01*
X163561255Y-53120177D01*
X163495183Y-52960665D01*
X163461500Y-52791329D01*
X163461500Y-52618671D01*
X163495183Y-52449335D01*
X163561255Y-52289823D01*
X163657178Y-52146264D01*
X163779264Y-52024178D01*
X163922823Y-51928255D01*
X164016262Y-51889551D01*
X164082334Y-51862183D01*
X164167003Y-51845341D01*
X164251671Y-51828500D01*
X164424329Y-51828500D01*
X164508997Y-51845342D01*
X164508997Y-51845342D01*
G37*
G36*
X158793997Y-51845342D02*
G01*
X158878666Y-51862183D01*
X158944738Y-51889551D01*
X159038177Y-51928255D01*
X159181736Y-52024178D01*
X159303822Y-52146264D01*
X159399745Y-52289823D01*
X159465817Y-52449335D01*
X159499500Y-52618671D01*
X159499500Y-52791329D01*
X159465817Y-52960665D01*
X159399745Y-53120177D01*
X159303822Y-53263736D01*
X159181736Y-53385822D01*
X159038177Y-53481745D01*
X158944738Y-53520449D01*
X158878666Y-53547817D01*
X158793997Y-53564659D01*
X158709329Y-53581500D01*
X158536671Y-53581500D01*
X158452003Y-53564659D01*
X158367334Y-53547817D01*
X158301262Y-53520449D01*
X158207823Y-53481745D01*
X158064264Y-53385822D01*
X157942178Y-53263736D01*
X157846255Y-53120177D01*
X157780183Y-52960665D01*
X157746500Y-52791329D01*
X157746500Y-52618671D01*
X157780183Y-52449335D01*
X157846255Y-52289823D01*
X157942178Y-52146264D01*
X158064264Y-52024178D01*
X158207823Y-51928255D01*
X158301262Y-51889551D01*
X158367334Y-51862183D01*
X158452003Y-51845341D01*
X158536671Y-51828500D01*
X158709329Y-51828500D01*
X158793997Y-51845342D01*
X158793997Y-51845342D01*
G37*
G36*
X167048997Y-51845342D02*
G01*
X167133666Y-51862183D01*
X167199738Y-51889551D01*
X167293177Y-51928255D01*
X167436736Y-52024178D01*
X167558822Y-52146264D01*
X167654745Y-52289823D01*
X167720817Y-52449335D01*
X167754500Y-52618671D01*
X167754500Y-52791329D01*
X167720817Y-52960665D01*
X167654745Y-53120177D01*
X167558822Y-53263736D01*
X167436736Y-53385822D01*
X167293177Y-53481745D01*
X167199738Y-53520449D01*
X167133666Y-53547817D01*
X167048997Y-53564659D01*
X166964329Y-53581500D01*
X166791671Y-53581500D01*
X166707003Y-53564659D01*
X166622334Y-53547817D01*
X166556262Y-53520449D01*
X166462823Y-53481745D01*
X166319264Y-53385822D01*
X166197178Y-53263736D01*
X166101255Y-53120177D01*
X166035183Y-52960665D01*
X166001500Y-52791329D01*
X166001500Y-52618671D01*
X166035183Y-52449335D01*
X166101255Y-52289823D01*
X166197178Y-52146264D01*
X166319264Y-52024178D01*
X166462823Y-51928255D01*
X166556262Y-51889551D01*
X166622334Y-51862183D01*
X166707003Y-51845341D01*
X166791671Y-51828500D01*
X166964329Y-51828500D01*
X167048997Y-51845342D01*
X167048997Y-51845342D01*
G37*
G36*
X171493997Y-51845342D02*
G01*
X171578666Y-51862183D01*
X171644738Y-51889551D01*
X171738177Y-51928255D01*
X171881736Y-52024178D01*
X172003822Y-52146264D01*
X172099745Y-52289823D01*
X172165817Y-52449335D01*
X172199500Y-52618671D01*
X172199500Y-52791329D01*
X172165817Y-52960665D01*
X172099745Y-53120177D01*
X172003822Y-53263736D01*
X171881736Y-53385822D01*
X171738177Y-53481745D01*
X171644738Y-53520449D01*
X171578666Y-53547817D01*
X171493997Y-53564659D01*
X171409329Y-53581500D01*
X171236671Y-53581500D01*
X171152003Y-53564659D01*
X171067334Y-53547817D01*
X171001262Y-53520449D01*
X170907823Y-53481745D01*
X170764264Y-53385822D01*
X170642178Y-53263736D01*
X170546255Y-53120177D01*
X170480183Y-52960665D01*
X170446500Y-52791329D01*
X170446500Y-52618671D01*
X170480183Y-52449335D01*
X170546255Y-52289823D01*
X170642178Y-52146264D01*
X170764264Y-52024178D01*
X170907823Y-51928255D01*
X171001262Y-51889551D01*
X171067334Y-51862183D01*
X171152003Y-51845341D01*
X171236671Y-51828500D01*
X171409329Y-51828500D01*
X171493997Y-51845342D01*
X171493997Y-51845342D01*
G37*
G36*
X210694496Y-49441675D02*
G01*
X211005513Y-49570503D01*
X211005515Y-49570504D01*
X211285424Y-49757533D01*
X211523467Y-49995576D01*
X211710496Y-50275485D01*
X211710497Y-50275487D01*
X211839325Y-50586504D01*
X211905000Y-50916677D01*
X211905000Y-51253323D01*
X211839325Y-51583496D01*
X211710497Y-51894513D01*
X211710496Y-51894515D01*
X211523467Y-52174424D01*
X211285424Y-52412467D01*
X211005515Y-52599496D01*
X211005514Y-52599497D01*
X211005513Y-52599497D01*
X210694496Y-52728325D01*
X210364323Y-52794000D01*
X210027677Y-52794000D01*
X209697504Y-52728325D01*
X209386487Y-52599497D01*
X209386486Y-52599497D01*
X209386485Y-52599496D01*
X209106576Y-52412467D01*
X208868533Y-52174424D01*
X208681504Y-51894515D01*
X208681503Y-51894513D01*
X208552675Y-51583496D01*
X208487000Y-51253323D01*
X208487000Y-50916677D01*
X208552675Y-50586504D01*
X208681503Y-50275487D01*
X208681504Y-50275485D01*
X208868533Y-49995576D01*
X209106576Y-49757533D01*
X209386485Y-49570504D01*
X209386487Y-49570503D01*
X209697504Y-49441675D01*
X210027677Y-49376000D01*
X210364323Y-49376000D01*
X210694496Y-49441675D01*
X210694496Y-49441675D01*
G37*
G36*
X179082000Y-51320000D02*
G01*
X177280000Y-51320000D01*
X177280000Y-49518000D01*
X179082000Y-49518000D01*
X179082000Y-51320000D01*
X179082000Y-51320000D01*
G37*
G36*
X180831442Y-49524518D02*
G01*
X180897627Y-49531037D01*
X181067466Y-49582557D01*
X181223991Y-49666222D01*
X181259729Y-49695552D01*
X181361186Y-49778814D01*
X181444448Y-49880271D01*
X181473778Y-49916009D01*
X181557443Y-50072534D01*
X181608963Y-50242373D01*
X181626359Y-50419000D01*
X181608963Y-50595627D01*
X181557443Y-50765466D01*
X181473778Y-50921991D01*
X181444448Y-50957729D01*
X181361186Y-51059186D01*
X181259729Y-51142448D01*
X181223991Y-51171778D01*
X181067466Y-51255443D01*
X180897627Y-51306963D01*
X180831443Y-51313481D01*
X180765260Y-51320000D01*
X180676740Y-51320000D01*
X180610557Y-51313481D01*
X180544373Y-51306963D01*
X180374534Y-51255443D01*
X180218009Y-51171778D01*
X180182271Y-51142448D01*
X180080814Y-51059186D01*
X179997552Y-50957729D01*
X179968222Y-50921991D01*
X179884557Y-50765466D01*
X179833037Y-50595627D01*
X179815641Y-50419000D01*
X179833037Y-50242373D01*
X179884557Y-50072534D01*
X179968222Y-49916009D01*
X179997552Y-49880271D01*
X180080814Y-49778814D01*
X180182271Y-49695552D01*
X180218009Y-49666222D01*
X180374534Y-49582557D01*
X180544373Y-49531037D01*
X180610558Y-49524518D01*
X180676740Y-49518000D01*
X180765260Y-49518000D01*
X180831442Y-49524518D01*
X180831442Y-49524518D01*
G37*
G36*
X159499500Y-49771500D02*
G01*
X157746500Y-49771500D01*
X157746500Y-48018500D01*
X159499500Y-48018500D01*
X159499500Y-49771500D01*
X159499500Y-49771500D01*
G37*
G36*
X172199500Y-49771500D02*
G01*
X170446500Y-49771500D01*
X170446500Y-48018500D01*
X172199500Y-48018500D01*
X172199500Y-49771500D01*
X172199500Y-49771500D01*
G37*
G36*
X171493997Y-45495342D02*
G01*
X171578666Y-45512183D01*
X171644738Y-45539551D01*
X171738177Y-45578255D01*
X171881736Y-45674178D01*
X172003822Y-45796264D01*
X172099745Y-45939823D01*
X172138449Y-46033262D01*
X172162721Y-46091859D01*
X172165817Y-46099335D01*
X172199500Y-46268671D01*
X172199500Y-46441329D01*
X172165817Y-46610665D01*
X172099745Y-46770177D01*
X172003822Y-46913736D01*
X171881736Y-47035822D01*
X171738177Y-47131745D01*
X171644738Y-47170449D01*
X171578666Y-47197817D01*
X171493997Y-47214658D01*
X171409329Y-47231500D01*
X171236671Y-47231500D01*
X171152003Y-47214658D01*
X171067334Y-47197817D01*
X171001262Y-47170449D01*
X170907823Y-47131745D01*
X170764264Y-47035822D01*
X170642178Y-46913736D01*
X170546255Y-46770177D01*
X170480183Y-46610665D01*
X170446500Y-46441329D01*
X170446500Y-46268671D01*
X170480183Y-46099335D01*
X170483280Y-46091859D01*
X170507551Y-46033262D01*
X170546255Y-45939823D01*
X170642178Y-45796264D01*
X170764264Y-45674178D01*
X170907823Y-45578255D01*
X171001262Y-45539551D01*
X171067334Y-45512183D01*
X171152003Y-45495341D01*
X171236671Y-45478500D01*
X171409329Y-45478500D01*
X171493997Y-45495342D01*
X171493997Y-45495342D01*
G37*
G36*
X158793997Y-45495342D02*
G01*
X158878666Y-45512183D01*
X158944738Y-45539551D01*
X159038177Y-45578255D01*
X159181736Y-45674178D01*
X159303822Y-45796264D01*
X159399745Y-45939823D01*
X159438449Y-46033262D01*
X159462721Y-46091859D01*
X159465817Y-46099335D01*
X159499500Y-46268671D01*
X159499500Y-46441329D01*
X159465817Y-46610665D01*
X159399745Y-46770177D01*
X159303822Y-46913736D01*
X159181736Y-47035822D01*
X159038177Y-47131745D01*
X158944738Y-47170449D01*
X158878666Y-47197817D01*
X158793997Y-47214658D01*
X158709329Y-47231500D01*
X158536671Y-47231500D01*
X158452003Y-47214658D01*
X158367334Y-47197817D01*
X158301262Y-47170449D01*
X158207823Y-47131745D01*
X158064264Y-47035822D01*
X157942178Y-46913736D01*
X157846255Y-46770177D01*
X157780183Y-46610665D01*
X157746500Y-46441329D01*
X157746500Y-46268671D01*
X157780183Y-46099335D01*
X157783280Y-46091859D01*
X157807551Y-46033262D01*
X157846255Y-45939823D01*
X157942178Y-45796264D01*
X158064264Y-45674178D01*
X158207823Y-45578255D01*
X158301262Y-45539551D01*
X158367334Y-45512183D01*
X158452003Y-45495341D01*
X158536671Y-45478500D01*
X158709329Y-45478500D01*
X158793997Y-45495342D01*
X158793997Y-45495342D01*
G37*
G36*
X205635244Y-45564699D02*
G01*
X205709142Y-45579398D01*
X205848364Y-45637065D01*
X205973659Y-45720785D01*
X206080215Y-45827341D01*
X206163935Y-45952636D01*
X206221602Y-46091858D01*
X206251000Y-46239654D01*
X206251000Y-46390346D01*
X206221602Y-46538142D01*
X206163935Y-46677364D01*
X206080215Y-46802659D01*
X205973659Y-46909215D01*
X205848364Y-46992935D01*
X205709142Y-47050602D01*
X205635244Y-47065301D01*
X205561347Y-47080000D01*
X205410653Y-47080000D01*
X205336756Y-47065301D01*
X205262858Y-47050602D01*
X205123636Y-46992935D01*
X204998341Y-46909215D01*
X204891785Y-46802659D01*
X204808065Y-46677364D01*
X204750398Y-46538142D01*
X204721000Y-46390346D01*
X204721000Y-46239654D01*
X204750398Y-46091858D01*
X204808065Y-45952636D01*
X204891785Y-45827341D01*
X204998341Y-45720785D01*
X205123636Y-45637065D01*
X205262858Y-45579398D01*
X205336756Y-45564699D01*
X205410653Y-45550000D01*
X205561347Y-45550000D01*
X205635244Y-45564699D01*
X205635244Y-45564699D01*
G37*
G36*
X207635244Y-45564699D02*
G01*
X207709142Y-45579398D01*
X207848364Y-45637065D01*
X207973659Y-45720785D01*
X208080215Y-45827341D01*
X208163935Y-45952636D01*
X208221602Y-46091858D01*
X208251000Y-46239654D01*
X208251000Y-46390346D01*
X208221602Y-46538142D01*
X208163935Y-46677364D01*
X208080215Y-46802659D01*
X207973659Y-46909215D01*
X207848364Y-46992935D01*
X207709142Y-47050602D01*
X207635244Y-47065301D01*
X207561347Y-47080000D01*
X207410653Y-47080000D01*
X207336756Y-47065301D01*
X207262858Y-47050602D01*
X207123636Y-46992935D01*
X206998341Y-46909215D01*
X206891785Y-46802659D01*
X206808065Y-46677364D01*
X206750398Y-46538142D01*
X206721000Y-46390346D01*
X206721000Y-46239654D01*
X206750398Y-46091858D01*
X206808065Y-45952636D01*
X206891785Y-45827341D01*
X206998341Y-45720785D01*
X207123636Y-45637065D01*
X207262858Y-45579398D01*
X207336756Y-45564699D01*
X207410653Y-45550000D01*
X207561347Y-45550000D01*
X207635244Y-45564699D01*
X207635244Y-45564699D01*
G37*
G36*
X151392000Y-37346000D02*
G01*
X150426993Y-37346000D01*
X150402607Y-37348402D01*
X150379158Y-37355515D01*
X150357547Y-37367066D01*
X150338605Y-37382611D01*
X150323060Y-37401553D01*
X150311509Y-37423164D01*
X150304396Y-37446613D01*
X150301994Y-37470999D01*
X150304396Y-37495385D01*
X150311509Y-37518834D01*
X150323060Y-37540445D01*
X150338605Y-37559387D01*
X150357547Y-37574932D01*
X150379158Y-37586483D01*
X150402608Y-37593596D01*
X150576734Y-37628232D01*
X150786203Y-37714997D01*
X150974720Y-37840960D01*
X151135040Y-38001280D01*
X151261003Y-38189797D01*
X151347768Y-38399266D01*
X151392000Y-38621636D01*
X151392000Y-38848364D01*
X151347768Y-39070734D01*
X151261003Y-39280203D01*
X151135040Y-39468720D01*
X150974720Y-39629040D01*
X150786203Y-39755003D01*
X150576734Y-39841768D01*
X150512660Y-39854513D01*
X150372448Y-39882403D01*
X150348999Y-39889516D01*
X150327388Y-39901067D01*
X150308446Y-39916612D01*
X150292901Y-39935554D01*
X150281350Y-39957165D01*
X150274237Y-39980614D01*
X150271835Y-40005000D01*
X150274237Y-40029386D01*
X150281350Y-40052835D01*
X150292901Y-40074446D01*
X150308446Y-40093388D01*
X150327388Y-40108933D01*
X150348999Y-40120484D01*
X150372448Y-40127597D01*
X150406764Y-40134423D01*
X150576734Y-40168232D01*
X150786203Y-40254997D01*
X150974720Y-40380960D01*
X151135040Y-40541280D01*
X151261003Y-40729797D01*
X151347768Y-40939266D01*
X151392000Y-41161636D01*
X151392000Y-41388364D01*
X151347768Y-41610734D01*
X151261003Y-41820203D01*
X151135040Y-42008720D01*
X150974720Y-42169040D01*
X150786203Y-42295003D01*
X150576734Y-42381768D01*
X150449161Y-42407144D01*
X150372448Y-42422403D01*
X150348999Y-42429516D01*
X150327388Y-42441067D01*
X150308446Y-42456612D01*
X150292901Y-42475554D01*
X150281350Y-42497165D01*
X150274237Y-42520614D01*
X150271835Y-42545000D01*
X150274237Y-42569386D01*
X150281350Y-42592835D01*
X150292901Y-42614446D01*
X150308446Y-42633388D01*
X150327388Y-42648933D01*
X150348999Y-42660484D01*
X150372448Y-42667597D01*
X150449161Y-42682856D01*
X150576734Y-42708232D01*
X150786203Y-42794997D01*
X150974720Y-42920960D01*
X151135040Y-43081280D01*
X151261003Y-43269797D01*
X151347768Y-43479266D01*
X151392000Y-43701636D01*
X151392000Y-43928364D01*
X151347768Y-44150734D01*
X151261003Y-44360203D01*
X151135040Y-44548720D01*
X150974720Y-44709040D01*
X150786203Y-44835003D01*
X150576734Y-44921768D01*
X150465549Y-44943884D01*
X150354365Y-44966000D01*
X150127635Y-44966000D01*
X150016451Y-44943884D01*
X149905266Y-44921768D01*
X149695797Y-44835003D01*
X149507280Y-44709040D01*
X149346960Y-44548720D01*
X149220997Y-44360203D01*
X149134232Y-44150734D01*
X149090000Y-43928364D01*
X149090000Y-43701636D01*
X149134232Y-43479266D01*
X149220997Y-43269797D01*
X149346960Y-43081280D01*
X149507280Y-42920960D01*
X149695797Y-42794997D01*
X149905266Y-42708232D01*
X150032839Y-42682856D01*
X150109552Y-42667597D01*
X150133001Y-42660484D01*
X150154612Y-42648933D01*
X150173554Y-42633388D01*
X150189099Y-42614446D01*
X150200650Y-42592835D01*
X150207763Y-42569386D01*
X150210165Y-42545000D01*
X150207763Y-42520614D01*
X150200650Y-42497165D01*
X150189099Y-42475554D01*
X150173554Y-42456612D01*
X150154612Y-42441067D01*
X150133001Y-42429516D01*
X150109552Y-42422403D01*
X150032839Y-42407144D01*
X149905266Y-42381768D01*
X149695797Y-42295003D01*
X149507280Y-42169040D01*
X149346960Y-42008720D01*
X149220997Y-41820203D01*
X149134232Y-41610734D01*
X149090000Y-41388364D01*
X149090000Y-41161636D01*
X149134232Y-40939266D01*
X149220997Y-40729797D01*
X149346960Y-40541280D01*
X149507280Y-40380960D01*
X149695797Y-40254997D01*
X149905266Y-40168232D01*
X150075236Y-40134423D01*
X150109552Y-40127597D01*
X150133001Y-40120484D01*
X150154612Y-40108933D01*
X150173554Y-40093388D01*
X150189099Y-40074446D01*
X150200650Y-40052835D01*
X150207763Y-40029386D01*
X150210165Y-40005000D01*
X150207763Y-39980614D01*
X150200650Y-39957165D01*
X150189099Y-39935554D01*
X150173554Y-39916612D01*
X150154612Y-39901067D01*
X150133001Y-39889516D01*
X150109552Y-39882403D01*
X149969340Y-39854513D01*
X149905266Y-39841768D01*
X149695797Y-39755003D01*
X149507280Y-39629040D01*
X149346960Y-39468720D01*
X149220997Y-39280203D01*
X149134232Y-39070734D01*
X149090000Y-38848364D01*
X149090000Y-38621636D01*
X149134232Y-38399266D01*
X149220997Y-38189797D01*
X149346960Y-38001280D01*
X149507280Y-37840960D01*
X149695797Y-37714997D01*
X149905266Y-37628232D01*
X150079392Y-37593596D01*
X150102842Y-37586483D01*
X150124453Y-37574932D01*
X150143395Y-37559387D01*
X150158940Y-37540445D01*
X150170491Y-37518834D01*
X150177604Y-37495385D01*
X150180006Y-37470999D01*
X150177604Y-37446613D01*
X150170491Y-37423164D01*
X150158940Y-37401553D01*
X150143395Y-37382611D01*
X150124453Y-37367066D01*
X150102842Y-37355515D01*
X150079393Y-37348402D01*
X150055007Y-37346000D01*
X149090000Y-37346000D01*
X149090000Y-35044000D01*
X151392000Y-35044000D01*
X151392000Y-37346000D01*
X151392000Y-37346000D01*
G37*
G36*
X171493997Y-42955341D02*
G01*
X171578666Y-42972183D01*
X171644738Y-42999551D01*
X171738177Y-43038255D01*
X171881736Y-43134178D01*
X172003822Y-43256264D01*
X172099745Y-43399823D01*
X172121621Y-43452636D01*
X172165817Y-43559334D01*
X172199500Y-43728672D01*
X172199500Y-43901328D01*
X172172287Y-44038141D01*
X172165817Y-44070665D01*
X172099745Y-44230177D01*
X172003822Y-44373736D01*
X171881736Y-44495822D01*
X171738177Y-44591745D01*
X171644738Y-44630449D01*
X171578666Y-44657817D01*
X171493997Y-44674658D01*
X171409329Y-44691500D01*
X171236671Y-44691500D01*
X171152003Y-44674658D01*
X171067334Y-44657817D01*
X171001262Y-44630449D01*
X170907823Y-44591745D01*
X170764264Y-44495822D01*
X170642178Y-44373736D01*
X170546255Y-44230177D01*
X170480183Y-44070665D01*
X170473714Y-44038141D01*
X170446500Y-43901328D01*
X170446500Y-43728672D01*
X170480183Y-43559334D01*
X170524379Y-43452636D01*
X170546255Y-43399823D01*
X170642178Y-43256264D01*
X170764264Y-43134178D01*
X170907823Y-43038255D01*
X171001262Y-42999551D01*
X171067334Y-42972183D01*
X171152003Y-42955342D01*
X171236671Y-42938500D01*
X171409329Y-42938500D01*
X171493997Y-42955341D01*
X171493997Y-42955341D01*
G37*
G36*
X155618997Y-42955341D02*
G01*
X155703666Y-42972183D01*
X155769738Y-42999551D01*
X155863177Y-43038255D01*
X156006736Y-43134178D01*
X156128822Y-43256264D01*
X156224745Y-43399823D01*
X156246621Y-43452636D01*
X156290817Y-43559334D01*
X156324500Y-43728672D01*
X156324500Y-43901328D01*
X156297287Y-44038141D01*
X156290817Y-44070665D01*
X156224745Y-44230177D01*
X156128822Y-44373736D01*
X156006736Y-44495822D01*
X155863177Y-44591745D01*
X155769738Y-44630449D01*
X155703666Y-44657817D01*
X155618997Y-44674658D01*
X155534329Y-44691500D01*
X155361671Y-44691500D01*
X155277003Y-44674658D01*
X155192334Y-44657817D01*
X155126262Y-44630449D01*
X155032823Y-44591745D01*
X154889264Y-44495822D01*
X154767178Y-44373736D01*
X154671255Y-44230177D01*
X154605183Y-44070665D01*
X154598714Y-44038141D01*
X154571500Y-43901328D01*
X154571500Y-43728672D01*
X154605183Y-43559334D01*
X154649379Y-43452636D01*
X154671255Y-43399823D01*
X154767178Y-43256264D01*
X154889264Y-43134178D01*
X155032823Y-43038255D01*
X155126262Y-42999551D01*
X155192334Y-42972183D01*
X155277003Y-42955342D01*
X155361671Y-42938500D01*
X155534329Y-42938500D01*
X155618997Y-42955341D01*
X155618997Y-42955341D01*
G37*
G36*
X158793997Y-42955341D02*
G01*
X158878666Y-42972183D01*
X158944738Y-42999551D01*
X159038177Y-43038255D01*
X159181736Y-43134178D01*
X159303822Y-43256264D01*
X159399745Y-43399823D01*
X159421621Y-43452636D01*
X159465817Y-43559334D01*
X159499500Y-43728672D01*
X159499500Y-43901328D01*
X159472287Y-44038141D01*
X159465817Y-44070665D01*
X159399745Y-44230177D01*
X159303822Y-44373736D01*
X159181736Y-44495822D01*
X159038177Y-44591745D01*
X158944738Y-44630449D01*
X158878666Y-44657817D01*
X158793997Y-44674658D01*
X158709329Y-44691500D01*
X158536671Y-44691500D01*
X158452003Y-44674658D01*
X158367334Y-44657817D01*
X158301262Y-44630449D01*
X158207823Y-44591745D01*
X158064264Y-44495822D01*
X157942178Y-44373736D01*
X157846255Y-44230177D01*
X157780183Y-44070665D01*
X157773714Y-44038141D01*
X157746500Y-43901328D01*
X157746500Y-43728672D01*
X157780183Y-43559334D01*
X157824379Y-43452636D01*
X157846255Y-43399823D01*
X157942178Y-43256264D01*
X158064264Y-43134178D01*
X158207823Y-43038255D01*
X158301262Y-42999551D01*
X158367334Y-42972183D01*
X158452003Y-42955342D01*
X158536671Y-42938500D01*
X158709329Y-42938500D01*
X158793997Y-42955341D01*
X158793997Y-42955341D01*
G37*
G36*
X207635244Y-43064699D02*
G01*
X207709142Y-43079398D01*
X207848364Y-43137065D01*
X207973659Y-43220785D01*
X208080215Y-43327341D01*
X208163935Y-43452636D01*
X208221602Y-43591858D01*
X208221602Y-43591859D01*
X208251000Y-43739653D01*
X208251000Y-43890347D01*
X208243438Y-43928364D01*
X208221602Y-44038142D01*
X208163935Y-44177364D01*
X208080215Y-44302659D01*
X207973659Y-44409215D01*
X207848364Y-44492935D01*
X207709142Y-44550602D01*
X207635244Y-44565301D01*
X207561347Y-44580000D01*
X207410653Y-44580000D01*
X207336756Y-44565301D01*
X207262858Y-44550602D01*
X207123636Y-44492935D01*
X206998341Y-44409215D01*
X206891785Y-44302659D01*
X206808065Y-44177364D01*
X206750398Y-44038142D01*
X206728562Y-43928364D01*
X206721000Y-43890347D01*
X206721000Y-43739653D01*
X206750398Y-43591859D01*
X206750398Y-43591858D01*
X206808065Y-43452636D01*
X206891785Y-43327341D01*
X206998341Y-43220785D01*
X207123636Y-43137065D01*
X207262858Y-43079398D01*
X207336756Y-43064699D01*
X207410653Y-43050000D01*
X207561347Y-43050000D01*
X207635244Y-43064699D01*
X207635244Y-43064699D01*
G37*
G36*
X206251000Y-44580000D02*
G01*
X204721000Y-44580000D01*
X204721000Y-43050000D01*
X206251000Y-43050000D01*
X206251000Y-44580000D01*
X206251000Y-44580000D01*
G37*
G36*
X171493997Y-40415342D02*
G01*
X171578666Y-40432183D01*
X171644738Y-40459551D01*
X171738177Y-40498255D01*
X171881736Y-40594178D01*
X172003822Y-40716264D01*
X172099745Y-40859823D01*
X172165817Y-41019335D01*
X172199500Y-41188671D01*
X172199500Y-41361329D01*
X172165817Y-41530665D01*
X172099745Y-41690177D01*
X172003822Y-41833736D01*
X171881736Y-41955822D01*
X171738177Y-42051745D01*
X171644738Y-42090449D01*
X171578666Y-42117817D01*
X171493997Y-42134658D01*
X171409329Y-42151500D01*
X171236671Y-42151500D01*
X171152003Y-42134658D01*
X171067334Y-42117817D01*
X171001262Y-42090449D01*
X170907823Y-42051745D01*
X170764264Y-41955822D01*
X170642178Y-41833736D01*
X170546255Y-41690177D01*
X170480183Y-41530665D01*
X170446500Y-41361329D01*
X170446500Y-41188671D01*
X170480183Y-41019335D01*
X170546255Y-40859823D01*
X170642178Y-40716264D01*
X170764264Y-40594178D01*
X170907823Y-40498255D01*
X171001262Y-40459551D01*
X171067334Y-40432183D01*
X171152003Y-40415342D01*
X171236671Y-40398500D01*
X171409329Y-40398500D01*
X171493997Y-40415342D01*
X171493997Y-40415342D01*
G37*
G36*
X158793997Y-40415342D02*
G01*
X158878666Y-40432183D01*
X158944738Y-40459551D01*
X159038177Y-40498255D01*
X159181736Y-40594178D01*
X159303822Y-40716264D01*
X159399745Y-40859823D01*
X159465817Y-41019335D01*
X159499500Y-41188671D01*
X159499500Y-41361329D01*
X159465817Y-41530665D01*
X159399745Y-41690177D01*
X159303822Y-41833736D01*
X159181736Y-41955822D01*
X159038177Y-42051745D01*
X158944738Y-42090449D01*
X158878666Y-42117817D01*
X158793997Y-42134658D01*
X158709329Y-42151500D01*
X158536671Y-42151500D01*
X158452003Y-42134658D01*
X158367334Y-42117817D01*
X158301262Y-42090449D01*
X158207823Y-42051745D01*
X158064264Y-41955822D01*
X157942178Y-41833736D01*
X157846255Y-41690177D01*
X157780183Y-41530665D01*
X157746500Y-41361329D01*
X157746500Y-41188671D01*
X157780183Y-41019335D01*
X157846255Y-40859823D01*
X157942178Y-40716264D01*
X158064264Y-40594178D01*
X158207823Y-40498255D01*
X158301262Y-40459551D01*
X158367334Y-40432183D01*
X158452003Y-40415342D01*
X158536671Y-40398500D01*
X158709329Y-40398500D01*
X158793997Y-40415342D01*
X158793997Y-40415342D01*
G37*
G36*
X155618997Y-40415342D02*
G01*
X155703666Y-40432183D01*
X155769738Y-40459551D01*
X155863177Y-40498255D01*
X156006736Y-40594178D01*
X156128822Y-40716264D01*
X156224745Y-40859823D01*
X156290817Y-41019335D01*
X156324500Y-41188671D01*
X156324500Y-41361329D01*
X156290817Y-41530665D01*
X156224745Y-41690177D01*
X156128822Y-41833736D01*
X156006736Y-41955822D01*
X155863177Y-42051745D01*
X155769738Y-42090449D01*
X155703666Y-42117817D01*
X155618997Y-42134658D01*
X155534329Y-42151500D01*
X155361671Y-42151500D01*
X155277003Y-42134658D01*
X155192334Y-42117817D01*
X155126262Y-42090449D01*
X155032823Y-42051745D01*
X154889264Y-41955822D01*
X154767178Y-41833736D01*
X154671255Y-41690177D01*
X154605183Y-41530665D01*
X154571500Y-41361329D01*
X154571500Y-41188671D01*
X154605183Y-41019335D01*
X154671255Y-40859823D01*
X154767178Y-40716264D01*
X154889264Y-40594178D01*
X155032823Y-40498255D01*
X155126262Y-40459551D01*
X155192334Y-40432183D01*
X155277003Y-40415342D01*
X155361671Y-40398500D01*
X155534329Y-40398500D01*
X155618997Y-40415342D01*
X155618997Y-40415342D01*
G37*
G36*
X210694496Y-37401675D02*
G01*
X211005513Y-37530503D01*
X211005515Y-37530504D01*
X211285424Y-37717533D01*
X211523467Y-37955576D01*
X211710496Y-38235485D01*
X211710497Y-38235487D01*
X211839325Y-38546504D01*
X211905000Y-38876677D01*
X211905000Y-39213323D01*
X211839325Y-39543496D01*
X211751715Y-39755004D01*
X211710496Y-39854515D01*
X211523467Y-40134424D01*
X211285424Y-40372467D01*
X211005515Y-40559496D01*
X211005514Y-40559497D01*
X211005513Y-40559497D01*
X210694496Y-40688325D01*
X210364323Y-40754000D01*
X210027677Y-40754000D01*
X209697504Y-40688325D01*
X209386487Y-40559497D01*
X209386486Y-40559497D01*
X209386485Y-40559496D01*
X209106576Y-40372467D01*
X208868533Y-40134424D01*
X208681504Y-39854515D01*
X208640285Y-39755004D01*
X208552675Y-39543496D01*
X208487000Y-39213323D01*
X208487000Y-38876677D01*
X208552675Y-38546504D01*
X208681503Y-38235487D01*
X208681504Y-38235485D01*
X208868533Y-37955576D01*
X209106576Y-37717533D01*
X209386485Y-37530504D01*
X209386487Y-37530503D01*
X209697504Y-37401675D01*
X210027677Y-37336000D01*
X210364323Y-37336000D01*
X210694496Y-37401675D01*
X210694496Y-37401675D01*
G37*
G36*
X171493997Y-37875342D02*
G01*
X171578666Y-37892183D01*
X171644738Y-37919551D01*
X171738177Y-37958255D01*
X171881736Y-38054178D01*
X172003822Y-38176264D01*
X172099745Y-38319823D01*
X172165817Y-38479335D01*
X172199500Y-38648671D01*
X172199500Y-38821329D01*
X172165817Y-38990665D01*
X172099745Y-39150177D01*
X172003822Y-39293736D01*
X171881736Y-39415822D01*
X171738177Y-39511745D01*
X171661523Y-39543496D01*
X171578666Y-39577817D01*
X171493997Y-39594658D01*
X171409329Y-39611500D01*
X171236671Y-39611500D01*
X171152003Y-39594659D01*
X171067334Y-39577817D01*
X170984477Y-39543496D01*
X170907823Y-39511745D01*
X170764264Y-39415822D01*
X170642178Y-39293736D01*
X170546255Y-39150177D01*
X170480183Y-38990665D01*
X170446500Y-38821329D01*
X170446500Y-38648671D01*
X170480183Y-38479335D01*
X170546255Y-38319823D01*
X170642178Y-38176264D01*
X170764264Y-38054178D01*
X170907823Y-37958255D01*
X171001262Y-37919551D01*
X171067334Y-37892183D01*
X171152003Y-37875342D01*
X171236671Y-37858500D01*
X171409329Y-37858500D01*
X171493997Y-37875342D01*
X171493997Y-37875342D01*
G37*
G36*
X158793997Y-37875342D02*
G01*
X158878666Y-37892183D01*
X158944738Y-37919551D01*
X159038177Y-37958255D01*
X159181736Y-38054178D01*
X159303822Y-38176264D01*
X159399745Y-38319823D01*
X159465817Y-38479335D01*
X159499500Y-38648671D01*
X159499500Y-38821329D01*
X159465817Y-38990665D01*
X159399745Y-39150177D01*
X159303822Y-39293736D01*
X159181736Y-39415822D01*
X159038177Y-39511745D01*
X158961523Y-39543496D01*
X158878666Y-39577817D01*
X158793997Y-39594658D01*
X158709329Y-39611500D01*
X158536671Y-39611500D01*
X158452003Y-39594659D01*
X158367334Y-39577817D01*
X158284477Y-39543496D01*
X158207823Y-39511745D01*
X158064264Y-39415822D01*
X157942178Y-39293736D01*
X157846255Y-39150177D01*
X157780183Y-38990665D01*
X157746500Y-38821329D01*
X157746500Y-38648671D01*
X157780183Y-38479335D01*
X157846255Y-38319823D01*
X157942178Y-38176264D01*
X158064264Y-38054178D01*
X158207823Y-37958255D01*
X158301262Y-37919551D01*
X158367334Y-37892183D01*
X158452003Y-37875342D01*
X158536671Y-37858500D01*
X158709329Y-37858500D01*
X158793997Y-37875342D01*
X158793997Y-37875342D01*
G37*
G36*
X155618997Y-37875342D02*
G01*
X155703666Y-37892183D01*
X155769738Y-37919551D01*
X155863177Y-37958255D01*
X156006736Y-38054178D01*
X156128822Y-38176264D01*
X156224745Y-38319823D01*
X156290817Y-38479335D01*
X156324500Y-38648671D01*
X156324500Y-38821329D01*
X156290817Y-38990665D01*
X156224745Y-39150177D01*
X156128822Y-39293736D01*
X156006736Y-39415822D01*
X155863177Y-39511745D01*
X155786523Y-39543496D01*
X155703666Y-39577817D01*
X155618997Y-39594658D01*
X155534329Y-39611500D01*
X155361671Y-39611500D01*
X155277003Y-39594659D01*
X155192334Y-39577817D01*
X155109477Y-39543496D01*
X155032823Y-39511745D01*
X154889264Y-39415822D01*
X154767178Y-39293736D01*
X154671255Y-39150177D01*
X154605183Y-38990665D01*
X154571500Y-38821329D01*
X154571500Y-38648671D01*
X154605183Y-38479335D01*
X154671255Y-38319823D01*
X154767178Y-38176264D01*
X154889264Y-38054178D01*
X155032823Y-37958255D01*
X155126262Y-37919551D01*
X155192334Y-37892183D01*
X155277003Y-37875342D01*
X155361671Y-37858500D01*
X155534329Y-37858500D01*
X155618997Y-37875342D01*
X155618997Y-37875342D01*
G37*
G36*
X167048997Y-36605341D02*
G01*
X167133666Y-36622183D01*
X167199738Y-36649551D01*
X167293177Y-36688255D01*
X167436736Y-36784178D01*
X167558822Y-36906264D01*
X167654745Y-37049823D01*
X167720817Y-37209335D01*
X167754500Y-37378671D01*
X167754500Y-37551329D01*
X167739203Y-37628232D01*
X167721945Y-37714997D01*
X167720817Y-37720665D01*
X167654745Y-37880177D01*
X167558822Y-38023736D01*
X167436736Y-38145822D01*
X167293177Y-38241745D01*
X167199738Y-38280449D01*
X167133666Y-38307817D01*
X167073312Y-38319822D01*
X166964329Y-38341500D01*
X166791671Y-38341500D01*
X166682688Y-38319822D01*
X166622334Y-38307817D01*
X166556262Y-38280449D01*
X166462823Y-38241745D01*
X166319264Y-38145822D01*
X166197178Y-38023736D01*
X166101255Y-37880177D01*
X166035183Y-37720665D01*
X166034056Y-37714997D01*
X166016797Y-37628232D01*
X166001500Y-37551329D01*
X166001500Y-37378671D01*
X166035183Y-37209335D01*
X166101255Y-37049823D01*
X166197178Y-36906264D01*
X166319264Y-36784178D01*
X166462823Y-36688255D01*
X166556262Y-36649551D01*
X166622334Y-36622183D01*
X166707003Y-36605342D01*
X166791671Y-36588500D01*
X166964329Y-36588500D01*
X167048997Y-36605341D01*
X167048997Y-36605341D01*
G37*
G36*
X162674500Y-38341500D02*
G01*
X160921500Y-38341500D01*
X160921500Y-36588500D01*
X162674500Y-36588500D01*
X162674500Y-38341500D01*
X162674500Y-38341500D01*
G37*
G36*
X164508997Y-36605341D02*
G01*
X164593666Y-36622183D01*
X164659738Y-36649551D01*
X164753177Y-36688255D01*
X164896736Y-36784178D01*
X165018822Y-36906264D01*
X165114745Y-37049823D01*
X165180817Y-37209335D01*
X165214500Y-37378671D01*
X165214500Y-37551329D01*
X165199203Y-37628232D01*
X165181945Y-37714997D01*
X165180817Y-37720665D01*
X165114745Y-37880177D01*
X165018822Y-38023736D01*
X164896736Y-38145822D01*
X164753177Y-38241745D01*
X164659738Y-38280449D01*
X164593666Y-38307817D01*
X164533312Y-38319822D01*
X164424329Y-38341500D01*
X164251671Y-38341500D01*
X164142688Y-38319822D01*
X164082334Y-38307817D01*
X164016262Y-38280449D01*
X163922823Y-38241745D01*
X163779264Y-38145822D01*
X163657178Y-38023736D01*
X163561255Y-37880177D01*
X163495183Y-37720665D01*
X163494056Y-37714997D01*
X163476797Y-37628232D01*
X163461500Y-37551329D01*
X163461500Y-37378671D01*
X163495183Y-37209335D01*
X163561255Y-37049823D01*
X163657178Y-36906264D01*
X163779264Y-36784178D01*
X163922823Y-36688255D01*
X164016262Y-36649551D01*
X164082334Y-36622183D01*
X164167003Y-36605342D01*
X164251671Y-36588500D01*
X164424329Y-36588500D01*
X164508997Y-36605341D01*
X164508997Y-36605341D01*
G37*
G36*
X156324500Y-37071500D02*
G01*
X154571500Y-37071500D01*
X154571500Y-35318500D01*
X156324500Y-35318500D01*
X156324500Y-37071500D01*
X156324500Y-37071500D01*
G37*
G36*
X158793997Y-35335341D02*
G01*
X158878666Y-35352183D01*
X158944738Y-35379551D01*
X159038177Y-35418255D01*
X159181736Y-35514178D01*
X159303822Y-35636264D01*
X159399745Y-35779823D01*
X159465817Y-35939335D01*
X159499500Y-36108671D01*
X159499500Y-36281329D01*
X159465817Y-36450665D01*
X159399745Y-36610177D01*
X159303822Y-36753736D01*
X159181736Y-36875822D01*
X159038177Y-36971745D01*
X158944738Y-37010449D01*
X158878666Y-37037817D01*
X158818312Y-37049822D01*
X158709329Y-37071500D01*
X158536671Y-37071500D01*
X158427688Y-37049822D01*
X158367334Y-37037817D01*
X158301262Y-37010449D01*
X158207823Y-36971745D01*
X158064264Y-36875822D01*
X157942178Y-36753736D01*
X157846255Y-36610177D01*
X157780183Y-36450665D01*
X157746500Y-36281329D01*
X157746500Y-36108671D01*
X157780183Y-35939335D01*
X157846255Y-35779823D01*
X157942178Y-35636264D01*
X158064264Y-35514178D01*
X158207823Y-35418255D01*
X158301262Y-35379551D01*
X158367334Y-35352183D01*
X158452003Y-35335342D01*
X158536671Y-35318500D01*
X158709329Y-35318500D01*
X158793997Y-35335341D01*
X158793997Y-35335341D01*
G37*
G36*
X171493997Y-35335341D02*
G01*
X171578666Y-35352183D01*
X171644738Y-35379551D01*
X171738177Y-35418255D01*
X171881736Y-35514178D01*
X172003822Y-35636264D01*
X172099745Y-35779823D01*
X172165817Y-35939335D01*
X172199500Y-36108671D01*
X172199500Y-36281329D01*
X172165817Y-36450665D01*
X172099745Y-36610177D01*
X172003822Y-36753736D01*
X171881736Y-36875822D01*
X171738177Y-36971745D01*
X171644738Y-37010449D01*
X171578666Y-37037817D01*
X171518312Y-37049822D01*
X171409329Y-37071500D01*
X171236671Y-37071500D01*
X171127688Y-37049822D01*
X171067334Y-37037817D01*
X171001262Y-37010449D01*
X170907823Y-36971745D01*
X170764264Y-36875822D01*
X170642178Y-36753736D01*
X170546255Y-36610177D01*
X170480183Y-36450665D01*
X170446500Y-36281329D01*
X170446500Y-36108671D01*
X170480183Y-35939335D01*
X170546255Y-35779823D01*
X170642178Y-35636264D01*
X170764264Y-35514178D01*
X170907823Y-35418255D01*
X171001262Y-35379551D01*
X171067334Y-35352183D01*
X171152003Y-35335342D01*
X171236671Y-35318500D01*
X171409329Y-35318500D01*
X171493997Y-35335341D01*
X171493997Y-35335341D01*
G37*
G36*
X162674500Y-35166500D02*
G01*
X160921500Y-35166500D01*
X160921500Y-33413500D01*
X162674500Y-33413500D01*
X162674500Y-35166500D01*
X162674500Y-35166500D01*
G37*
G36*
X164508997Y-33430341D02*
G01*
X164593666Y-33447183D01*
X164659738Y-33474551D01*
X164753177Y-33513255D01*
X164896736Y-33609178D01*
X165018822Y-33731264D01*
X165114745Y-33874823D01*
X165153449Y-33968262D01*
X165180817Y-34034334D01*
X165187947Y-34070178D01*
X165214500Y-34203671D01*
X165214500Y-34376329D01*
X165180817Y-34545665D01*
X165114745Y-34705177D01*
X165018822Y-34848736D01*
X164896736Y-34970822D01*
X164753177Y-35066745D01*
X164659738Y-35105449D01*
X164593666Y-35132817D01*
X164508997Y-35149658D01*
X164424329Y-35166500D01*
X164251671Y-35166500D01*
X164167003Y-35149659D01*
X164082334Y-35132817D01*
X164016262Y-35105449D01*
X163922823Y-35066745D01*
X163779264Y-34970822D01*
X163657178Y-34848736D01*
X163561255Y-34705177D01*
X163495183Y-34545665D01*
X163461500Y-34376329D01*
X163461500Y-34203671D01*
X163488053Y-34070178D01*
X163495183Y-34034334D01*
X163522551Y-33968262D01*
X163561255Y-33874823D01*
X163657178Y-33731264D01*
X163779264Y-33609178D01*
X163922823Y-33513255D01*
X164016262Y-33474551D01*
X164082334Y-33447183D01*
X164167003Y-33430342D01*
X164251671Y-33413500D01*
X164424329Y-33413500D01*
X164508997Y-33430341D01*
X164508997Y-33430341D01*
G37*
G36*
X167048997Y-33430341D02*
G01*
X167133666Y-33447183D01*
X167199738Y-33474551D01*
X167293177Y-33513255D01*
X167436736Y-33609178D01*
X167558822Y-33731264D01*
X167654745Y-33874823D01*
X167693449Y-33968262D01*
X167720817Y-34034334D01*
X167727947Y-34070178D01*
X167754500Y-34203671D01*
X167754500Y-34376329D01*
X167720817Y-34545665D01*
X167654745Y-34705177D01*
X167558822Y-34848736D01*
X167436736Y-34970822D01*
X167293177Y-35066745D01*
X167199738Y-35105449D01*
X167133666Y-35132817D01*
X167048997Y-35149658D01*
X166964329Y-35166500D01*
X166791671Y-35166500D01*
X166707003Y-35149659D01*
X166622334Y-35132817D01*
X166556262Y-35105449D01*
X166462823Y-35066745D01*
X166319264Y-34970822D01*
X166197178Y-34848736D01*
X166101255Y-34705177D01*
X166035183Y-34545665D01*
X166001500Y-34376329D01*
X166001500Y-34203671D01*
X166028053Y-34070178D01*
X166035183Y-34034334D01*
X166062551Y-33968262D01*
X166101255Y-33874823D01*
X166197178Y-33731264D01*
X166319264Y-33609178D01*
X166462823Y-33513255D01*
X166556262Y-33474551D01*
X166622334Y-33447183D01*
X166707003Y-33430342D01*
X166791671Y-33413500D01*
X166964329Y-33413500D01*
X167048997Y-33430341D01*
X167048997Y-33430341D01*
G37*
G36*
X158793997Y-32795341D02*
G01*
X158878666Y-32812183D01*
X158944738Y-32839551D01*
X159038177Y-32878255D01*
X159181736Y-32974178D01*
X159303822Y-33096264D01*
X159399745Y-33239823D01*
X159438449Y-33333262D01*
X159465817Y-33399334D01*
X159499500Y-33568672D01*
X159499500Y-33741328D01*
X159472947Y-33874823D01*
X159465817Y-33910665D01*
X159399745Y-34070177D01*
X159303822Y-34213736D01*
X159181736Y-34335822D01*
X159038177Y-34431745D01*
X158944738Y-34470449D01*
X158878666Y-34497817D01*
X158793997Y-34514658D01*
X158709329Y-34531500D01*
X158536671Y-34531500D01*
X158452003Y-34514658D01*
X158367334Y-34497817D01*
X158301262Y-34470449D01*
X158207823Y-34431745D01*
X158064264Y-34335822D01*
X157942178Y-34213736D01*
X157846255Y-34070177D01*
X157780183Y-33910665D01*
X157773054Y-33874823D01*
X157746500Y-33741328D01*
X157746500Y-33568672D01*
X157780183Y-33399334D01*
X157807551Y-33333262D01*
X157846255Y-33239823D01*
X157942178Y-33096264D01*
X158064264Y-32974178D01*
X158207823Y-32878255D01*
X158301262Y-32839551D01*
X158367334Y-32812183D01*
X158452003Y-32795341D01*
X158536671Y-32778500D01*
X158709329Y-32778500D01*
X158793997Y-32795341D01*
X158793997Y-32795341D01*
G37*
G36*
X171493997Y-32795341D02*
G01*
X171578666Y-32812183D01*
X171644738Y-32839551D01*
X171738177Y-32878255D01*
X171881736Y-32974178D01*
X172003822Y-33096264D01*
X172099745Y-33239823D01*
X172138449Y-33333262D01*
X172165817Y-33399334D01*
X172199500Y-33568672D01*
X172199500Y-33741328D01*
X172172947Y-33874823D01*
X172165817Y-33910665D01*
X172099745Y-34070177D01*
X172003822Y-34213736D01*
X171881736Y-34335822D01*
X171738177Y-34431745D01*
X171644738Y-34470449D01*
X171578666Y-34497817D01*
X171493997Y-34514658D01*
X171409329Y-34531500D01*
X171236671Y-34531500D01*
X171152003Y-34514658D01*
X171067334Y-34497817D01*
X171001262Y-34470449D01*
X170907823Y-34431745D01*
X170764264Y-34335822D01*
X170642178Y-34213736D01*
X170546255Y-34070177D01*
X170480183Y-33910665D01*
X170473054Y-33874823D01*
X170446500Y-33741328D01*
X170446500Y-33568672D01*
X170480183Y-33399334D01*
X170507551Y-33333262D01*
X170546255Y-33239823D01*
X170642178Y-33096264D01*
X170764264Y-32974178D01*
X170907823Y-32878255D01*
X171001262Y-32839551D01*
X171067334Y-32812183D01*
X171152003Y-32795341D01*
X171236671Y-32778500D01*
X171409329Y-32778500D01*
X171493997Y-32795341D01*
X171493997Y-32795341D01*
G37*
G36*
X148994098Y-28797033D02*
G01*
X149458350Y-28989332D01*
X149458352Y-28989333D01*
X149876168Y-29268509D01*
X150231491Y-29623832D01*
X150510667Y-30041648D01*
X150510668Y-30041650D01*
X150702967Y-30505902D01*
X150801000Y-30998747D01*
X150801000Y-31501253D01*
X150702967Y-31994098D01*
X150510668Y-32458350D01*
X150510667Y-32458352D01*
X150231491Y-32876168D01*
X149876168Y-33231491D01*
X149458352Y-33510667D01*
X149458351Y-33510668D01*
X149458350Y-33510668D01*
X148994098Y-33702967D01*
X148501253Y-33801000D01*
X147998747Y-33801000D01*
X147505902Y-33702967D01*
X147041650Y-33510668D01*
X147041649Y-33510668D01*
X147041648Y-33510667D01*
X146623832Y-33231491D01*
X146268509Y-32876168D01*
X145989333Y-32458352D01*
X145989332Y-32458350D01*
X145797033Y-31994098D01*
X145699000Y-31501253D01*
X145699000Y-30998747D01*
X145797033Y-30505902D01*
X145989332Y-30041650D01*
X145989333Y-30041648D01*
X146268509Y-29623832D01*
X146623832Y-29268509D01*
X147041648Y-28989333D01*
X147041650Y-28989332D01*
X147505902Y-28797033D01*
X147998747Y-28699000D01*
X148501253Y-28699000D01*
X148994098Y-28797033D01*
X148994098Y-28797033D01*
G37*
G36*
X217494098Y-28797033D02*
G01*
X217958350Y-28989332D01*
X217958352Y-28989333D01*
X218376168Y-29268509D01*
X218731491Y-29623832D01*
X219010667Y-30041648D01*
X219010668Y-30041650D01*
X219202967Y-30505902D01*
X219301000Y-30998747D01*
X219301000Y-31501253D01*
X219202967Y-31994098D01*
X219010668Y-32458350D01*
X219010667Y-32458352D01*
X218731491Y-32876168D01*
X218376168Y-33231491D01*
X217958352Y-33510667D01*
X217958351Y-33510668D01*
X217958350Y-33510668D01*
X217494098Y-33702967D01*
X217001253Y-33801000D01*
X216498747Y-33801000D01*
X216005902Y-33702967D01*
X215541650Y-33510668D01*
X215541649Y-33510668D01*
X215541648Y-33510667D01*
X215123832Y-33231491D01*
X214768509Y-32876168D01*
X214489333Y-32458352D01*
X214489332Y-32458350D01*
X214297033Y-31994098D01*
X214199000Y-31501253D01*
X214199000Y-30998747D01*
X214297033Y-30505902D01*
X214489332Y-30041650D01*
X214489333Y-30041648D01*
X214768509Y-29623832D01*
X215123832Y-29268509D01*
X215541648Y-28989333D01*
X215541650Y-28989332D01*
X216005902Y-28797033D01*
X216498747Y-28699000D01*
X217001253Y-28699000D01*
X217494098Y-28797033D01*
X217494098Y-28797033D01*
G37*
G36*
X158793997Y-30255341D02*
G01*
X158878666Y-30272183D01*
X158944738Y-30299551D01*
X159038177Y-30338255D01*
X159181736Y-30434178D01*
X159303822Y-30556264D01*
X159399745Y-30699823D01*
X159465817Y-30859335D01*
X159499500Y-31028671D01*
X159499500Y-31201329D01*
X159465817Y-31370665D01*
X159399745Y-31530177D01*
X159303822Y-31673736D01*
X159181736Y-31795822D01*
X159038177Y-31891745D01*
X158944738Y-31930449D01*
X158878666Y-31957817D01*
X158793997Y-31974658D01*
X158709329Y-31991500D01*
X158536671Y-31991500D01*
X158452003Y-31974659D01*
X158367334Y-31957817D01*
X158301262Y-31930449D01*
X158207823Y-31891745D01*
X158064264Y-31795822D01*
X157942178Y-31673736D01*
X157846255Y-31530177D01*
X157780183Y-31370665D01*
X157746500Y-31201329D01*
X157746500Y-31028671D01*
X157780183Y-30859335D01*
X157846255Y-30699823D01*
X157942178Y-30556264D01*
X158064264Y-30434178D01*
X158207823Y-30338255D01*
X158301262Y-30299551D01*
X158367334Y-30272183D01*
X158452003Y-30255342D01*
X158536671Y-30238500D01*
X158709329Y-30238500D01*
X158793997Y-30255341D01*
X158793997Y-30255341D01*
G37*
G36*
X171493997Y-30255341D02*
G01*
X171578666Y-30272183D01*
X171644738Y-30299551D01*
X171738177Y-30338255D01*
X171881736Y-30434178D01*
X172003822Y-30556264D01*
X172099745Y-30699823D01*
X172165817Y-30859335D01*
X172199500Y-31028671D01*
X172199500Y-31201329D01*
X172165817Y-31370665D01*
X172099745Y-31530177D01*
X172003822Y-31673736D01*
X171881736Y-31795822D01*
X171738177Y-31891745D01*
X171644738Y-31930449D01*
X171578666Y-31957817D01*
X171493997Y-31974658D01*
X171409329Y-31991500D01*
X171236671Y-31991500D01*
X171152003Y-31974659D01*
X171067334Y-31957817D01*
X171001262Y-31930449D01*
X170907823Y-31891745D01*
X170764264Y-31795822D01*
X170642178Y-31673736D01*
X170546255Y-31530177D01*
X170480183Y-31370665D01*
X170446500Y-31201329D01*
X170446500Y-31028671D01*
X170480183Y-30859335D01*
X170546255Y-30699823D01*
X170642178Y-30556264D01*
X170764264Y-30434178D01*
X170907823Y-30338255D01*
X171001262Y-30299551D01*
X171067334Y-30272183D01*
X171152003Y-30255342D01*
X171236671Y-30238500D01*
X171409329Y-30238500D01*
X171493997Y-30255341D01*
X171493997Y-30255341D01*
G37*
G36*
X162674500Y-31991500D02*
G01*
X160921500Y-31991500D01*
X160921500Y-30238500D01*
X162674500Y-30238500D01*
X162674500Y-31991500D01*
X162674500Y-31991500D01*
G37*
G36*
X164508997Y-30255341D02*
G01*
X164593666Y-30272183D01*
X164659738Y-30299551D01*
X164753177Y-30338255D01*
X164896736Y-30434178D01*
X165018822Y-30556264D01*
X165114745Y-30699823D01*
X165180817Y-30859335D01*
X165214500Y-31028671D01*
X165214500Y-31201329D01*
X165180817Y-31370665D01*
X165114745Y-31530177D01*
X165018822Y-31673736D01*
X164896736Y-31795822D01*
X164753177Y-31891745D01*
X164659738Y-31930449D01*
X164593666Y-31957817D01*
X164508997Y-31974658D01*
X164424329Y-31991500D01*
X164251671Y-31991500D01*
X164167003Y-31974659D01*
X164082334Y-31957817D01*
X164016262Y-31930449D01*
X163922823Y-31891745D01*
X163779264Y-31795822D01*
X163657178Y-31673736D01*
X163561255Y-31530177D01*
X163495183Y-31370665D01*
X163461500Y-31201329D01*
X163461500Y-31028671D01*
X163495183Y-30859335D01*
X163561255Y-30699823D01*
X163657178Y-30556264D01*
X163779264Y-30434178D01*
X163922823Y-30338255D01*
X164016262Y-30299551D01*
X164082334Y-30272183D01*
X164167003Y-30255342D01*
X164251671Y-30238500D01*
X164424329Y-30238500D01*
X164508997Y-30255341D01*
X164508997Y-30255341D01*
G37*
G36*
X167048997Y-30255341D02*
G01*
X167133666Y-30272183D01*
X167199738Y-30299551D01*
X167293177Y-30338255D01*
X167436736Y-30434178D01*
X167558822Y-30556264D01*
X167654745Y-30699823D01*
X167720817Y-30859335D01*
X167754500Y-31028671D01*
X167754500Y-31201329D01*
X167720817Y-31370665D01*
X167654745Y-31530177D01*
X167558822Y-31673736D01*
X167436736Y-31795822D01*
X167293177Y-31891745D01*
X167199738Y-31930449D01*
X167133666Y-31957817D01*
X167048997Y-31974658D01*
X166964329Y-31991500D01*
X166791671Y-31991500D01*
X166707003Y-31974659D01*
X166622334Y-31957817D01*
X166556262Y-31930449D01*
X166462823Y-31891745D01*
X166319264Y-31795822D01*
X166197178Y-31673736D01*
X166101255Y-31530177D01*
X166035183Y-31370665D01*
X166001500Y-31201329D01*
X166001500Y-31028671D01*
X166035183Y-30859335D01*
X166101255Y-30699823D01*
X166197178Y-30556264D01*
X166319264Y-30434178D01*
X166462823Y-30338255D01*
X166556262Y-30299551D01*
X166622334Y-30272183D01*
X166707003Y-30255342D01*
X166791671Y-30238500D01*
X166964329Y-30238500D01*
X167048997Y-30255341D01*
X167048997Y-30255341D01*
G37*
M02*
