G04 #@! TF.GenerationSoftware,KiCad,Pcbnew,(5.1.2)-2*
G04 #@! TF.CreationDate,2019-08-09T23:12:40-04:00*
G04 #@! TF.ProjectId,Controller,436f6e74-726f-46c6-9c65-722e6b696361,rev?*
G04 #@! TF.SameCoordinates,Original*
G04 #@! TF.FileFunction,Paste,Top*
G04 #@! TF.FilePolarity,Positive*
%FSLAX46Y46*%
G04 Gerber Fmt 4.6, Leading zero omitted, Abs format (unit mm)*
G04 Created by KiCad (PCBNEW (5.1.2)-2) date 2019-08-09 23:12:40*
%MOMM*%
%LPD*%
G04 APERTURE LIST*
%ADD10R,1.016000X1.400000*%
%ADD11R,1.700000X2.400000*%
%ADD12C,0.100000*%
%ADD13C,1.350000*%
%ADD14R,0.900000X0.900000*%
%ADD15C,1.600000*%
%ADD16R,0.889000X0.762000*%
%ADD17R,2.540000X1.270000*%
%ADD18R,0.889000X0.889000*%
%ADD19R,1.200000X2.200000*%
%ADD20R,2.750000X3.050000*%
%ADD21R,0.398780X1.498600*%
%ADD22R,0.558800X1.270000*%
%ADD23R,1.270000X0.558800*%
G04 APERTURE END LIST*
D10*
X193676000Y-38735000D03*
X191897000Y-38735000D03*
D11*
X196651000Y-50038000D03*
X200351000Y-50038000D03*
D12*
G36*
X203903505Y-56531204D02*
G01*
X203927773Y-56534804D01*
X203951572Y-56540765D01*
X203974671Y-56549030D01*
X203996850Y-56559520D01*
X204017893Y-56572132D01*
X204037599Y-56586747D01*
X204055777Y-56603223D01*
X204072253Y-56621401D01*
X204086868Y-56641107D01*
X204099480Y-56662150D01*
X204109970Y-56684329D01*
X204118235Y-56707428D01*
X204124196Y-56731227D01*
X204127796Y-56755495D01*
X204129000Y-56779999D01*
X204129000Y-57680001D01*
X204127796Y-57704505D01*
X204124196Y-57728773D01*
X204118235Y-57752572D01*
X204109970Y-57775671D01*
X204099480Y-57797850D01*
X204086868Y-57818893D01*
X204072253Y-57838599D01*
X204055777Y-57856777D01*
X204037599Y-57873253D01*
X204017893Y-57887868D01*
X203996850Y-57900480D01*
X203974671Y-57910970D01*
X203951572Y-57919235D01*
X203927773Y-57925196D01*
X203903505Y-57928796D01*
X203879001Y-57930000D01*
X203028999Y-57930000D01*
X203004495Y-57928796D01*
X202980227Y-57925196D01*
X202956428Y-57919235D01*
X202933329Y-57910970D01*
X202911150Y-57900480D01*
X202890107Y-57887868D01*
X202870401Y-57873253D01*
X202852223Y-57856777D01*
X202835747Y-57838599D01*
X202821132Y-57818893D01*
X202808520Y-57797850D01*
X202798030Y-57775671D01*
X202789765Y-57752572D01*
X202783804Y-57728773D01*
X202780204Y-57704505D01*
X202779000Y-57680001D01*
X202779000Y-56779999D01*
X202780204Y-56755495D01*
X202783804Y-56731227D01*
X202789765Y-56707428D01*
X202798030Y-56684329D01*
X202808520Y-56662150D01*
X202821132Y-56641107D01*
X202835747Y-56621401D01*
X202852223Y-56603223D01*
X202870401Y-56586747D01*
X202890107Y-56572132D01*
X202911150Y-56559520D01*
X202933329Y-56549030D01*
X202956428Y-56540765D01*
X202980227Y-56534804D01*
X203004495Y-56531204D01*
X203028999Y-56530000D01*
X203879001Y-56530000D01*
X203903505Y-56531204D01*
X203903505Y-56531204D01*
G37*
D13*
X203454000Y-57230000D03*
D12*
G36*
X203903505Y-53831204D02*
G01*
X203927773Y-53834804D01*
X203951572Y-53840765D01*
X203974671Y-53849030D01*
X203996850Y-53859520D01*
X204017893Y-53872132D01*
X204037599Y-53886747D01*
X204055777Y-53903223D01*
X204072253Y-53921401D01*
X204086868Y-53941107D01*
X204099480Y-53962150D01*
X204109970Y-53984329D01*
X204118235Y-54007428D01*
X204124196Y-54031227D01*
X204127796Y-54055495D01*
X204129000Y-54079999D01*
X204129000Y-54980001D01*
X204127796Y-55004505D01*
X204124196Y-55028773D01*
X204118235Y-55052572D01*
X204109970Y-55075671D01*
X204099480Y-55097850D01*
X204086868Y-55118893D01*
X204072253Y-55138599D01*
X204055777Y-55156777D01*
X204037599Y-55173253D01*
X204017893Y-55187868D01*
X203996850Y-55200480D01*
X203974671Y-55210970D01*
X203951572Y-55219235D01*
X203927773Y-55225196D01*
X203903505Y-55228796D01*
X203879001Y-55230000D01*
X203028999Y-55230000D01*
X203004495Y-55228796D01*
X202980227Y-55225196D01*
X202956428Y-55219235D01*
X202933329Y-55210970D01*
X202911150Y-55200480D01*
X202890107Y-55187868D01*
X202870401Y-55173253D01*
X202852223Y-55156777D01*
X202835747Y-55138599D01*
X202821132Y-55118893D01*
X202808520Y-55097850D01*
X202798030Y-55075671D01*
X202789765Y-55052572D01*
X202783804Y-55028773D01*
X202780204Y-55004505D01*
X202779000Y-54980001D01*
X202779000Y-54079999D01*
X202780204Y-54055495D01*
X202783804Y-54031227D01*
X202789765Y-54007428D01*
X202798030Y-53984329D01*
X202808520Y-53962150D01*
X202821132Y-53941107D01*
X202835747Y-53921401D01*
X202852223Y-53903223D01*
X202870401Y-53886747D01*
X202890107Y-53872132D01*
X202911150Y-53859520D01*
X202933329Y-53849030D01*
X202956428Y-53840765D01*
X202980227Y-53834804D01*
X203004495Y-53831204D01*
X203028999Y-53830000D01*
X203879001Y-53830000D01*
X203903505Y-53831204D01*
X203903505Y-53831204D01*
G37*
D13*
X203454000Y-54530000D03*
D12*
G36*
X194251505Y-53831204D02*
G01*
X194275773Y-53834804D01*
X194299572Y-53840765D01*
X194322671Y-53849030D01*
X194344850Y-53859520D01*
X194365893Y-53872132D01*
X194385599Y-53886747D01*
X194403777Y-53903223D01*
X194420253Y-53921401D01*
X194434868Y-53941107D01*
X194447480Y-53962150D01*
X194457970Y-53984329D01*
X194466235Y-54007428D01*
X194472196Y-54031227D01*
X194475796Y-54055495D01*
X194477000Y-54079999D01*
X194477000Y-54980001D01*
X194475796Y-55004505D01*
X194472196Y-55028773D01*
X194466235Y-55052572D01*
X194457970Y-55075671D01*
X194447480Y-55097850D01*
X194434868Y-55118893D01*
X194420253Y-55138599D01*
X194403777Y-55156777D01*
X194385599Y-55173253D01*
X194365893Y-55187868D01*
X194344850Y-55200480D01*
X194322671Y-55210970D01*
X194299572Y-55219235D01*
X194275773Y-55225196D01*
X194251505Y-55228796D01*
X194227001Y-55230000D01*
X193376999Y-55230000D01*
X193352495Y-55228796D01*
X193328227Y-55225196D01*
X193304428Y-55219235D01*
X193281329Y-55210970D01*
X193259150Y-55200480D01*
X193238107Y-55187868D01*
X193218401Y-55173253D01*
X193200223Y-55156777D01*
X193183747Y-55138599D01*
X193169132Y-55118893D01*
X193156520Y-55097850D01*
X193146030Y-55075671D01*
X193137765Y-55052572D01*
X193131804Y-55028773D01*
X193128204Y-55004505D01*
X193127000Y-54980001D01*
X193127000Y-54079999D01*
X193128204Y-54055495D01*
X193131804Y-54031227D01*
X193137765Y-54007428D01*
X193146030Y-53984329D01*
X193156520Y-53962150D01*
X193169132Y-53941107D01*
X193183747Y-53921401D01*
X193200223Y-53903223D01*
X193218401Y-53886747D01*
X193238107Y-53872132D01*
X193259150Y-53859520D01*
X193281329Y-53849030D01*
X193304428Y-53840765D01*
X193328227Y-53834804D01*
X193352495Y-53831204D01*
X193376999Y-53830000D01*
X194227001Y-53830000D01*
X194251505Y-53831204D01*
X194251505Y-53831204D01*
G37*
D13*
X193802000Y-54530000D03*
D12*
G36*
X194251505Y-56531204D02*
G01*
X194275773Y-56534804D01*
X194299572Y-56540765D01*
X194322671Y-56549030D01*
X194344850Y-56559520D01*
X194365893Y-56572132D01*
X194385599Y-56586747D01*
X194403777Y-56603223D01*
X194420253Y-56621401D01*
X194434868Y-56641107D01*
X194447480Y-56662150D01*
X194457970Y-56684329D01*
X194466235Y-56707428D01*
X194472196Y-56731227D01*
X194475796Y-56755495D01*
X194477000Y-56779999D01*
X194477000Y-57680001D01*
X194475796Y-57704505D01*
X194472196Y-57728773D01*
X194466235Y-57752572D01*
X194457970Y-57775671D01*
X194447480Y-57797850D01*
X194434868Y-57818893D01*
X194420253Y-57838599D01*
X194403777Y-57856777D01*
X194385599Y-57873253D01*
X194365893Y-57887868D01*
X194344850Y-57900480D01*
X194322671Y-57910970D01*
X194299572Y-57919235D01*
X194275773Y-57925196D01*
X194251505Y-57928796D01*
X194227001Y-57930000D01*
X193376999Y-57930000D01*
X193352495Y-57928796D01*
X193328227Y-57925196D01*
X193304428Y-57919235D01*
X193281329Y-57910970D01*
X193259150Y-57900480D01*
X193238107Y-57887868D01*
X193218401Y-57873253D01*
X193200223Y-57856777D01*
X193183747Y-57838599D01*
X193169132Y-57818893D01*
X193156520Y-57797850D01*
X193146030Y-57775671D01*
X193137765Y-57752572D01*
X193131804Y-57728773D01*
X193128204Y-57704505D01*
X193127000Y-57680001D01*
X193127000Y-56779999D01*
X193128204Y-56755495D01*
X193131804Y-56731227D01*
X193137765Y-56707428D01*
X193146030Y-56684329D01*
X193156520Y-56662150D01*
X193169132Y-56641107D01*
X193183747Y-56621401D01*
X193200223Y-56603223D01*
X193218401Y-56586747D01*
X193238107Y-56572132D01*
X193259150Y-56559520D01*
X193281329Y-56549030D01*
X193304428Y-56540765D01*
X193328227Y-56534804D01*
X193352495Y-56531204D01*
X193376999Y-56530000D01*
X194227001Y-56530000D01*
X194251505Y-56531204D01*
X194251505Y-56531204D01*
G37*
D13*
X193802000Y-57230000D03*
D14*
X194564000Y-51562000D03*
X194564000Y-50038000D03*
D10*
X194310000Y-48133000D03*
X192531000Y-48133000D03*
D14*
X202438000Y-50038000D03*
X202438000Y-51562000D03*
X185928000Y-34163000D03*
X185928000Y-35687000D03*
X184277000Y-35306000D03*
X184277000Y-33782000D03*
X176403000Y-35306000D03*
X176403000Y-33782000D03*
D12*
G36*
X188282505Y-34687204D02*
G01*
X188306773Y-34690804D01*
X188330572Y-34696765D01*
X188353671Y-34705030D01*
X188375850Y-34715520D01*
X188396893Y-34728132D01*
X188416599Y-34742747D01*
X188434777Y-34759223D01*
X188451253Y-34777401D01*
X188465868Y-34797107D01*
X188478480Y-34818150D01*
X188488970Y-34840329D01*
X188497235Y-34863428D01*
X188503196Y-34887227D01*
X188506796Y-34911495D01*
X188508000Y-34935999D01*
X188508000Y-35836001D01*
X188506796Y-35860505D01*
X188503196Y-35884773D01*
X188497235Y-35908572D01*
X188488970Y-35931671D01*
X188478480Y-35953850D01*
X188465868Y-35974893D01*
X188451253Y-35994599D01*
X188434777Y-36012777D01*
X188416599Y-36029253D01*
X188396893Y-36043868D01*
X188375850Y-36056480D01*
X188353671Y-36066970D01*
X188330572Y-36075235D01*
X188306773Y-36081196D01*
X188282505Y-36084796D01*
X188258001Y-36086000D01*
X187407999Y-36086000D01*
X187383495Y-36084796D01*
X187359227Y-36081196D01*
X187335428Y-36075235D01*
X187312329Y-36066970D01*
X187290150Y-36056480D01*
X187269107Y-36043868D01*
X187249401Y-36029253D01*
X187231223Y-36012777D01*
X187214747Y-35994599D01*
X187200132Y-35974893D01*
X187187520Y-35953850D01*
X187177030Y-35931671D01*
X187168765Y-35908572D01*
X187162804Y-35884773D01*
X187159204Y-35860505D01*
X187158000Y-35836001D01*
X187158000Y-34935999D01*
X187159204Y-34911495D01*
X187162804Y-34887227D01*
X187168765Y-34863428D01*
X187177030Y-34840329D01*
X187187520Y-34818150D01*
X187200132Y-34797107D01*
X187214747Y-34777401D01*
X187231223Y-34759223D01*
X187249401Y-34742747D01*
X187269107Y-34728132D01*
X187290150Y-34715520D01*
X187312329Y-34705030D01*
X187335428Y-34696765D01*
X187359227Y-34690804D01*
X187383495Y-34687204D01*
X187407999Y-34686000D01*
X188258001Y-34686000D01*
X188282505Y-34687204D01*
X188282505Y-34687204D01*
G37*
D13*
X187833000Y-35386000D03*
D12*
G36*
X188282505Y-31987204D02*
G01*
X188306773Y-31990804D01*
X188330572Y-31996765D01*
X188353671Y-32005030D01*
X188375850Y-32015520D01*
X188396893Y-32028132D01*
X188416599Y-32042747D01*
X188434777Y-32059223D01*
X188451253Y-32077401D01*
X188465868Y-32097107D01*
X188478480Y-32118150D01*
X188488970Y-32140329D01*
X188497235Y-32163428D01*
X188503196Y-32187227D01*
X188506796Y-32211495D01*
X188508000Y-32235999D01*
X188508000Y-33136001D01*
X188506796Y-33160505D01*
X188503196Y-33184773D01*
X188497235Y-33208572D01*
X188488970Y-33231671D01*
X188478480Y-33253850D01*
X188465868Y-33274893D01*
X188451253Y-33294599D01*
X188434777Y-33312777D01*
X188416599Y-33329253D01*
X188396893Y-33343868D01*
X188375850Y-33356480D01*
X188353671Y-33366970D01*
X188330572Y-33375235D01*
X188306773Y-33381196D01*
X188282505Y-33384796D01*
X188258001Y-33386000D01*
X187407999Y-33386000D01*
X187383495Y-33384796D01*
X187359227Y-33381196D01*
X187335428Y-33375235D01*
X187312329Y-33366970D01*
X187290150Y-33356480D01*
X187269107Y-33343868D01*
X187249401Y-33329253D01*
X187231223Y-33312777D01*
X187214747Y-33294599D01*
X187200132Y-33274893D01*
X187187520Y-33253850D01*
X187177030Y-33231671D01*
X187168765Y-33208572D01*
X187162804Y-33184773D01*
X187159204Y-33160505D01*
X187158000Y-33136001D01*
X187158000Y-32235999D01*
X187159204Y-32211495D01*
X187162804Y-32187227D01*
X187168765Y-32163428D01*
X187177030Y-32140329D01*
X187187520Y-32118150D01*
X187200132Y-32097107D01*
X187214747Y-32077401D01*
X187231223Y-32059223D01*
X187249401Y-32042747D01*
X187269107Y-32028132D01*
X187290150Y-32015520D01*
X187312329Y-32005030D01*
X187335428Y-31996765D01*
X187359227Y-31990804D01*
X187383495Y-31987204D01*
X187407999Y-31986000D01*
X188258001Y-31986000D01*
X188282505Y-31987204D01*
X188282505Y-31987204D01*
G37*
D13*
X187833000Y-32686000D03*
D10*
X189801500Y-46037500D03*
X191580500Y-46037500D03*
D14*
X189738000Y-35687000D03*
X189738000Y-34163000D03*
D12*
G36*
X165547504Y-40536204D02*
G01*
X165571773Y-40539804D01*
X165595571Y-40545765D01*
X165618671Y-40554030D01*
X165640849Y-40564520D01*
X165661893Y-40577133D01*
X165681598Y-40591747D01*
X165699777Y-40608223D01*
X165716253Y-40626402D01*
X165730867Y-40646107D01*
X165743480Y-40667151D01*
X165753970Y-40689329D01*
X165762235Y-40712429D01*
X165768196Y-40736227D01*
X165771796Y-40760496D01*
X165773000Y-40785000D01*
X165773000Y-43785000D01*
X165771796Y-43809504D01*
X165768196Y-43833773D01*
X165762235Y-43857571D01*
X165753970Y-43880671D01*
X165743480Y-43902849D01*
X165730867Y-43923893D01*
X165716253Y-43943598D01*
X165699777Y-43961777D01*
X165681598Y-43978253D01*
X165661893Y-43992867D01*
X165640849Y-44005480D01*
X165618671Y-44015970D01*
X165595571Y-44024235D01*
X165571773Y-44030196D01*
X165547504Y-44033796D01*
X165523000Y-44035000D01*
X164423000Y-44035000D01*
X164398496Y-44033796D01*
X164374227Y-44030196D01*
X164350429Y-44024235D01*
X164327329Y-44015970D01*
X164305151Y-44005480D01*
X164284107Y-43992867D01*
X164264402Y-43978253D01*
X164246223Y-43961777D01*
X164229747Y-43943598D01*
X164215133Y-43923893D01*
X164202520Y-43902849D01*
X164192030Y-43880671D01*
X164183765Y-43857571D01*
X164177804Y-43833773D01*
X164174204Y-43809504D01*
X164173000Y-43785000D01*
X164173000Y-40785000D01*
X164174204Y-40760496D01*
X164177804Y-40736227D01*
X164183765Y-40712429D01*
X164192030Y-40689329D01*
X164202520Y-40667151D01*
X164215133Y-40646107D01*
X164229747Y-40626402D01*
X164246223Y-40608223D01*
X164264402Y-40591747D01*
X164284107Y-40577133D01*
X164305151Y-40564520D01*
X164327329Y-40554030D01*
X164350429Y-40545765D01*
X164374227Y-40539804D01*
X164398496Y-40536204D01*
X164423000Y-40535000D01*
X165523000Y-40535000D01*
X165547504Y-40536204D01*
X165547504Y-40536204D01*
G37*
D15*
X164973000Y-42285000D03*
D12*
G36*
X165547504Y-46136204D02*
G01*
X165571773Y-46139804D01*
X165595571Y-46145765D01*
X165618671Y-46154030D01*
X165640849Y-46164520D01*
X165661893Y-46177133D01*
X165681598Y-46191747D01*
X165699777Y-46208223D01*
X165716253Y-46226402D01*
X165730867Y-46246107D01*
X165743480Y-46267151D01*
X165753970Y-46289329D01*
X165762235Y-46312429D01*
X165768196Y-46336227D01*
X165771796Y-46360496D01*
X165773000Y-46385000D01*
X165773000Y-49385000D01*
X165771796Y-49409504D01*
X165768196Y-49433773D01*
X165762235Y-49457571D01*
X165753970Y-49480671D01*
X165743480Y-49502849D01*
X165730867Y-49523893D01*
X165716253Y-49543598D01*
X165699777Y-49561777D01*
X165681598Y-49578253D01*
X165661893Y-49592867D01*
X165640849Y-49605480D01*
X165618671Y-49615970D01*
X165595571Y-49624235D01*
X165571773Y-49630196D01*
X165547504Y-49633796D01*
X165523000Y-49635000D01*
X164423000Y-49635000D01*
X164398496Y-49633796D01*
X164374227Y-49630196D01*
X164350429Y-49624235D01*
X164327329Y-49615970D01*
X164305151Y-49605480D01*
X164284107Y-49592867D01*
X164264402Y-49578253D01*
X164246223Y-49561777D01*
X164229747Y-49543598D01*
X164215133Y-49523893D01*
X164202520Y-49502849D01*
X164192030Y-49480671D01*
X164183765Y-49457571D01*
X164177804Y-49433773D01*
X164174204Y-49409504D01*
X164173000Y-49385000D01*
X164173000Y-46385000D01*
X164174204Y-46360496D01*
X164177804Y-46336227D01*
X164183765Y-46312429D01*
X164192030Y-46289329D01*
X164202520Y-46267151D01*
X164215133Y-46246107D01*
X164229747Y-46226402D01*
X164246223Y-46208223D01*
X164264402Y-46191747D01*
X164284107Y-46177133D01*
X164305151Y-46164520D01*
X164327329Y-46154030D01*
X164350429Y-46145765D01*
X164374227Y-46139804D01*
X164398496Y-46136204D01*
X164423000Y-46135000D01*
X165523000Y-46135000D01*
X165547504Y-46136204D01*
X165547504Y-46136204D01*
G37*
D15*
X164973000Y-47885000D03*
D12*
G36*
X165547504Y-67726204D02*
G01*
X165571773Y-67729804D01*
X165595571Y-67735765D01*
X165618671Y-67744030D01*
X165640849Y-67754520D01*
X165661893Y-67767133D01*
X165681598Y-67781747D01*
X165699777Y-67798223D01*
X165716253Y-67816402D01*
X165730867Y-67836107D01*
X165743480Y-67857151D01*
X165753970Y-67879329D01*
X165762235Y-67902429D01*
X165768196Y-67926227D01*
X165771796Y-67950496D01*
X165773000Y-67975000D01*
X165773000Y-70975000D01*
X165771796Y-70999504D01*
X165768196Y-71023773D01*
X165762235Y-71047571D01*
X165753970Y-71070671D01*
X165743480Y-71092849D01*
X165730867Y-71113893D01*
X165716253Y-71133598D01*
X165699777Y-71151777D01*
X165681598Y-71168253D01*
X165661893Y-71182867D01*
X165640849Y-71195480D01*
X165618671Y-71205970D01*
X165595571Y-71214235D01*
X165571773Y-71220196D01*
X165547504Y-71223796D01*
X165523000Y-71225000D01*
X164423000Y-71225000D01*
X164398496Y-71223796D01*
X164374227Y-71220196D01*
X164350429Y-71214235D01*
X164327329Y-71205970D01*
X164305151Y-71195480D01*
X164284107Y-71182867D01*
X164264402Y-71168253D01*
X164246223Y-71151777D01*
X164229747Y-71133598D01*
X164215133Y-71113893D01*
X164202520Y-71092849D01*
X164192030Y-71070671D01*
X164183765Y-71047571D01*
X164177804Y-71023773D01*
X164174204Y-70999504D01*
X164173000Y-70975000D01*
X164173000Y-67975000D01*
X164174204Y-67950496D01*
X164177804Y-67926227D01*
X164183765Y-67902429D01*
X164192030Y-67879329D01*
X164202520Y-67857151D01*
X164215133Y-67836107D01*
X164229747Y-67816402D01*
X164246223Y-67798223D01*
X164264402Y-67781747D01*
X164284107Y-67767133D01*
X164305151Y-67754520D01*
X164327329Y-67744030D01*
X164350429Y-67735765D01*
X164374227Y-67729804D01*
X164398496Y-67726204D01*
X164423000Y-67725000D01*
X165523000Y-67725000D01*
X165547504Y-67726204D01*
X165547504Y-67726204D01*
G37*
D15*
X164973000Y-69475000D03*
D12*
G36*
X165547504Y-62126204D02*
G01*
X165571773Y-62129804D01*
X165595571Y-62135765D01*
X165618671Y-62144030D01*
X165640849Y-62154520D01*
X165661893Y-62167133D01*
X165681598Y-62181747D01*
X165699777Y-62198223D01*
X165716253Y-62216402D01*
X165730867Y-62236107D01*
X165743480Y-62257151D01*
X165753970Y-62279329D01*
X165762235Y-62302429D01*
X165768196Y-62326227D01*
X165771796Y-62350496D01*
X165773000Y-62375000D01*
X165773000Y-65375000D01*
X165771796Y-65399504D01*
X165768196Y-65423773D01*
X165762235Y-65447571D01*
X165753970Y-65470671D01*
X165743480Y-65492849D01*
X165730867Y-65513893D01*
X165716253Y-65533598D01*
X165699777Y-65551777D01*
X165681598Y-65568253D01*
X165661893Y-65582867D01*
X165640849Y-65595480D01*
X165618671Y-65605970D01*
X165595571Y-65614235D01*
X165571773Y-65620196D01*
X165547504Y-65623796D01*
X165523000Y-65625000D01*
X164423000Y-65625000D01*
X164398496Y-65623796D01*
X164374227Y-65620196D01*
X164350429Y-65614235D01*
X164327329Y-65605970D01*
X164305151Y-65595480D01*
X164284107Y-65582867D01*
X164264402Y-65568253D01*
X164246223Y-65551777D01*
X164229747Y-65533598D01*
X164215133Y-65513893D01*
X164202520Y-65492849D01*
X164192030Y-65470671D01*
X164183765Y-65447571D01*
X164177804Y-65423773D01*
X164174204Y-65399504D01*
X164173000Y-65375000D01*
X164173000Y-62375000D01*
X164174204Y-62350496D01*
X164177804Y-62326227D01*
X164183765Y-62302429D01*
X164192030Y-62279329D01*
X164202520Y-62257151D01*
X164215133Y-62236107D01*
X164229747Y-62216402D01*
X164246223Y-62198223D01*
X164264402Y-62181747D01*
X164284107Y-62167133D01*
X164305151Y-62154520D01*
X164327329Y-62144030D01*
X164350429Y-62135765D01*
X164374227Y-62129804D01*
X164398496Y-62126204D01*
X164423000Y-62125000D01*
X165523000Y-62125000D01*
X165547504Y-62126204D01*
X165547504Y-62126204D01*
G37*
D15*
X164973000Y-63875000D03*
D16*
X207645000Y-34798000D03*
X207645000Y-36322000D03*
X205105000Y-36322000D03*
X205105000Y-34798000D03*
D17*
X192214500Y-36068000D03*
X192214500Y-31750000D03*
X200469500Y-31750000D03*
X200469500Y-36068000D03*
D18*
X183642000Y-54991000D03*
X183642000Y-53467000D03*
X193294000Y-41021000D03*
X191770000Y-41021000D03*
X191770000Y-44069000D03*
X193294000Y-44069000D03*
X193294000Y-42545000D03*
X191770000Y-42545000D03*
X207645000Y-31623000D03*
X207645000Y-33147000D03*
X205105000Y-33147000D03*
X205105000Y-31623000D03*
D19*
X200908000Y-54728000D03*
X196348000Y-54728000D03*
D20*
X197103000Y-62703000D03*
X200153000Y-59353000D03*
X200153000Y-62703000D03*
X197103000Y-59353000D03*
D21*
X195577460Y-46169580D03*
X196227700Y-46169580D03*
X196877940Y-46169580D03*
X197528180Y-46169580D03*
X198178420Y-46169580D03*
X198823580Y-46169580D03*
X199473820Y-46169580D03*
X200124060Y-46169580D03*
X200774300Y-46169580D03*
X201424540Y-46169580D03*
X201424540Y-38920420D03*
X200774300Y-38920420D03*
X200124060Y-38920420D03*
X199473820Y-38920420D03*
X198823580Y-38920420D03*
X198178420Y-38920420D03*
X197528180Y-38920420D03*
X196877940Y-38920420D03*
X196227700Y-38920420D03*
X195577460Y-38920420D03*
D22*
X185552080Y-38252400D03*
X184751980Y-38252400D03*
X183951880Y-38252400D03*
X183151780Y-38252400D03*
X182354220Y-38252400D03*
X181554120Y-38252400D03*
X180754020Y-38252400D03*
X179953920Y-38252400D03*
D23*
X178460400Y-39745920D03*
X178460400Y-40546020D03*
X178460400Y-41346120D03*
X178460400Y-42146220D03*
X178460400Y-42943780D03*
X178460400Y-43743880D03*
X178460400Y-44543980D03*
X178460400Y-45344080D03*
D22*
X179953920Y-46837600D03*
X180754020Y-46837600D03*
X181554120Y-46837600D03*
X182354220Y-46837600D03*
X183151780Y-46837600D03*
X183951880Y-46837600D03*
X184751980Y-46837600D03*
X185552080Y-46837600D03*
D23*
X187045600Y-45344080D03*
X187045600Y-44543980D03*
X187045600Y-43743880D03*
X187045600Y-42943780D03*
X187045600Y-42146220D03*
X187045600Y-41346120D03*
X187045600Y-40546020D03*
X187045600Y-39745920D03*
D11*
X182190000Y-35433000D03*
X178490000Y-35433000D03*
D16*
X210185000Y-36322000D03*
X210185000Y-34798000D03*
D18*
X210185000Y-33147000D03*
X210185000Y-31623000D03*
M02*
