G04 #@! TF.GenerationSoftware,KiCad,Pcbnew,(5.1.2)-2*
G04 #@! TF.CreationDate,2019-08-13T21:45:23-04:00*
G04 #@! TF.ProjectId,Controller,436f6e74-726f-46c6-9c65-722e6b696361,rev?*
G04 #@! TF.SameCoordinates,Original*
G04 #@! TF.FileFunction,Copper,L4,Bot*
G04 #@! TF.FilePolarity,Positive*
%FSLAX46Y46*%
G04 Gerber Fmt 4.6, Leading zero omitted, Abs format (unit mm)*
G04 Created by KiCad (PCBNEW (5.1.2)-2) date 2019-08-13 21:45:23*
%MOMM*%
%LPD*%
G04 APERTURE LIST*
%ADD10C,1.651000*%
%ADD11R,1.651000X1.651000*%
%ADD12R,4.500000X2.000000*%
%ADD13R,2.000000X4.500000*%
%ADD14C,2.200000*%
%ADD15R,2.200000X2.200000*%
%ADD16R,1.700000X1.700000*%
%ADD17O,1.700000X1.700000*%
%ADD18C,3.316000*%
%ADD19C,1.428000*%
%ADD20R,1.428000X1.428000*%
%ADD21C,5.000000*%
%ADD22R,2.032000X2.032000*%
%ADD23C,2.032000*%
%ADD24C,0.800000*%
%ADD25C,1.200000*%
%ADD26C,0.250000*%
%ADD27C,1.500000*%
G04 APERTURE END LIST*
D10*
X179705000Y-65405000D03*
X182245000Y-65405000D03*
D11*
X184785000Y-65405000D03*
X161798000Y-37465000D03*
D10*
X164338000Y-37465000D03*
X166878000Y-37465000D03*
D11*
X161798000Y-34290000D03*
D10*
X164338000Y-34290000D03*
X166878000Y-34290000D03*
X166878000Y-31115000D03*
X164338000Y-31115000D03*
D11*
X161798000Y-31115000D03*
D10*
X171323000Y-31115000D03*
X171323000Y-33655000D03*
X171323000Y-36195000D03*
X171323000Y-38735000D03*
X171323000Y-41275000D03*
X171323000Y-43815000D03*
X171323000Y-46355000D03*
D11*
X171323000Y-48895000D03*
D10*
X158623000Y-31115000D03*
X158623000Y-33655000D03*
X158623000Y-36195000D03*
X158623000Y-38735000D03*
X158623000Y-41275000D03*
X158623000Y-43815000D03*
X158623000Y-46355000D03*
D11*
X158623000Y-48895000D03*
D10*
X166878000Y-59055000D03*
X164338000Y-59055000D03*
D11*
X161798000Y-59055000D03*
D10*
X166878000Y-55880000D03*
X164338000Y-55880000D03*
D11*
X161798000Y-55880000D03*
X161798000Y-52705000D03*
D10*
X164338000Y-52705000D03*
X166878000Y-52705000D03*
D11*
X171323000Y-70485000D03*
D10*
X171323000Y-67945000D03*
X171323000Y-65405000D03*
X171323000Y-62865000D03*
X171323000Y-60325000D03*
X171323000Y-57785000D03*
X171323000Y-55245000D03*
X171323000Y-52705000D03*
D11*
X158623000Y-70485000D03*
D10*
X158623000Y-67945000D03*
X158623000Y-65405000D03*
X158623000Y-62865000D03*
X158623000Y-60325000D03*
X158623000Y-57785000D03*
X158623000Y-55245000D03*
X158623000Y-52705000D03*
D12*
X209550000Y-54990000D03*
D13*
X206550000Y-59690000D03*
X212550000Y-59690000D03*
D14*
X186055000Y-79375000D03*
X183515000Y-79375000D03*
X180975000Y-79375000D03*
D15*
X178435000Y-79375000D03*
X190500000Y-79375000D03*
D14*
X193040000Y-79375000D03*
X195580000Y-79375000D03*
X198120000Y-79375000D03*
D11*
X179705000Y-73025000D03*
D10*
X179705000Y-70485000D03*
X184785000Y-70485000D03*
D11*
X184785000Y-73025000D03*
D14*
X210185000Y-79375000D03*
X207645000Y-79375000D03*
X205105000Y-79375000D03*
D15*
X202565000Y-79375000D03*
X154305000Y-79375000D03*
D14*
X156845000Y-79375000D03*
X159385000Y-79375000D03*
X161925000Y-79375000D03*
X173990000Y-79375000D03*
X171450000Y-79375000D03*
X168910000Y-79375000D03*
D15*
X166370000Y-79375000D03*
D16*
X178181000Y-50419000D03*
D17*
X180721000Y-50419000D03*
X178181000Y-52959000D03*
X180721000Y-52959000D03*
X178181000Y-55499000D03*
X180721000Y-55499000D03*
D15*
X150241000Y-36195000D03*
D14*
X150241000Y-38735000D03*
X150241000Y-41275000D03*
X150241000Y-43815000D03*
D11*
X155448000Y-36195000D03*
D10*
X155448000Y-38735000D03*
X155448000Y-41275000D03*
X155448000Y-43815000D03*
D15*
X150241000Y-57785000D03*
D14*
X150241000Y-60325000D03*
X150241000Y-62865000D03*
X150241000Y-65405000D03*
D10*
X155448000Y-65405000D03*
X155448000Y-62865000D03*
X155448000Y-60325000D03*
D11*
X155448000Y-57785000D03*
D18*
X210196000Y-39045000D03*
X210196000Y-51085000D03*
D19*
X207486000Y-43815000D03*
X207486000Y-46315000D03*
D20*
X205486000Y-43815000D03*
D19*
X205486000Y-46315000D03*
D21*
X216750000Y-31250000D03*
X148250000Y-81750000D03*
X148250000Y-31250000D03*
X216750000Y-81750000D03*
D22*
X215823000Y-67350000D03*
D23*
X215823000Y-72350000D03*
D24*
X199009000Y-47752000D03*
X183134000Y-45466000D03*
X183134000Y-39624000D03*
X192659000Y-34798000D03*
X189484000Y-32258000D03*
X182626000Y-33147000D03*
X167000000Y-63000000D03*
D25*
X166846703Y-42449298D03*
X196088000Y-40513000D03*
X203454000Y-32258000D03*
X186955998Y-37084000D03*
X193040000Y-52705000D03*
X196342000Y-53086000D03*
D24*
X188785500Y-46037500D03*
X182372000Y-44767500D03*
X190627000Y-39370000D03*
X188468000Y-42071120D03*
X185547000Y-42164000D03*
X185039000Y-39624000D03*
X194564000Y-43307000D03*
X196977000Y-43307000D03*
D26*
X188785500Y-46037500D02*
X188219815Y-46037500D01*
X183482001Y-44740999D02*
X182785999Y-44740999D01*
X188219815Y-46037500D02*
X184778502Y-46037500D01*
X184778502Y-46037500D02*
X183482001Y-44740999D01*
X182785999Y-44740999D02*
X182398501Y-44740999D01*
X182398501Y-44740999D02*
X182372000Y-44767500D01*
X190061315Y-39370000D02*
X188468000Y-40963315D01*
X190627000Y-39370000D02*
X190061315Y-39370000D01*
X188468000Y-40963315D02*
X188468000Y-41783000D01*
X188468000Y-41783000D02*
X188468000Y-42071120D01*
X179356001Y-54323999D02*
X179356001Y-45306999D01*
X178181000Y-55499000D02*
X179356001Y-54323999D01*
X179356001Y-45306999D02*
X182499000Y-42164000D01*
X182499000Y-42164000D02*
X185547000Y-42164000D01*
X171323000Y-36195000D02*
X171323000Y-38735000D01*
X172398500Y-70485000D02*
X171323000Y-70485000D01*
X172473501Y-70409999D02*
X172398500Y-70485000D01*
X172473501Y-52152759D02*
X172473501Y-70409999D01*
X171323000Y-51002258D02*
X172473501Y-52152759D01*
X171323000Y-48895000D02*
X171323000Y-51002258D01*
D27*
X150241000Y-36195000D02*
X155321000Y-36195000D01*
X155321000Y-36195000D02*
X158623000Y-36195000D01*
X158623000Y-38735000D02*
X155321000Y-38735000D01*
X155321000Y-38735000D02*
X150241000Y-38735000D01*
X150241000Y-41275000D02*
X155321000Y-41275000D01*
X155321000Y-41275000D02*
X158623000Y-41275000D01*
X158623000Y-43815000D02*
X155321000Y-43815000D01*
X155321000Y-43815000D02*
X150241000Y-43815000D01*
D26*
X171323000Y-58952433D02*
X171323000Y-60325000D01*
X171323000Y-57785000D02*
X171323000Y-58952433D01*
X183748314Y-40349001D02*
X180557001Y-40349001D01*
X185039000Y-39624000D02*
X184473315Y-39624000D01*
X184473315Y-39624000D02*
X183748314Y-40349001D01*
X180557001Y-40349001D02*
X179070000Y-38862000D01*
X179070000Y-38862000D02*
X175133000Y-38862000D01*
X170497501Y-54419501D02*
X171323000Y-55245000D01*
X172473501Y-41521499D02*
X172473501Y-46907241D01*
X170172499Y-54094499D02*
X170497501Y-54419501D01*
X172473501Y-46907241D02*
X171636243Y-47744499D01*
X171636243Y-47744499D02*
X170237499Y-47744499D01*
X170237499Y-47744499D02*
X170172499Y-47809499D01*
X170172499Y-47809499D02*
X170172499Y-54094499D01*
X175133000Y-38862000D02*
X172473501Y-41521499D01*
D27*
X158623000Y-65405000D02*
X155321000Y-65405000D01*
X155321000Y-65405000D02*
X150241000Y-65405000D01*
X150241000Y-62865000D02*
X155321000Y-62865000D01*
X155321000Y-62865000D02*
X158623000Y-62865000D01*
X158623000Y-60325000D02*
X155321000Y-60325000D01*
X155321000Y-60325000D02*
X150241000Y-60325000D01*
X150241000Y-57785000D02*
X155321000Y-57785000D01*
X155321000Y-57785000D02*
X158623000Y-57785000D01*
D26*
X194564000Y-43307000D02*
X196977000Y-43307000D01*
M02*
