G04 #@! TF.GenerationSoftware,KiCad,Pcbnew,5.1.2-1.fc30*
G04 #@! TF.CreationDate,2019-09-11T07:26:08-04:00*
G04 #@! TF.ProjectId,Platypus,506c6174-7970-4757-932e-6b696361645f,rev?*
G04 #@! TF.SameCoordinates,Original*
G04 #@! TF.FileFunction,Paste,Top*
G04 #@! TF.FilePolarity,Positive*
%FSLAX46Y46*%
G04 Gerber Fmt 4.6, Leading zero omitted, Abs format (unit mm)*
G04 Created by KiCad (PCBNEW 5.1.2-1.fc30) date 2019-09-11 07:26:08*
%MOMM*%
%LPD*%
G04 APERTURE LIST*
%ADD10R,1.016000X1.400000*%
%ADD11R,1.700000X2.400000*%
%ADD12R,0.900000X0.900000*%
%ADD13C,0.100000*%
%ADD14C,1.600000*%
%ADD15R,0.889000X0.762000*%
%ADD16R,2.540000X1.270000*%
%ADD17R,0.889000X0.889000*%
%ADD18R,1.200000X2.200000*%
%ADD19R,2.750000X3.050000*%
%ADD20R,0.398780X1.498600*%
%ADD21R,0.558800X1.270000*%
%ADD22R,1.270000X0.558800*%
%ADD23R,2.032000X1.270000*%
G04 APERTURE END LIST*
D10*
X193676000Y-38735000D03*
X191897000Y-38735000D03*
D11*
X196651000Y-50038000D03*
X200351000Y-50038000D03*
D12*
X194564000Y-51562000D03*
X194564000Y-50038000D03*
D10*
X194310000Y-48133000D03*
X192531000Y-48133000D03*
D12*
X202438000Y-50038000D03*
X202438000Y-51562000D03*
X185801000Y-34163000D03*
X185801000Y-35687000D03*
X184277000Y-35306000D03*
X184277000Y-33782000D03*
X176403000Y-35306000D03*
X176403000Y-33782000D03*
D10*
X189801500Y-46037500D03*
X191580500Y-46037500D03*
D12*
X189865000Y-35687000D03*
X189865000Y-34163000D03*
D13*
G36*
X165547504Y-40536204D02*
G01*
X165571773Y-40539804D01*
X165595571Y-40545765D01*
X165618671Y-40554030D01*
X165640849Y-40564520D01*
X165661893Y-40577133D01*
X165681598Y-40591747D01*
X165699777Y-40608223D01*
X165716253Y-40626402D01*
X165730867Y-40646107D01*
X165743480Y-40667151D01*
X165753970Y-40689329D01*
X165762235Y-40712429D01*
X165768196Y-40736227D01*
X165771796Y-40760496D01*
X165773000Y-40785000D01*
X165773000Y-43785000D01*
X165771796Y-43809504D01*
X165768196Y-43833773D01*
X165762235Y-43857571D01*
X165753970Y-43880671D01*
X165743480Y-43902849D01*
X165730867Y-43923893D01*
X165716253Y-43943598D01*
X165699777Y-43961777D01*
X165681598Y-43978253D01*
X165661893Y-43992867D01*
X165640849Y-44005480D01*
X165618671Y-44015970D01*
X165595571Y-44024235D01*
X165571773Y-44030196D01*
X165547504Y-44033796D01*
X165523000Y-44035000D01*
X164423000Y-44035000D01*
X164398496Y-44033796D01*
X164374227Y-44030196D01*
X164350429Y-44024235D01*
X164327329Y-44015970D01*
X164305151Y-44005480D01*
X164284107Y-43992867D01*
X164264402Y-43978253D01*
X164246223Y-43961777D01*
X164229747Y-43943598D01*
X164215133Y-43923893D01*
X164202520Y-43902849D01*
X164192030Y-43880671D01*
X164183765Y-43857571D01*
X164177804Y-43833773D01*
X164174204Y-43809504D01*
X164173000Y-43785000D01*
X164173000Y-40785000D01*
X164174204Y-40760496D01*
X164177804Y-40736227D01*
X164183765Y-40712429D01*
X164192030Y-40689329D01*
X164202520Y-40667151D01*
X164215133Y-40646107D01*
X164229747Y-40626402D01*
X164246223Y-40608223D01*
X164264402Y-40591747D01*
X164284107Y-40577133D01*
X164305151Y-40564520D01*
X164327329Y-40554030D01*
X164350429Y-40545765D01*
X164374227Y-40539804D01*
X164398496Y-40536204D01*
X164423000Y-40535000D01*
X165523000Y-40535000D01*
X165547504Y-40536204D01*
X165547504Y-40536204D01*
G37*
D14*
X164973000Y-42285000D03*
D13*
G36*
X165547504Y-46136204D02*
G01*
X165571773Y-46139804D01*
X165595571Y-46145765D01*
X165618671Y-46154030D01*
X165640849Y-46164520D01*
X165661893Y-46177133D01*
X165681598Y-46191747D01*
X165699777Y-46208223D01*
X165716253Y-46226402D01*
X165730867Y-46246107D01*
X165743480Y-46267151D01*
X165753970Y-46289329D01*
X165762235Y-46312429D01*
X165768196Y-46336227D01*
X165771796Y-46360496D01*
X165773000Y-46385000D01*
X165773000Y-49385000D01*
X165771796Y-49409504D01*
X165768196Y-49433773D01*
X165762235Y-49457571D01*
X165753970Y-49480671D01*
X165743480Y-49502849D01*
X165730867Y-49523893D01*
X165716253Y-49543598D01*
X165699777Y-49561777D01*
X165681598Y-49578253D01*
X165661893Y-49592867D01*
X165640849Y-49605480D01*
X165618671Y-49615970D01*
X165595571Y-49624235D01*
X165571773Y-49630196D01*
X165547504Y-49633796D01*
X165523000Y-49635000D01*
X164423000Y-49635000D01*
X164398496Y-49633796D01*
X164374227Y-49630196D01*
X164350429Y-49624235D01*
X164327329Y-49615970D01*
X164305151Y-49605480D01*
X164284107Y-49592867D01*
X164264402Y-49578253D01*
X164246223Y-49561777D01*
X164229747Y-49543598D01*
X164215133Y-49523893D01*
X164202520Y-49502849D01*
X164192030Y-49480671D01*
X164183765Y-49457571D01*
X164177804Y-49433773D01*
X164174204Y-49409504D01*
X164173000Y-49385000D01*
X164173000Y-46385000D01*
X164174204Y-46360496D01*
X164177804Y-46336227D01*
X164183765Y-46312429D01*
X164192030Y-46289329D01*
X164202520Y-46267151D01*
X164215133Y-46246107D01*
X164229747Y-46226402D01*
X164246223Y-46208223D01*
X164264402Y-46191747D01*
X164284107Y-46177133D01*
X164305151Y-46164520D01*
X164327329Y-46154030D01*
X164350429Y-46145765D01*
X164374227Y-46139804D01*
X164398496Y-46136204D01*
X164423000Y-46135000D01*
X165523000Y-46135000D01*
X165547504Y-46136204D01*
X165547504Y-46136204D01*
G37*
D14*
X164973000Y-47885000D03*
D13*
G36*
X165547504Y-67726204D02*
G01*
X165571773Y-67729804D01*
X165595571Y-67735765D01*
X165618671Y-67744030D01*
X165640849Y-67754520D01*
X165661893Y-67767133D01*
X165681598Y-67781747D01*
X165699777Y-67798223D01*
X165716253Y-67816402D01*
X165730867Y-67836107D01*
X165743480Y-67857151D01*
X165753970Y-67879329D01*
X165762235Y-67902429D01*
X165768196Y-67926227D01*
X165771796Y-67950496D01*
X165773000Y-67975000D01*
X165773000Y-70975000D01*
X165771796Y-70999504D01*
X165768196Y-71023773D01*
X165762235Y-71047571D01*
X165753970Y-71070671D01*
X165743480Y-71092849D01*
X165730867Y-71113893D01*
X165716253Y-71133598D01*
X165699777Y-71151777D01*
X165681598Y-71168253D01*
X165661893Y-71182867D01*
X165640849Y-71195480D01*
X165618671Y-71205970D01*
X165595571Y-71214235D01*
X165571773Y-71220196D01*
X165547504Y-71223796D01*
X165523000Y-71225000D01*
X164423000Y-71225000D01*
X164398496Y-71223796D01*
X164374227Y-71220196D01*
X164350429Y-71214235D01*
X164327329Y-71205970D01*
X164305151Y-71195480D01*
X164284107Y-71182867D01*
X164264402Y-71168253D01*
X164246223Y-71151777D01*
X164229747Y-71133598D01*
X164215133Y-71113893D01*
X164202520Y-71092849D01*
X164192030Y-71070671D01*
X164183765Y-71047571D01*
X164177804Y-71023773D01*
X164174204Y-70999504D01*
X164173000Y-70975000D01*
X164173000Y-67975000D01*
X164174204Y-67950496D01*
X164177804Y-67926227D01*
X164183765Y-67902429D01*
X164192030Y-67879329D01*
X164202520Y-67857151D01*
X164215133Y-67836107D01*
X164229747Y-67816402D01*
X164246223Y-67798223D01*
X164264402Y-67781747D01*
X164284107Y-67767133D01*
X164305151Y-67754520D01*
X164327329Y-67744030D01*
X164350429Y-67735765D01*
X164374227Y-67729804D01*
X164398496Y-67726204D01*
X164423000Y-67725000D01*
X165523000Y-67725000D01*
X165547504Y-67726204D01*
X165547504Y-67726204D01*
G37*
D14*
X164973000Y-69475000D03*
D13*
G36*
X165547504Y-62126204D02*
G01*
X165571773Y-62129804D01*
X165595571Y-62135765D01*
X165618671Y-62144030D01*
X165640849Y-62154520D01*
X165661893Y-62167133D01*
X165681598Y-62181747D01*
X165699777Y-62198223D01*
X165716253Y-62216402D01*
X165730867Y-62236107D01*
X165743480Y-62257151D01*
X165753970Y-62279329D01*
X165762235Y-62302429D01*
X165768196Y-62326227D01*
X165771796Y-62350496D01*
X165773000Y-62375000D01*
X165773000Y-65375000D01*
X165771796Y-65399504D01*
X165768196Y-65423773D01*
X165762235Y-65447571D01*
X165753970Y-65470671D01*
X165743480Y-65492849D01*
X165730867Y-65513893D01*
X165716253Y-65533598D01*
X165699777Y-65551777D01*
X165681598Y-65568253D01*
X165661893Y-65582867D01*
X165640849Y-65595480D01*
X165618671Y-65605970D01*
X165595571Y-65614235D01*
X165571773Y-65620196D01*
X165547504Y-65623796D01*
X165523000Y-65625000D01*
X164423000Y-65625000D01*
X164398496Y-65623796D01*
X164374227Y-65620196D01*
X164350429Y-65614235D01*
X164327329Y-65605970D01*
X164305151Y-65595480D01*
X164284107Y-65582867D01*
X164264402Y-65568253D01*
X164246223Y-65551777D01*
X164229747Y-65533598D01*
X164215133Y-65513893D01*
X164202520Y-65492849D01*
X164192030Y-65470671D01*
X164183765Y-65447571D01*
X164177804Y-65423773D01*
X164174204Y-65399504D01*
X164173000Y-65375000D01*
X164173000Y-62375000D01*
X164174204Y-62350496D01*
X164177804Y-62326227D01*
X164183765Y-62302429D01*
X164192030Y-62279329D01*
X164202520Y-62257151D01*
X164215133Y-62236107D01*
X164229747Y-62216402D01*
X164246223Y-62198223D01*
X164264402Y-62181747D01*
X164284107Y-62167133D01*
X164305151Y-62154520D01*
X164327329Y-62144030D01*
X164350429Y-62135765D01*
X164374227Y-62129804D01*
X164398496Y-62126204D01*
X164423000Y-62125000D01*
X165523000Y-62125000D01*
X165547504Y-62126204D01*
X165547504Y-62126204D01*
G37*
D14*
X164973000Y-63875000D03*
D15*
X207645000Y-34798000D03*
X207645000Y-36322000D03*
X205105000Y-36322000D03*
X205105000Y-34798000D03*
D16*
X192214500Y-36068000D03*
X192214500Y-31750000D03*
X200469500Y-31750000D03*
X200469500Y-36068000D03*
D17*
X183642000Y-54991000D03*
X183642000Y-53467000D03*
X193294000Y-41021000D03*
X191770000Y-41021000D03*
D18*
X200908000Y-54728000D03*
X196348000Y-54728000D03*
D19*
X197103000Y-62703000D03*
X200153000Y-59353000D03*
X200153000Y-62703000D03*
X197103000Y-59353000D03*
D20*
X195577460Y-46169580D03*
X196227700Y-46169580D03*
X196877940Y-46169580D03*
X197528180Y-46169580D03*
X198178420Y-46169580D03*
X198823580Y-46169580D03*
X199473820Y-46169580D03*
X200124060Y-46169580D03*
X200774300Y-46169580D03*
X201424540Y-46169580D03*
X201424540Y-38920420D03*
X200774300Y-38920420D03*
X200124060Y-38920420D03*
X199473820Y-38920420D03*
X198823580Y-38920420D03*
X198178420Y-38920420D03*
X197528180Y-38920420D03*
X196877940Y-38920420D03*
X196227700Y-38920420D03*
X195577460Y-38920420D03*
D21*
X185552080Y-38252400D03*
X184751980Y-38252400D03*
X183951880Y-38252400D03*
X183151780Y-38252400D03*
X182354220Y-38252400D03*
X181554120Y-38252400D03*
X180754020Y-38252400D03*
X179953920Y-38252400D03*
D22*
X178460400Y-39745920D03*
X178460400Y-40546020D03*
X178460400Y-41346120D03*
X178460400Y-42146220D03*
X178460400Y-42943780D03*
X178460400Y-43743880D03*
X178460400Y-44543980D03*
X178460400Y-45344080D03*
D21*
X179953920Y-46837600D03*
X180754020Y-46837600D03*
X181554120Y-46837600D03*
X182354220Y-46837600D03*
X183151780Y-46837600D03*
X183951880Y-46837600D03*
X184751980Y-46837600D03*
X185552080Y-46837600D03*
D22*
X187045600Y-45344080D03*
X187045600Y-44543980D03*
X187045600Y-43743880D03*
X187045600Y-42943780D03*
X187045600Y-42146220D03*
X187045600Y-41346120D03*
X187045600Y-40546020D03*
X187045600Y-39745920D03*
D11*
X182190000Y-35433000D03*
X178490000Y-35433000D03*
D15*
X210185000Y-36322000D03*
X210185000Y-34798000D03*
D17*
X210185000Y-33147000D03*
X210185000Y-31623000D03*
D23*
X203454000Y-57531000D03*
X203454000Y-54229000D03*
X193802000Y-54229000D03*
X193802000Y-57531000D03*
X187833000Y-35433000D03*
X187833000Y-32131000D03*
D17*
X207645000Y-33147000D03*
X207645000Y-31623000D03*
X205105000Y-33147000D03*
X205105000Y-31623000D03*
M02*
