G04 #@! TF.GenerationSoftware,KiCad,Pcbnew,(5.1.2)-2*
G04 #@! TF.CreationDate,2019-10-11T08:38:30-04:00*
G04 #@! TF.ProjectId,Platypus,506c6174-7970-4757-932e-6b696361645f,rev?*
G04 #@! TF.SameCoordinates,Original*
G04 #@! TF.FileFunction,Legend,Bot*
G04 #@! TF.FilePolarity,Positive*
%FSLAX46Y46*%
G04 Gerber Fmt 4.6, Leading zero omitted, Abs format (unit mm)*
G04 Created by KiCad (PCBNEW (5.1.2)-2) date 2019-10-11 08:38:30*
%MOMM*%
%LPD*%
G04 APERTURE LIST*
%ADD10C,0.275000*%
%ADD11C,0.400000*%
%ADD12C,0.010000*%
G04 APERTURE END LIST*
D10*
X216418380Y-60722714D02*
X216418380Y-61246523D01*
X217518380Y-61246523D01*
X216418380Y-60356047D02*
X217151714Y-60356047D01*
X217518380Y-60356047D02*
X217466000Y-60408428D01*
X217413619Y-60356047D01*
X217466000Y-60303666D01*
X217518380Y-60356047D01*
X217413619Y-60356047D01*
X216470761Y-59360809D02*
X216418380Y-59465571D01*
X216418380Y-59675095D01*
X216470761Y-59779857D01*
X216523142Y-59832238D01*
X216627904Y-59884619D01*
X216942190Y-59884619D01*
X217046952Y-59832238D01*
X217099333Y-59779857D01*
X217151714Y-59675095D01*
X217151714Y-59465571D01*
X217099333Y-59360809D01*
X216470761Y-58470333D02*
X216418380Y-58575095D01*
X216418380Y-58784619D01*
X216470761Y-58889380D01*
X216575523Y-58941761D01*
X216994571Y-58941761D01*
X217099333Y-58889380D01*
X217151714Y-58784619D01*
X217151714Y-58575095D01*
X217099333Y-58470333D01*
X216994571Y-58417952D01*
X216889809Y-58417952D01*
X216785047Y-58941761D01*
X217151714Y-57946523D02*
X216418380Y-57946523D01*
X217046952Y-57946523D02*
X217099333Y-57894142D01*
X217151714Y-57789380D01*
X217151714Y-57632238D01*
X217099333Y-57527476D01*
X216994571Y-57475095D01*
X216418380Y-57475095D01*
X216470761Y-57003666D02*
X216418380Y-56898904D01*
X216418380Y-56689380D01*
X216470761Y-56584619D01*
X216575523Y-56532238D01*
X216627904Y-56532238D01*
X216732666Y-56584619D01*
X216785047Y-56689380D01*
X216785047Y-56846523D01*
X216837428Y-56951285D01*
X216942190Y-57003666D01*
X216994571Y-57003666D01*
X217099333Y-56951285D01*
X217151714Y-56846523D01*
X217151714Y-56689380D01*
X217099333Y-56584619D01*
X216470761Y-55641761D02*
X216418380Y-55746523D01*
X216418380Y-55956047D01*
X216470761Y-56060809D01*
X216575523Y-56113190D01*
X216994571Y-56113190D01*
X217099333Y-56060809D01*
X217151714Y-55956047D01*
X217151714Y-55746523D01*
X217099333Y-55641761D01*
X216994571Y-55589380D01*
X216889809Y-55589380D01*
X216785047Y-56113190D01*
X216418380Y-54646523D02*
X217518380Y-54646523D01*
X216470761Y-54646523D02*
X216418380Y-54751285D01*
X216418380Y-54960809D01*
X216470761Y-55065571D01*
X216523142Y-55117952D01*
X216627904Y-55170333D01*
X216942190Y-55170333D01*
X217046952Y-55117952D01*
X217099333Y-55065571D01*
X217151714Y-54960809D01*
X217151714Y-54751285D01*
X217099333Y-54646523D01*
X217518380Y-53284619D02*
X216627904Y-53284619D01*
X216523142Y-53232238D01*
X216470761Y-53179857D01*
X216418380Y-53075095D01*
X216418380Y-52865571D01*
X216470761Y-52760809D01*
X216523142Y-52708428D01*
X216627904Y-52656047D01*
X217518380Y-52656047D01*
X217151714Y-52132238D02*
X216418380Y-52132238D01*
X217046952Y-52132238D02*
X217099333Y-52079857D01*
X217151714Y-51975095D01*
X217151714Y-51817952D01*
X217099333Y-51713190D01*
X216994571Y-51660809D01*
X216418380Y-51660809D01*
X216418380Y-50665571D02*
X217518380Y-50665571D01*
X216470761Y-50665571D02*
X216418380Y-50770333D01*
X216418380Y-50979857D01*
X216470761Y-51084619D01*
X216523142Y-51137000D01*
X216627904Y-51189380D01*
X216942190Y-51189380D01*
X217046952Y-51137000D01*
X217099333Y-51084619D01*
X217151714Y-50979857D01*
X217151714Y-50770333D01*
X217099333Y-50665571D01*
X216470761Y-49722714D02*
X216418380Y-49827476D01*
X216418380Y-50037000D01*
X216470761Y-50141761D01*
X216575523Y-50194142D01*
X216994571Y-50194142D01*
X217099333Y-50141761D01*
X217151714Y-50037000D01*
X217151714Y-49827476D01*
X217099333Y-49722714D01*
X216994571Y-49670333D01*
X216889809Y-49670333D01*
X216785047Y-50194142D01*
X216418380Y-49198904D02*
X217151714Y-49198904D01*
X216942190Y-49198904D02*
X217046952Y-49146523D01*
X217099333Y-49094142D01*
X217151714Y-48989380D01*
X217151714Y-48884619D01*
X216523142Y-47051285D02*
X216470761Y-47103666D01*
X216418380Y-47260809D01*
X216418380Y-47365571D01*
X216470761Y-47522714D01*
X216575523Y-47627476D01*
X216680285Y-47679857D01*
X216889809Y-47732238D01*
X217046952Y-47732238D01*
X217256476Y-47679857D01*
X217361238Y-47627476D01*
X217466000Y-47522714D01*
X217518380Y-47365571D01*
X217518380Y-47260809D01*
X217466000Y-47103666D01*
X217413619Y-47051285D01*
X216994571Y-46579857D02*
X216994571Y-46213190D01*
X216418380Y-46056047D02*
X216418380Y-46579857D01*
X217518380Y-46579857D01*
X217518380Y-46056047D01*
X216418380Y-44956047D02*
X216942190Y-45322714D01*
X216418380Y-45584619D02*
X217518380Y-45584619D01*
X217518380Y-45165571D01*
X217466000Y-45060809D01*
X217413619Y-45008428D01*
X217308857Y-44956047D01*
X217151714Y-44956047D01*
X217046952Y-45008428D01*
X216994571Y-45060809D01*
X216942190Y-45165571D01*
X216942190Y-45584619D01*
X216418380Y-44484619D02*
X217518380Y-44484619D01*
X216418380Y-43856047D01*
X217518380Y-43856047D01*
X217518380Y-42284619D02*
X217518380Y-42075095D01*
X217466000Y-41970333D01*
X217361238Y-41865571D01*
X217151714Y-41813190D01*
X216785047Y-41813190D01*
X216575523Y-41865571D01*
X216470761Y-41970333D01*
X216418380Y-42075095D01*
X216418380Y-42284619D01*
X216470761Y-42389380D01*
X216575523Y-42494142D01*
X216785047Y-42546523D01*
X217151714Y-42546523D01*
X217361238Y-42494142D01*
X217466000Y-42389380D01*
X217518380Y-42284619D01*
X216418380Y-41341761D02*
X217518380Y-41341761D01*
X216994571Y-41341761D02*
X216994571Y-40713190D01*
X216418380Y-40713190D02*
X217518380Y-40713190D01*
X216418380Y-39665571D02*
X216418380Y-40189380D01*
X217518380Y-40189380D01*
X217151714Y-38565571D02*
X216418380Y-38303666D01*
X217151714Y-38041761D01*
X216418380Y-37046523D02*
X216418380Y-37675095D01*
X216418380Y-37360809D02*
X217518380Y-37360809D01*
X217361238Y-37465571D01*
X217256476Y-37570333D01*
X217204095Y-37675095D01*
X216523142Y-36575095D02*
X216470761Y-36522714D01*
X216418380Y-36575095D01*
X216470761Y-36627476D01*
X216523142Y-36575095D01*
X216418380Y-36575095D01*
X217413619Y-36103666D02*
X217466000Y-36051285D01*
X217518380Y-35946523D01*
X217518380Y-35684619D01*
X217466000Y-35579857D01*
X217413619Y-35527476D01*
X217308857Y-35475095D01*
X217204095Y-35475095D01*
X217046952Y-35527476D01*
X216418380Y-36156047D01*
X216418380Y-35475095D01*
D11*
X202943428Y-76596761D02*
X202943428Y-74596761D01*
X202276761Y-76025333D01*
X201610095Y-74596761D01*
X201610095Y-76596761D01*
X199800571Y-76596761D02*
X199800571Y-75549142D01*
X199895809Y-75358666D01*
X200086285Y-75263428D01*
X200467238Y-75263428D01*
X200657714Y-75358666D01*
X199800571Y-76501523D02*
X199991047Y-76596761D01*
X200467238Y-76596761D01*
X200657714Y-76501523D01*
X200752952Y-76311047D01*
X200752952Y-76120571D01*
X200657714Y-75930095D01*
X200467238Y-75834857D01*
X199991047Y-75834857D01*
X199800571Y-75739619D01*
X198848190Y-75263428D02*
X198848190Y-76596761D01*
X198848190Y-75453904D02*
X198752952Y-75358666D01*
X198562476Y-75263428D01*
X198276761Y-75263428D01*
X198086285Y-75358666D01*
X197991047Y-75549142D01*
X197991047Y-76596761D01*
X197038666Y-76596761D02*
X197038666Y-75263428D01*
X197038666Y-74596761D02*
X197133904Y-74692000D01*
X197038666Y-74787238D01*
X196943428Y-74692000D01*
X197038666Y-74596761D01*
X197038666Y-74787238D01*
X195229142Y-76596761D02*
X195229142Y-75549142D01*
X195324380Y-75358666D01*
X195514857Y-75263428D01*
X195895809Y-75263428D01*
X196086285Y-75358666D01*
X195229142Y-76501523D02*
X195419619Y-76596761D01*
X195895809Y-76596761D01*
X196086285Y-76501523D01*
X196181523Y-76311047D01*
X196181523Y-76120571D01*
X196086285Y-75930095D01*
X195895809Y-75834857D01*
X195419619Y-75834857D01*
X195229142Y-75739619D01*
X193419619Y-76501523D02*
X193610095Y-76596761D01*
X193991047Y-76596761D01*
X194181523Y-76501523D01*
X194276761Y-76406285D01*
X194372000Y-76215809D01*
X194372000Y-75644380D01*
X194276761Y-75453904D01*
X194181523Y-75358666D01*
X193991047Y-75263428D01*
X193610095Y-75263428D01*
X193419619Y-75358666D01*
X191705333Y-76596761D02*
X191705333Y-75549142D01*
X191800571Y-75358666D01*
X191991047Y-75263428D01*
X192372000Y-75263428D01*
X192562476Y-75358666D01*
X191705333Y-76501523D02*
X191895809Y-76596761D01*
X192372000Y-76596761D01*
X192562476Y-76501523D01*
X192657714Y-76311047D01*
X192657714Y-76120571D01*
X192562476Y-75930095D01*
X192372000Y-75834857D01*
X191895809Y-75834857D01*
X191705333Y-75739619D01*
X190467238Y-76596761D02*
X190657714Y-76501523D01*
X190752952Y-76311047D01*
X190752952Y-74596761D01*
X188752952Y-76596761D02*
X189705333Y-76596761D01*
X189705333Y-74596761D01*
X187229142Y-76596761D02*
X187229142Y-75549142D01*
X187324380Y-75358666D01*
X187514857Y-75263428D01*
X187895809Y-75263428D01*
X188086285Y-75358666D01*
X187229142Y-76501523D02*
X187419619Y-76596761D01*
X187895809Y-76596761D01*
X188086285Y-76501523D01*
X188181523Y-76311047D01*
X188181523Y-76120571D01*
X188086285Y-75930095D01*
X187895809Y-75834857D01*
X187419619Y-75834857D01*
X187229142Y-75739619D01*
X186276761Y-76596761D02*
X186276761Y-74596761D01*
X186276761Y-75358666D02*
X186086285Y-75263428D01*
X185705333Y-75263428D01*
X185514857Y-75358666D01*
X185419619Y-75453904D01*
X185324380Y-75644380D01*
X185324380Y-76215809D01*
X185419619Y-76406285D01*
X185514857Y-76501523D01*
X185705333Y-76596761D01*
X186086285Y-76596761D01*
X186276761Y-76501523D01*
X184562476Y-76501523D02*
X184372000Y-76596761D01*
X183991047Y-76596761D01*
X183800571Y-76501523D01*
X183705333Y-76311047D01*
X183705333Y-76215809D01*
X183800571Y-76025333D01*
X183991047Y-75930095D01*
X184276761Y-75930095D01*
X184467238Y-75834857D01*
X184562476Y-75644380D01*
X184562476Y-75549142D01*
X184467238Y-75358666D01*
X184276761Y-75263428D01*
X183991047Y-75263428D01*
X183800571Y-75358666D01*
X182848190Y-76406285D02*
X182752952Y-76501523D01*
X182848190Y-76596761D01*
X182943428Y-76501523D01*
X182848190Y-76406285D01*
X182848190Y-76596761D01*
X181038666Y-76501523D02*
X181229142Y-76596761D01*
X181610095Y-76596761D01*
X181800571Y-76501523D01*
X181895809Y-76406285D01*
X181991047Y-76215809D01*
X181991047Y-75644380D01*
X181895809Y-75453904D01*
X181800571Y-75358666D01*
X181610095Y-75263428D01*
X181229142Y-75263428D01*
X181038666Y-75358666D01*
X179895809Y-76596761D02*
X180086285Y-76501523D01*
X180181523Y-76406285D01*
X180276761Y-76215809D01*
X180276761Y-75644380D01*
X180181523Y-75453904D01*
X180086285Y-75358666D01*
X179895809Y-75263428D01*
X179610095Y-75263428D01*
X179419619Y-75358666D01*
X179324380Y-75453904D01*
X179229142Y-75644380D01*
X179229142Y-76215809D01*
X179324380Y-76406285D01*
X179419619Y-76501523D01*
X179610095Y-76596761D01*
X179895809Y-76596761D01*
X178372000Y-76596761D02*
X178372000Y-75263428D01*
X178372000Y-75453904D02*
X178276761Y-75358666D01*
X178086285Y-75263428D01*
X177800571Y-75263428D01*
X177610095Y-75358666D01*
X177514857Y-75549142D01*
X177514857Y-76596761D01*
X177514857Y-75549142D02*
X177419619Y-75358666D01*
X177229142Y-75263428D01*
X176943428Y-75263428D01*
X176752952Y-75358666D01*
X176657714Y-75549142D01*
X176657714Y-76596761D01*
X174276761Y-74501523D02*
X175991047Y-77072952D01*
X173610095Y-76596761D02*
X173610095Y-74596761D01*
X172848190Y-74596761D01*
X172657714Y-74692000D01*
X172562476Y-74787238D01*
X172467238Y-74977714D01*
X172467238Y-75263428D01*
X172562476Y-75453904D01*
X172657714Y-75549142D01*
X172848190Y-75644380D01*
X173610095Y-75644380D01*
X171324380Y-76596761D02*
X171514857Y-76501523D01*
X171610095Y-76311047D01*
X171610095Y-74596761D01*
X169705333Y-76596761D02*
X169705333Y-75549142D01*
X169800571Y-75358666D01*
X169991047Y-75263428D01*
X170372000Y-75263428D01*
X170562476Y-75358666D01*
X169705333Y-76501523D02*
X169895809Y-76596761D01*
X170372000Y-76596761D01*
X170562476Y-76501523D01*
X170657714Y-76311047D01*
X170657714Y-76120571D01*
X170562476Y-75930095D01*
X170372000Y-75834857D01*
X169895809Y-75834857D01*
X169705333Y-75739619D01*
X169038666Y-75263428D02*
X168276761Y-75263428D01*
X168752952Y-74596761D02*
X168752952Y-76311047D01*
X168657714Y-76501523D01*
X168467238Y-76596761D01*
X168276761Y-76596761D01*
X167800571Y-75263428D02*
X167324380Y-76596761D01*
X166848190Y-75263428D02*
X167324380Y-76596761D01*
X167514857Y-77072952D01*
X167610095Y-77168190D01*
X167800571Y-77263428D01*
X166086285Y-75263428D02*
X166086285Y-77263428D01*
X166086285Y-75358666D02*
X165895809Y-75263428D01*
X165514857Y-75263428D01*
X165324380Y-75358666D01*
X165229142Y-75453904D01*
X165133904Y-75644380D01*
X165133904Y-76215809D01*
X165229142Y-76406285D01*
X165324380Y-76501523D01*
X165514857Y-76596761D01*
X165895809Y-76596761D01*
X166086285Y-76501523D01*
X163419619Y-75263428D02*
X163419619Y-76596761D01*
X164276761Y-75263428D02*
X164276761Y-76311047D01*
X164181523Y-76501523D01*
X163991047Y-76596761D01*
X163705333Y-76596761D01*
X163514857Y-76501523D01*
X163419619Y-76406285D01*
X162562476Y-76501523D02*
X162372000Y-76596761D01*
X161991047Y-76596761D01*
X161800571Y-76501523D01*
X161705333Y-76311047D01*
X161705333Y-76215809D01*
X161800571Y-76025333D01*
X161991047Y-75930095D01*
X162276761Y-75930095D01*
X162467238Y-75834857D01*
X162562476Y-75644380D01*
X162562476Y-75549142D01*
X162467238Y-75358666D01*
X162276761Y-75263428D01*
X161991047Y-75263428D01*
X161800571Y-75358666D01*
D12*
G36*
X192695694Y-48037320D02*
G01*
X192563658Y-48119618D01*
X192472284Y-48354929D01*
X192461313Y-48614045D01*
X192491522Y-48701147D01*
X192648342Y-48814365D01*
X192706622Y-48801420D01*
X192792283Y-48628775D01*
X192809137Y-48347807D01*
X192759276Y-48104793D01*
X192695694Y-48037320D01*
X192695694Y-48037320D01*
G37*
X192695694Y-48037320D02*
X192563658Y-48119618D01*
X192472284Y-48354929D01*
X192461313Y-48614045D01*
X192491522Y-48701147D01*
X192648342Y-48814365D01*
X192706622Y-48801420D01*
X192792283Y-48628775D01*
X192809137Y-48347807D01*
X192759276Y-48104793D01*
X192695694Y-48037320D01*
G36*
X191320201Y-46491768D02*
G01*
X191191689Y-46498273D01*
X190921803Y-46641774D01*
X190765936Y-46819180D01*
X190673302Y-47101072D01*
X190723652Y-47322467D01*
X190883642Y-47393355D01*
X190966918Y-47361722D01*
X191136227Y-47167302D01*
X191289321Y-46861805D01*
X191374806Y-46584585D01*
X191320201Y-46491768D01*
X191320201Y-46491768D01*
G37*
X191320201Y-46491768D02*
X191191689Y-46498273D01*
X190921803Y-46641774D01*
X190765936Y-46819180D01*
X190673302Y-47101072D01*
X190723652Y-47322467D01*
X190883642Y-47393355D01*
X190966918Y-47361722D01*
X191136227Y-47167302D01*
X191289321Y-46861805D01*
X191374806Y-46584585D01*
X191320201Y-46491768D01*
G36*
X200778848Y-69986253D02*
G01*
X200477443Y-69850507D01*
X200211497Y-69767796D01*
X199732894Y-69662365D01*
X199514226Y-69660062D01*
X199560050Y-69743886D01*
X199874918Y-69896841D01*
X200149517Y-69999109D01*
X200544302Y-70109617D01*
X200812587Y-70134290D01*
X200880400Y-70098582D01*
X200778848Y-69986253D01*
X200778848Y-69986253D01*
G37*
X200778848Y-69986253D02*
X200477443Y-69850507D01*
X200211497Y-69767796D01*
X199732894Y-69662365D01*
X199514226Y-69660062D01*
X199560050Y-69743886D01*
X199874918Y-69896841D01*
X200149517Y-69999109D01*
X200544302Y-70109617D01*
X200812587Y-70134290D01*
X200880400Y-70098582D01*
X200778848Y-69986253D01*
G36*
X192567153Y-30005678D02*
G01*
X191897862Y-29684354D01*
X191855852Y-29672716D01*
X191300155Y-29572445D01*
X190739445Y-29585220D01*
X190127654Y-29724407D01*
X189418719Y-30003366D01*
X188566575Y-30435461D01*
X187875101Y-30827493D01*
X186218786Y-31905892D01*
X184767780Y-33100515D01*
X183450386Y-34473572D01*
X182897812Y-35146175D01*
X182491664Y-35636473D01*
X182105819Y-36057441D01*
X181799965Y-36345737D01*
X181698916Y-36418498D01*
X181384287Y-36648369D01*
X181005800Y-36988884D01*
X180841490Y-37156180D01*
X180501719Y-37513633D01*
X180282163Y-37690093D01*
X180105019Y-37705657D01*
X179892485Y-37580424D01*
X179716548Y-37446776D01*
X179223890Y-37137101D01*
X178788945Y-36981075D01*
X178456621Y-36979557D01*
X178271829Y-37133406D01*
X178272412Y-37419144D01*
X178261695Y-37656947D01*
X178045918Y-37870249D01*
X177910446Y-37954007D01*
X177614445Y-38160983D01*
X177569097Y-38339808D01*
X177774519Y-38557024D01*
X177911666Y-38658708D01*
X178140082Y-38896406D01*
X178196426Y-39227797D01*
X178193324Y-39306170D01*
X178193682Y-39557084D01*
X178273683Y-39712934D01*
X178497719Y-39834180D01*
X178902987Y-39972497D01*
X179461704Y-40093724D01*
X179978860Y-40106845D01*
X180135612Y-40080028D01*
X180568827Y-40010581D01*
X180944634Y-40017630D01*
X180964698Y-40021549D01*
X181187607Y-40095052D01*
X181286563Y-40250210D01*
X181323734Y-40586292D01*
X181324285Y-40595725D01*
X181438851Y-41130808D01*
X181698325Y-41773565D01*
X182054513Y-42425855D01*
X182459217Y-42989534D01*
X182550355Y-43092315D01*
X182848230Y-43475027D01*
X182900556Y-43718666D01*
X182707044Y-43823797D01*
X182267406Y-43790980D01*
X182197371Y-43777656D01*
X181641444Y-43727790D01*
X181297830Y-43836518D01*
X181179011Y-44097517D01*
X181206730Y-44279422D01*
X181207148Y-44608526D01*
X181024168Y-44792176D01*
X180643644Y-45072540D01*
X180522544Y-45343703D01*
X180664635Y-45632353D01*
X181073689Y-45965174D01*
X181201539Y-46048017D01*
X181553245Y-46304675D01*
X181731966Y-46561898D01*
X181807367Y-46838829D01*
X181899917Y-47167149D01*
X182067257Y-47314934D01*
X182281534Y-47365792D01*
X182746118Y-47316693D01*
X183281979Y-47064778D01*
X183812825Y-46647795D01*
X183891116Y-46569402D01*
X184344477Y-46247817D01*
X184883130Y-46078284D01*
X185412963Y-46075053D01*
X185839862Y-46252378D01*
X185862272Y-46270896D01*
X186126183Y-46564649D01*
X186439306Y-47005063D01*
X186747039Y-47503057D01*
X186994786Y-47969545D01*
X187127947Y-48315446D01*
X187133763Y-48345437D01*
X187061583Y-48710362D01*
X186763257Y-49182553D01*
X186259434Y-49732367D01*
X186002538Y-49969560D01*
X185536474Y-50460349D01*
X185315494Y-50928158D01*
X185319837Y-51447512D01*
X185475307Y-51958039D01*
X185623062Y-52305049D01*
X185743779Y-52435884D01*
X185903550Y-52400783D01*
X185993078Y-52351603D01*
X186200064Y-52277490D01*
X186407213Y-52346153D01*
X186691963Y-52591023D01*
X186800489Y-52700150D01*
X187104319Y-52984884D01*
X187330343Y-53149783D01*
X187401537Y-53167841D01*
X187455805Y-53006770D01*
X187471001Y-52777339D01*
X187007969Y-51975345D01*
X186894346Y-52039700D01*
X186701562Y-51896460D01*
X186565263Y-51701009D01*
X186395541Y-51474963D01*
X186240913Y-51485752D01*
X186156854Y-51558071D01*
X185985958Y-51694233D01*
X185894318Y-51634563D01*
X185842125Y-51340181D01*
X185832063Y-51240904D01*
X185882732Y-50903257D01*
X186138765Y-50581778D01*
X186251128Y-50485077D01*
X186700823Y-50056622D01*
X187123811Y-49550265D01*
X187457837Y-49049539D01*
X187640641Y-48637973D01*
X187646563Y-48612829D01*
X187619773Y-48254660D01*
X187451977Y-47752982D01*
X187180810Y-47182774D01*
X186843907Y-46619013D01*
X186478904Y-46136679D01*
X186320438Y-45970841D01*
X185972807Y-45688110D01*
X185634524Y-45565533D01*
X185168869Y-45556159D01*
X185121109Y-45558949D01*
X184697139Y-45603192D01*
X184332266Y-45699282D01*
X183951967Y-45880776D01*
X183481721Y-46181235D01*
X183032597Y-46499474D01*
X182593976Y-46781859D01*
X182341168Y-46857352D01*
X182267866Y-46725798D01*
X182330166Y-46482274D01*
X182385353Y-46253951D01*
X182313165Y-46083537D01*
X182065015Y-45910564D01*
X181737110Y-45744189D01*
X181346103Y-45499620D01*
X181211848Y-45284453D01*
X181336816Y-45123168D01*
X181666498Y-45044922D01*
X182019651Y-44998170D01*
X182132108Y-44928209D01*
X182045135Y-44799615D01*
X182000986Y-44757768D01*
X181840023Y-44492581D01*
X181819267Y-44360126D01*
X181886441Y-44229382D01*
X182110780Y-44256378D01*
X182266691Y-44313659D01*
X182598543Y-44460141D01*
X182804269Y-44575626D01*
X182809865Y-44580268D01*
X182938112Y-44524584D01*
X183161633Y-44286311D01*
X183360966Y-44018207D01*
X183686253Y-43621664D01*
X184157912Y-43142711D01*
X184693159Y-42663668D01*
X184861928Y-42525726D01*
X185366956Y-42107939D01*
X185640825Y-41842722D01*
X185687264Y-41726196D01*
X185635738Y-41721138D01*
X185397011Y-41821454D01*
X185014245Y-42056307D01*
X184560459Y-42379861D01*
X184446170Y-42467907D01*
X183918975Y-42856182D01*
X183542007Y-43081478D01*
X183353557Y-43130643D01*
X183191283Y-42995959D01*
X182930955Y-42685297D01*
X182624640Y-42261661D01*
X182577483Y-42191573D01*
X182201433Y-41574302D01*
X181978819Y-41060439D01*
X181877860Y-40635291D01*
X181771162Y-39969003D01*
X182539068Y-39626579D01*
X183003321Y-39396850D01*
X183216109Y-39230439D01*
X183226367Y-39144540D01*
X183064264Y-39110474D01*
X182777522Y-39214754D01*
X182747042Y-39231546D01*
X182250613Y-39420710D01*
X181657366Y-39518090D01*
X181091167Y-39512049D01*
X180731976Y-39420845D01*
X180452499Y-39351922D01*
X180303274Y-39412971D01*
X180107403Y-39527958D01*
X179747980Y-39584573D01*
X179339278Y-39574077D01*
X179047015Y-39509073D01*
X178848411Y-39379009D01*
X178796904Y-39126241D01*
X178800582Y-39020134D01*
X178738983Y-38644445D01*
X178587494Y-38490582D01*
X178455493Y-38363879D01*
X178564932Y-38231596D01*
X178663979Y-38170720D01*
X178878046Y-37963543D01*
X178869733Y-37807516D01*
X178803753Y-37605682D01*
X178916121Y-37573922D01*
X179168921Y-37700983D01*
X179524241Y-37975608D01*
X179568691Y-38015001D01*
X179897238Y-38304953D01*
X180131648Y-38502667D01*
X180204111Y-38555728D01*
X180319739Y-38470461D01*
X180571808Y-38227146D01*
X180907422Y-37877025D01*
X180932475Y-37850059D01*
X181714474Y-37118723D01*
X182485488Y-36639377D01*
X183290544Y-36387401D01*
X183693324Y-36340525D01*
X184750858Y-36415367D01*
X185783823Y-36770436D01*
X186448503Y-37189151D01*
X186052385Y-36503055D01*
X185295023Y-36247517D01*
X184687767Y-36106542D01*
X184019671Y-36042945D01*
X183743746Y-36047807D01*
X183304438Y-36067726D01*
X182997814Y-36060948D01*
X182906235Y-36039089D01*
X182967096Y-35907033D01*
X183168959Y-35626303D01*
X183437286Y-35294806D01*
X184011933Y-34615068D01*
X185177813Y-34760831D01*
X185751751Y-34830170D01*
X186097246Y-34903142D01*
X186257843Y-35040744D01*
X186277088Y-35303972D01*
X186198528Y-35753820D01*
X186130793Y-36095680D01*
X186052385Y-36503055D01*
X186448503Y-37189151D01*
X186790624Y-37404671D01*
X187769665Y-38317015D01*
X188719351Y-39506408D01*
X188933145Y-39818574D01*
X189639102Y-40877459D01*
X189388925Y-41863481D01*
X189213552Y-42625820D01*
X189133933Y-43212360D01*
X189149900Y-43712722D01*
X189261284Y-44216529D01*
X189383806Y-44585616D01*
X189494267Y-44894252D01*
X189563702Y-45143024D01*
X189581094Y-45379974D01*
X189535426Y-45653148D01*
X189415682Y-46010595D01*
X189210844Y-46500357D01*
X188909896Y-47170480D01*
X188670237Y-47697546D01*
X188427683Y-48338508D01*
X188251781Y-49007284D01*
X188184740Y-49485053D01*
X188138846Y-49994443D01*
X188033968Y-50292377D01*
X187820840Y-50449457D01*
X187451256Y-50536110D01*
X187199997Y-50599005D01*
X187162301Y-50727549D01*
X187293008Y-50985946D01*
X187417868Y-51246366D01*
X187370039Y-51325645D01*
X187285725Y-51311999D01*
X187015473Y-51289290D01*
X186936861Y-51446438D01*
X186986720Y-51703118D01*
X187007969Y-51975345D01*
X187471001Y-52777339D01*
X187478055Y-52670824D01*
X187476604Y-52554207D01*
X187479647Y-52151052D01*
X187545558Y-51968865D01*
X187712118Y-51947509D01*
X187839291Y-51976829D01*
X188039725Y-51936273D01*
X188094705Y-51712519D01*
X187994994Y-51369542D01*
X187941758Y-51267268D01*
X187859184Y-51028614D01*
X187890768Y-50930089D01*
X187999765Y-51015462D01*
X188185478Y-51297807D01*
X188408494Y-51716878D01*
X188417300Y-51734947D01*
X188867235Y-52480607D01*
X189479889Y-53250770D01*
X190177073Y-53960625D01*
X190880596Y-54525361D01*
X191139842Y-54687982D01*
X191768639Y-54964381D01*
X192372382Y-55086069D01*
X192871328Y-55040643D01*
X193012855Y-54979318D01*
X193087943Y-54906913D01*
X192818301Y-54439879D01*
X192369724Y-54545415D01*
X191833976Y-54430336D01*
X191245408Y-54128750D01*
X190638368Y-53674760D01*
X190047207Y-53102472D01*
X189506275Y-52445992D01*
X189049923Y-51739427D01*
X188712500Y-51016879D01*
X188528356Y-50312456D01*
X188511892Y-50164130D01*
X188559337Y-49218405D01*
X188843440Y-48128894D01*
X189365119Y-46892121D01*
X189385882Y-46849798D01*
X189694959Y-46184232D01*
X189867312Y-45681998D01*
X189913100Y-45265443D01*
X189842487Y-44856915D01*
X189698820Y-44458667D01*
X189472125Y-43742470D01*
X189439973Y-43193280D01*
X189597522Y-42825333D01*
X189939931Y-42652866D01*
X190310621Y-42659641D01*
X190713033Y-42723369D01*
X190604866Y-43561357D01*
X190611963Y-44336667D01*
X190845601Y-44953648D01*
X191295329Y-45397434D01*
X191950698Y-45653160D01*
X192093327Y-45678621D01*
X192807303Y-45889999D01*
X193331479Y-46268998D01*
X193503908Y-46503539D01*
X193637198Y-46924348D01*
X193612962Y-47360805D01*
X193445215Y-47700089D01*
X193345243Y-47780947D01*
X193239704Y-47972309D01*
X193267768Y-48070089D01*
X193455840Y-48160553D01*
X193618013Y-48112287D01*
X193848050Y-48052252D01*
X193937735Y-48101617D01*
X193888046Y-48232386D01*
X193750314Y-48289780D01*
X193513847Y-48477791D01*
X193386732Y-48886382D01*
X193378272Y-49472239D01*
X193421722Y-49819794D01*
X193523093Y-50710372D01*
X193544866Y-51613088D01*
X193493856Y-52475745D01*
X193376881Y-53246149D01*
X193200757Y-53872108D01*
X192972301Y-54301425D01*
X192818301Y-54439879D01*
X193087943Y-54906913D01*
X193408249Y-54598053D01*
X193717696Y-53981822D01*
X193934624Y-53166490D01*
X194052463Y-52187920D01*
X194064642Y-51081977D01*
X193964593Y-49884525D01*
X193956946Y-49826046D01*
X193919082Y-49340307D01*
X193948340Y-49019539D01*
X194016979Y-48923214D01*
X194206395Y-48780042D01*
X194250381Y-48682230D01*
X194344251Y-48506809D01*
X194390926Y-48491613D01*
X194456053Y-48626809D01*
X194603110Y-49004293D01*
X194823452Y-49599057D01*
X195108440Y-50386095D01*
X195449426Y-51340402D01*
X195837771Y-52436968D01*
X196264831Y-53650791D01*
X196721964Y-54956859D01*
X197200525Y-56330171D01*
X197691871Y-57745717D01*
X198187363Y-59178490D01*
X198678353Y-60603486D01*
X199156201Y-61995697D01*
X199612263Y-63330116D01*
X200037898Y-64581737D01*
X200424460Y-65725555D01*
X200763309Y-66736560D01*
X201045800Y-67589749D01*
X201263291Y-68260113D01*
X201407139Y-68722645D01*
X201468701Y-68952341D01*
X201469654Y-68972504D01*
X201443444Y-69223145D01*
X201480587Y-69398988D01*
X201447122Y-69449330D01*
X201265767Y-69310148D01*
X200970580Y-69007657D01*
X200966581Y-69003249D01*
X200639427Y-68668268D01*
X200380349Y-68450291D01*
X200252828Y-68396953D01*
X200259308Y-68535449D01*
X200489270Y-68832413D01*
X200945198Y-69290946D01*
X201039305Y-69379533D01*
X201271847Y-69628614D01*
X201371251Y-69799209D01*
X201370490Y-69811631D01*
X201264312Y-69809981D01*
X201117309Y-69702476D01*
X200890844Y-69563471D01*
X200776414Y-69561131D01*
X200715010Y-69700574D01*
X200840888Y-69833843D01*
X200961038Y-69861891D01*
X201172147Y-69955857D01*
X201197405Y-69989068D01*
X201160364Y-70098795D01*
X201102149Y-70106302D01*
X201000314Y-70188867D01*
X201019696Y-70245712D01*
X201016152Y-70350317D01*
X200827544Y-70343047D01*
X200587810Y-70358233D01*
X200518315Y-70421844D01*
X200611306Y-70535515D01*
X200830950Y-70603747D01*
X201071926Y-70648591D01*
X201049695Y-70682823D01*
X200885184Y-70718286D01*
X200126905Y-70882930D01*
X199645493Y-71018110D01*
X199437260Y-71124960D01*
X199431480Y-71163729D01*
X199589897Y-71190112D01*
X199938830Y-71150406D01*
X200315973Y-71072937D01*
X200757944Y-70974027D01*
X200967789Y-70954906D01*
X200985437Y-71020312D01*
X200884468Y-71140379D01*
X200713414Y-71326502D01*
X200748209Y-71340703D01*
X200919359Y-71254711D01*
X201149109Y-71176643D01*
X201193986Y-71256106D01*
X201069412Y-71451808D01*
X200790808Y-71722453D01*
X200724372Y-71776835D01*
X200400436Y-72068513D01*
X200174411Y-72331469D01*
X200139859Y-72390677D01*
X200160767Y-72460349D01*
X200339289Y-72372885D01*
X200625955Y-72162891D01*
X200971291Y-71864971D01*
X201184478Y-71660011D01*
X201367732Y-71495942D01*
X201411275Y-71557073D01*
X201388338Y-71728670D01*
X201366898Y-71946531D01*
X201447864Y-71926369D01*
X201584348Y-71785948D01*
X201700882Y-71694765D01*
X201716383Y-71798756D01*
X201629215Y-72124730D01*
X201548579Y-72373468D01*
X201391983Y-72906399D01*
X201349929Y-73188893D01*
X201406006Y-73220518D01*
X201543808Y-73000838D01*
X201746927Y-72529421D01*
X201803053Y-72380188D01*
X201957982Y-71981412D01*
X202060624Y-71762756D01*
X202091683Y-71764343D01*
X202089079Y-71785375D01*
X202100398Y-72043130D01*
X202167976Y-72130781D01*
X202278648Y-72038009D01*
X202338023Y-71824991D01*
X202377643Y-71712721D01*
X202440971Y-71846052D01*
X202534503Y-72240520D01*
X202556437Y-72347322D01*
X202692339Y-72957376D01*
X202798683Y-73292132D01*
X202877875Y-73356700D01*
X202932318Y-73156188D01*
X202933322Y-73148309D01*
X202911263Y-72803283D01*
X202804486Y-72373177D01*
X202778894Y-72300556D01*
X202683930Y-71953576D01*
X202686470Y-71731625D01*
X202708400Y-71704519D01*
X202832503Y-71751975D01*
X202868430Y-71856538D01*
X202952831Y-72017892D01*
X203013792Y-72017025D01*
X203056760Y-71853875D01*
X203010110Y-71652534D01*
X203016949Y-71559153D01*
X203187493Y-71685780D01*
X203455854Y-71962635D01*
X203782050Y-72292955D01*
X204048726Y-72516757D01*
X204169807Y-72578432D01*
X204266110Y-72559085D01*
X204242939Y-72466745D01*
X204073765Y-72263198D01*
X203732055Y-71910235D01*
X203645269Y-71822960D01*
X203353308Y-71511803D01*
X203161763Y-71274927D01*
X203092447Y-71149101D01*
X203167172Y-71171090D01*
X203348476Y-71322692D01*
X203574941Y-71461698D01*
X203689371Y-71464038D01*
X203750774Y-71324594D01*
X203624896Y-71191325D01*
X203504747Y-71163278D01*
X203287960Y-71051164D01*
X203259599Y-71010050D01*
X203338912Y-70976248D01*
X203622630Y-71028302D01*
X204050192Y-71154904D01*
X204068829Y-71161156D01*
X204521841Y-71291978D01*
X204855125Y-71347112D01*
X204996474Y-71314663D01*
X204892874Y-71204305D01*
X204583892Y-71058903D01*
X204168758Y-70919871D01*
X203752026Y-70785551D01*
X203575385Y-70693674D01*
X203656488Y-70653461D01*
X203658434Y-70653362D01*
X203900345Y-70603182D01*
X203949418Y-70522360D01*
X203773430Y-70443995D01*
X203638642Y-70447807D01*
X203410164Y-70462936D01*
X203407576Y-70412078D01*
X203589466Y-70319780D01*
X203914415Y-70210589D01*
X204136229Y-70152903D01*
X204561713Y-70044930D01*
X204871682Y-69952101D01*
X204956823Y-69917569D01*
X205024991Y-69833030D01*
X204861625Y-69808386D01*
X204510854Y-69843037D01*
X204045748Y-69929994D01*
X203658549Y-69998679D01*
X203508460Y-69986368D01*
X203570187Y-69919413D01*
X203728631Y-69758045D01*
X203696979Y-69664635D01*
X203509820Y-69678695D01*
X203475345Y-69720742D01*
X203361973Y-69770722D01*
X203333657Y-69738054D01*
X203389910Y-69585335D01*
X203612263Y-69341011D01*
X203735090Y-69233912D01*
X204075746Y-68928883D01*
X204280014Y-68698598D01*
X204333865Y-68575728D01*
X204223264Y-68592943D01*
X203934180Y-68782911D01*
X203926239Y-68788879D01*
X203546583Y-69087883D01*
X203223627Y-69363676D01*
X203154765Y-69428203D01*
X202970880Y-69596300D01*
X202949204Y-69543271D01*
X203020409Y-69336603D01*
X203099253Y-69097300D01*
X203044596Y-69099819D01*
X202890074Y-69251967D01*
X202769994Y-69342237D01*
X202744022Y-69252422D01*
X202813581Y-68951190D01*
X202919821Y-68597934D01*
X203060245Y-68084131D01*
X203092728Y-67818542D01*
X203033939Y-67796165D01*
X202900552Y-68011994D01*
X202709240Y-68461026D01*
X202626905Y-68685855D01*
X202483734Y-69077803D01*
X202394739Y-69294222D01*
X202378398Y-69290365D01*
X202379535Y-69284910D01*
X202384968Y-69017470D01*
X202311460Y-68827483D01*
X202202742Y-68798570D01*
X202155770Y-68857018D01*
X202064290Y-68898008D01*
X202006931Y-68748891D01*
X201976781Y-68632659D01*
X201913979Y-68407697D01*
X201813748Y-68057707D01*
X201671312Y-67566386D01*
X201481895Y-66917435D01*
X201240717Y-66094555D01*
X200943004Y-65081446D01*
X200583979Y-63861805D01*
X200158863Y-62419336D01*
X199857694Y-61398236D01*
X198737155Y-59457405D01*
X198681219Y-59323255D01*
X198671390Y-59289122D01*
X198606049Y-59087476D01*
X198460460Y-58655659D01*
X198247084Y-58030063D01*
X197978384Y-57247075D01*
X197666821Y-56343085D01*
X197324856Y-55354483D01*
X197250441Y-55139804D01*
X196881404Y-54077088D01*
X196519117Y-53036622D01*
X196180556Y-52066949D01*
X195882696Y-51216610D01*
X195642513Y-50534153D01*
X195631314Y-50502624D01*
X194052707Y-47768396D01*
X193899532Y-47730914D01*
X193906522Y-47570770D01*
X193951265Y-47441699D01*
X194032199Y-47299362D01*
X194102735Y-47422730D01*
X194120700Y-47485034D01*
X194126094Y-47710322D01*
X194052707Y-47768396D01*
X195631314Y-50502624D01*
X195476982Y-50068119D01*
X195472612Y-50055943D01*
X195271482Y-49487552D01*
X195104208Y-48999639D01*
X194996564Y-48668032D01*
X194974862Y-48591703D01*
X195013671Y-48355587D01*
X195185653Y-48190567D01*
X195279756Y-48178218D01*
X195047438Y-47775831D01*
X194795115Y-47803484D01*
X194666215Y-47670048D01*
X194620193Y-47459162D01*
X194795749Y-47273193D01*
X194896021Y-47211487D01*
X195154980Y-47085904D01*
X195257452Y-47141696D01*
X195277244Y-47317271D01*
X195188683Y-47629457D01*
X195047438Y-47775831D01*
X195279756Y-48178218D01*
X195389548Y-48163809D01*
X195489912Y-48250066D01*
X195557065Y-48430761D01*
X195690870Y-48843544D01*
X195879329Y-49449463D01*
X196110446Y-50209564D01*
X196372225Y-51084894D01*
X196586992Y-51812399D01*
X196902600Y-52884227D01*
X197231371Y-53995089D01*
X197552445Y-55074905D01*
X197844963Y-56053595D01*
X198088067Y-56861081D01*
X198170917Y-57133953D01*
X198382984Y-57847758D01*
X198560512Y-58479466D01*
X198688539Y-58973174D01*
X198752104Y-59272980D01*
X198756360Y-59321534D01*
X198737155Y-59457405D01*
X199857694Y-61398236D01*
X199662882Y-60737736D01*
X199132750Y-58941284D01*
X198871733Y-58056507D01*
X198553431Y-56976859D01*
X198200203Y-55778221D01*
X197834409Y-54536475D01*
X197478408Y-53327501D01*
X197286329Y-52674967D01*
X196990640Y-51671323D01*
X196712782Y-50730142D01*
X196465184Y-49893383D01*
X196260278Y-49202998D01*
X196110494Y-48700942D01*
X196029855Y-48434302D01*
X195941762Y-48065982D01*
X195955382Y-48005887D01*
X195257505Y-46797128D01*
X195166953Y-46819428D01*
X194971735Y-46770962D01*
X195047952Y-46645610D01*
X195193319Y-46551019D01*
X195387899Y-46478598D01*
X195405871Y-46605852D01*
X195404691Y-46610315D01*
X195257505Y-46797128D01*
X195955382Y-48005887D01*
X195997065Y-47821976D01*
X196235450Y-47573448D01*
X196257523Y-47554885D01*
X196012591Y-47130652D01*
X195827441Y-47234621D01*
X195673720Y-47185766D01*
X195619496Y-47137224D01*
X195520447Y-46922693D01*
X195669046Y-46693589D01*
X195837473Y-46472458D01*
X195857678Y-46347055D01*
X195681845Y-46289676D01*
X195338467Y-46314346D01*
X194925658Y-46407855D01*
X194638775Y-46511154D01*
X194305182Y-46656432D01*
X193787372Y-45199885D01*
X193562297Y-44550870D01*
X193433873Y-44124459D01*
X193090021Y-43528890D01*
X192846858Y-43567399D01*
X192739777Y-43486693D01*
X192755469Y-43278585D01*
X192878355Y-43162273D01*
X193121519Y-43123764D01*
X193228601Y-43204470D01*
X193212908Y-43412578D01*
X193090021Y-43528890D01*
X193433873Y-44124459D01*
X193430016Y-44111652D01*
X193381843Y-43828680D01*
X193409094Y-43648402D01*
X193503086Y-43517267D01*
X193512935Y-43507579D01*
X193670507Y-43234647D01*
X193590068Y-42998758D01*
X193315678Y-42827825D01*
X192891402Y-42749760D01*
X192378722Y-42789094D01*
X191916537Y-42969537D01*
X191689078Y-43270994D01*
X191715021Y-43661174D01*
X191787113Y-43812188D01*
X192003700Y-44073628D01*
X192297103Y-44130557D01*
X192448940Y-44111837D01*
X192684042Y-44077524D01*
X192843507Y-44100931D01*
X192967206Y-44230654D01*
X193095012Y-44515286D01*
X193266797Y-45003422D01*
X193328361Y-45183636D01*
X193630889Y-46068089D01*
X193179003Y-45730631D01*
X192764644Y-45499366D01*
X192339188Y-45373365D01*
X192284693Y-45368175D01*
X191719128Y-45232241D01*
X191222322Y-44931916D01*
X190969903Y-44643216D01*
X190900864Y-44364440D01*
X190888410Y-43920207D01*
X190918251Y-43554709D01*
X190941856Y-42923756D01*
X190811878Y-42519688D01*
X190517530Y-42325959D01*
X190111067Y-42316710D01*
X189748212Y-42336997D01*
X189605274Y-42231715D01*
X189636683Y-41944391D01*
X189682042Y-41785023D01*
X190016195Y-41120650D01*
X190566922Y-40515433D01*
X191268638Y-40022636D01*
X192055757Y-39695522D01*
X192334439Y-39630913D01*
X193226340Y-39602396D01*
X194152852Y-39809358D01*
X195047938Y-40223611D01*
X195845557Y-40816974D01*
X196315231Y-41329902D01*
X196575087Y-41680024D01*
X196673571Y-41868579D01*
X196627234Y-41953068D01*
X196503316Y-41983386D01*
X196344120Y-42023131D01*
X196411529Y-42078930D01*
X196650261Y-42156838D01*
X197023351Y-42319474D01*
X197472216Y-42581961D01*
X197751507Y-42776209D01*
X197297041Y-41989051D01*
X197095273Y-42023694D01*
X196831119Y-41989899D01*
X196816879Y-41903245D01*
X197052640Y-41824963D01*
X197295135Y-41846988D01*
X197363416Y-41899516D01*
X197297041Y-41989051D01*
X197751507Y-42776209D01*
X197903024Y-42881589D01*
X198221944Y-43155647D01*
X198312870Y-43267994D01*
X198300605Y-43376998D01*
X198100540Y-43372998D01*
X197775222Y-43273284D01*
X197387198Y-43095143D01*
X197119684Y-42938190D01*
X196760409Y-42731581D01*
X196608711Y-42704704D01*
X196664555Y-42846120D01*
X196927901Y-43144397D01*
X197121025Y-43333325D01*
X197474977Y-43697061D01*
X197758696Y-44038264D01*
X197857115Y-44187209D01*
X197947063Y-44375933D01*
X197895238Y-44385608D01*
X197667649Y-44214340D01*
X197617381Y-44173839D01*
X197374199Y-43996377D01*
X197269597Y-43959358D01*
X197274685Y-43982137D01*
X197299339Y-44256883D01*
X197232050Y-44702896D01*
X197096385Y-45233945D01*
X196915916Y-45763798D01*
X196714210Y-46206222D01*
X196628789Y-46345284D01*
X196267073Y-46844120D01*
X196012591Y-47130652D01*
X196257523Y-47554885D01*
X196315836Y-47505842D01*
X196992331Y-46766799D01*
X197534590Y-45782551D01*
X197556890Y-45730030D01*
X197712916Y-45404152D01*
X197848979Y-45286761D01*
X198031130Y-45317436D01*
X198292742Y-45372292D01*
X198390274Y-45357021D01*
X198540130Y-45128387D01*
X198569474Y-44764665D01*
X198471950Y-44388874D01*
X198443146Y-44334105D01*
X198324542Y-44071153D01*
X198400459Y-43939423D01*
X198560363Y-43881190D01*
X198879537Y-43693888D01*
X198947329Y-43397759D01*
X198764464Y-43010832D01*
X198513704Y-42721351D01*
X198188882Y-42346762D01*
X198088087Y-42090456D01*
X198094185Y-42047412D01*
X198060993Y-41708022D01*
X197791398Y-41459763D01*
X197462446Y-41361344D01*
X197001237Y-41171175D01*
X196503020Y-40722119D01*
X195615541Y-39931717D01*
X194607777Y-39389242D01*
X193504382Y-39105640D01*
X192770860Y-39064825D01*
X192286682Y-39091684D01*
X191890840Y-39173992D01*
X191476667Y-39345437D01*
X190937498Y-39639702D01*
X190921707Y-39648801D01*
X189936557Y-40216900D01*
X189123778Y-39131499D01*
X188746882Y-38639812D01*
X188411249Y-38222784D01*
X188166563Y-37941219D01*
X188091741Y-37868507D01*
X187978687Y-37745207D01*
X188044562Y-37647094D01*
X188331352Y-37523753D01*
X188399785Y-37498584D01*
X188530848Y-37442543D01*
X188264889Y-36981888D01*
X188137639Y-37039920D01*
X187832265Y-37132600D01*
X187734300Y-37158744D01*
X187245718Y-37181760D01*
X186773278Y-37039057D01*
X186434692Y-36769551D01*
X186401237Y-36718021D01*
X186389094Y-36522880D01*
X186430254Y-36144449D01*
X186492818Y-35784883D01*
X186635339Y-35070820D01*
X186361105Y-34595833D01*
X185352732Y-34471071D01*
X184861177Y-34403105D01*
X184573594Y-34322221D01*
X184491678Y-34192849D01*
X184617130Y-33979417D01*
X184951649Y-33646352D01*
X185411831Y-33233574D01*
X185959707Y-32756194D01*
X186334464Y-32456454D01*
X186567037Y-32317025D01*
X186688363Y-32320586D01*
X186729379Y-32449812D01*
X186730703Y-32495012D01*
X186703716Y-32778529D01*
X186632461Y-33232492D01*
X186546398Y-33687711D01*
X186361105Y-34595833D01*
X186635339Y-35070820D01*
X186654636Y-34974132D01*
X187540553Y-35071644D01*
X188009415Y-35137013D01*
X188351859Y-35210578D01*
X188484338Y-35269391D01*
X188490087Y-35446842D01*
X188453709Y-35819354D01*
X188385740Y-36304722D01*
X188296714Y-36820739D01*
X188264889Y-36981888D01*
X188530848Y-37442543D01*
X189826464Y-36888555D01*
X189911511Y-36839035D01*
X189650614Y-36387149D01*
X189260336Y-36587195D01*
X188966663Y-36701832D01*
X188922770Y-36711250D01*
X188734863Y-36716527D01*
X188652148Y-36616518D01*
X188661863Y-36353851D01*
X188743927Y-35907101D01*
X188873544Y-35269091D01*
X188624099Y-34837040D01*
X188497275Y-34861350D01*
X188181721Y-34841891D01*
X187765219Y-34791376D01*
X187335550Y-34722519D01*
X186980495Y-34648036D01*
X186787836Y-34580637D01*
X186776711Y-34569470D01*
X186767528Y-34383871D01*
X186804306Y-34000257D01*
X186879175Y-33497649D01*
X186889233Y-33439434D01*
X186976648Y-32936452D01*
X187042061Y-32552698D01*
X187072730Y-32363044D01*
X187073470Y-32356893D01*
X187201850Y-32330495D01*
X187518339Y-32349933D01*
X187935058Y-32402037D01*
X188364128Y-32473640D01*
X188717677Y-32551569D01*
X188907822Y-32622656D01*
X188917672Y-32633280D01*
X188927127Y-32819381D01*
X188890540Y-33203401D01*
X188815743Y-33706223D01*
X188805712Y-33764289D01*
X188718716Y-34265527D01*
X188654205Y-34645846D01*
X188624699Y-34831297D01*
X188624099Y-34837040D01*
X188873544Y-35269091D01*
X188881778Y-35228559D01*
X189798441Y-35346430D01*
X190277358Y-35423344D01*
X190632888Y-35509135D01*
X190782448Y-35580945D01*
X190703415Y-35698590D01*
X190441921Y-35900442D01*
X190067732Y-36144096D01*
X189650614Y-36387149D01*
X189911511Y-36839035D01*
X191035688Y-36184445D01*
X191328745Y-35949912D01*
X190810894Y-35052968D01*
X190649641Y-35143869D01*
X190386886Y-35137015D01*
X189982727Y-35077007D01*
X189905451Y-35065899D01*
X188963321Y-34933656D01*
X189007667Y-34490332D01*
X189061818Y-34084126D01*
X189148197Y-33562927D01*
X189193583Y-33319287D01*
X189317071Y-32684514D01*
X189059081Y-32237663D01*
X188155290Y-32121413D01*
X187682216Y-32047664D01*
X187334997Y-31969322D01*
X187195442Y-31908067D01*
X187282938Y-31799048D01*
X187564654Y-31591657D01*
X187987513Y-31323528D01*
X188178133Y-31211250D01*
X188653012Y-30950349D01*
X189026796Y-30769954D01*
X189240661Y-30697435D01*
X189267982Y-30704231D01*
X189273850Y-30885136D01*
X189233120Y-31247013D01*
X189189080Y-31517300D01*
X189059081Y-32237663D01*
X189317071Y-32684514D01*
X189335153Y-32591566D01*
X191210008Y-32920050D01*
X191084629Y-33747662D01*
X190988487Y-34399468D01*
X190910542Y-34819702D01*
X190810894Y-35052968D01*
X191328745Y-35949912D01*
X191807399Y-35566844D01*
X191554055Y-35128039D01*
X191320810Y-35233079D01*
X191232876Y-35232221D01*
X191233937Y-35073203D01*
X191268769Y-34708002D01*
X191330157Y-34209662D01*
X191343802Y-34109061D01*
X191420899Y-33597951D01*
X191492060Y-33211314D01*
X191515915Y-33123379D01*
X191194049Y-32565891D01*
X191038740Y-32559123D01*
X190685089Y-32511496D01*
X190249417Y-32440094D01*
X189357548Y-32283835D01*
X189481158Y-31548670D01*
X189574848Y-31082471D01*
X189676890Y-30707763D01*
X189727108Y-30581046D01*
X189955371Y-30388629D01*
X190362857Y-30228073D01*
X190846571Y-30129760D01*
X191283876Y-30121797D01*
X191439695Y-30156157D01*
X191523038Y-30254835D01*
X191540595Y-30474291D01*
X191499053Y-30870982D01*
X191428923Y-31346310D01*
X191340715Y-31888032D01*
X191262367Y-32308230D01*
X191206649Y-32540612D01*
X191194049Y-32565891D01*
X191515915Y-33123379D01*
X191543900Y-33020218D01*
X191550418Y-33011905D01*
X191741321Y-32998577D01*
X192081555Y-33035472D01*
X192456297Y-33102878D01*
X192750724Y-33181087D01*
X192849753Y-33234955D01*
X192812016Y-33408907D01*
X192641717Y-33730704D01*
X192386389Y-34130899D01*
X192093564Y-34540046D01*
X191810774Y-34888696D01*
X191585551Y-35107404D01*
X191554055Y-35128039D01*
X191807399Y-35566844D01*
X192017380Y-35398795D01*
X192761466Y-34544157D01*
X193257868Y-33633075D01*
X193318124Y-33391944D01*
X192993858Y-32830299D01*
X192835953Y-32828256D01*
X192491565Y-32789115D01*
X192242649Y-32753145D01*
X191544660Y-32645263D01*
X191695536Y-31592367D01*
X191777500Y-31066579D01*
X191854885Y-30648535D01*
X191912608Y-30418551D01*
X191918346Y-30405777D01*
X192076754Y-30336834D01*
X192314091Y-30478913D01*
X192575193Y-30794702D01*
X192633825Y-30889724D01*
X192750876Y-31177852D01*
X192864405Y-31595534D01*
X192958301Y-32055923D01*
X193016451Y-32472182D01*
X193022745Y-32757467D01*
X192993858Y-32830299D01*
X193318124Y-33391944D01*
X193496508Y-32678095D01*
X193467313Y-31691764D01*
X193380094Y-31297457D01*
X193058246Y-30540197D01*
X192567153Y-30005678D01*
X192567153Y-30005678D01*
G37*
X192567153Y-30005678D02*
X191897862Y-29684354D01*
X191855852Y-29672716D01*
X191300155Y-29572445D01*
X190739445Y-29585220D01*
X190127654Y-29724407D01*
X189418719Y-30003366D01*
X188566575Y-30435461D01*
X187875101Y-30827493D01*
X186218786Y-31905892D01*
X184767780Y-33100515D01*
X183450386Y-34473572D01*
X182897812Y-35146175D01*
X182491664Y-35636473D01*
X182105819Y-36057441D01*
X181799965Y-36345737D01*
X181698916Y-36418498D01*
X181384287Y-36648369D01*
X181005800Y-36988884D01*
X180841490Y-37156180D01*
X180501719Y-37513633D01*
X180282163Y-37690093D01*
X180105019Y-37705657D01*
X179892485Y-37580424D01*
X179716548Y-37446776D01*
X179223890Y-37137101D01*
X178788945Y-36981075D01*
X178456621Y-36979557D01*
X178271829Y-37133406D01*
X178272412Y-37419144D01*
X178261695Y-37656947D01*
X178045918Y-37870249D01*
X177910446Y-37954007D01*
X177614445Y-38160983D01*
X177569097Y-38339808D01*
X177774519Y-38557024D01*
X177911666Y-38658708D01*
X178140082Y-38896406D01*
X178196426Y-39227797D01*
X178193324Y-39306170D01*
X178193682Y-39557084D01*
X178273683Y-39712934D01*
X178497719Y-39834180D01*
X178902987Y-39972497D01*
X179461704Y-40093724D01*
X179978860Y-40106845D01*
X180135612Y-40080028D01*
X180568827Y-40010581D01*
X180944634Y-40017630D01*
X180964698Y-40021549D01*
X181187607Y-40095052D01*
X181286563Y-40250210D01*
X181323734Y-40586292D01*
X181324285Y-40595725D01*
X181438851Y-41130808D01*
X181698325Y-41773565D01*
X182054513Y-42425855D01*
X182459217Y-42989534D01*
X182550355Y-43092315D01*
X182848230Y-43475027D01*
X182900556Y-43718666D01*
X182707044Y-43823797D01*
X182267406Y-43790980D01*
X182197371Y-43777656D01*
X181641444Y-43727790D01*
X181297830Y-43836518D01*
X181179011Y-44097517D01*
X181206730Y-44279422D01*
X181207148Y-44608526D01*
X181024168Y-44792176D01*
X180643644Y-45072540D01*
X180522544Y-45343703D01*
X180664635Y-45632353D01*
X181073689Y-45965174D01*
X181201539Y-46048017D01*
X181553245Y-46304675D01*
X181731966Y-46561898D01*
X181807367Y-46838829D01*
X181899917Y-47167149D01*
X182067257Y-47314934D01*
X182281534Y-47365792D01*
X182746118Y-47316693D01*
X183281979Y-47064778D01*
X183812825Y-46647795D01*
X183891116Y-46569402D01*
X184344477Y-46247817D01*
X184883130Y-46078284D01*
X185412963Y-46075053D01*
X185839862Y-46252378D01*
X185862272Y-46270896D01*
X186126183Y-46564649D01*
X186439306Y-47005063D01*
X186747039Y-47503057D01*
X186994786Y-47969545D01*
X187127947Y-48315446D01*
X187133763Y-48345437D01*
X187061583Y-48710362D01*
X186763257Y-49182553D01*
X186259434Y-49732367D01*
X186002538Y-49969560D01*
X185536474Y-50460349D01*
X185315494Y-50928158D01*
X185319837Y-51447512D01*
X185475307Y-51958039D01*
X185623062Y-52305049D01*
X185743779Y-52435884D01*
X185903550Y-52400783D01*
X185993078Y-52351603D01*
X186200064Y-52277490D01*
X186407213Y-52346153D01*
X186691963Y-52591023D01*
X186800489Y-52700150D01*
X187104319Y-52984884D01*
X187330343Y-53149783D01*
X187401537Y-53167841D01*
X187455805Y-53006770D01*
X187471001Y-52777339D01*
X187007969Y-51975345D01*
X186894346Y-52039700D01*
X186701562Y-51896460D01*
X186565263Y-51701009D01*
X186395541Y-51474963D01*
X186240913Y-51485752D01*
X186156854Y-51558071D01*
X185985958Y-51694233D01*
X185894318Y-51634563D01*
X185842125Y-51340181D01*
X185832063Y-51240904D01*
X185882732Y-50903257D01*
X186138765Y-50581778D01*
X186251128Y-50485077D01*
X186700823Y-50056622D01*
X187123811Y-49550265D01*
X187457837Y-49049539D01*
X187640641Y-48637973D01*
X187646563Y-48612829D01*
X187619773Y-48254660D01*
X187451977Y-47752982D01*
X187180810Y-47182774D01*
X186843907Y-46619013D01*
X186478904Y-46136679D01*
X186320438Y-45970841D01*
X185972807Y-45688110D01*
X185634524Y-45565533D01*
X185168869Y-45556159D01*
X185121109Y-45558949D01*
X184697139Y-45603192D01*
X184332266Y-45699282D01*
X183951967Y-45880776D01*
X183481721Y-46181235D01*
X183032597Y-46499474D01*
X182593976Y-46781859D01*
X182341168Y-46857352D01*
X182267866Y-46725798D01*
X182330166Y-46482274D01*
X182385353Y-46253951D01*
X182313165Y-46083537D01*
X182065015Y-45910564D01*
X181737110Y-45744189D01*
X181346103Y-45499620D01*
X181211848Y-45284453D01*
X181336816Y-45123168D01*
X181666498Y-45044922D01*
X182019651Y-44998170D01*
X182132108Y-44928209D01*
X182045135Y-44799615D01*
X182000986Y-44757768D01*
X181840023Y-44492581D01*
X181819267Y-44360126D01*
X181886441Y-44229382D01*
X182110780Y-44256378D01*
X182266691Y-44313659D01*
X182598543Y-44460141D01*
X182804269Y-44575626D01*
X182809865Y-44580268D01*
X182938112Y-44524584D01*
X183161633Y-44286311D01*
X183360966Y-44018207D01*
X183686253Y-43621664D01*
X184157912Y-43142711D01*
X184693159Y-42663668D01*
X184861928Y-42525726D01*
X185366956Y-42107939D01*
X185640825Y-41842722D01*
X185687264Y-41726196D01*
X185635738Y-41721138D01*
X185397011Y-41821454D01*
X185014245Y-42056307D01*
X184560459Y-42379861D01*
X184446170Y-42467907D01*
X183918975Y-42856182D01*
X183542007Y-43081478D01*
X183353557Y-43130643D01*
X183191283Y-42995959D01*
X182930955Y-42685297D01*
X182624640Y-42261661D01*
X182577483Y-42191573D01*
X182201433Y-41574302D01*
X181978819Y-41060439D01*
X181877860Y-40635291D01*
X181771162Y-39969003D01*
X182539068Y-39626579D01*
X183003321Y-39396850D01*
X183216109Y-39230439D01*
X183226367Y-39144540D01*
X183064264Y-39110474D01*
X182777522Y-39214754D01*
X182747042Y-39231546D01*
X182250613Y-39420710D01*
X181657366Y-39518090D01*
X181091167Y-39512049D01*
X180731976Y-39420845D01*
X180452499Y-39351922D01*
X180303274Y-39412971D01*
X180107403Y-39527958D01*
X179747980Y-39584573D01*
X179339278Y-39574077D01*
X179047015Y-39509073D01*
X178848411Y-39379009D01*
X178796904Y-39126241D01*
X178800582Y-39020134D01*
X178738983Y-38644445D01*
X178587494Y-38490582D01*
X178455493Y-38363879D01*
X178564932Y-38231596D01*
X178663979Y-38170720D01*
X178878046Y-37963543D01*
X178869733Y-37807516D01*
X178803753Y-37605682D01*
X178916121Y-37573922D01*
X179168921Y-37700983D01*
X179524241Y-37975608D01*
X179568691Y-38015001D01*
X179897238Y-38304953D01*
X180131648Y-38502667D01*
X180204111Y-38555728D01*
X180319739Y-38470461D01*
X180571808Y-38227146D01*
X180907422Y-37877025D01*
X180932475Y-37850059D01*
X181714474Y-37118723D01*
X182485488Y-36639377D01*
X183290544Y-36387401D01*
X183693324Y-36340525D01*
X184750858Y-36415367D01*
X185783823Y-36770436D01*
X186448503Y-37189151D01*
X186052385Y-36503055D01*
X185295023Y-36247517D01*
X184687767Y-36106542D01*
X184019671Y-36042945D01*
X183743746Y-36047807D01*
X183304438Y-36067726D01*
X182997814Y-36060948D01*
X182906235Y-36039089D01*
X182967096Y-35907033D01*
X183168959Y-35626303D01*
X183437286Y-35294806D01*
X184011933Y-34615068D01*
X185177813Y-34760831D01*
X185751751Y-34830170D01*
X186097246Y-34903142D01*
X186257843Y-35040744D01*
X186277088Y-35303972D01*
X186198528Y-35753820D01*
X186130793Y-36095680D01*
X186052385Y-36503055D01*
X186448503Y-37189151D01*
X186790624Y-37404671D01*
X187769665Y-38317015D01*
X188719351Y-39506408D01*
X188933145Y-39818574D01*
X189639102Y-40877459D01*
X189388925Y-41863481D01*
X189213552Y-42625820D01*
X189133933Y-43212360D01*
X189149900Y-43712722D01*
X189261284Y-44216529D01*
X189383806Y-44585616D01*
X189494267Y-44894252D01*
X189563702Y-45143024D01*
X189581094Y-45379974D01*
X189535426Y-45653148D01*
X189415682Y-46010595D01*
X189210844Y-46500357D01*
X188909896Y-47170480D01*
X188670237Y-47697546D01*
X188427683Y-48338508D01*
X188251781Y-49007284D01*
X188184740Y-49485053D01*
X188138846Y-49994443D01*
X188033968Y-50292377D01*
X187820840Y-50449457D01*
X187451256Y-50536110D01*
X187199997Y-50599005D01*
X187162301Y-50727549D01*
X187293008Y-50985946D01*
X187417868Y-51246366D01*
X187370039Y-51325645D01*
X187285725Y-51311999D01*
X187015473Y-51289290D01*
X186936861Y-51446438D01*
X186986720Y-51703118D01*
X187007969Y-51975345D01*
X187471001Y-52777339D01*
X187478055Y-52670824D01*
X187476604Y-52554207D01*
X187479647Y-52151052D01*
X187545558Y-51968865D01*
X187712118Y-51947509D01*
X187839291Y-51976829D01*
X188039725Y-51936273D01*
X188094705Y-51712519D01*
X187994994Y-51369542D01*
X187941758Y-51267268D01*
X187859184Y-51028614D01*
X187890768Y-50930089D01*
X187999765Y-51015462D01*
X188185478Y-51297807D01*
X188408494Y-51716878D01*
X188417300Y-51734947D01*
X188867235Y-52480607D01*
X189479889Y-53250770D01*
X190177073Y-53960625D01*
X190880596Y-54525361D01*
X191139842Y-54687982D01*
X191768639Y-54964381D01*
X192372382Y-55086069D01*
X192871328Y-55040643D01*
X193012855Y-54979318D01*
X193087943Y-54906913D01*
X192818301Y-54439879D01*
X192369724Y-54545415D01*
X191833976Y-54430336D01*
X191245408Y-54128750D01*
X190638368Y-53674760D01*
X190047207Y-53102472D01*
X189506275Y-52445992D01*
X189049923Y-51739427D01*
X188712500Y-51016879D01*
X188528356Y-50312456D01*
X188511892Y-50164130D01*
X188559337Y-49218405D01*
X188843440Y-48128894D01*
X189365119Y-46892121D01*
X189385882Y-46849798D01*
X189694959Y-46184232D01*
X189867312Y-45681998D01*
X189913100Y-45265443D01*
X189842487Y-44856915D01*
X189698820Y-44458667D01*
X189472125Y-43742470D01*
X189439973Y-43193280D01*
X189597522Y-42825333D01*
X189939931Y-42652866D01*
X190310621Y-42659641D01*
X190713033Y-42723369D01*
X190604866Y-43561357D01*
X190611963Y-44336667D01*
X190845601Y-44953648D01*
X191295329Y-45397434D01*
X191950698Y-45653160D01*
X192093327Y-45678621D01*
X192807303Y-45889999D01*
X193331479Y-46268998D01*
X193503908Y-46503539D01*
X193637198Y-46924348D01*
X193612962Y-47360805D01*
X193445215Y-47700089D01*
X193345243Y-47780947D01*
X193239704Y-47972309D01*
X193267768Y-48070089D01*
X193455840Y-48160553D01*
X193618013Y-48112287D01*
X193848050Y-48052252D01*
X193937735Y-48101617D01*
X193888046Y-48232386D01*
X193750314Y-48289780D01*
X193513847Y-48477791D01*
X193386732Y-48886382D01*
X193378272Y-49472239D01*
X193421722Y-49819794D01*
X193523093Y-50710372D01*
X193544866Y-51613088D01*
X193493856Y-52475745D01*
X193376881Y-53246149D01*
X193200757Y-53872108D01*
X192972301Y-54301425D01*
X192818301Y-54439879D01*
X193087943Y-54906913D01*
X193408249Y-54598053D01*
X193717696Y-53981822D01*
X193934624Y-53166490D01*
X194052463Y-52187920D01*
X194064642Y-51081977D01*
X193964593Y-49884525D01*
X193956946Y-49826046D01*
X193919082Y-49340307D01*
X193948340Y-49019539D01*
X194016979Y-48923214D01*
X194206395Y-48780042D01*
X194250381Y-48682230D01*
X194344251Y-48506809D01*
X194390926Y-48491613D01*
X194456053Y-48626809D01*
X194603110Y-49004293D01*
X194823452Y-49599057D01*
X195108440Y-50386095D01*
X195449426Y-51340402D01*
X195837771Y-52436968D01*
X196264831Y-53650791D01*
X196721964Y-54956859D01*
X197200525Y-56330171D01*
X197691871Y-57745717D01*
X198187363Y-59178490D01*
X198678353Y-60603486D01*
X199156201Y-61995697D01*
X199612263Y-63330116D01*
X200037898Y-64581737D01*
X200424460Y-65725555D01*
X200763309Y-66736560D01*
X201045800Y-67589749D01*
X201263291Y-68260113D01*
X201407139Y-68722645D01*
X201468701Y-68952341D01*
X201469654Y-68972504D01*
X201443444Y-69223145D01*
X201480587Y-69398988D01*
X201447122Y-69449330D01*
X201265767Y-69310148D01*
X200970580Y-69007657D01*
X200966581Y-69003249D01*
X200639427Y-68668268D01*
X200380349Y-68450291D01*
X200252828Y-68396953D01*
X200259308Y-68535449D01*
X200489270Y-68832413D01*
X200945198Y-69290946D01*
X201039305Y-69379533D01*
X201271847Y-69628614D01*
X201371251Y-69799209D01*
X201370490Y-69811631D01*
X201264312Y-69809981D01*
X201117309Y-69702476D01*
X200890844Y-69563471D01*
X200776414Y-69561131D01*
X200715010Y-69700574D01*
X200840888Y-69833843D01*
X200961038Y-69861891D01*
X201172147Y-69955857D01*
X201197405Y-69989068D01*
X201160364Y-70098795D01*
X201102149Y-70106302D01*
X201000314Y-70188867D01*
X201019696Y-70245712D01*
X201016152Y-70350317D01*
X200827544Y-70343047D01*
X200587810Y-70358233D01*
X200518315Y-70421844D01*
X200611306Y-70535515D01*
X200830950Y-70603747D01*
X201071926Y-70648591D01*
X201049695Y-70682823D01*
X200885184Y-70718286D01*
X200126905Y-70882930D01*
X199645493Y-71018110D01*
X199437260Y-71124960D01*
X199431480Y-71163729D01*
X199589897Y-71190112D01*
X199938830Y-71150406D01*
X200315973Y-71072937D01*
X200757944Y-70974027D01*
X200967789Y-70954906D01*
X200985437Y-71020312D01*
X200884468Y-71140379D01*
X200713414Y-71326502D01*
X200748209Y-71340703D01*
X200919359Y-71254711D01*
X201149109Y-71176643D01*
X201193986Y-71256106D01*
X201069412Y-71451808D01*
X200790808Y-71722453D01*
X200724372Y-71776835D01*
X200400436Y-72068513D01*
X200174411Y-72331469D01*
X200139859Y-72390677D01*
X200160767Y-72460349D01*
X200339289Y-72372885D01*
X200625955Y-72162891D01*
X200971291Y-71864971D01*
X201184478Y-71660011D01*
X201367732Y-71495942D01*
X201411275Y-71557073D01*
X201388338Y-71728670D01*
X201366898Y-71946531D01*
X201447864Y-71926369D01*
X201584348Y-71785948D01*
X201700882Y-71694765D01*
X201716383Y-71798756D01*
X201629215Y-72124730D01*
X201548579Y-72373468D01*
X201391983Y-72906399D01*
X201349929Y-73188893D01*
X201406006Y-73220518D01*
X201543808Y-73000838D01*
X201746927Y-72529421D01*
X201803053Y-72380188D01*
X201957982Y-71981412D01*
X202060624Y-71762756D01*
X202091683Y-71764343D01*
X202089079Y-71785375D01*
X202100398Y-72043130D01*
X202167976Y-72130781D01*
X202278648Y-72038009D01*
X202338023Y-71824991D01*
X202377643Y-71712721D01*
X202440971Y-71846052D01*
X202534503Y-72240520D01*
X202556437Y-72347322D01*
X202692339Y-72957376D01*
X202798683Y-73292132D01*
X202877875Y-73356700D01*
X202932318Y-73156188D01*
X202933322Y-73148309D01*
X202911263Y-72803283D01*
X202804486Y-72373177D01*
X202778894Y-72300556D01*
X202683930Y-71953576D01*
X202686470Y-71731625D01*
X202708400Y-71704519D01*
X202832503Y-71751975D01*
X202868430Y-71856538D01*
X202952831Y-72017892D01*
X203013792Y-72017025D01*
X203056760Y-71853875D01*
X203010110Y-71652534D01*
X203016949Y-71559153D01*
X203187493Y-71685780D01*
X203455854Y-71962635D01*
X203782050Y-72292955D01*
X204048726Y-72516757D01*
X204169807Y-72578432D01*
X204266110Y-72559085D01*
X204242939Y-72466745D01*
X204073765Y-72263198D01*
X203732055Y-71910235D01*
X203645269Y-71822960D01*
X203353308Y-71511803D01*
X203161763Y-71274927D01*
X203092447Y-71149101D01*
X203167172Y-71171090D01*
X203348476Y-71322692D01*
X203574941Y-71461698D01*
X203689371Y-71464038D01*
X203750774Y-71324594D01*
X203624896Y-71191325D01*
X203504747Y-71163278D01*
X203287960Y-71051164D01*
X203259599Y-71010050D01*
X203338912Y-70976248D01*
X203622630Y-71028302D01*
X204050192Y-71154904D01*
X204068829Y-71161156D01*
X204521841Y-71291978D01*
X204855125Y-71347112D01*
X204996474Y-71314663D01*
X204892874Y-71204305D01*
X204583892Y-71058903D01*
X204168758Y-70919871D01*
X203752026Y-70785551D01*
X203575385Y-70693674D01*
X203656488Y-70653461D01*
X203658434Y-70653362D01*
X203900345Y-70603182D01*
X203949418Y-70522360D01*
X203773430Y-70443995D01*
X203638642Y-70447807D01*
X203410164Y-70462936D01*
X203407576Y-70412078D01*
X203589466Y-70319780D01*
X203914415Y-70210589D01*
X204136229Y-70152903D01*
X204561713Y-70044930D01*
X204871682Y-69952101D01*
X204956823Y-69917569D01*
X205024991Y-69833030D01*
X204861625Y-69808386D01*
X204510854Y-69843037D01*
X204045748Y-69929994D01*
X203658549Y-69998679D01*
X203508460Y-69986368D01*
X203570187Y-69919413D01*
X203728631Y-69758045D01*
X203696979Y-69664635D01*
X203509820Y-69678695D01*
X203475345Y-69720742D01*
X203361973Y-69770722D01*
X203333657Y-69738054D01*
X203389910Y-69585335D01*
X203612263Y-69341011D01*
X203735090Y-69233912D01*
X204075746Y-68928883D01*
X204280014Y-68698598D01*
X204333865Y-68575728D01*
X204223264Y-68592943D01*
X203934180Y-68782911D01*
X203926239Y-68788879D01*
X203546583Y-69087883D01*
X203223627Y-69363676D01*
X203154765Y-69428203D01*
X202970880Y-69596300D01*
X202949204Y-69543271D01*
X203020409Y-69336603D01*
X203099253Y-69097300D01*
X203044596Y-69099819D01*
X202890074Y-69251967D01*
X202769994Y-69342237D01*
X202744022Y-69252422D01*
X202813581Y-68951190D01*
X202919821Y-68597934D01*
X203060245Y-68084131D01*
X203092728Y-67818542D01*
X203033939Y-67796165D01*
X202900552Y-68011994D01*
X202709240Y-68461026D01*
X202626905Y-68685855D01*
X202483734Y-69077803D01*
X202394739Y-69294222D01*
X202378398Y-69290365D01*
X202379535Y-69284910D01*
X202384968Y-69017470D01*
X202311460Y-68827483D01*
X202202742Y-68798570D01*
X202155770Y-68857018D01*
X202064290Y-68898008D01*
X202006931Y-68748891D01*
X201976781Y-68632659D01*
X201913979Y-68407697D01*
X201813748Y-68057707D01*
X201671312Y-67566386D01*
X201481895Y-66917435D01*
X201240717Y-66094555D01*
X200943004Y-65081446D01*
X200583979Y-63861805D01*
X200158863Y-62419336D01*
X199857694Y-61398236D01*
X198737155Y-59457405D01*
X198681219Y-59323255D01*
X198671390Y-59289122D01*
X198606049Y-59087476D01*
X198460460Y-58655659D01*
X198247084Y-58030063D01*
X197978384Y-57247075D01*
X197666821Y-56343085D01*
X197324856Y-55354483D01*
X197250441Y-55139804D01*
X196881404Y-54077088D01*
X196519117Y-53036622D01*
X196180556Y-52066949D01*
X195882696Y-51216610D01*
X195642513Y-50534153D01*
X195631314Y-50502624D01*
X194052707Y-47768396D01*
X193899532Y-47730914D01*
X193906522Y-47570770D01*
X193951265Y-47441699D01*
X194032199Y-47299362D01*
X194102735Y-47422730D01*
X194120700Y-47485034D01*
X194126094Y-47710322D01*
X194052707Y-47768396D01*
X195631314Y-50502624D01*
X195476982Y-50068119D01*
X195472612Y-50055943D01*
X195271482Y-49487552D01*
X195104208Y-48999639D01*
X194996564Y-48668032D01*
X194974862Y-48591703D01*
X195013671Y-48355587D01*
X195185653Y-48190567D01*
X195279756Y-48178218D01*
X195047438Y-47775831D01*
X194795115Y-47803484D01*
X194666215Y-47670048D01*
X194620193Y-47459162D01*
X194795749Y-47273193D01*
X194896021Y-47211487D01*
X195154980Y-47085904D01*
X195257452Y-47141696D01*
X195277244Y-47317271D01*
X195188683Y-47629457D01*
X195047438Y-47775831D01*
X195279756Y-48178218D01*
X195389548Y-48163809D01*
X195489912Y-48250066D01*
X195557065Y-48430761D01*
X195690870Y-48843544D01*
X195879329Y-49449463D01*
X196110446Y-50209564D01*
X196372225Y-51084894D01*
X196586992Y-51812399D01*
X196902600Y-52884227D01*
X197231371Y-53995089D01*
X197552445Y-55074905D01*
X197844963Y-56053595D01*
X198088067Y-56861081D01*
X198170917Y-57133953D01*
X198382984Y-57847758D01*
X198560512Y-58479466D01*
X198688539Y-58973174D01*
X198752104Y-59272980D01*
X198756360Y-59321534D01*
X198737155Y-59457405D01*
X199857694Y-61398236D01*
X199662882Y-60737736D01*
X199132750Y-58941284D01*
X198871733Y-58056507D01*
X198553431Y-56976859D01*
X198200203Y-55778221D01*
X197834409Y-54536475D01*
X197478408Y-53327501D01*
X197286329Y-52674967D01*
X196990640Y-51671323D01*
X196712782Y-50730142D01*
X196465184Y-49893383D01*
X196260278Y-49202998D01*
X196110494Y-48700942D01*
X196029855Y-48434302D01*
X195941762Y-48065982D01*
X195955382Y-48005887D01*
X195257505Y-46797128D01*
X195166953Y-46819428D01*
X194971735Y-46770962D01*
X195047952Y-46645610D01*
X195193319Y-46551019D01*
X195387899Y-46478598D01*
X195405871Y-46605852D01*
X195404691Y-46610315D01*
X195257505Y-46797128D01*
X195955382Y-48005887D01*
X195997065Y-47821976D01*
X196235450Y-47573448D01*
X196257523Y-47554885D01*
X196012591Y-47130652D01*
X195827441Y-47234621D01*
X195673720Y-47185766D01*
X195619496Y-47137224D01*
X195520447Y-46922693D01*
X195669046Y-46693589D01*
X195837473Y-46472458D01*
X195857678Y-46347055D01*
X195681845Y-46289676D01*
X195338467Y-46314346D01*
X194925658Y-46407855D01*
X194638775Y-46511154D01*
X194305182Y-46656432D01*
X193787372Y-45199885D01*
X193562297Y-44550870D01*
X193433873Y-44124459D01*
X193090021Y-43528890D01*
X192846858Y-43567399D01*
X192739777Y-43486693D01*
X192755469Y-43278585D01*
X192878355Y-43162273D01*
X193121519Y-43123764D01*
X193228601Y-43204470D01*
X193212908Y-43412578D01*
X193090021Y-43528890D01*
X193433873Y-44124459D01*
X193430016Y-44111652D01*
X193381843Y-43828680D01*
X193409094Y-43648402D01*
X193503086Y-43517267D01*
X193512935Y-43507579D01*
X193670507Y-43234647D01*
X193590068Y-42998758D01*
X193315678Y-42827825D01*
X192891402Y-42749760D01*
X192378722Y-42789094D01*
X191916537Y-42969537D01*
X191689078Y-43270994D01*
X191715021Y-43661174D01*
X191787113Y-43812188D01*
X192003700Y-44073628D01*
X192297103Y-44130557D01*
X192448940Y-44111837D01*
X192684042Y-44077524D01*
X192843507Y-44100931D01*
X192967206Y-44230654D01*
X193095012Y-44515286D01*
X193266797Y-45003422D01*
X193328361Y-45183636D01*
X193630889Y-46068089D01*
X193179003Y-45730631D01*
X192764644Y-45499366D01*
X192339188Y-45373365D01*
X192284693Y-45368175D01*
X191719128Y-45232241D01*
X191222322Y-44931916D01*
X190969903Y-44643216D01*
X190900864Y-44364440D01*
X190888410Y-43920207D01*
X190918251Y-43554709D01*
X190941856Y-42923756D01*
X190811878Y-42519688D01*
X190517530Y-42325959D01*
X190111067Y-42316710D01*
X189748212Y-42336997D01*
X189605274Y-42231715D01*
X189636683Y-41944391D01*
X189682042Y-41785023D01*
X190016195Y-41120650D01*
X190566922Y-40515433D01*
X191268638Y-40022636D01*
X192055757Y-39695522D01*
X192334439Y-39630913D01*
X193226340Y-39602396D01*
X194152852Y-39809358D01*
X195047938Y-40223611D01*
X195845557Y-40816974D01*
X196315231Y-41329902D01*
X196575087Y-41680024D01*
X196673571Y-41868579D01*
X196627234Y-41953068D01*
X196503316Y-41983386D01*
X196344120Y-42023131D01*
X196411529Y-42078930D01*
X196650261Y-42156838D01*
X197023351Y-42319474D01*
X197472216Y-42581961D01*
X197751507Y-42776209D01*
X197297041Y-41989051D01*
X197095273Y-42023694D01*
X196831119Y-41989899D01*
X196816879Y-41903245D01*
X197052640Y-41824963D01*
X197295135Y-41846988D01*
X197363416Y-41899516D01*
X197297041Y-41989051D01*
X197751507Y-42776209D01*
X197903024Y-42881589D01*
X198221944Y-43155647D01*
X198312870Y-43267994D01*
X198300605Y-43376998D01*
X198100540Y-43372998D01*
X197775222Y-43273284D01*
X197387198Y-43095143D01*
X197119684Y-42938190D01*
X196760409Y-42731581D01*
X196608711Y-42704704D01*
X196664555Y-42846120D01*
X196927901Y-43144397D01*
X197121025Y-43333325D01*
X197474977Y-43697061D01*
X197758696Y-44038264D01*
X197857115Y-44187209D01*
X197947063Y-44375933D01*
X197895238Y-44385608D01*
X197667649Y-44214340D01*
X197617381Y-44173839D01*
X197374199Y-43996377D01*
X197269597Y-43959358D01*
X197274685Y-43982137D01*
X197299339Y-44256883D01*
X197232050Y-44702896D01*
X197096385Y-45233945D01*
X196915916Y-45763798D01*
X196714210Y-46206222D01*
X196628789Y-46345284D01*
X196267073Y-46844120D01*
X196012591Y-47130652D01*
X196257523Y-47554885D01*
X196315836Y-47505842D01*
X196992331Y-46766799D01*
X197534590Y-45782551D01*
X197556890Y-45730030D01*
X197712916Y-45404152D01*
X197848979Y-45286761D01*
X198031130Y-45317436D01*
X198292742Y-45372292D01*
X198390274Y-45357021D01*
X198540130Y-45128387D01*
X198569474Y-44764665D01*
X198471950Y-44388874D01*
X198443146Y-44334105D01*
X198324542Y-44071153D01*
X198400459Y-43939423D01*
X198560363Y-43881190D01*
X198879537Y-43693888D01*
X198947329Y-43397759D01*
X198764464Y-43010832D01*
X198513704Y-42721351D01*
X198188882Y-42346762D01*
X198088087Y-42090456D01*
X198094185Y-42047412D01*
X198060993Y-41708022D01*
X197791398Y-41459763D01*
X197462446Y-41361344D01*
X197001237Y-41171175D01*
X196503020Y-40722119D01*
X195615541Y-39931717D01*
X194607777Y-39389242D01*
X193504382Y-39105640D01*
X192770860Y-39064825D01*
X192286682Y-39091684D01*
X191890840Y-39173992D01*
X191476667Y-39345437D01*
X190937498Y-39639702D01*
X190921707Y-39648801D01*
X189936557Y-40216900D01*
X189123778Y-39131499D01*
X188746882Y-38639812D01*
X188411249Y-38222784D01*
X188166563Y-37941219D01*
X188091741Y-37868507D01*
X187978687Y-37745207D01*
X188044562Y-37647094D01*
X188331352Y-37523753D01*
X188399785Y-37498584D01*
X188530848Y-37442543D01*
X188264889Y-36981888D01*
X188137639Y-37039920D01*
X187832265Y-37132600D01*
X187734300Y-37158744D01*
X187245718Y-37181760D01*
X186773278Y-37039057D01*
X186434692Y-36769551D01*
X186401237Y-36718021D01*
X186389094Y-36522880D01*
X186430254Y-36144449D01*
X186492818Y-35784883D01*
X186635339Y-35070820D01*
X186361105Y-34595833D01*
X185352732Y-34471071D01*
X184861177Y-34403105D01*
X184573594Y-34322221D01*
X184491678Y-34192849D01*
X184617130Y-33979417D01*
X184951649Y-33646352D01*
X185411831Y-33233574D01*
X185959707Y-32756194D01*
X186334464Y-32456454D01*
X186567037Y-32317025D01*
X186688363Y-32320586D01*
X186729379Y-32449812D01*
X186730703Y-32495012D01*
X186703716Y-32778529D01*
X186632461Y-33232492D01*
X186546398Y-33687711D01*
X186361105Y-34595833D01*
X186635339Y-35070820D01*
X186654636Y-34974132D01*
X187540553Y-35071644D01*
X188009415Y-35137013D01*
X188351859Y-35210578D01*
X188484338Y-35269391D01*
X188490087Y-35446842D01*
X188453709Y-35819354D01*
X188385740Y-36304722D01*
X188296714Y-36820739D01*
X188264889Y-36981888D01*
X188530848Y-37442543D01*
X189826464Y-36888555D01*
X189911511Y-36839035D01*
X189650614Y-36387149D01*
X189260336Y-36587195D01*
X188966663Y-36701832D01*
X188922770Y-36711250D01*
X188734863Y-36716527D01*
X188652148Y-36616518D01*
X188661863Y-36353851D01*
X188743927Y-35907101D01*
X188873544Y-35269091D01*
X188624099Y-34837040D01*
X188497275Y-34861350D01*
X188181721Y-34841891D01*
X187765219Y-34791376D01*
X187335550Y-34722519D01*
X186980495Y-34648036D01*
X186787836Y-34580637D01*
X186776711Y-34569470D01*
X186767528Y-34383871D01*
X186804306Y-34000257D01*
X186879175Y-33497649D01*
X186889233Y-33439434D01*
X186976648Y-32936452D01*
X187042061Y-32552698D01*
X187072730Y-32363044D01*
X187073470Y-32356893D01*
X187201850Y-32330495D01*
X187518339Y-32349933D01*
X187935058Y-32402037D01*
X188364128Y-32473640D01*
X188717677Y-32551569D01*
X188907822Y-32622656D01*
X188917672Y-32633280D01*
X188927127Y-32819381D01*
X188890540Y-33203401D01*
X188815743Y-33706223D01*
X188805712Y-33764289D01*
X188718716Y-34265527D01*
X188654205Y-34645846D01*
X188624699Y-34831297D01*
X188624099Y-34837040D01*
X188873544Y-35269091D01*
X188881778Y-35228559D01*
X189798441Y-35346430D01*
X190277358Y-35423344D01*
X190632888Y-35509135D01*
X190782448Y-35580945D01*
X190703415Y-35698590D01*
X190441921Y-35900442D01*
X190067732Y-36144096D01*
X189650614Y-36387149D01*
X189911511Y-36839035D01*
X191035688Y-36184445D01*
X191328745Y-35949912D01*
X190810894Y-35052968D01*
X190649641Y-35143869D01*
X190386886Y-35137015D01*
X189982727Y-35077007D01*
X189905451Y-35065899D01*
X188963321Y-34933656D01*
X189007667Y-34490332D01*
X189061818Y-34084126D01*
X189148197Y-33562927D01*
X189193583Y-33319287D01*
X189317071Y-32684514D01*
X189059081Y-32237663D01*
X188155290Y-32121413D01*
X187682216Y-32047664D01*
X187334997Y-31969322D01*
X187195442Y-31908067D01*
X187282938Y-31799048D01*
X187564654Y-31591657D01*
X187987513Y-31323528D01*
X188178133Y-31211250D01*
X188653012Y-30950349D01*
X189026796Y-30769954D01*
X189240661Y-30697435D01*
X189267982Y-30704231D01*
X189273850Y-30885136D01*
X189233120Y-31247013D01*
X189189080Y-31517300D01*
X189059081Y-32237663D01*
X189317071Y-32684514D01*
X189335153Y-32591566D01*
X191210008Y-32920050D01*
X191084629Y-33747662D01*
X190988487Y-34399468D01*
X190910542Y-34819702D01*
X190810894Y-35052968D01*
X191328745Y-35949912D01*
X191807399Y-35566844D01*
X191554055Y-35128039D01*
X191320810Y-35233079D01*
X191232876Y-35232221D01*
X191233937Y-35073203D01*
X191268769Y-34708002D01*
X191330157Y-34209662D01*
X191343802Y-34109061D01*
X191420899Y-33597951D01*
X191492060Y-33211314D01*
X191515915Y-33123379D01*
X191194049Y-32565891D01*
X191038740Y-32559123D01*
X190685089Y-32511496D01*
X190249417Y-32440094D01*
X189357548Y-32283835D01*
X189481158Y-31548670D01*
X189574848Y-31082471D01*
X189676890Y-30707763D01*
X189727108Y-30581046D01*
X189955371Y-30388629D01*
X190362857Y-30228073D01*
X190846571Y-30129760D01*
X191283876Y-30121797D01*
X191439695Y-30156157D01*
X191523038Y-30254835D01*
X191540595Y-30474291D01*
X191499053Y-30870982D01*
X191428923Y-31346310D01*
X191340715Y-31888032D01*
X191262367Y-32308230D01*
X191206649Y-32540612D01*
X191194049Y-32565891D01*
X191515915Y-33123379D01*
X191543900Y-33020218D01*
X191550418Y-33011905D01*
X191741321Y-32998577D01*
X192081555Y-33035472D01*
X192456297Y-33102878D01*
X192750724Y-33181087D01*
X192849753Y-33234955D01*
X192812016Y-33408907D01*
X192641717Y-33730704D01*
X192386389Y-34130899D01*
X192093564Y-34540046D01*
X191810774Y-34888696D01*
X191585551Y-35107404D01*
X191554055Y-35128039D01*
X191807399Y-35566844D01*
X192017380Y-35398795D01*
X192761466Y-34544157D01*
X193257868Y-33633075D01*
X193318124Y-33391944D01*
X192993858Y-32830299D01*
X192835953Y-32828256D01*
X192491565Y-32789115D01*
X192242649Y-32753145D01*
X191544660Y-32645263D01*
X191695536Y-31592367D01*
X191777500Y-31066579D01*
X191854885Y-30648535D01*
X191912608Y-30418551D01*
X191918346Y-30405777D01*
X192076754Y-30336834D01*
X192314091Y-30478913D01*
X192575193Y-30794702D01*
X192633825Y-30889724D01*
X192750876Y-31177852D01*
X192864405Y-31595534D01*
X192958301Y-32055923D01*
X193016451Y-32472182D01*
X193022745Y-32757467D01*
X192993858Y-32830299D01*
X193318124Y-33391944D01*
X193496508Y-32678095D01*
X193467313Y-31691764D01*
X193380094Y-31297457D01*
X193058246Y-30540197D01*
X192567153Y-30005678D01*
M02*
