M48
; DRILL file {KiCad 5.1.2-1.fc30} date Wed 11 Sep 2019 07:26:39 AM EDT
; FORMAT={-:-/ absolute / inch / decimal}
; #@! TF.CreationDate,2019-09-11T07:26:39-04:00
; #@! TF.GenerationSoftware,Kicad,Pcbnew,5.1.2-1.fc30
FMAT,2
INCH
T1C0.0157
T2C0.0236
T3C0.0350
T4C0.0354
T5C0.0362
T6C0.0394
T7C0.0433
T8C0.0460
T9C0.0906
T10C0.1260
%
G90
G05
T1
X6.5748Y-2.4803
X7.18Y-1.7625
X7.19Y-1.305
X7.21Y-1.56
X7.21Y-1.79
X7.285Y-1.56
X7.305Y-1.66
X7.42Y-1.6563
X7.4325Y-1.8125
X7.46Y-1.27
X7.505Y-1.55
X7.585Y-1.37
X7.66Y-1.705
X7.755Y-1.705
X7.835Y-1.88
T2
X6.5688Y-1.6712
X7.3605Y-1.46
X7.6Y-2.075
X7.72Y-1.595
X7.73Y-2.09
X8.01Y-1.27
T3
X6.12Y-1.425
X6.12Y-1.525
X6.12Y-1.625
X6.12Y-1.725
X6.745Y-1.225
X6.745Y-1.325
X6.745Y-1.425
X6.745Y-1.525
X6.745Y-1.625
X6.745Y-1.725
X6.745Y-1.825
X6.745Y-1.925
X6.95Y-2.865
X7.05Y-2.865
X7.15Y-2.865
X6.245Y-1.225
X6.245Y-1.325
X6.245Y-1.425
X6.245Y-1.525
X6.245Y-1.625
X6.245Y-1.725
X6.245Y-1.825
X6.245Y-1.925
X6.37Y-2.075
X6.47Y-2.075
X6.57Y-2.075
X6.37Y-2.325
X6.47Y-2.325
X6.57Y-2.325
X7.295Y-2.865
X7.395Y-2.865
X7.495Y-2.865
X6.37Y-1.475
X6.47Y-1.475
X6.57Y-1.475
X6.37Y-1.35
X6.47Y-1.35
X6.57Y-1.35
X6.37Y-2.2
X6.47Y-2.2
X6.57Y-2.2
X6.245Y-2.075
X6.245Y-2.175
X6.245Y-2.275
X6.245Y-2.375
X6.245Y-2.475
X6.245Y-2.575
X6.245Y-2.675
X6.245Y-2.775
X6.12Y-2.275
X6.12Y-2.375
X6.12Y-2.475
X6.12Y-2.575
X6.37Y-1.225
X6.47Y-1.225
X6.57Y-1.225
X6.745Y-2.075
X6.745Y-2.175
X6.745Y-2.275
X6.745Y-2.375
X6.745Y-2.475
X6.745Y-2.575
X6.745Y-2.675
X6.745Y-2.775
T4
X7.295Y-2.49
X7.295Y-2.59
X7.495Y-2.49
X7.495Y-2.59
T5
X8.09Y-1.725
X8.09Y-1.8234
X8.1687Y-1.725
X8.1687Y-1.8234
T6
X7.015Y-1.985
X7.015Y-2.085
X7.015Y-2.185
X7.115Y-1.985
X7.115Y-2.085
X7.115Y-2.185
T7
X5.915Y-2.275
X5.915Y-2.375
X5.915Y-2.475
X5.915Y-2.575
X7.975Y-3.125
X8.075Y-3.125
X8.175Y-3.125
X8.275Y-3.125
X7.025Y-3.125
X7.125Y-3.125
X7.225Y-3.125
X7.325Y-3.125
X6.075Y-3.125
X6.175Y-3.125
X6.275Y-3.125
X6.375Y-3.125
X6.55Y-3.125
X6.65Y-3.125
X6.75Y-3.125
X6.85Y-3.125
X5.915Y-1.425
X5.915Y-1.525
X5.915Y-1.625
X5.915Y-1.725
X7.5Y-3.125
X7.6Y-3.125
X7.7Y-3.125
X7.8Y-3.125
T8
X8.497Y-2.6516
X8.497Y-2.8484
T9
X8.2754Y-1.5372
X8.2754Y-2.0112
T10
X8.5335Y-3.2185
X5.8366Y-3.2185
X8.5335Y-1.2303
X5.8366Y-1.2303
T6
G00X8.1319Y-2.3008
M15
G01X8.1319Y-2.3992
M16
G05
G00X8.2992Y-2.165
M15
G01X8.2008Y-2.165
M16
G05
G00X8.3681Y-2.3008
M15
G01X8.3681Y-2.3992
M16
G05
T0
M30
