G04 #@! TF.GenerationSoftware,KiCad,Pcbnew,(5.1.2)-2*
G04 #@! TF.CreationDate,2019-10-11T08:38:30-04:00*
G04 #@! TF.ProjectId,Platypus,506c6174-7970-4757-932e-6b696361645f,rev?*
G04 #@! TF.SameCoordinates,Original*
G04 #@! TF.FileFunction,Legend,Top*
G04 #@! TF.FilePolarity,Positive*
%FSLAX46Y46*%
G04 Gerber Fmt 4.6, Leading zero omitted, Abs format (unit mm)*
G04 Created by KiCad (PCBNEW (5.1.2)-2) date 2019-10-11 08:38:30*
%MOMM*%
%LPD*%
G04 APERTURE LIST*
%ADD10C,0.150000*%
%ADD11C,0.120000*%
%ADD12C,0.200000*%
%ADD13C,0.250000*%
%ADD14C,0.254000*%
%ADD15C,0.127000*%
%ADD16C,0.010000*%
%ADD17C,0.066040*%
%ADD18C,0.100000*%
%ADD19C,0.203200*%
%ADD20C,0.152400*%
%ADD21C,0.101600*%
%ADD22C,0.076200*%
%ADD23C,0.050000*%
G04 APERTURE END LIST*
D10*
X173173571Y-70557571D02*
X173427571Y-70557571D01*
X173536428Y-70956714D02*
X173173571Y-70956714D01*
X173173571Y-70194714D01*
X173536428Y-70194714D01*
X173863000Y-70956714D02*
X173863000Y-70194714D01*
X174298428Y-70956714D01*
X174298428Y-70194714D01*
X155375428Y-52451000D02*
X155302857Y-52414714D01*
X155194000Y-52414714D01*
X155085142Y-52451000D01*
X155012571Y-52523571D01*
X154976285Y-52596142D01*
X154940000Y-52741285D01*
X154940000Y-52850142D01*
X154976285Y-52995285D01*
X155012571Y-53067857D01*
X155085142Y-53140428D01*
X155194000Y-53176714D01*
X155266571Y-53176714D01*
X155375428Y-53140428D01*
X155411714Y-53104142D01*
X155411714Y-52850142D01*
X155266571Y-52850142D01*
X155738285Y-53176714D02*
X155738285Y-52414714D01*
X156173714Y-53176714D01*
X156173714Y-52414714D01*
X156536571Y-53176714D02*
X156536571Y-52414714D01*
X156718000Y-52414714D01*
X156826857Y-52451000D01*
X156899428Y-52523571D01*
X156935714Y-52596142D01*
X156972000Y-52741285D01*
X156972000Y-52850142D01*
X156935714Y-52995285D01*
X156899428Y-53067857D01*
X156826857Y-53140428D01*
X156718000Y-53176714D01*
X156536571Y-53176714D01*
X173228000Y-53176714D02*
X173228000Y-52414714D01*
X173409428Y-52414714D01*
X173518285Y-52451000D01*
X173590857Y-52523571D01*
X173627142Y-52596142D01*
X173663428Y-52741285D01*
X173663428Y-52850142D01*
X173627142Y-52995285D01*
X173590857Y-53067857D01*
X173518285Y-53140428D01*
X173409428Y-53176714D01*
X173228000Y-53176714D01*
X173990000Y-53176714D02*
X173990000Y-52414714D01*
X174788285Y-53176714D02*
X174534285Y-52813857D01*
X174352857Y-53176714D02*
X174352857Y-52414714D01*
X174643142Y-52414714D01*
X174715714Y-52451000D01*
X174752000Y-52487285D01*
X174788285Y-52559857D01*
X174788285Y-52668714D01*
X174752000Y-52741285D01*
X174715714Y-52777571D01*
X174643142Y-52813857D01*
X174352857Y-52813857D01*
X154196142Y-70194714D02*
X154450142Y-70956714D01*
X154704142Y-70194714D01*
X154958142Y-70956714D02*
X154958142Y-70194714D01*
X155212142Y-70739000D01*
X155466142Y-70194714D01*
X155466142Y-70956714D01*
X155974142Y-70194714D02*
X156119285Y-70194714D01*
X156191857Y-70231000D01*
X156264428Y-70303571D01*
X156300714Y-70448714D01*
X156300714Y-70702714D01*
X156264428Y-70847857D01*
X156191857Y-70920428D01*
X156119285Y-70956714D01*
X155974142Y-70956714D01*
X155901571Y-70920428D01*
X155829000Y-70847857D01*
X155792714Y-70702714D01*
X155792714Y-70448714D01*
X155829000Y-70303571D01*
X155901571Y-70231000D01*
X155974142Y-70194714D01*
X156518428Y-70194714D02*
X156953857Y-70194714D01*
X156736142Y-70956714D02*
X156736142Y-70194714D01*
X173228000Y-31459714D02*
X173228000Y-30697714D01*
X173409428Y-30697714D01*
X173518285Y-30734000D01*
X173590857Y-30806571D01*
X173627142Y-30879142D01*
X173663428Y-31024285D01*
X173663428Y-31133142D01*
X173627142Y-31278285D01*
X173590857Y-31350857D01*
X173518285Y-31423428D01*
X173409428Y-31459714D01*
X173228000Y-31459714D01*
X173990000Y-31459714D02*
X173990000Y-30697714D01*
X174788285Y-31459714D02*
X174534285Y-31096857D01*
X174352857Y-31459714D02*
X174352857Y-30697714D01*
X174643142Y-30697714D01*
X174715714Y-30734000D01*
X174752000Y-30770285D01*
X174788285Y-30842857D01*
X174788285Y-30951714D01*
X174752000Y-31024285D01*
X174715714Y-31060571D01*
X174643142Y-31096857D01*
X174352857Y-31096857D01*
X155248428Y-30734000D02*
X155175857Y-30697714D01*
X155067000Y-30697714D01*
X154958142Y-30734000D01*
X154885571Y-30806571D01*
X154849285Y-30879142D01*
X154813000Y-31024285D01*
X154813000Y-31133142D01*
X154849285Y-31278285D01*
X154885571Y-31350857D01*
X154958142Y-31423428D01*
X155067000Y-31459714D01*
X155139571Y-31459714D01*
X155248428Y-31423428D01*
X155284714Y-31387142D01*
X155284714Y-31133142D01*
X155139571Y-31133142D01*
X155611285Y-31459714D02*
X155611285Y-30697714D01*
X156046714Y-31459714D01*
X156046714Y-30697714D01*
X156409571Y-31459714D02*
X156409571Y-30697714D01*
X156591000Y-30697714D01*
X156699857Y-30734000D01*
X156772428Y-30806571D01*
X156808714Y-30879142D01*
X156845000Y-31024285D01*
X156845000Y-31133142D01*
X156808714Y-31278285D01*
X156772428Y-31350857D01*
X156699857Y-31423428D01*
X156591000Y-31459714D01*
X156409571Y-31459714D01*
X173046571Y-48840571D02*
X173300571Y-48840571D01*
X173409428Y-49239714D02*
X173046571Y-49239714D01*
X173046571Y-48477714D01*
X173409428Y-48477714D01*
X173736000Y-49239714D02*
X173736000Y-48477714D01*
X174171428Y-49239714D01*
X174171428Y-48477714D01*
X154069142Y-48477714D02*
X154323142Y-49239714D01*
X154577142Y-48477714D01*
X154831142Y-49239714D02*
X154831142Y-48477714D01*
X155085142Y-49022000D01*
X155339142Y-48477714D01*
X155339142Y-49239714D01*
X155847142Y-48477714D02*
X155992285Y-48477714D01*
X156064857Y-48514000D01*
X156137428Y-48586571D01*
X156173714Y-48731714D01*
X156173714Y-48985714D01*
X156137428Y-49130857D01*
X156064857Y-49203428D01*
X155992285Y-49239714D01*
X155847142Y-49239714D01*
X155774571Y-49203428D01*
X155702000Y-49130857D01*
X155665714Y-48985714D01*
X155665714Y-48731714D01*
X155702000Y-48586571D01*
X155774571Y-48514000D01*
X155847142Y-48477714D01*
X156391428Y-48477714D02*
X156826857Y-48477714D01*
X156609142Y-49239714D02*
X156609142Y-48477714D01*
D11*
X184023000Y-60960000D02*
X184023000Y-62865000D01*
X191643000Y-60960000D02*
X191643000Y-62865000D01*
X185928000Y-60960000D02*
X184023000Y-60960000D01*
X189738000Y-60960000D02*
X191643000Y-60960000D01*
D12*
X167732000Y-61401285D02*
X167789142Y-61287000D01*
X167789142Y-61115571D01*
X167732000Y-60944142D01*
X167617714Y-60829857D01*
X167503428Y-60772714D01*
X167274857Y-60715571D01*
X167103428Y-60715571D01*
X166874857Y-60772714D01*
X166760571Y-60829857D01*
X166646285Y-60944142D01*
X166589142Y-61115571D01*
X166589142Y-61229857D01*
X166646285Y-61401285D01*
X166703428Y-61458428D01*
X167103428Y-61458428D01*
X167103428Y-61229857D01*
X162074142Y-60687000D02*
X160874142Y-61087000D01*
X162074142Y-61487000D01*
X162074142Y-28683000D02*
X160874142Y-29083000D01*
X162074142Y-29483000D01*
X167732000Y-29397285D02*
X167789142Y-29283000D01*
X167789142Y-29111571D01*
X167732000Y-28940142D01*
X167617714Y-28825857D01*
X167503428Y-28768714D01*
X167274857Y-28711571D01*
X167103428Y-28711571D01*
X166874857Y-28768714D01*
X166760571Y-28825857D01*
X166646285Y-28940142D01*
X166589142Y-29111571D01*
X166589142Y-29225857D01*
X166646285Y-29397285D01*
X166703428Y-29454428D01*
X167103428Y-29454428D01*
X167103428Y-29225857D01*
X167605000Y-39811285D02*
X167662142Y-39697000D01*
X167662142Y-39525571D01*
X167605000Y-39354142D01*
X167490714Y-39239857D01*
X167376428Y-39182714D01*
X167147857Y-39125571D01*
X166976428Y-39125571D01*
X166747857Y-39182714D01*
X166633571Y-39239857D01*
X166519285Y-39354142D01*
X166462142Y-39525571D01*
X166462142Y-39639857D01*
X166519285Y-39811285D01*
X166576428Y-39868428D01*
X166976428Y-39868428D01*
X166976428Y-39639857D01*
X161947142Y-39097000D02*
X160747142Y-39497000D01*
X161947142Y-39897000D01*
D11*
X187833000Y-63309500D02*
X186817000Y-63309500D01*
X187833000Y-63309500D02*
X188849000Y-63309500D01*
X187833000Y-67881500D02*
X187833000Y-63309500D01*
X187833000Y-71310500D02*
X187833000Y-70485000D01*
X190373000Y-71310500D02*
X190373000Y-70358000D01*
X190373000Y-67246500D02*
X190373000Y-68072000D01*
X185229500Y-71310500D02*
X185229500Y-70485000D01*
X185229500Y-67246500D02*
X185229500Y-67945000D01*
D10*
X187452000Y-69743428D02*
X187415714Y-69816000D01*
X187415714Y-69924857D01*
X187452000Y-70033714D01*
X187524571Y-70106285D01*
X187597142Y-70142571D01*
X187742285Y-70178857D01*
X187851142Y-70178857D01*
X187996285Y-70142571D01*
X188068857Y-70106285D01*
X188141428Y-70033714D01*
X188177714Y-69924857D01*
X188177714Y-69852285D01*
X188141428Y-69743428D01*
X188105142Y-69707142D01*
X187851142Y-69707142D01*
X187851142Y-69852285D01*
X188177714Y-69380571D02*
X187415714Y-69380571D01*
X188177714Y-68945142D01*
X187415714Y-68945142D01*
X188177714Y-68582285D02*
X187415714Y-68582285D01*
X187415714Y-68400857D01*
X187452000Y-68292000D01*
X187524571Y-68219428D01*
X187597142Y-68183142D01*
X187742285Y-68146857D01*
X187851142Y-68146857D01*
X187996285Y-68183142D01*
X188068857Y-68219428D01*
X188141428Y-68292000D01*
X188177714Y-68400857D01*
X188177714Y-68582285D01*
X185637714Y-70269571D02*
X184875714Y-70269571D01*
X184875714Y-69979285D01*
X184912000Y-69906714D01*
X184948285Y-69870428D01*
X185020857Y-69834142D01*
X185129714Y-69834142D01*
X185202285Y-69870428D01*
X185238571Y-69906714D01*
X185274857Y-69979285D01*
X185274857Y-70269571D01*
X184875714Y-69580142D02*
X185637714Y-69398714D01*
X185093428Y-69253571D01*
X185637714Y-69108428D01*
X184875714Y-68927000D01*
X185637714Y-68636714D02*
X184875714Y-68636714D01*
X185420000Y-68382714D01*
X184875714Y-68128714D01*
X185637714Y-68128714D01*
X190717714Y-69679928D02*
X190717714Y-70115357D01*
X190717714Y-69897642D02*
X189955714Y-69897642D01*
X190064571Y-69970214D01*
X190137142Y-70042785D01*
X190173428Y-70115357D01*
X190028285Y-69389642D02*
X189992000Y-69353357D01*
X189955714Y-69280785D01*
X189955714Y-69099357D01*
X189992000Y-69026785D01*
X190028285Y-68990500D01*
X190100857Y-68954214D01*
X190173428Y-68954214D01*
X190282285Y-68990500D01*
X190717714Y-69425928D01*
X190717714Y-68954214D01*
X189955714Y-68736500D02*
X190717714Y-68482500D01*
X189955714Y-68228500D01*
X186653714Y-61304714D02*
X186290857Y-61304714D01*
X186290857Y-60542714D01*
X186871428Y-61087000D02*
X187234285Y-61087000D01*
X186798857Y-61304714D02*
X187052857Y-60542714D01*
X187306857Y-61304714D01*
X187524571Y-61268428D02*
X187633428Y-61304714D01*
X187814857Y-61304714D01*
X187887428Y-61268428D01*
X187923714Y-61232142D01*
X187960000Y-61159571D01*
X187960000Y-61087000D01*
X187923714Y-61014428D01*
X187887428Y-60978142D01*
X187814857Y-60941857D01*
X187669714Y-60905571D01*
X187597142Y-60869285D01*
X187560857Y-60833000D01*
X187524571Y-60760428D01*
X187524571Y-60687857D01*
X187560857Y-60615285D01*
X187597142Y-60579000D01*
X187669714Y-60542714D01*
X187851142Y-60542714D01*
X187960000Y-60579000D01*
X188286571Y-60905571D02*
X188540571Y-60905571D01*
X188649428Y-61304714D02*
X188286571Y-61304714D01*
X188286571Y-60542714D01*
X188649428Y-60542714D01*
X189411428Y-61304714D02*
X189157428Y-60941857D01*
X188976000Y-61304714D02*
X188976000Y-60542714D01*
X189266285Y-60542714D01*
X189338857Y-60579000D01*
X189375142Y-60615285D01*
X189411428Y-60687857D01*
X189411428Y-60796714D01*
X189375142Y-60869285D01*
X189338857Y-60905571D01*
X189266285Y-60941857D01*
X188976000Y-60941857D01*
D13*
X193385023Y-66630095D02*
X193385023Y-65330095D01*
X193818357Y-66258666D01*
X194251690Y-65330095D01*
X194251690Y-66630095D01*
X195427880Y-66630095D02*
X195427880Y-65949142D01*
X195365976Y-65825333D01*
X195242166Y-65763428D01*
X194994547Y-65763428D01*
X194870738Y-65825333D01*
X195427880Y-66568190D02*
X195304071Y-66630095D01*
X194994547Y-66630095D01*
X194870738Y-66568190D01*
X194808833Y-66444380D01*
X194808833Y-66320571D01*
X194870738Y-66196761D01*
X194994547Y-66134857D01*
X195304071Y-66134857D01*
X195427880Y-66072952D01*
X196046928Y-65763428D02*
X196046928Y-66630095D01*
X196046928Y-65887238D02*
X196108833Y-65825333D01*
X196232642Y-65763428D01*
X196418357Y-65763428D01*
X196542166Y-65825333D01*
X196604071Y-65949142D01*
X196604071Y-66630095D01*
X197223119Y-66630095D02*
X197223119Y-65763428D01*
X197223119Y-65330095D02*
X197161214Y-65392000D01*
X197223119Y-65453904D01*
X197285023Y-65392000D01*
X197223119Y-65330095D01*
X197223119Y-65453904D01*
X198399309Y-66630095D02*
X198399309Y-65949142D01*
X198337404Y-65825333D01*
X198213595Y-65763428D01*
X197965976Y-65763428D01*
X197842166Y-65825333D01*
X198399309Y-66568190D02*
X198275500Y-66630095D01*
X197965976Y-66630095D01*
X197842166Y-66568190D01*
X197780261Y-66444380D01*
X197780261Y-66320571D01*
X197842166Y-66196761D01*
X197965976Y-66134857D01*
X198275500Y-66134857D01*
X198399309Y-66072952D01*
X199575500Y-66568190D02*
X199451690Y-66630095D01*
X199204071Y-66630095D01*
X199080261Y-66568190D01*
X199018357Y-66506285D01*
X198956452Y-66382476D01*
X198956452Y-66011047D01*
X199018357Y-65887238D01*
X199080261Y-65825333D01*
X199204071Y-65763428D01*
X199451690Y-65763428D01*
X199575500Y-65825333D01*
X200689785Y-66630095D02*
X200689785Y-65949142D01*
X200627880Y-65825333D01*
X200504071Y-65763428D01*
X200256452Y-65763428D01*
X200132642Y-65825333D01*
X200689785Y-66568190D02*
X200565976Y-66630095D01*
X200256452Y-66630095D01*
X200132642Y-66568190D01*
X200070738Y-66444380D01*
X200070738Y-66320571D01*
X200132642Y-66196761D01*
X200256452Y-66134857D01*
X200565976Y-66134857D01*
X200689785Y-66072952D01*
X201494547Y-66630095D02*
X201370738Y-66568190D01*
X201308833Y-66444380D01*
X201308833Y-65330095D01*
X203599309Y-66630095D02*
X202980261Y-66630095D01*
X202980261Y-65330095D01*
X204589785Y-66630095D02*
X204589785Y-65949142D01*
X204527880Y-65825333D01*
X204404071Y-65763428D01*
X204156452Y-65763428D01*
X204032642Y-65825333D01*
X204589785Y-66568190D02*
X204465976Y-66630095D01*
X204156452Y-66630095D01*
X204032642Y-66568190D01*
X203970738Y-66444380D01*
X203970738Y-66320571D01*
X204032642Y-66196761D01*
X204156452Y-66134857D01*
X204465976Y-66134857D01*
X204589785Y-66072952D01*
X205208833Y-66630095D02*
X205208833Y-65330095D01*
X205208833Y-65825333D02*
X205332642Y-65763428D01*
X205580261Y-65763428D01*
X205704071Y-65825333D01*
X205765976Y-65887238D01*
X205827880Y-66011047D01*
X205827880Y-66382476D01*
X205765976Y-66506285D01*
X205704071Y-66568190D01*
X205580261Y-66630095D01*
X205332642Y-66630095D01*
X205208833Y-66568190D01*
X206323119Y-66568190D02*
X206446928Y-66630095D01*
X206694547Y-66630095D01*
X206818357Y-66568190D01*
X206880261Y-66444380D01*
X206880261Y-66382476D01*
X206818357Y-66258666D01*
X206694547Y-66196761D01*
X206508833Y-66196761D01*
X206385023Y-66134857D01*
X206323119Y-66011047D01*
X206323119Y-65949142D01*
X206385023Y-65825333D01*
X206508833Y-65763428D01*
X206694547Y-65763428D01*
X206818357Y-65825333D01*
X193385023Y-68830095D02*
X193385023Y-67530095D01*
X193880261Y-67530095D01*
X194004071Y-67592000D01*
X194065976Y-67653904D01*
X194127880Y-67777714D01*
X194127880Y-67963428D01*
X194065976Y-68087238D01*
X194004071Y-68149142D01*
X193880261Y-68211047D01*
X193385023Y-68211047D01*
X194870738Y-68830095D02*
X194746928Y-68768190D01*
X194685023Y-68644380D01*
X194685023Y-67530095D01*
X195923119Y-68830095D02*
X195923119Y-68149142D01*
X195861214Y-68025333D01*
X195737404Y-67963428D01*
X195489785Y-67963428D01*
X195365976Y-68025333D01*
X195923119Y-68768190D02*
X195799309Y-68830095D01*
X195489785Y-68830095D01*
X195365976Y-68768190D01*
X195304071Y-68644380D01*
X195304071Y-68520571D01*
X195365976Y-68396761D01*
X195489785Y-68334857D01*
X195799309Y-68334857D01*
X195923119Y-68272952D01*
X196356452Y-67963428D02*
X196851690Y-67963428D01*
X196542166Y-67530095D02*
X196542166Y-68644380D01*
X196604071Y-68768190D01*
X196727880Y-68830095D01*
X196851690Y-68830095D01*
X197161214Y-67963428D02*
X197470738Y-68830095D01*
X197780261Y-67963428D02*
X197470738Y-68830095D01*
X197346928Y-69139619D01*
X197285023Y-69201523D01*
X197161214Y-69263428D01*
X198275500Y-67963428D02*
X198275500Y-69263428D01*
X198275500Y-68025333D02*
X198399309Y-67963428D01*
X198646928Y-67963428D01*
X198770738Y-68025333D01*
X198832642Y-68087238D01*
X198894547Y-68211047D01*
X198894547Y-68582476D01*
X198832642Y-68706285D01*
X198770738Y-68768190D01*
X198646928Y-68830095D01*
X198399309Y-68830095D01*
X198275500Y-68768190D01*
X200008833Y-67963428D02*
X200008833Y-68830095D01*
X199451690Y-67963428D02*
X199451690Y-68644380D01*
X199513595Y-68768190D01*
X199637404Y-68830095D01*
X199823119Y-68830095D01*
X199946928Y-68768190D01*
X200008833Y-68706285D01*
X200565976Y-68768190D02*
X200689785Y-68830095D01*
X200937404Y-68830095D01*
X201061214Y-68768190D01*
X201123119Y-68644380D01*
X201123119Y-68582476D01*
X201061214Y-68458666D01*
X200937404Y-68396761D01*
X200751690Y-68396761D01*
X200627880Y-68334857D01*
X200565976Y-68211047D01*
X200565976Y-68149142D01*
X200627880Y-68025333D01*
X200751690Y-67963428D01*
X200937404Y-67963428D01*
X201061214Y-68025333D01*
X194004071Y-71030095D02*
X193385023Y-71030095D01*
X193385023Y-69730095D01*
X194994547Y-71030095D02*
X194994547Y-70349142D01*
X194932642Y-70225333D01*
X194808833Y-70163428D01*
X194561214Y-70163428D01*
X194437404Y-70225333D01*
X194994547Y-70968190D02*
X194870738Y-71030095D01*
X194561214Y-71030095D01*
X194437404Y-70968190D01*
X194375500Y-70844380D01*
X194375500Y-70720571D01*
X194437404Y-70596761D01*
X194561214Y-70534857D01*
X194870738Y-70534857D01*
X194994547Y-70472952D01*
X195551690Y-70968190D02*
X195675500Y-71030095D01*
X195923119Y-71030095D01*
X196046928Y-70968190D01*
X196108833Y-70844380D01*
X196108833Y-70782476D01*
X196046928Y-70658666D01*
X195923119Y-70596761D01*
X195737404Y-70596761D01*
X195613595Y-70534857D01*
X195551690Y-70411047D01*
X195551690Y-70349142D01*
X195613595Y-70225333D01*
X195737404Y-70163428D01*
X195923119Y-70163428D01*
X196046928Y-70225333D01*
X197161214Y-70968190D02*
X197037404Y-71030095D01*
X196789785Y-71030095D01*
X196665976Y-70968190D01*
X196604071Y-70844380D01*
X196604071Y-70349142D01*
X196665976Y-70225333D01*
X196789785Y-70163428D01*
X197037404Y-70163428D01*
X197161214Y-70225333D01*
X197223119Y-70349142D01*
X197223119Y-70472952D01*
X196604071Y-70596761D01*
X197780261Y-71030095D02*
X197780261Y-70163428D01*
X197780261Y-70411047D02*
X197842166Y-70287238D01*
X197904071Y-70225333D01*
X198027880Y-70163428D01*
X198151690Y-70163428D01*
X198894547Y-71463428D02*
X198894547Y-69606285D01*
X199761214Y-70968190D02*
X199946928Y-71030095D01*
X200256452Y-71030095D01*
X200380261Y-70968190D01*
X200442166Y-70906285D01*
X200504071Y-70782476D01*
X200504071Y-70658666D01*
X200442166Y-70534857D01*
X200380261Y-70472952D01*
X200256452Y-70411047D01*
X200008833Y-70349142D01*
X199885023Y-70287238D01*
X199823119Y-70225333D01*
X199761214Y-70101523D01*
X199761214Y-69977714D01*
X199823119Y-69853904D01*
X199885023Y-69792000D01*
X200008833Y-69730095D01*
X200318357Y-69730095D01*
X200504071Y-69792000D01*
X201556452Y-70968190D02*
X201432642Y-71030095D01*
X201185023Y-71030095D01*
X201061214Y-70968190D01*
X200999309Y-70844380D01*
X200999309Y-70349142D01*
X201061214Y-70225333D01*
X201185023Y-70163428D01*
X201432642Y-70163428D01*
X201556452Y-70225333D01*
X201618357Y-70349142D01*
X201618357Y-70472952D01*
X200999309Y-70596761D01*
X202175500Y-71030095D02*
X202175500Y-70163428D01*
X202175500Y-70411047D02*
X202237404Y-70287238D01*
X202299309Y-70225333D01*
X202423119Y-70163428D01*
X202546928Y-70163428D01*
X202856452Y-70163428D02*
X203165976Y-71030095D01*
X203475500Y-70163428D01*
X204156452Y-71030095D02*
X204032642Y-70968190D01*
X203970738Y-70906285D01*
X203908833Y-70782476D01*
X203908833Y-70411047D01*
X203970738Y-70287238D01*
X204032642Y-70225333D01*
X204156452Y-70163428D01*
X204342166Y-70163428D01*
X204465976Y-70225333D01*
X204527880Y-70287238D01*
X204589785Y-70411047D01*
X204589785Y-70782476D01*
X204527880Y-70906285D01*
X204465976Y-70968190D01*
X204342166Y-71030095D01*
X204156452Y-71030095D01*
X194127880Y-73106285D02*
X194065976Y-73168190D01*
X193880261Y-73230095D01*
X193756452Y-73230095D01*
X193570738Y-73168190D01*
X193446928Y-73044380D01*
X193385023Y-72920571D01*
X193323119Y-72672952D01*
X193323119Y-72487238D01*
X193385023Y-72239619D01*
X193446928Y-72115809D01*
X193570738Y-71992000D01*
X193756452Y-71930095D01*
X193880261Y-71930095D01*
X194065976Y-71992000D01*
X194127880Y-72053904D01*
X194870738Y-73230095D02*
X194746928Y-73168190D01*
X194685023Y-73106285D01*
X194623119Y-72982476D01*
X194623119Y-72611047D01*
X194685023Y-72487238D01*
X194746928Y-72425333D01*
X194870738Y-72363428D01*
X195056452Y-72363428D01*
X195180261Y-72425333D01*
X195242166Y-72487238D01*
X195304071Y-72611047D01*
X195304071Y-72982476D01*
X195242166Y-73106285D01*
X195180261Y-73168190D01*
X195056452Y-73230095D01*
X194870738Y-73230095D01*
X195861214Y-72363428D02*
X195861214Y-73230095D01*
X195861214Y-72487238D02*
X195923119Y-72425333D01*
X196046928Y-72363428D01*
X196232642Y-72363428D01*
X196356452Y-72425333D01*
X196418357Y-72549142D01*
X196418357Y-73230095D01*
X196851690Y-72363428D02*
X197346928Y-72363428D01*
X197037404Y-71930095D02*
X197037404Y-73044380D01*
X197099309Y-73168190D01*
X197223119Y-73230095D01*
X197346928Y-73230095D01*
X197780261Y-73230095D02*
X197780261Y-72363428D01*
X197780261Y-72611047D02*
X197842166Y-72487238D01*
X197904071Y-72425333D01*
X198027880Y-72363428D01*
X198151690Y-72363428D01*
X198770738Y-73230095D02*
X198646928Y-73168190D01*
X198585023Y-73106285D01*
X198523119Y-72982476D01*
X198523119Y-72611047D01*
X198585023Y-72487238D01*
X198646928Y-72425333D01*
X198770738Y-72363428D01*
X198956452Y-72363428D01*
X199080261Y-72425333D01*
X199142166Y-72487238D01*
X199204071Y-72611047D01*
X199204071Y-72982476D01*
X199142166Y-73106285D01*
X199080261Y-73168190D01*
X198956452Y-73230095D01*
X198770738Y-73230095D01*
X199946928Y-73230095D02*
X199823119Y-73168190D01*
X199761214Y-73044380D01*
X199761214Y-71930095D01*
X200627880Y-73230095D02*
X200504071Y-73168190D01*
X200442166Y-73044380D01*
X200442166Y-71930095D01*
X201618357Y-73168190D02*
X201494547Y-73230095D01*
X201246928Y-73230095D01*
X201123119Y-73168190D01*
X201061214Y-73044380D01*
X201061214Y-72549142D01*
X201123119Y-72425333D01*
X201246928Y-72363428D01*
X201494547Y-72363428D01*
X201618357Y-72425333D01*
X201680261Y-72549142D01*
X201680261Y-72672952D01*
X201061214Y-72796761D01*
X202237404Y-73230095D02*
X202237404Y-72363428D01*
X202237404Y-72611047D02*
X202299309Y-72487238D01*
X202361214Y-72425333D01*
X202485023Y-72363428D01*
X202608833Y-72363428D01*
D11*
X164592000Y-50800000D02*
X166116000Y-50800000D01*
X164592000Y-51054000D02*
X164592000Y-50800000D01*
X162560000Y-50800000D02*
X164084000Y-50800000D01*
X164084000Y-50800000D02*
X164084000Y-51054000D01*
X166116000Y-60960000D02*
X164592000Y-60960000D01*
X164592000Y-60960000D02*
X164592000Y-60706000D01*
X164084000Y-60960000D02*
X162560000Y-60960000D01*
X164084000Y-60706000D02*
X164084000Y-60960000D01*
X164592000Y-39370000D02*
X164592000Y-39116000D01*
X164084000Y-39116000D02*
X164084000Y-39370000D01*
X164084000Y-39370000D02*
X162560000Y-39370000D01*
X166116000Y-39370000D02*
X164592000Y-39370000D01*
X164592000Y-29210000D02*
X166116000Y-29210000D01*
X164592000Y-29464000D02*
X164592000Y-29210000D01*
X164084000Y-29210000D02*
X164084000Y-29464000D01*
X162560000Y-29210000D02*
X164084000Y-29210000D01*
D12*
X167732000Y-50987285D02*
X167789142Y-50873000D01*
X167789142Y-50701571D01*
X167732000Y-50530142D01*
X167617714Y-50415857D01*
X167503428Y-50358714D01*
X167274857Y-50301571D01*
X167103428Y-50301571D01*
X166874857Y-50358714D01*
X166760571Y-50415857D01*
X166646285Y-50530142D01*
X166589142Y-50701571D01*
X166589142Y-50815857D01*
X166646285Y-50987285D01*
X166703428Y-51044428D01*
X167103428Y-51044428D01*
X167103428Y-50815857D01*
X162074142Y-50273000D02*
X160874142Y-50673000D01*
X162074142Y-51073000D01*
D10*
X168457619Y-59340714D02*
X168457619Y-58769285D01*
X168457619Y-59055000D02*
X169457619Y-59055000D01*
X169314761Y-58959761D01*
X169219523Y-58864523D01*
X169171904Y-58769285D01*
X169457619Y-52371666D02*
X169457619Y-52990714D01*
X169076666Y-52657380D01*
X169076666Y-52800238D01*
X169029047Y-52895476D01*
X168981428Y-52943095D01*
X168886190Y-52990714D01*
X168648095Y-52990714D01*
X168552857Y-52943095D01*
X168505238Y-52895476D01*
X168457619Y-52800238D01*
X168457619Y-52514523D01*
X168505238Y-52419285D01*
X168552857Y-52371666D01*
X169362380Y-55594285D02*
X169410000Y-55641904D01*
X169457619Y-55737142D01*
X169457619Y-55975238D01*
X169410000Y-56070476D01*
X169362380Y-56118095D01*
X169267142Y-56165714D01*
X169171904Y-56165714D01*
X169029047Y-56118095D01*
X168457619Y-55546666D01*
X168457619Y-56165714D01*
X169457619Y-30781666D02*
X169457619Y-31400714D01*
X169076666Y-31067380D01*
X169076666Y-31210238D01*
X169029047Y-31305476D01*
X168981428Y-31353095D01*
X168886190Y-31400714D01*
X168648095Y-31400714D01*
X168552857Y-31353095D01*
X168505238Y-31305476D01*
X168457619Y-31210238D01*
X168457619Y-30924523D01*
X168505238Y-30829285D01*
X168552857Y-30781666D01*
X169362380Y-34004285D02*
X169410000Y-34051904D01*
X169457619Y-34147142D01*
X169457619Y-34385238D01*
X169410000Y-34480476D01*
X169362380Y-34528095D01*
X169267142Y-34575714D01*
X169171904Y-34575714D01*
X169029047Y-34528095D01*
X168457619Y-33956666D01*
X168457619Y-34575714D01*
X168457619Y-37750714D02*
X168457619Y-37179285D01*
X168457619Y-37465000D02*
X169457619Y-37465000D01*
X169314761Y-37369761D01*
X169219523Y-37274523D01*
X169171904Y-37179285D01*
D13*
X211272380Y-73155500D02*
X211272380Y-73726928D01*
X211272380Y-73441214D02*
X210272380Y-73441214D01*
X210415238Y-73536452D01*
X210510476Y-73631690D01*
X210558095Y-73726928D01*
X210367619Y-72774547D02*
X210320000Y-72726928D01*
X210272380Y-72631690D01*
X210272380Y-72393595D01*
X210320000Y-72298357D01*
X210367619Y-72250738D01*
X210462857Y-72203119D01*
X210558095Y-72203119D01*
X210700952Y-72250738D01*
X211272380Y-72822166D01*
X211272380Y-72203119D01*
X210272380Y-71917404D02*
X211272380Y-71584071D01*
X210272380Y-71250738D01*
X210320000Y-68107214D02*
X210272380Y-68202452D01*
X210272380Y-68345309D01*
X210320000Y-68488166D01*
X210415238Y-68583404D01*
X210510476Y-68631023D01*
X210700952Y-68678642D01*
X210843809Y-68678642D01*
X211034285Y-68631023D01*
X211129523Y-68583404D01*
X211224761Y-68488166D01*
X211272380Y-68345309D01*
X211272380Y-68250071D01*
X211224761Y-68107214D01*
X211177142Y-68059595D01*
X210843809Y-68059595D01*
X210843809Y-68250071D01*
X211272380Y-67631023D02*
X210272380Y-67631023D01*
X211272380Y-67059595D01*
X210272380Y-67059595D01*
X211272380Y-66583404D02*
X210272380Y-66583404D01*
X210272380Y-66345309D01*
X210320000Y-66202452D01*
X210415238Y-66107214D01*
X210510476Y-66059595D01*
X210700952Y-66011976D01*
X210843809Y-66011976D01*
X211034285Y-66059595D01*
X211129523Y-66107214D01*
X211224761Y-66202452D01*
X211272380Y-66345309D01*
X211272380Y-66583404D01*
D14*
X147285528Y-54585809D02*
X147285528Y-55069619D01*
X146946861Y-54053619D02*
X147285528Y-54585809D01*
X147624195Y-54053619D01*
X148736957Y-55069619D02*
X148736957Y-54053619D01*
X149075623Y-54779333D01*
X149414290Y-54053619D01*
X149414290Y-55069619D01*
X150091623Y-54053619D02*
X150285147Y-54053619D01*
X150381909Y-54102000D01*
X150478671Y-54198761D01*
X150527052Y-54392285D01*
X150527052Y-54730952D01*
X150478671Y-54924476D01*
X150381909Y-55021238D01*
X150285147Y-55069619D01*
X150091623Y-55069619D01*
X149994861Y-55021238D01*
X149898100Y-54924476D01*
X149849719Y-54730952D01*
X149849719Y-54392285D01*
X149898100Y-54198761D01*
X149994861Y-54102000D01*
X150091623Y-54053619D01*
X150817338Y-54053619D02*
X151397909Y-54053619D01*
X151107623Y-55069619D02*
X151107623Y-54053619D01*
X151930100Y-54053619D02*
X152123623Y-54053619D01*
X152220385Y-54102000D01*
X152317147Y-54198761D01*
X152365528Y-54392285D01*
X152365528Y-54730952D01*
X152317147Y-54924476D01*
X152220385Y-55021238D01*
X152123623Y-55069619D01*
X151930100Y-55069619D01*
X151833338Y-55021238D01*
X151736576Y-54924476D01*
X151688195Y-54730952D01*
X151688195Y-54392285D01*
X151736576Y-54198761D01*
X151833338Y-54102000D01*
X151930100Y-54053619D01*
X153381528Y-55069619D02*
X153042861Y-54585809D01*
X152800957Y-55069619D02*
X152800957Y-54053619D01*
X153188004Y-54053619D01*
X153284766Y-54102000D01*
X153333147Y-54150380D01*
X153381528Y-54247142D01*
X153381528Y-54392285D01*
X153333147Y-54489047D01*
X153284766Y-54537428D01*
X153188004Y-54585809D01*
X152800957Y-54585809D01*
X146995242Y-46433619D02*
X147672576Y-47449619D01*
X147672576Y-46433619D02*
X146995242Y-47449619D01*
X148833719Y-47449619D02*
X148833719Y-46433619D01*
X149172385Y-47159333D01*
X149511052Y-46433619D01*
X149511052Y-47449619D01*
X150188385Y-46433619D02*
X150381909Y-46433619D01*
X150478671Y-46482000D01*
X150575433Y-46578761D01*
X150623814Y-46772285D01*
X150623814Y-47110952D01*
X150575433Y-47304476D01*
X150478671Y-47401238D01*
X150381909Y-47449619D01*
X150188385Y-47449619D01*
X150091623Y-47401238D01*
X149994861Y-47304476D01*
X149946480Y-47110952D01*
X149946480Y-46772285D01*
X149994861Y-46578761D01*
X150091623Y-46482000D01*
X150188385Y-46433619D01*
X150914100Y-46433619D02*
X151494671Y-46433619D01*
X151204385Y-47449619D02*
X151204385Y-46433619D01*
X152026861Y-46433619D02*
X152220385Y-46433619D01*
X152317147Y-46482000D01*
X152413909Y-46578761D01*
X152462290Y-46772285D01*
X152462290Y-47110952D01*
X152413909Y-47304476D01*
X152317147Y-47401238D01*
X152220385Y-47449619D01*
X152026861Y-47449619D01*
X151930100Y-47401238D01*
X151833338Y-47304476D01*
X151784957Y-47110952D01*
X151784957Y-46772285D01*
X151833338Y-46578761D01*
X151930100Y-46482000D01*
X152026861Y-46433619D01*
X153478290Y-47449619D02*
X153139623Y-46965809D01*
X152897719Y-47449619D02*
X152897719Y-46433619D01*
X153284766Y-46433619D01*
X153381528Y-46482000D01*
X153429909Y-46530380D01*
X153478290Y-46627142D01*
X153478290Y-46772285D01*
X153429909Y-46869047D01*
X153381528Y-46917428D01*
X153284766Y-46965809D01*
X152897719Y-46965809D01*
D15*
X145532021Y-60452000D02*
X145894878Y-60452000D01*
X145459450Y-60669714D02*
X145713450Y-59907714D01*
X145967450Y-60669714D01*
X146221450Y-60379428D02*
X146802021Y-60379428D01*
X145532021Y-57912000D02*
X145894878Y-57912000D01*
X145459450Y-58129714D02*
X145713450Y-57367714D01*
X145967450Y-58129714D01*
X146221450Y-57839428D02*
X146802021Y-57839428D01*
X146511735Y-58129714D02*
X146511735Y-57549142D01*
X145713450Y-65350571D02*
X145822307Y-65386857D01*
X145858592Y-65423142D01*
X145894878Y-65495714D01*
X145894878Y-65604571D01*
X145858592Y-65677142D01*
X145822307Y-65713428D01*
X145749735Y-65749714D01*
X145459450Y-65749714D01*
X145459450Y-64987714D01*
X145713450Y-64987714D01*
X145786021Y-65024000D01*
X145822307Y-65060285D01*
X145858592Y-65132857D01*
X145858592Y-65205428D01*
X145822307Y-65278000D01*
X145786021Y-65314285D01*
X145713450Y-65350571D01*
X145459450Y-65350571D01*
X146221450Y-65459428D02*
X146802021Y-65459428D01*
X145713450Y-62810571D02*
X145822307Y-62846857D01*
X145858592Y-62883142D01*
X145894878Y-62955714D01*
X145894878Y-63064571D01*
X145858592Y-63137142D01*
X145822307Y-63173428D01*
X145749735Y-63209714D01*
X145459450Y-63209714D01*
X145459450Y-62447714D01*
X145713450Y-62447714D01*
X145786021Y-62484000D01*
X145822307Y-62520285D01*
X145858592Y-62592857D01*
X145858592Y-62665428D01*
X145822307Y-62738000D01*
X145786021Y-62774285D01*
X145713450Y-62810571D01*
X145459450Y-62810571D01*
X146221450Y-62919428D02*
X146802021Y-62919428D01*
X146511735Y-63209714D02*
X146511735Y-62629142D01*
X145713450Y-43760571D02*
X145822307Y-43796857D01*
X145858592Y-43833142D01*
X145894878Y-43905714D01*
X145894878Y-44014571D01*
X145858592Y-44087142D01*
X145822307Y-44123428D01*
X145749735Y-44159714D01*
X145459450Y-44159714D01*
X145459450Y-43397714D01*
X145713450Y-43397714D01*
X145786021Y-43434000D01*
X145822307Y-43470285D01*
X145858592Y-43542857D01*
X145858592Y-43615428D01*
X145822307Y-43688000D01*
X145786021Y-43724285D01*
X145713450Y-43760571D01*
X145459450Y-43760571D01*
X146221450Y-43869428D02*
X146802021Y-43869428D01*
X145713450Y-41220571D02*
X145822307Y-41256857D01*
X145858592Y-41293142D01*
X145894878Y-41365714D01*
X145894878Y-41474571D01*
X145858592Y-41547142D01*
X145822307Y-41583428D01*
X145749735Y-41619714D01*
X145459450Y-41619714D01*
X145459450Y-40857714D01*
X145713450Y-40857714D01*
X145786021Y-40894000D01*
X145822307Y-40930285D01*
X145858592Y-41002857D01*
X145858592Y-41075428D01*
X145822307Y-41148000D01*
X145786021Y-41184285D01*
X145713450Y-41220571D01*
X145459450Y-41220571D01*
X146221450Y-41329428D02*
X146802021Y-41329428D01*
X146511735Y-41619714D02*
X146511735Y-41039142D01*
X145532021Y-38862000D02*
X145894878Y-38862000D01*
X145459450Y-39079714D02*
X145713450Y-38317714D01*
X145967450Y-39079714D01*
X146221450Y-38789428D02*
X146802021Y-38789428D01*
X145532021Y-36322000D02*
X145894878Y-36322000D01*
X145459450Y-36539714D02*
X145713450Y-35777714D01*
X145967450Y-36539714D01*
X146221450Y-36249428D02*
X146802021Y-36249428D01*
X146511735Y-36539714D02*
X146511735Y-35959142D01*
D11*
X175260000Y-68199000D02*
X175260000Y-70104000D01*
X177165000Y-68199000D02*
X175260000Y-68199000D01*
X182880000Y-68199000D02*
X182880000Y-70104000D01*
X180975000Y-68199000D02*
X182880000Y-68199000D01*
D10*
X177400857Y-68507428D02*
X177509714Y-68543714D01*
X177691142Y-68543714D01*
X177763714Y-68507428D01*
X177800000Y-68471142D01*
X177836285Y-68398571D01*
X177836285Y-68326000D01*
X177800000Y-68253428D01*
X177763714Y-68217142D01*
X177691142Y-68180857D01*
X177546000Y-68144571D01*
X177473428Y-68108285D01*
X177437142Y-68072000D01*
X177400857Y-67999428D01*
X177400857Y-67926857D01*
X177437142Y-67854285D01*
X177473428Y-67818000D01*
X177546000Y-67781714D01*
X177727428Y-67781714D01*
X177836285Y-67818000D01*
X178162857Y-68144571D02*
X178416857Y-68144571D01*
X178525714Y-68543714D02*
X178162857Y-68543714D01*
X178162857Y-67781714D01*
X178525714Y-67781714D01*
X179287714Y-68543714D02*
X179033714Y-68180857D01*
X178852285Y-68543714D02*
X178852285Y-67781714D01*
X179142571Y-67781714D01*
X179215142Y-67818000D01*
X179251428Y-67854285D01*
X179287714Y-67926857D01*
X179287714Y-68035714D01*
X179251428Y-68108285D01*
X179215142Y-68144571D01*
X179142571Y-68180857D01*
X178852285Y-68180857D01*
X179505428Y-67781714D02*
X179759428Y-68543714D01*
X180013428Y-67781714D01*
X180412571Y-67781714D02*
X180557714Y-67781714D01*
X180630285Y-67818000D01*
X180702857Y-67890571D01*
X180739142Y-68035714D01*
X180739142Y-68289714D01*
X180702857Y-68434857D01*
X180630285Y-68507428D01*
X180557714Y-68543714D01*
X180412571Y-68543714D01*
X180340000Y-68507428D01*
X180267428Y-68434857D01*
X180231142Y-68289714D01*
X180231142Y-68035714D01*
X180267428Y-67890571D01*
X180340000Y-67818000D01*
X180412571Y-67781714D01*
X181954714Y-70841071D02*
X181192714Y-70841071D01*
X181192714Y-70550785D01*
X181229000Y-70478214D01*
X181265285Y-70441928D01*
X181337857Y-70405642D01*
X181446714Y-70405642D01*
X181519285Y-70441928D01*
X181555571Y-70478214D01*
X181591857Y-70550785D01*
X181591857Y-70841071D01*
X181192714Y-70151642D02*
X181954714Y-69970214D01*
X181410428Y-69825071D01*
X181954714Y-69679928D01*
X181192714Y-69498500D01*
X181954714Y-69208214D02*
X181192714Y-69208214D01*
X181737000Y-68954214D01*
X181192714Y-68700214D01*
X181954714Y-68700214D01*
X178652714Y-70478214D02*
X178652714Y-70841071D01*
X179015571Y-70877357D01*
X178979285Y-70841071D01*
X178943000Y-70768500D01*
X178943000Y-70587071D01*
X178979285Y-70514500D01*
X179015571Y-70478214D01*
X179088142Y-70441928D01*
X179269571Y-70441928D01*
X179342142Y-70478214D01*
X179378428Y-70514500D01*
X179414714Y-70587071D01*
X179414714Y-70768500D01*
X179378428Y-70841071D01*
X179342142Y-70877357D01*
X178652714Y-70224214D02*
X179414714Y-69970214D01*
X178652714Y-69716214D01*
X176149000Y-70441928D02*
X176112714Y-70514500D01*
X176112714Y-70623357D01*
X176149000Y-70732214D01*
X176221571Y-70804785D01*
X176294142Y-70841071D01*
X176439285Y-70877357D01*
X176548142Y-70877357D01*
X176693285Y-70841071D01*
X176765857Y-70804785D01*
X176838428Y-70732214D01*
X176874714Y-70623357D01*
X176874714Y-70550785D01*
X176838428Y-70441928D01*
X176802142Y-70405642D01*
X176548142Y-70405642D01*
X176548142Y-70550785D01*
X176874714Y-70079071D02*
X176112714Y-70079071D01*
X176874714Y-69643642D01*
X176112714Y-69643642D01*
X176874714Y-69280785D02*
X176112714Y-69280785D01*
X176112714Y-69099357D01*
X176149000Y-68990500D01*
X176221571Y-68917928D01*
X176294142Y-68881642D01*
X176439285Y-68845357D01*
X176548142Y-68845357D01*
X176693285Y-68881642D01*
X176765857Y-68917928D01*
X176838428Y-68990500D01*
X176874714Y-69099357D01*
X176874714Y-69280785D01*
X185583285Y-84164714D02*
X185147857Y-84164714D01*
X185365571Y-84164714D02*
X185365571Y-83402714D01*
X185293000Y-83511571D01*
X185220428Y-83584142D01*
X185147857Y-83620428D01*
X185873571Y-83475285D02*
X185909857Y-83439000D01*
X185982428Y-83402714D01*
X186163857Y-83402714D01*
X186236428Y-83439000D01*
X186272714Y-83475285D01*
X186309000Y-83547857D01*
X186309000Y-83620428D01*
X186272714Y-83729285D01*
X185837285Y-84164714D01*
X186309000Y-84164714D01*
X186526714Y-83402714D02*
X186780714Y-84164714D01*
X187034714Y-83402714D01*
X179904571Y-84164714D02*
X179904571Y-83402714D01*
X180194857Y-83402714D01*
X180267428Y-83439000D01*
X180303714Y-83475285D01*
X180340000Y-83547857D01*
X180340000Y-83656714D01*
X180303714Y-83729285D01*
X180267428Y-83765571D01*
X180194857Y-83801857D01*
X179904571Y-83801857D01*
X180594000Y-83402714D02*
X180775428Y-84164714D01*
X180920571Y-83620428D01*
X181065714Y-84164714D01*
X181247142Y-83402714D01*
X181537428Y-84164714D02*
X181537428Y-83402714D01*
X181791428Y-83947000D01*
X182045428Y-83402714D01*
X182045428Y-84164714D01*
X183714571Y-83439000D02*
X183642000Y-83402714D01*
X183533142Y-83402714D01*
X183424285Y-83439000D01*
X183351714Y-83511571D01*
X183315428Y-83584142D01*
X183279142Y-83729285D01*
X183279142Y-83838142D01*
X183315428Y-83983285D01*
X183351714Y-84055857D01*
X183424285Y-84128428D01*
X183533142Y-84164714D01*
X183605714Y-84164714D01*
X183714571Y-84128428D01*
X183750857Y-84092142D01*
X183750857Y-83838142D01*
X183605714Y-83838142D01*
X178289857Y-83402714D02*
X177927000Y-83402714D01*
X177890714Y-83765571D01*
X177927000Y-83729285D01*
X177999571Y-83693000D01*
X178181000Y-83693000D01*
X178253571Y-83729285D01*
X178289857Y-83765571D01*
X178326142Y-83838142D01*
X178326142Y-84019571D01*
X178289857Y-84092142D01*
X178253571Y-84128428D01*
X178181000Y-84164714D01*
X177999571Y-84164714D01*
X177927000Y-84128428D01*
X177890714Y-84092142D01*
X178543857Y-83402714D02*
X178797857Y-84164714D01*
X179051857Y-83402714D01*
X174189571Y-83439000D02*
X174117000Y-83402714D01*
X174008142Y-83402714D01*
X173899285Y-83439000D01*
X173826714Y-83511571D01*
X173790428Y-83584142D01*
X173754142Y-83729285D01*
X173754142Y-83838142D01*
X173790428Y-83983285D01*
X173826714Y-84055857D01*
X173899285Y-84128428D01*
X174008142Y-84164714D01*
X174080714Y-84164714D01*
X174189571Y-84128428D01*
X174225857Y-84092142D01*
X174225857Y-83838142D01*
X174080714Y-83838142D01*
X169109571Y-83439000D02*
X169037000Y-83402714D01*
X168928142Y-83402714D01*
X168819285Y-83439000D01*
X168746714Y-83511571D01*
X168710428Y-83584142D01*
X168674142Y-83729285D01*
X168674142Y-83838142D01*
X168710428Y-83983285D01*
X168746714Y-84055857D01*
X168819285Y-84128428D01*
X168928142Y-84164714D01*
X169000714Y-84164714D01*
X169109571Y-84128428D01*
X169145857Y-84092142D01*
X169145857Y-83838142D01*
X169000714Y-83838142D01*
X170978285Y-84164714D02*
X170542857Y-84164714D01*
X170760571Y-84164714D02*
X170760571Y-83402714D01*
X170688000Y-83511571D01*
X170615428Y-83584142D01*
X170542857Y-83620428D01*
X171268571Y-83475285D02*
X171304857Y-83439000D01*
X171377428Y-83402714D01*
X171558857Y-83402714D01*
X171631428Y-83439000D01*
X171667714Y-83475285D01*
X171704000Y-83547857D01*
X171704000Y-83620428D01*
X171667714Y-83729285D01*
X171232285Y-84164714D01*
X171704000Y-84164714D01*
X171921714Y-83402714D02*
X172175714Y-84164714D01*
X172429714Y-83402714D01*
X166224857Y-83402714D02*
X165862000Y-83402714D01*
X165825714Y-83765571D01*
X165862000Y-83729285D01*
X165934571Y-83693000D01*
X166116000Y-83693000D01*
X166188571Y-83729285D01*
X166224857Y-83765571D01*
X166261142Y-83838142D01*
X166261142Y-84019571D01*
X166224857Y-84092142D01*
X166188571Y-84128428D01*
X166116000Y-84164714D01*
X165934571Y-84164714D01*
X165862000Y-84128428D01*
X165825714Y-84092142D01*
X166478857Y-83402714D02*
X166732857Y-84164714D01*
X166986857Y-83402714D01*
X207409142Y-84128428D02*
X207518000Y-84164714D01*
X207699428Y-84164714D01*
X207772000Y-84128428D01*
X207808285Y-84092142D01*
X207844571Y-84019571D01*
X207844571Y-83947000D01*
X207808285Y-83874428D01*
X207772000Y-83838142D01*
X207699428Y-83801857D01*
X207554285Y-83765571D01*
X207481714Y-83729285D01*
X207445428Y-83693000D01*
X207409142Y-83620428D01*
X207409142Y-83547857D01*
X207445428Y-83475285D01*
X207481714Y-83439000D01*
X207554285Y-83402714D01*
X207735714Y-83402714D01*
X207844571Y-83439000D01*
X208062285Y-83402714D02*
X208497714Y-83402714D01*
X208280000Y-84164714D02*
X208280000Y-83402714D01*
X208715428Y-83947000D02*
X209078285Y-83947000D01*
X208642857Y-84164714D02*
X208896857Y-83402714D01*
X209150857Y-84164714D01*
X209840285Y-84164714D02*
X209586285Y-83801857D01*
X209404857Y-84164714D02*
X209404857Y-83402714D01*
X209695142Y-83402714D01*
X209767714Y-83439000D01*
X209804000Y-83475285D01*
X209840285Y-83547857D01*
X209840285Y-83656714D01*
X209804000Y-83729285D01*
X209767714Y-83765571D01*
X209695142Y-83801857D01*
X209404857Y-83801857D01*
X210058000Y-83402714D02*
X210493428Y-83402714D01*
X210275714Y-84164714D02*
X210275714Y-83402714D01*
X202528714Y-84164714D02*
X202528714Y-83402714D01*
X202528714Y-83765571D02*
X202964142Y-83765571D01*
X202964142Y-84164714D02*
X202964142Y-83402714D01*
X203472142Y-83402714D02*
X203617285Y-83402714D01*
X203689857Y-83439000D01*
X203762428Y-83511571D01*
X203798714Y-83656714D01*
X203798714Y-83910714D01*
X203762428Y-84055857D01*
X203689857Y-84128428D01*
X203617285Y-84164714D01*
X203472142Y-84164714D01*
X203399571Y-84128428D01*
X203327000Y-84055857D01*
X203290714Y-83910714D01*
X203290714Y-83656714D01*
X203327000Y-83511571D01*
X203399571Y-83439000D01*
X203472142Y-83402714D01*
X204488142Y-84164714D02*
X204125285Y-84164714D01*
X204125285Y-83402714D01*
X204742142Y-84164714D02*
X204742142Y-83402714D01*
X204923571Y-83402714D01*
X205032428Y-83439000D01*
X205105000Y-83511571D01*
X205141285Y-83584142D01*
X205177571Y-83729285D01*
X205177571Y-83838142D01*
X205141285Y-83983285D01*
X205105000Y-84055857D01*
X205032428Y-84128428D01*
X204923571Y-84164714D01*
X204742142Y-84164714D01*
X195217142Y-83947000D02*
X195580000Y-83947000D01*
X195144571Y-84164714D02*
X195398571Y-83402714D01*
X195652571Y-84164714D01*
X196160571Y-83765571D02*
X196269428Y-83801857D01*
X196305714Y-83838142D01*
X196342000Y-83910714D01*
X196342000Y-84019571D01*
X196305714Y-84092142D01*
X196269428Y-84128428D01*
X196196857Y-84164714D01*
X195906571Y-84164714D01*
X195906571Y-83402714D01*
X196160571Y-83402714D01*
X196233142Y-83439000D01*
X196269428Y-83475285D01*
X196305714Y-83547857D01*
X196305714Y-83620428D01*
X196269428Y-83693000D01*
X196233142Y-83729285D01*
X196160571Y-83765571D01*
X195906571Y-83765571D01*
X196813714Y-83402714D02*
X196958857Y-83402714D01*
X197031428Y-83439000D01*
X197104000Y-83511571D01*
X197140285Y-83656714D01*
X197140285Y-83910714D01*
X197104000Y-84055857D01*
X197031428Y-84128428D01*
X196958857Y-84164714D01*
X196813714Y-84164714D01*
X196741142Y-84128428D01*
X196668571Y-84055857D01*
X196632285Y-83910714D01*
X196632285Y-83656714D01*
X196668571Y-83511571D01*
X196741142Y-83439000D01*
X196813714Y-83402714D01*
X197902285Y-84164714D02*
X197648285Y-83801857D01*
X197466857Y-84164714D02*
X197466857Y-83402714D01*
X197757142Y-83402714D01*
X197829714Y-83439000D01*
X197866000Y-83475285D01*
X197902285Y-83547857D01*
X197902285Y-83656714D01*
X197866000Y-83729285D01*
X197829714Y-83765571D01*
X197757142Y-83801857D01*
X197466857Y-83801857D01*
X198120000Y-83402714D02*
X198555428Y-83402714D01*
X198337714Y-84164714D02*
X198337714Y-83402714D01*
X190663285Y-84164714D02*
X190409285Y-83801857D01*
X190227857Y-84164714D02*
X190227857Y-83402714D01*
X190518142Y-83402714D01*
X190590714Y-83439000D01*
X190627000Y-83475285D01*
X190663285Y-83547857D01*
X190663285Y-83656714D01*
X190627000Y-83729285D01*
X190590714Y-83765571D01*
X190518142Y-83801857D01*
X190227857Y-83801857D01*
X190989857Y-83765571D02*
X191243857Y-83765571D01*
X191352714Y-84164714D02*
X190989857Y-84164714D01*
X190989857Y-83402714D01*
X191352714Y-83402714D01*
X191643000Y-84128428D02*
X191751857Y-84164714D01*
X191933285Y-84164714D01*
X192005857Y-84128428D01*
X192042142Y-84092142D01*
X192078428Y-84019571D01*
X192078428Y-83947000D01*
X192042142Y-83874428D01*
X192005857Y-83838142D01*
X191933285Y-83801857D01*
X191788142Y-83765571D01*
X191715571Y-83729285D01*
X191679285Y-83693000D01*
X191643000Y-83620428D01*
X191643000Y-83547857D01*
X191679285Y-83475285D01*
X191715571Y-83439000D01*
X191788142Y-83402714D01*
X191969571Y-83402714D01*
X192078428Y-83439000D01*
X192405000Y-83765571D02*
X192659000Y-83765571D01*
X192767857Y-84164714D02*
X192405000Y-84164714D01*
X192405000Y-83402714D01*
X192767857Y-83402714D01*
X192985571Y-83402714D02*
X193421000Y-83402714D01*
X193203285Y-84164714D02*
X193203285Y-83402714D01*
D11*
X162560000Y-83820000D02*
X162560000Y-83185000D01*
X161290000Y-83820000D02*
X162560000Y-83820000D01*
X158750000Y-83820000D02*
X158750000Y-83185000D01*
X160020000Y-83820000D02*
X158750000Y-83820000D01*
X153670000Y-83820000D02*
X153670000Y-83185000D01*
X154940000Y-83820000D02*
X153670000Y-83820000D01*
X157480000Y-83820000D02*
X157480000Y-83185000D01*
X156210000Y-83820000D02*
X157480000Y-83820000D01*
D10*
X160655000Y-83801857D02*
X160655000Y-84164714D01*
X160401000Y-83402714D02*
X160655000Y-83801857D01*
X160909000Y-83402714D01*
X155321000Y-83402714D02*
X155829000Y-84164714D01*
X155829000Y-83402714D02*
X155321000Y-84164714D01*
D11*
X210820000Y-74930000D02*
X210820000Y-75565000D01*
X203835000Y-74930000D02*
X210820000Y-74930000D01*
X189865000Y-74930000D02*
X189865000Y-75565000D01*
X196850000Y-74930000D02*
X189865000Y-74930000D01*
D10*
X197782180Y-75795142D02*
X197734561Y-75842761D01*
X197591704Y-75890380D01*
X197496466Y-75890380D01*
X197353609Y-75842761D01*
X197258371Y-75747523D01*
X197210752Y-75652285D01*
X197163133Y-75461809D01*
X197163133Y-75318952D01*
X197210752Y-75128476D01*
X197258371Y-75033238D01*
X197353609Y-74938000D01*
X197496466Y-74890380D01*
X197591704Y-74890380D01*
X197734561Y-74938000D01*
X197782180Y-74985619D01*
X198401228Y-74890380D02*
X198591704Y-74890380D01*
X198686942Y-74938000D01*
X198782180Y-75033238D01*
X198829800Y-75223714D01*
X198829800Y-75557047D01*
X198782180Y-75747523D01*
X198686942Y-75842761D01*
X198591704Y-75890380D01*
X198401228Y-75890380D01*
X198305990Y-75842761D01*
X198210752Y-75747523D01*
X198163133Y-75557047D01*
X198163133Y-75223714D01*
X198210752Y-75033238D01*
X198305990Y-74938000D01*
X198401228Y-74890380D01*
X199258371Y-75890380D02*
X199258371Y-74890380D01*
X199829800Y-75890380D01*
X199829800Y-74890380D01*
X200163133Y-74890380D02*
X200734561Y-74890380D01*
X200448847Y-75890380D02*
X200448847Y-74890380D01*
X201639323Y-75890380D02*
X201305990Y-75414190D01*
X201067895Y-75890380D02*
X201067895Y-74890380D01*
X201448847Y-74890380D01*
X201544085Y-74938000D01*
X201591704Y-74985619D01*
X201639323Y-75080857D01*
X201639323Y-75223714D01*
X201591704Y-75318952D01*
X201544085Y-75366571D01*
X201448847Y-75414190D01*
X201067895Y-75414190D01*
X202258371Y-74890380D02*
X202448847Y-74890380D01*
X202544085Y-74938000D01*
X202639323Y-75033238D01*
X202686942Y-75223714D01*
X202686942Y-75557047D01*
X202639323Y-75747523D01*
X202544085Y-75842761D01*
X202448847Y-75890380D01*
X202258371Y-75890380D01*
X202163133Y-75842761D01*
X202067895Y-75747523D01*
X202020276Y-75557047D01*
X202020276Y-75223714D01*
X202067895Y-75033238D01*
X202163133Y-74938000D01*
X202258371Y-74890380D01*
X203591704Y-75890380D02*
X203115514Y-75890380D01*
X203115514Y-74890380D01*
X177316428Y-75842761D02*
X177459285Y-75890380D01*
X177697380Y-75890380D01*
X177792619Y-75842761D01*
X177840238Y-75795142D01*
X177887857Y-75699904D01*
X177887857Y-75604666D01*
X177840238Y-75509428D01*
X177792619Y-75461809D01*
X177697380Y-75414190D01*
X177506904Y-75366571D01*
X177411666Y-75318952D01*
X177364047Y-75271333D01*
X177316428Y-75176095D01*
X177316428Y-75080857D01*
X177364047Y-74985619D01*
X177411666Y-74938000D01*
X177506904Y-74890380D01*
X177745000Y-74890380D01*
X177887857Y-74938000D01*
X178316428Y-75366571D02*
X178649761Y-75366571D01*
X178792619Y-75890380D02*
X178316428Y-75890380D01*
X178316428Y-74890380D01*
X178792619Y-74890380D01*
X179792619Y-75890380D02*
X179459285Y-75414190D01*
X179221190Y-75890380D02*
X179221190Y-74890380D01*
X179602142Y-74890380D01*
X179697380Y-74938000D01*
X179745000Y-74985619D01*
X179792619Y-75080857D01*
X179792619Y-75223714D01*
X179745000Y-75318952D01*
X179697380Y-75366571D01*
X179602142Y-75414190D01*
X179221190Y-75414190D01*
X180078333Y-74890380D02*
X180411666Y-75890380D01*
X180745000Y-74890380D01*
X181268809Y-74890380D02*
X181459285Y-74890380D01*
X181554523Y-74938000D01*
X181649761Y-75033238D01*
X181697380Y-75223714D01*
X181697380Y-75557047D01*
X181649761Y-75747523D01*
X181554523Y-75842761D01*
X181459285Y-75890380D01*
X181268809Y-75890380D01*
X181173571Y-75842761D01*
X181078333Y-75747523D01*
X181030714Y-75557047D01*
X181030714Y-75223714D01*
X181078333Y-75033238D01*
X181173571Y-74938000D01*
X181268809Y-74890380D01*
X182364047Y-76223714D02*
X182364047Y-74795142D01*
X183554523Y-75890380D02*
X183078333Y-75890380D01*
X183078333Y-74890380D01*
X183840238Y-75604666D02*
X184316428Y-75604666D01*
X183745000Y-75890380D02*
X184078333Y-74890380D01*
X184411666Y-75890380D01*
X184697380Y-75842761D02*
X184840238Y-75890380D01*
X185078333Y-75890380D01*
X185173571Y-75842761D01*
X185221190Y-75795142D01*
X185268809Y-75699904D01*
X185268809Y-75604666D01*
X185221190Y-75509428D01*
X185173571Y-75461809D01*
X185078333Y-75414190D01*
X184887857Y-75366571D01*
X184792619Y-75318952D01*
X184745000Y-75271333D01*
X184697380Y-75176095D01*
X184697380Y-75080857D01*
X184745000Y-74985619D01*
X184792619Y-74938000D01*
X184887857Y-74890380D01*
X185125952Y-74890380D01*
X185268809Y-74938000D01*
X185697380Y-75366571D02*
X186030714Y-75366571D01*
X186173571Y-75890380D02*
X185697380Y-75890380D01*
X185697380Y-74890380D01*
X186173571Y-74890380D01*
X187173571Y-75890380D02*
X186840238Y-75414190D01*
X186602142Y-75890380D02*
X186602142Y-74890380D01*
X186983095Y-74890380D01*
X187078333Y-74938000D01*
X187125952Y-74985619D01*
X187173571Y-75080857D01*
X187173571Y-75223714D01*
X187125952Y-75318952D01*
X187078333Y-75366571D01*
X186983095Y-75414190D01*
X186602142Y-75414190D01*
X166013333Y-75604666D02*
X166489523Y-75604666D01*
X165918095Y-75890380D02*
X166251428Y-74890380D01*
X166584761Y-75890380D01*
X166918095Y-74890380D02*
X166918095Y-75699904D01*
X166965714Y-75795142D01*
X167013333Y-75842761D01*
X167108571Y-75890380D01*
X167299047Y-75890380D01*
X167394285Y-75842761D01*
X167441904Y-75795142D01*
X167489523Y-75699904D01*
X167489523Y-74890380D01*
X167870476Y-74890380D02*
X168537142Y-75890380D01*
X168537142Y-74890380D02*
X167870476Y-75890380D01*
X169680000Y-75890380D02*
X169680000Y-74890380D01*
X170060952Y-74890380D01*
X170156190Y-74938000D01*
X170203809Y-74985619D01*
X170251428Y-75080857D01*
X170251428Y-75223714D01*
X170203809Y-75318952D01*
X170156190Y-75366571D01*
X170060952Y-75414190D01*
X169680000Y-75414190D01*
X170870476Y-74890380D02*
X171060952Y-74890380D01*
X171156190Y-74938000D01*
X171251428Y-75033238D01*
X171299047Y-75223714D01*
X171299047Y-75557047D01*
X171251428Y-75747523D01*
X171156190Y-75842761D01*
X171060952Y-75890380D01*
X170870476Y-75890380D01*
X170775238Y-75842761D01*
X170680000Y-75747523D01*
X170632380Y-75557047D01*
X170632380Y-75223714D01*
X170680000Y-75033238D01*
X170775238Y-74938000D01*
X170870476Y-74890380D01*
X171632380Y-74890380D02*
X171870476Y-75890380D01*
X172060952Y-75176095D01*
X172251428Y-75890380D01*
X172489523Y-74890380D01*
X172870476Y-75366571D02*
X173203809Y-75366571D01*
X173346666Y-75890380D02*
X172870476Y-75890380D01*
X172870476Y-74890380D01*
X173346666Y-74890380D01*
X174346666Y-75890380D02*
X174013333Y-75414190D01*
X173775238Y-75890380D02*
X173775238Y-74890380D01*
X174156190Y-74890380D01*
X174251428Y-74938000D01*
X174299047Y-74985619D01*
X174346666Y-75080857D01*
X174346666Y-75223714D01*
X174299047Y-75318952D01*
X174251428Y-75366571D01*
X174156190Y-75414190D01*
X173775238Y-75414190D01*
X156392761Y-75890380D02*
X155916571Y-75890380D01*
X155916571Y-74890380D01*
X156726095Y-75890380D02*
X156726095Y-74890380D01*
X157202285Y-75890380D02*
X157202285Y-74890380D01*
X157535619Y-75604666D01*
X157868952Y-74890380D01*
X157868952Y-75890380D01*
X158345142Y-75890380D02*
X158345142Y-74890380D01*
X158678476Y-74890380D02*
X159249904Y-74890380D01*
X158964190Y-75890380D02*
X158964190Y-74890380D01*
X159535619Y-75842761D02*
X159678476Y-75890380D01*
X159916571Y-75890380D01*
X160011809Y-75842761D01*
X160059428Y-75795142D01*
X160107047Y-75699904D01*
X160107047Y-75604666D01*
X160059428Y-75509428D01*
X160011809Y-75461809D01*
X159916571Y-75414190D01*
X159726095Y-75366571D01*
X159630857Y-75318952D01*
X159583238Y-75271333D01*
X159535619Y-75176095D01*
X159535619Y-75080857D01*
X159583238Y-74985619D01*
X159630857Y-74938000D01*
X159726095Y-74890380D01*
X159964190Y-74890380D01*
X160107047Y-74938000D01*
D11*
X175641000Y-54229000D02*
X176276000Y-54229000D01*
X175641000Y-51054000D02*
X175641000Y-54229000D01*
X176276000Y-51054000D02*
X175641000Y-51054000D01*
D10*
X207989714Y-30226000D02*
X207626857Y-30480000D01*
X207989714Y-30661428D02*
X207227714Y-30661428D01*
X207227714Y-30371142D01*
X207264000Y-30298571D01*
X207300285Y-30262285D01*
X207372857Y-30226000D01*
X207481714Y-30226000D01*
X207554285Y-30262285D01*
X207590571Y-30298571D01*
X207626857Y-30371142D01*
X207626857Y-30661428D01*
X207227714Y-29972000D02*
X207989714Y-29464000D01*
X207227714Y-29464000D02*
X207989714Y-29972000D01*
X204814714Y-30552571D02*
X204814714Y-30117142D01*
X205576714Y-30334857D02*
X204814714Y-30334857D01*
X204814714Y-29935714D02*
X205576714Y-29427714D01*
X204814714Y-29427714D02*
X205576714Y-29935714D01*
X210529714Y-30734000D02*
X209767714Y-30734000D01*
X209767714Y-30443714D01*
X209804000Y-30371142D01*
X209840285Y-30334857D01*
X209912857Y-30298571D01*
X210021714Y-30298571D01*
X210094285Y-30334857D01*
X210130571Y-30371142D01*
X210166857Y-30443714D01*
X210166857Y-30734000D01*
X209767714Y-30044571D02*
X210529714Y-29863142D01*
X209985428Y-29718000D01*
X210529714Y-29572857D01*
X209767714Y-29391428D01*
X210529714Y-28665714D02*
X210166857Y-28919714D01*
X210529714Y-29101142D02*
X209767714Y-29101142D01*
X209767714Y-28810857D01*
X209804000Y-28738285D01*
X209840285Y-28702000D01*
X209912857Y-28665714D01*
X210021714Y-28665714D01*
X210094285Y-28702000D01*
X210130571Y-28738285D01*
X210166857Y-28810857D01*
X210166857Y-29101142D01*
D16*
G36*
X179223132Y-58292141D02*
G01*
X179412330Y-58292704D01*
X179594803Y-58293553D01*
X179767802Y-58294693D01*
X179928580Y-58296121D01*
X180074388Y-58297837D01*
X180202478Y-58299843D01*
X180310101Y-58302137D01*
X180394511Y-58304719D01*
X180452958Y-58307591D01*
X180482694Y-58310751D01*
X180484045Y-58311101D01*
X180557650Y-58346801D01*
X180611272Y-58399954D01*
X180644256Y-58464582D01*
X180655948Y-58534706D01*
X180645692Y-58604346D01*
X180612833Y-58667525D01*
X180556717Y-58718264D01*
X180530218Y-58732553D01*
X180467819Y-58761312D01*
X180467409Y-60243141D01*
X180467000Y-61724969D01*
X180894194Y-62465641D01*
X180984737Y-62622615D01*
X181087897Y-62801444D01*
X181200416Y-62996483D01*
X181319038Y-63202090D01*
X181440507Y-63412620D01*
X181561568Y-63622429D01*
X181678963Y-63825874D01*
X181789437Y-64017312D01*
X181838756Y-64102770D01*
X181927967Y-64257722D01*
X182012309Y-64404946D01*
X182090458Y-64542082D01*
X182161089Y-64666771D01*
X182222877Y-64776652D01*
X182274497Y-64869365D01*
X182314624Y-64942552D01*
X182341934Y-64993852D01*
X182355102Y-65020905D01*
X182356125Y-65024254D01*
X182348259Y-65044854D01*
X182325954Y-65089330D01*
X182291145Y-65154359D01*
X182245767Y-65236615D01*
X182191756Y-65332774D01*
X182131047Y-65439511D01*
X182065577Y-65553503D01*
X181997279Y-65671423D01*
X181928091Y-65789948D01*
X181859948Y-65905754D01*
X181794784Y-66015515D01*
X181734537Y-66115906D01*
X181681141Y-66203605D01*
X181636532Y-66275285D01*
X181602645Y-66327622D01*
X181581416Y-66357292D01*
X181577599Y-66361468D01*
X181530124Y-66405125D01*
X176355875Y-66405125D01*
X176308400Y-66361468D01*
X176291606Y-66339746D01*
X176261539Y-66294288D01*
X176220134Y-66228420D01*
X176169325Y-66145466D01*
X176111050Y-66048753D01*
X176047242Y-65941605D01*
X175979838Y-65827346D01*
X175910772Y-65709303D01*
X175841981Y-65590800D01*
X175775400Y-65475163D01*
X175712963Y-65365717D01*
X175656608Y-65265786D01*
X175608267Y-65178695D01*
X175569879Y-65107771D01*
X175543377Y-65056338D01*
X175530697Y-65027720D01*
X175529874Y-65023933D01*
X175536139Y-65008738D01*
X176034817Y-65008738D01*
X176309508Y-65484681D01*
X176584198Y-65960625D01*
X181301654Y-65960625D01*
X181576694Y-65483873D01*
X181851735Y-65007121D01*
X181743627Y-64821091D01*
X181695108Y-64737084D01*
X181644391Y-64648405D01*
X181597699Y-64565982D01*
X181563228Y-64504315D01*
X181490937Y-64373567D01*
X179475125Y-64373125D01*
X179770748Y-64670781D01*
X179850725Y-64751852D01*
X179923741Y-64826905D01*
X179986638Y-64892609D01*
X180036257Y-64945634D01*
X180069440Y-64982650D01*
X180082732Y-64999697D01*
X180090043Y-65037230D01*
X180077704Y-65072316D01*
X180052692Y-65108070D01*
X180012306Y-65152828D01*
X179963048Y-65200770D01*
X179911420Y-65246074D01*
X179863926Y-65282919D01*
X179827067Y-65305484D01*
X179812480Y-65309750D01*
X179790132Y-65299200D01*
X179748787Y-65267232D01*
X179687908Y-65213363D01*
X179606960Y-65137114D01*
X179505408Y-65038002D01*
X179463810Y-64996741D01*
X179149375Y-64683732D01*
X179149375Y-65118522D01*
X179149186Y-65249308D01*
X179148480Y-65352011D01*
X179147051Y-65430296D01*
X179144691Y-65487830D01*
X179141191Y-65528276D01*
X179136345Y-65555301D01*
X179129944Y-65572570D01*
X179123102Y-65582343D01*
X179106266Y-65595829D01*
X179080807Y-65604459D01*
X179040181Y-65609237D01*
X178977844Y-65611165D01*
X178933754Y-65611375D01*
X178860007Y-65610988D01*
X178811052Y-65608820D01*
X178779932Y-65603360D01*
X178759690Y-65593094D01*
X178743370Y-65576512D01*
X178737053Y-65568627D01*
X178726921Y-65554620D01*
X178719117Y-65538895D01*
X178713392Y-65517501D01*
X178709497Y-65486484D01*
X178707185Y-65441892D01*
X178706207Y-65379771D01*
X178706314Y-65296170D01*
X178707259Y-65187136D01*
X178708120Y-65108238D01*
X178709336Y-64996830D01*
X178710363Y-64896621D01*
X178711164Y-64811754D01*
X178711700Y-64746372D01*
X178711937Y-64704619D01*
X178711846Y-64690611D01*
X178700874Y-64701389D01*
X178670423Y-64731776D01*
X178623394Y-64778863D01*
X178562693Y-64839739D01*
X178491221Y-64911496D01*
X178411882Y-64991225D01*
X178410221Y-64992894D01*
X178328795Y-65073741D01*
X178252946Y-65147133D01*
X178186010Y-65209994D01*
X178131322Y-65259247D01*
X178092218Y-65291816D01*
X178072337Y-65304556D01*
X178051907Y-65305152D01*
X178027469Y-65294567D01*
X177994225Y-65269398D01*
X177947375Y-65226244D01*
X177909618Y-65189190D01*
X177847367Y-65124657D01*
X177807516Y-65076575D01*
X177787581Y-65041681D01*
X177784125Y-65024521D01*
X177789451Y-65006558D01*
X177806771Y-64979344D01*
X177838090Y-64940608D01*
X177885416Y-64888079D01*
X177950757Y-64819484D01*
X178036120Y-64732551D01*
X178089566Y-64678867D01*
X178395007Y-64373125D01*
X177967557Y-64373125D01*
X177828238Y-64373235D01*
X177717412Y-64372593D01*
X177631828Y-64369739D01*
X177568238Y-64363213D01*
X177523392Y-64351556D01*
X177494040Y-64333308D01*
X177476932Y-64307009D01*
X177468820Y-64271200D01*
X177466454Y-64224420D01*
X177466583Y-64165211D01*
X177466625Y-64148107D01*
X177466249Y-64086737D01*
X177467298Y-64037980D01*
X177473033Y-64000390D01*
X177486717Y-63972522D01*
X177511611Y-63952933D01*
X177550977Y-63940178D01*
X177608078Y-63932811D01*
X177686176Y-63929388D01*
X177788532Y-63928465D01*
X177918409Y-63928596D01*
X177962196Y-63928625D01*
X178394267Y-63928625D01*
X178081258Y-63614189D01*
X177991898Y-63523371D01*
X177914404Y-63442517D01*
X177851051Y-63374128D01*
X177804114Y-63320706D01*
X177775868Y-63284753D01*
X177768250Y-63269990D01*
X177779746Y-63243392D01*
X177810271Y-63202976D01*
X177853876Y-63154523D01*
X177904613Y-63103817D01*
X177956534Y-63056641D01*
X178003690Y-63018778D01*
X178040134Y-62996010D01*
X178054177Y-62992000D01*
X178073107Y-62998738D01*
X178104067Y-63020065D01*
X178148936Y-63057648D01*
X178209590Y-63113153D01*
X178287908Y-63188247D01*
X178385767Y-63284597D01*
X178402345Y-63301083D01*
X178712812Y-63610166D01*
X178708134Y-63185775D01*
X178706453Y-63047249D01*
X178705794Y-62937203D01*
X178707651Y-62852374D01*
X178713515Y-62789496D01*
X178724879Y-62745302D01*
X178743236Y-62716528D01*
X178770078Y-62699909D01*
X178806897Y-62692179D01*
X178855186Y-62690073D01*
X178916436Y-62690325D01*
X178934546Y-62690375D01*
X179014777Y-62691496D01*
X179069137Y-62695371D01*
X179103445Y-62702763D01*
X179123519Y-62714438D01*
X179124428Y-62715321D01*
X179131921Y-62726469D01*
X179137780Y-62745540D01*
X179142198Y-62776092D01*
X179145365Y-62821686D01*
X179147473Y-62885878D01*
X179148714Y-62972230D01*
X179149279Y-63084298D01*
X179149375Y-63179142D01*
X179149375Y-63618017D01*
X179463810Y-63305008D01*
X179567977Y-63202240D01*
X179652018Y-63121457D01*
X179717393Y-63061357D01*
X179765558Y-63020639D01*
X179797973Y-62998001D01*
X179814435Y-62992000D01*
X179846640Y-63004050D01*
X179894929Y-63038515D01*
X179954031Y-63091218D01*
X180020277Y-63157807D01*
X180063369Y-63209289D01*
X180085644Y-63249492D01*
X180089437Y-63282242D01*
X180082732Y-63302052D01*
X180067448Y-63321412D01*
X180032823Y-63359842D01*
X179982016Y-63414013D01*
X179918186Y-63480594D01*
X179844491Y-63556256D01*
X179770748Y-63630968D01*
X179475125Y-63928625D01*
X181231589Y-63928625D01*
X181200294Y-63877031D01*
X181165471Y-63818823D01*
X181119078Y-63740049D01*
X181062623Y-63643349D01*
X180997614Y-63531365D01*
X180925559Y-63406736D01*
X180847966Y-63272105D01*
X180766344Y-63130113D01*
X180682201Y-62983400D01*
X180597044Y-62834608D01*
X180512382Y-62686378D01*
X180429723Y-62541351D01*
X180350576Y-62402167D01*
X180276448Y-62271468D01*
X180208847Y-62151896D01*
X180149282Y-62046090D01*
X180099260Y-61956693D01*
X180060291Y-61886345D01*
X180033882Y-61837688D01*
X180021540Y-61813361D01*
X180020896Y-61811659D01*
X180018786Y-61788630D01*
X180016779Y-61736011D01*
X180014895Y-61655962D01*
X180013154Y-61550643D01*
X180011575Y-61422212D01*
X180010179Y-61272830D01*
X180008985Y-61104656D01*
X180008013Y-60919850D01*
X180007282Y-60720573D01*
X180006814Y-60508983D01*
X180006627Y-60287240D01*
X180006625Y-60257636D01*
X180006625Y-58753375D01*
X177879989Y-58753375D01*
X177871437Y-61825187D01*
X177527729Y-62420500D01*
X177438018Y-62575868D01*
X177338473Y-62748244D01*
X177233521Y-62929961D01*
X177127590Y-63113356D01*
X177025106Y-63290764D01*
X176930496Y-63454521D01*
X176862940Y-63571437D01*
X176717356Y-63823399D01*
X176585857Y-64051050D01*
X176468664Y-64254010D01*
X176365995Y-64431897D01*
X176278071Y-64584331D01*
X176205110Y-64710931D01*
X176147332Y-64811316D01*
X176104957Y-64885107D01*
X176078205Y-64931921D01*
X176073081Y-64940962D01*
X176034817Y-65008738D01*
X175536139Y-65008738D01*
X175537593Y-65005214D01*
X175559661Y-64962010D01*
X175594444Y-64897273D01*
X175640311Y-64813953D01*
X175695628Y-64714999D01*
X175758763Y-64603362D01*
X175828083Y-64481993D01*
X175872919Y-64404074D01*
X175959007Y-64254890D01*
X176051884Y-64093959D01*
X176147742Y-63927876D01*
X176242776Y-63763236D01*
X176333179Y-63606633D01*
X176415145Y-63464663D01*
X176481823Y-63349187D01*
X176553062Y-63225821D01*
X176636259Y-63081738D01*
X176727500Y-62923716D01*
X176822870Y-62758537D01*
X176918455Y-62592979D01*
X177010341Y-62433823D01*
X177083341Y-62307372D01*
X177419000Y-61725931D01*
X177418590Y-60243622D01*
X177418180Y-58761312D01*
X177355781Y-58732553D01*
X177290983Y-58687866D01*
X177249683Y-58628549D01*
X177231225Y-58560581D01*
X177234955Y-58489941D01*
X177260218Y-58422606D01*
X177306358Y-58364557D01*
X177372721Y-58321771D01*
X177401954Y-58311101D01*
X177428501Y-58307910D01*
X177484048Y-58305009D01*
X177565847Y-58302396D01*
X177671151Y-58300071D01*
X177797211Y-58298035D01*
X177941279Y-58296288D01*
X178100606Y-58294830D01*
X178272446Y-58293660D01*
X178454049Y-58292780D01*
X178642667Y-58292187D01*
X178835552Y-58291883D01*
X179029957Y-58291868D01*
X179223132Y-58292141D01*
X179223132Y-58292141D01*
G37*
X179223132Y-58292141D02*
X179412330Y-58292704D01*
X179594803Y-58293553D01*
X179767802Y-58294693D01*
X179928580Y-58296121D01*
X180074388Y-58297837D01*
X180202478Y-58299843D01*
X180310101Y-58302137D01*
X180394511Y-58304719D01*
X180452958Y-58307591D01*
X180482694Y-58310751D01*
X180484045Y-58311101D01*
X180557650Y-58346801D01*
X180611272Y-58399954D01*
X180644256Y-58464582D01*
X180655948Y-58534706D01*
X180645692Y-58604346D01*
X180612833Y-58667525D01*
X180556717Y-58718264D01*
X180530218Y-58732553D01*
X180467819Y-58761312D01*
X180467409Y-60243141D01*
X180467000Y-61724969D01*
X180894194Y-62465641D01*
X180984737Y-62622615D01*
X181087897Y-62801444D01*
X181200416Y-62996483D01*
X181319038Y-63202090D01*
X181440507Y-63412620D01*
X181561568Y-63622429D01*
X181678963Y-63825874D01*
X181789437Y-64017312D01*
X181838756Y-64102770D01*
X181927967Y-64257722D01*
X182012309Y-64404946D01*
X182090458Y-64542082D01*
X182161089Y-64666771D01*
X182222877Y-64776652D01*
X182274497Y-64869365D01*
X182314624Y-64942552D01*
X182341934Y-64993852D01*
X182355102Y-65020905D01*
X182356125Y-65024254D01*
X182348259Y-65044854D01*
X182325954Y-65089330D01*
X182291145Y-65154359D01*
X182245767Y-65236615D01*
X182191756Y-65332774D01*
X182131047Y-65439511D01*
X182065577Y-65553503D01*
X181997279Y-65671423D01*
X181928091Y-65789948D01*
X181859948Y-65905754D01*
X181794784Y-66015515D01*
X181734537Y-66115906D01*
X181681141Y-66203605D01*
X181636532Y-66275285D01*
X181602645Y-66327622D01*
X181581416Y-66357292D01*
X181577599Y-66361468D01*
X181530124Y-66405125D01*
X176355875Y-66405125D01*
X176308400Y-66361468D01*
X176291606Y-66339746D01*
X176261539Y-66294288D01*
X176220134Y-66228420D01*
X176169325Y-66145466D01*
X176111050Y-66048753D01*
X176047242Y-65941605D01*
X175979838Y-65827346D01*
X175910772Y-65709303D01*
X175841981Y-65590800D01*
X175775400Y-65475163D01*
X175712963Y-65365717D01*
X175656608Y-65265786D01*
X175608267Y-65178695D01*
X175569879Y-65107771D01*
X175543377Y-65056338D01*
X175530697Y-65027720D01*
X175529874Y-65023933D01*
X175536139Y-65008738D01*
X176034817Y-65008738D01*
X176309508Y-65484681D01*
X176584198Y-65960625D01*
X181301654Y-65960625D01*
X181576694Y-65483873D01*
X181851735Y-65007121D01*
X181743627Y-64821091D01*
X181695108Y-64737084D01*
X181644391Y-64648405D01*
X181597699Y-64565982D01*
X181563228Y-64504315D01*
X181490937Y-64373567D01*
X179475125Y-64373125D01*
X179770748Y-64670781D01*
X179850725Y-64751852D01*
X179923741Y-64826905D01*
X179986638Y-64892609D01*
X180036257Y-64945634D01*
X180069440Y-64982650D01*
X180082732Y-64999697D01*
X180090043Y-65037230D01*
X180077704Y-65072316D01*
X180052692Y-65108070D01*
X180012306Y-65152828D01*
X179963048Y-65200770D01*
X179911420Y-65246074D01*
X179863926Y-65282919D01*
X179827067Y-65305484D01*
X179812480Y-65309750D01*
X179790132Y-65299200D01*
X179748787Y-65267232D01*
X179687908Y-65213363D01*
X179606960Y-65137114D01*
X179505408Y-65038002D01*
X179463810Y-64996741D01*
X179149375Y-64683732D01*
X179149375Y-65118522D01*
X179149186Y-65249308D01*
X179148480Y-65352011D01*
X179147051Y-65430296D01*
X179144691Y-65487830D01*
X179141191Y-65528276D01*
X179136345Y-65555301D01*
X179129944Y-65572570D01*
X179123102Y-65582343D01*
X179106266Y-65595829D01*
X179080807Y-65604459D01*
X179040181Y-65609237D01*
X178977844Y-65611165D01*
X178933754Y-65611375D01*
X178860007Y-65610988D01*
X178811052Y-65608820D01*
X178779932Y-65603360D01*
X178759690Y-65593094D01*
X178743370Y-65576512D01*
X178737053Y-65568627D01*
X178726921Y-65554620D01*
X178719117Y-65538895D01*
X178713392Y-65517501D01*
X178709497Y-65486484D01*
X178707185Y-65441892D01*
X178706207Y-65379771D01*
X178706314Y-65296170D01*
X178707259Y-65187136D01*
X178708120Y-65108238D01*
X178709336Y-64996830D01*
X178710363Y-64896621D01*
X178711164Y-64811754D01*
X178711700Y-64746372D01*
X178711937Y-64704619D01*
X178711846Y-64690611D01*
X178700874Y-64701389D01*
X178670423Y-64731776D01*
X178623394Y-64778863D01*
X178562693Y-64839739D01*
X178491221Y-64911496D01*
X178411882Y-64991225D01*
X178410221Y-64992894D01*
X178328795Y-65073741D01*
X178252946Y-65147133D01*
X178186010Y-65209994D01*
X178131322Y-65259247D01*
X178092218Y-65291816D01*
X178072337Y-65304556D01*
X178051907Y-65305152D01*
X178027469Y-65294567D01*
X177994225Y-65269398D01*
X177947375Y-65226244D01*
X177909618Y-65189190D01*
X177847367Y-65124657D01*
X177807516Y-65076575D01*
X177787581Y-65041681D01*
X177784125Y-65024521D01*
X177789451Y-65006558D01*
X177806771Y-64979344D01*
X177838090Y-64940608D01*
X177885416Y-64888079D01*
X177950757Y-64819484D01*
X178036120Y-64732551D01*
X178089566Y-64678867D01*
X178395007Y-64373125D01*
X177967557Y-64373125D01*
X177828238Y-64373235D01*
X177717412Y-64372593D01*
X177631828Y-64369739D01*
X177568238Y-64363213D01*
X177523392Y-64351556D01*
X177494040Y-64333308D01*
X177476932Y-64307009D01*
X177468820Y-64271200D01*
X177466454Y-64224420D01*
X177466583Y-64165211D01*
X177466625Y-64148107D01*
X177466249Y-64086737D01*
X177467298Y-64037980D01*
X177473033Y-64000390D01*
X177486717Y-63972522D01*
X177511611Y-63952933D01*
X177550977Y-63940178D01*
X177608078Y-63932811D01*
X177686176Y-63929388D01*
X177788532Y-63928465D01*
X177918409Y-63928596D01*
X177962196Y-63928625D01*
X178394267Y-63928625D01*
X178081258Y-63614189D01*
X177991898Y-63523371D01*
X177914404Y-63442517D01*
X177851051Y-63374128D01*
X177804114Y-63320706D01*
X177775868Y-63284753D01*
X177768250Y-63269990D01*
X177779746Y-63243392D01*
X177810271Y-63202976D01*
X177853876Y-63154523D01*
X177904613Y-63103817D01*
X177956534Y-63056641D01*
X178003690Y-63018778D01*
X178040134Y-62996010D01*
X178054177Y-62992000D01*
X178073107Y-62998738D01*
X178104067Y-63020065D01*
X178148936Y-63057648D01*
X178209590Y-63113153D01*
X178287908Y-63188247D01*
X178385767Y-63284597D01*
X178402345Y-63301083D01*
X178712812Y-63610166D01*
X178708134Y-63185775D01*
X178706453Y-63047249D01*
X178705794Y-62937203D01*
X178707651Y-62852374D01*
X178713515Y-62789496D01*
X178724879Y-62745302D01*
X178743236Y-62716528D01*
X178770078Y-62699909D01*
X178806897Y-62692179D01*
X178855186Y-62690073D01*
X178916436Y-62690325D01*
X178934546Y-62690375D01*
X179014777Y-62691496D01*
X179069137Y-62695371D01*
X179103445Y-62702763D01*
X179123519Y-62714438D01*
X179124428Y-62715321D01*
X179131921Y-62726469D01*
X179137780Y-62745540D01*
X179142198Y-62776092D01*
X179145365Y-62821686D01*
X179147473Y-62885878D01*
X179148714Y-62972230D01*
X179149279Y-63084298D01*
X179149375Y-63179142D01*
X179149375Y-63618017D01*
X179463810Y-63305008D01*
X179567977Y-63202240D01*
X179652018Y-63121457D01*
X179717393Y-63061357D01*
X179765558Y-63020639D01*
X179797973Y-62998001D01*
X179814435Y-62992000D01*
X179846640Y-63004050D01*
X179894929Y-63038515D01*
X179954031Y-63091218D01*
X180020277Y-63157807D01*
X180063369Y-63209289D01*
X180085644Y-63249492D01*
X180089437Y-63282242D01*
X180082732Y-63302052D01*
X180067448Y-63321412D01*
X180032823Y-63359842D01*
X179982016Y-63414013D01*
X179918186Y-63480594D01*
X179844491Y-63556256D01*
X179770748Y-63630968D01*
X179475125Y-63928625D01*
X181231589Y-63928625D01*
X181200294Y-63877031D01*
X181165471Y-63818823D01*
X181119078Y-63740049D01*
X181062623Y-63643349D01*
X180997614Y-63531365D01*
X180925559Y-63406736D01*
X180847966Y-63272105D01*
X180766344Y-63130113D01*
X180682201Y-62983400D01*
X180597044Y-62834608D01*
X180512382Y-62686378D01*
X180429723Y-62541351D01*
X180350576Y-62402167D01*
X180276448Y-62271468D01*
X180208847Y-62151896D01*
X180149282Y-62046090D01*
X180099260Y-61956693D01*
X180060291Y-61886345D01*
X180033882Y-61837688D01*
X180021540Y-61813361D01*
X180020896Y-61811659D01*
X180018786Y-61788630D01*
X180016779Y-61736011D01*
X180014895Y-61655962D01*
X180013154Y-61550643D01*
X180011575Y-61422212D01*
X180010179Y-61272830D01*
X180008985Y-61104656D01*
X180008013Y-60919850D01*
X180007282Y-60720573D01*
X180006814Y-60508983D01*
X180006627Y-60287240D01*
X180006625Y-60257636D01*
X180006625Y-58753375D01*
X177879989Y-58753375D01*
X177871437Y-61825187D01*
X177527729Y-62420500D01*
X177438018Y-62575868D01*
X177338473Y-62748244D01*
X177233521Y-62929961D01*
X177127590Y-63113356D01*
X177025106Y-63290764D01*
X176930496Y-63454521D01*
X176862940Y-63571437D01*
X176717356Y-63823399D01*
X176585857Y-64051050D01*
X176468664Y-64254010D01*
X176365995Y-64431897D01*
X176278071Y-64584331D01*
X176205110Y-64710931D01*
X176147332Y-64811316D01*
X176104957Y-64885107D01*
X176078205Y-64931921D01*
X176073081Y-64940962D01*
X176034817Y-65008738D01*
X175536139Y-65008738D01*
X175537593Y-65005214D01*
X175559661Y-64962010D01*
X175594444Y-64897273D01*
X175640311Y-64813953D01*
X175695628Y-64714999D01*
X175758763Y-64603362D01*
X175828083Y-64481993D01*
X175872919Y-64404074D01*
X175959007Y-64254890D01*
X176051884Y-64093959D01*
X176147742Y-63927876D01*
X176242776Y-63763236D01*
X176333179Y-63606633D01*
X176415145Y-63464663D01*
X176481823Y-63349187D01*
X176553062Y-63225821D01*
X176636259Y-63081738D01*
X176727500Y-62923716D01*
X176822870Y-62758537D01*
X176918455Y-62592979D01*
X177010341Y-62433823D01*
X177083341Y-62307372D01*
X177419000Y-61725931D01*
X177418590Y-60243622D01*
X177418180Y-58761312D01*
X177355781Y-58732553D01*
X177290983Y-58687866D01*
X177249683Y-58628549D01*
X177231225Y-58560581D01*
X177234955Y-58489941D01*
X177260218Y-58422606D01*
X177306358Y-58364557D01*
X177372721Y-58321771D01*
X177401954Y-58311101D01*
X177428501Y-58307910D01*
X177484048Y-58305009D01*
X177565847Y-58302396D01*
X177671151Y-58300071D01*
X177797211Y-58298035D01*
X177941279Y-58296288D01*
X178100606Y-58294830D01*
X178272446Y-58293660D01*
X178454049Y-58292780D01*
X178642667Y-58292187D01*
X178835552Y-58291883D01*
X179029957Y-58291868D01*
X179223132Y-58292141D01*
D15*
X191135000Y-37846000D02*
X194437000Y-37846000D01*
X191135000Y-39624000D02*
X191135000Y-37846000D01*
X194437000Y-39624000D02*
X191135000Y-39624000D01*
X194437000Y-37846000D02*
X194437000Y-39624000D01*
X197866000Y-50038000D02*
X197358000Y-50038000D01*
X199136000Y-50038000D02*
X199644000Y-50038000D01*
X197866000Y-50038000D02*
X197866000Y-48768000D01*
X197866000Y-51308000D02*
X197866000Y-50038000D01*
X199136000Y-50038000D02*
X199136000Y-48768000D01*
X199136000Y-51308000D02*
X199136000Y-50038000D01*
X198247000Y-51054000D02*
X198755000Y-51054000D01*
X198247000Y-49022000D02*
X198247000Y-51054000D01*
X198755000Y-49022000D02*
X198247000Y-49022000D01*
X198755000Y-51054000D02*
X198755000Y-49022000D01*
X196001640Y-51635660D02*
X201000360Y-51635660D01*
X196001640Y-51236880D02*
X196001640Y-51635660D01*
X196001640Y-48440340D02*
X196001640Y-48839120D01*
X201000360Y-48440340D02*
X196001640Y-48440340D01*
X201000360Y-48839120D02*
X201000360Y-48440340D01*
X201000360Y-51635660D02*
X201000360Y-51236880D01*
D17*
X201041000Y-51689000D02*
X195961000Y-51689000D01*
X201041000Y-48387000D02*
X195961000Y-48387000D01*
D15*
X193929000Y-52197000D02*
X193929000Y-49403000D01*
X193929000Y-49403000D02*
X195199000Y-49403000D01*
X195199000Y-49403000D02*
X195199000Y-52197000D01*
X195199000Y-52197000D02*
X193929000Y-52197000D01*
X191770000Y-49022000D02*
X191770000Y-47244000D01*
X191770000Y-47244000D02*
X195072000Y-47244000D01*
X195072000Y-47244000D02*
X195072000Y-49022000D01*
X195072000Y-49022000D02*
X191770000Y-49022000D01*
X203073000Y-52197000D02*
X201803000Y-52197000D01*
X203073000Y-49403000D02*
X203073000Y-52197000D01*
X201803000Y-49403000D02*
X203073000Y-49403000D01*
X201803000Y-52197000D02*
X201803000Y-49403000D01*
X186436000Y-33528000D02*
X186436000Y-36322000D01*
X186436000Y-36322000D02*
X185166000Y-36322000D01*
X185166000Y-36322000D02*
X185166000Y-33528000D01*
X185166000Y-33528000D02*
X186436000Y-33528000D01*
X183642000Y-35941000D02*
X183642000Y-33147000D01*
X183642000Y-33147000D02*
X184912000Y-33147000D01*
X184912000Y-33147000D02*
X184912000Y-35941000D01*
X184912000Y-35941000D02*
X183642000Y-35941000D01*
X175768000Y-33147000D02*
X177038000Y-33147000D01*
X175768000Y-35941000D02*
X175768000Y-33147000D01*
X177038000Y-35941000D02*
X175768000Y-35941000D01*
X177038000Y-33147000D02*
X177038000Y-35941000D01*
X192341500Y-45148500D02*
X192341500Y-46926500D01*
X192341500Y-46926500D02*
X189039500Y-46926500D01*
X189039500Y-46926500D02*
X189039500Y-45148500D01*
X189039500Y-45148500D02*
X192341500Y-45148500D01*
X189230000Y-33528000D02*
X190500000Y-33528000D01*
X189230000Y-36322000D02*
X189230000Y-33528000D01*
X190500000Y-36322000D02*
X189230000Y-36322000D01*
X190500000Y-33528000D02*
X190500000Y-36322000D01*
D11*
X162731750Y-49128750D02*
X163519250Y-49128750D01*
X163125500Y-49522500D02*
X163125500Y-48735000D01*
X167318563Y-48495000D02*
X168383000Y-47430563D01*
X162627437Y-48495000D02*
X161563000Y-47430563D01*
X162627437Y-48495000D02*
X163913000Y-48495000D01*
X167318563Y-48495000D02*
X166033000Y-48495000D01*
X168383000Y-47430563D02*
X168383000Y-41675000D01*
X161563000Y-47430563D02*
X161563000Y-41675000D01*
X161563000Y-41675000D02*
X163913000Y-41675000D01*
X168383000Y-41675000D02*
X166033000Y-41675000D01*
X168383000Y-63265000D02*
X166033000Y-63265000D01*
X161563000Y-63265000D02*
X163913000Y-63265000D01*
X161563000Y-69020563D02*
X161563000Y-63265000D01*
X168383000Y-69020563D02*
X168383000Y-63265000D01*
X167318563Y-70085000D02*
X166033000Y-70085000D01*
X162627437Y-70085000D02*
X163913000Y-70085000D01*
X162627437Y-70085000D02*
X161563000Y-69020563D01*
X167318563Y-70085000D02*
X168383000Y-69020563D01*
X163125500Y-71112500D02*
X163125500Y-70325000D01*
X162731750Y-70718750D02*
X163519250Y-70718750D01*
D15*
X182880000Y-74041000D02*
X175260000Y-74041000D01*
X182880000Y-71501000D02*
X182880000Y-74041000D01*
X175260000Y-71501000D02*
X182880000Y-71501000D01*
X175260000Y-74041000D02*
X175260000Y-71501000D01*
X168148000Y-36195000D02*
X168148000Y-38735000D01*
X168148000Y-38735000D02*
X160528000Y-38735000D01*
X160528000Y-38735000D02*
X160528000Y-36195000D01*
X160528000Y-36195000D02*
X168148000Y-36195000D01*
X168148000Y-33020000D02*
X168148000Y-35560000D01*
X168148000Y-35560000D02*
X160528000Y-35560000D01*
X160528000Y-35560000D02*
X160528000Y-33020000D01*
X160528000Y-33020000D02*
X168148000Y-33020000D01*
X160528000Y-29845000D02*
X168148000Y-29845000D01*
X160528000Y-32385000D02*
X160528000Y-29845000D01*
X168148000Y-32385000D02*
X160528000Y-32385000D01*
X168148000Y-29845000D02*
X168148000Y-32385000D01*
X172593000Y-29845000D02*
X172593000Y-50165000D01*
X170053000Y-29845000D02*
X172593000Y-29845000D01*
X170053000Y-50165000D02*
X170053000Y-29845000D01*
X172593000Y-50165000D02*
X170053000Y-50165000D01*
X159893000Y-29845000D02*
X159893000Y-50165000D01*
X157353000Y-29845000D02*
X159893000Y-29845000D01*
X157353000Y-50165000D02*
X157353000Y-29845000D01*
X159893000Y-50165000D02*
X157353000Y-50165000D01*
X160528000Y-57785000D02*
X168148000Y-57785000D01*
X160528000Y-60325000D02*
X160528000Y-57785000D01*
X168148000Y-60325000D02*
X160528000Y-60325000D01*
X168148000Y-57785000D02*
X168148000Y-60325000D01*
X160528000Y-54610000D02*
X168148000Y-54610000D01*
X160528000Y-57150000D02*
X160528000Y-54610000D01*
X168148000Y-57150000D02*
X160528000Y-57150000D01*
X168148000Y-54610000D02*
X168148000Y-57150000D01*
X168148000Y-51435000D02*
X168148000Y-53975000D01*
X168148000Y-53975000D02*
X160528000Y-53975000D01*
X160528000Y-53975000D02*
X160528000Y-51435000D01*
X160528000Y-51435000D02*
X168148000Y-51435000D01*
X172593000Y-71755000D02*
X170053000Y-71755000D01*
X170053000Y-71755000D02*
X170053000Y-51435000D01*
X170053000Y-51435000D02*
X172593000Y-51435000D01*
X172593000Y-51435000D02*
X172593000Y-71755000D01*
X159893000Y-71755000D02*
X157353000Y-71755000D01*
X157353000Y-71755000D02*
X157353000Y-51435000D01*
X157353000Y-51435000D02*
X159893000Y-51435000D01*
X159893000Y-51435000D02*
X159893000Y-71755000D01*
D17*
X207073500Y-34290000D02*
X207073500Y-36830000D01*
X207073500Y-36830000D02*
X208216500Y-36830000D01*
X208216500Y-34290000D02*
X208216500Y-36830000D01*
X207073500Y-34290000D02*
X208216500Y-34290000D01*
D15*
X208280000Y-34226500D02*
X208280000Y-36893500D01*
X208280000Y-36893500D02*
X207010000Y-36893500D01*
X207010000Y-36893500D02*
X207010000Y-34226500D01*
X207010000Y-34226500D02*
X208280000Y-34226500D01*
X208026000Y-35433000D02*
X207264000Y-35433000D01*
X207264000Y-35433000D02*
X207454500Y-35560000D01*
X207454500Y-35560000D02*
X207645000Y-35687000D01*
X207645000Y-35687000D02*
X207835500Y-35560000D01*
X207835500Y-35560000D02*
X208026000Y-35433000D01*
X207899000Y-35496500D02*
X207391000Y-35496500D01*
X207835500Y-35560000D02*
X207454500Y-35560000D01*
X205295500Y-35560000D02*
X204914500Y-35560000D01*
X205359000Y-35496500D02*
X204851000Y-35496500D01*
X205295500Y-35560000D02*
X205486000Y-35433000D01*
X205105000Y-35687000D02*
X205295500Y-35560000D01*
X204914500Y-35560000D02*
X205105000Y-35687000D01*
X204724000Y-35433000D02*
X204914500Y-35560000D01*
X205486000Y-35433000D02*
X204724000Y-35433000D01*
X204470000Y-34226500D02*
X205740000Y-34226500D01*
X204470000Y-36893500D02*
X204470000Y-34226500D01*
X205740000Y-36893500D02*
X204470000Y-36893500D01*
X205740000Y-34226500D02*
X205740000Y-36893500D01*
D17*
X204533500Y-34290000D02*
X205676500Y-34290000D01*
X205676500Y-34290000D02*
X205676500Y-36830000D01*
X204533500Y-36830000D02*
X205676500Y-36830000D01*
X204533500Y-34290000D02*
X204533500Y-36830000D01*
D18*
X213050000Y-64290000D02*
X214050000Y-64290000D01*
X213050000Y-55090000D02*
X214050000Y-55090000D01*
X220350000Y-64290000D02*
X219850000Y-64290000D01*
X220350000Y-64290000D02*
X220350000Y-63790000D01*
X220350000Y-55090000D02*
X220350000Y-55590000D01*
X220350000Y-55090000D02*
X219850000Y-55090000D01*
X211350000Y-58490000D02*
X211350000Y-60890000D01*
X205750000Y-55090000D02*
X206250000Y-55090000D01*
X205750000Y-55090000D02*
X205750000Y-55590000D01*
X205750000Y-64290000D02*
X206250000Y-64290000D01*
X205750000Y-64290000D02*
X205750000Y-63790000D01*
D11*
X176635000Y-82775000D02*
X177135000Y-82775000D01*
X176635000Y-82035000D02*
X176635000Y-82775000D01*
X187615000Y-76215000D02*
X187615000Y-82535000D01*
X176875000Y-76215000D02*
X176875000Y-82535000D01*
X176875000Y-82535000D02*
X187615000Y-82535000D01*
X176875000Y-76215000D02*
X187615000Y-76215000D01*
X176875000Y-76675000D02*
X187615000Y-76675000D01*
X176875000Y-81975000D02*
X187615000Y-81975000D01*
X188940000Y-81975000D02*
X199680000Y-81975000D01*
X188940000Y-76675000D02*
X199680000Y-76675000D01*
X188940000Y-76215000D02*
X199680000Y-76215000D01*
X188940000Y-82535000D02*
X199680000Y-82535000D01*
X188940000Y-76215000D02*
X188940000Y-82535000D01*
X199680000Y-76215000D02*
X199680000Y-82535000D01*
X188700000Y-82035000D02*
X188700000Y-82775000D01*
X188700000Y-82775000D02*
X189200000Y-82775000D01*
D10*
X191643000Y-61976000D02*
X191643000Y-67056000D01*
X189103000Y-61976000D02*
X191643000Y-61976000D01*
X189103000Y-67056000D02*
X189103000Y-61976000D01*
X191643000Y-67056000D02*
X189103000Y-67056000D01*
X186563000Y-67056000D02*
X184023000Y-67056000D01*
X184023000Y-67056000D02*
X184023000Y-61976000D01*
X184023000Y-61976000D02*
X186563000Y-61976000D01*
X186563000Y-61976000D02*
X186563000Y-67056000D01*
D11*
X200765000Y-82775000D02*
X201265000Y-82775000D01*
X200765000Y-82035000D02*
X200765000Y-82775000D01*
X211745000Y-76215000D02*
X211745000Y-82535000D01*
X201005000Y-76215000D02*
X201005000Y-82535000D01*
X201005000Y-82535000D02*
X211745000Y-82535000D01*
X201005000Y-76215000D02*
X211745000Y-76215000D01*
X201005000Y-76675000D02*
X211745000Y-76675000D01*
X201005000Y-81975000D02*
X211745000Y-81975000D01*
X152745000Y-81975000D02*
X163485000Y-81975000D01*
X152745000Y-76675000D02*
X163485000Y-76675000D01*
X152745000Y-76215000D02*
X163485000Y-76215000D01*
X152745000Y-82535000D02*
X163485000Y-82535000D01*
X152745000Y-76215000D02*
X152745000Y-82535000D01*
X163485000Y-76215000D02*
X163485000Y-82535000D01*
X152505000Y-82035000D02*
X152505000Y-82775000D01*
X152505000Y-82775000D02*
X153005000Y-82775000D01*
X164570000Y-82775000D02*
X165070000Y-82775000D01*
X164570000Y-82035000D02*
X164570000Y-82775000D01*
X175550000Y-76215000D02*
X175550000Y-82535000D01*
X164810000Y-76215000D02*
X164810000Y-82535000D01*
X164810000Y-82535000D02*
X175550000Y-82535000D01*
X164810000Y-76215000D02*
X175550000Y-76215000D01*
X164810000Y-76675000D02*
X175550000Y-76675000D01*
X164810000Y-81975000D02*
X175550000Y-81975000D01*
X176851000Y-56829000D02*
X182051000Y-56829000D01*
X176851000Y-51689000D02*
X176851000Y-56829000D01*
X182051000Y-49089000D02*
X182051000Y-56829000D01*
X176851000Y-51689000D02*
X179451000Y-51689000D01*
X179451000Y-51689000D02*
X179451000Y-49089000D01*
X179451000Y-49089000D02*
X182051000Y-49089000D01*
X176851000Y-50419000D02*
X176851000Y-49089000D01*
X176851000Y-49089000D02*
X178181000Y-49089000D01*
X147641000Y-34635000D02*
X147641000Y-45375000D01*
X152941000Y-34635000D02*
X152941000Y-45375000D01*
X153401000Y-34635000D02*
X153401000Y-45375000D01*
X147081000Y-34635000D02*
X147081000Y-45375000D01*
X153401000Y-34635000D02*
X147081000Y-34635000D01*
X153401000Y-45375000D02*
X147081000Y-45375000D01*
X147581000Y-34395000D02*
X146841000Y-34395000D01*
X146841000Y-34395000D02*
X146841000Y-34895000D01*
D15*
X154178000Y-45085000D02*
X154178000Y-34925000D01*
X156718000Y-45085000D02*
X154178000Y-45085000D01*
X156718000Y-34925000D02*
X156718000Y-45085000D01*
X154178000Y-34925000D02*
X156718000Y-34925000D01*
D11*
X147641000Y-56225000D02*
X147641000Y-66965000D01*
X152941000Y-56225000D02*
X152941000Y-66965000D01*
X153401000Y-56225000D02*
X153401000Y-66965000D01*
X147081000Y-56225000D02*
X147081000Y-66965000D01*
X153401000Y-56225000D02*
X147081000Y-56225000D01*
X153401000Y-66965000D02*
X147081000Y-66965000D01*
X147581000Y-55985000D02*
X146841000Y-55985000D01*
X146841000Y-55985000D02*
X146841000Y-56485000D01*
D15*
X154178000Y-56515000D02*
X156718000Y-56515000D01*
X156718000Y-56515000D02*
X156718000Y-66675000D01*
X156718000Y-66675000D02*
X154178000Y-66675000D01*
X154178000Y-66675000D02*
X154178000Y-56515000D01*
X199390000Y-30861000D02*
X199390000Y-36957000D01*
X193294000Y-30861000D02*
X199390000Y-30861000D01*
X193294000Y-36957000D02*
X193294000Y-30861000D01*
X199390000Y-36957000D02*
X193294000Y-36957000D01*
D17*
X199390000Y-30861000D02*
X193294000Y-30861000D01*
D15*
X183007000Y-55626000D02*
X183007000Y-52832000D01*
X183007000Y-52832000D02*
X184277000Y-52832000D01*
X184277000Y-52832000D02*
X184277000Y-55626000D01*
X184277000Y-55626000D02*
X183007000Y-55626000D01*
X191135000Y-41656000D02*
X191135000Y-40386000D01*
X193929000Y-41656000D02*
X191135000Y-41656000D01*
X193929000Y-40386000D02*
X193929000Y-41656000D01*
X191135000Y-40386000D02*
X193929000Y-40386000D01*
D11*
X202078000Y-57958000D02*
X202078000Y-56458000D01*
X202078000Y-56458000D02*
X201808000Y-56458000D01*
X201808000Y-56458000D02*
X201808000Y-53628000D01*
X195178000Y-57958000D02*
X195178000Y-56458000D01*
X195178000Y-56458000D02*
X195448000Y-56458000D01*
X195448000Y-56458000D02*
X195448000Y-55358000D01*
D15*
X194595722Y-45455000D02*
G75*
G03X194595722Y-45455000I-224722J0D01*
G01*
D17*
X202311000Y-45143420D02*
X202311000Y-39946580D01*
X194691000Y-39946580D02*
X202311000Y-39946580D01*
D19*
X202300840Y-45143420D02*
X202300840Y-39946580D01*
X202300840Y-39946580D02*
X194701160Y-39946580D01*
D15*
X194678300Y-39971980D02*
X194701160Y-39971980D01*
D19*
X194701160Y-39971980D02*
X194701160Y-44508420D01*
X194701160Y-44508420D02*
X195336160Y-45143420D01*
X195336160Y-45143420D02*
X202300840Y-45143420D01*
D15*
X186775036Y-38705000D02*
G75*
G03X186775036Y-38705000I-222036J0D01*
G01*
D17*
X179250340Y-39042340D02*
X179250340Y-46047660D01*
X179250340Y-46047660D02*
X186255660Y-46047660D01*
D20*
X186255660Y-46047660D02*
X179250340Y-46047660D01*
X179250340Y-46047660D02*
X179250340Y-39042340D01*
X179250340Y-39042340D02*
X185902600Y-39042340D01*
X186255660Y-39395400D02*
X186255660Y-46047660D01*
X186255660Y-39395400D02*
X185902600Y-39042340D01*
D17*
X182880000Y-33782000D02*
X177800000Y-33782000D01*
X182880000Y-37084000D02*
X177800000Y-37084000D01*
D15*
X182839360Y-37030660D02*
X182839360Y-36631880D01*
X182839360Y-34234120D02*
X182839360Y-33835340D01*
X182839360Y-33835340D02*
X177840640Y-33835340D01*
X177840640Y-33835340D02*
X177840640Y-34234120D01*
X177840640Y-36631880D02*
X177840640Y-37030660D01*
X177840640Y-37030660D02*
X182839360Y-37030660D01*
X180594000Y-36449000D02*
X180594000Y-34417000D01*
X180594000Y-34417000D02*
X180086000Y-34417000D01*
X180086000Y-34417000D02*
X180086000Y-36449000D01*
X180086000Y-36449000D02*
X180594000Y-36449000D01*
X180975000Y-36703000D02*
X180975000Y-35433000D01*
X180975000Y-35433000D02*
X180975000Y-34163000D01*
X179705000Y-36703000D02*
X179705000Y-35433000D01*
X179705000Y-35433000D02*
X179705000Y-34163000D01*
X180975000Y-35433000D02*
X181483000Y-35433000D01*
X179705000Y-35433000D02*
X179197000Y-35433000D01*
X220356000Y-38965000D02*
X212096000Y-38965000D01*
X220356000Y-51165000D02*
X220356000Y-38965000D01*
X212096000Y-51165000D02*
X220356000Y-51165000D01*
X203856000Y-38965000D02*
X208226000Y-38965000D01*
X203856000Y-51165000D02*
X203856000Y-38965000D01*
X208226000Y-51165000D02*
X203856000Y-51165000D01*
X210375500Y-35560000D02*
X209994500Y-35560000D01*
X210439000Y-35496500D02*
X209931000Y-35496500D01*
X210375500Y-35560000D02*
X210566000Y-35433000D01*
X210185000Y-35687000D02*
X210375500Y-35560000D01*
X209994500Y-35560000D02*
X210185000Y-35687000D01*
X209804000Y-35433000D02*
X209994500Y-35560000D01*
X210566000Y-35433000D02*
X209804000Y-35433000D01*
X209550000Y-34226500D02*
X210820000Y-34226500D01*
X209550000Y-36893500D02*
X209550000Y-34226500D01*
X210820000Y-36893500D02*
X209550000Y-36893500D01*
X210820000Y-34226500D02*
X210820000Y-36893500D01*
D17*
X209613500Y-34290000D02*
X210756500Y-34290000D01*
X210756500Y-34290000D02*
X210756500Y-36830000D01*
X209613500Y-36830000D02*
X210756500Y-36830000D01*
X209613500Y-34290000D02*
X209613500Y-36830000D01*
D15*
X209550000Y-33782000D02*
X209550000Y-30988000D01*
X209550000Y-30988000D02*
X210820000Y-30988000D01*
X210820000Y-30988000D02*
X210820000Y-33782000D01*
X210820000Y-33782000D02*
X209550000Y-33782000D01*
X211673000Y-64850000D02*
X219873000Y-64850000D01*
X219873000Y-64850000D02*
X219873000Y-75450000D01*
X219873000Y-74850000D02*
X211673000Y-74850000D01*
X211673000Y-75450000D02*
X211673000Y-64850000D01*
X219873000Y-75450000D02*
X211673000Y-75450000D01*
X202234800Y-53416200D02*
X204673200Y-53416200D01*
X202234800Y-58343800D02*
X202234800Y-53416200D01*
X204673200Y-58343800D02*
X202234800Y-58343800D01*
X204673200Y-53416200D02*
X204673200Y-58343800D01*
X195021200Y-53416200D02*
X195021200Y-58343800D01*
X195021200Y-58343800D02*
X192582800Y-58343800D01*
X192582800Y-58343800D02*
X192582800Y-53416200D01*
X192582800Y-53416200D02*
X195021200Y-53416200D01*
X186613800Y-36245800D02*
X186613800Y-31318200D01*
X186613800Y-31318200D02*
X189052200Y-31318200D01*
X189052200Y-31318200D02*
X189052200Y-36245800D01*
X189052200Y-36245800D02*
X186613800Y-36245800D01*
X207010000Y-33782000D02*
X207010000Y-30988000D01*
X207010000Y-30988000D02*
X208280000Y-30988000D01*
X208280000Y-30988000D02*
X208280000Y-33782000D01*
X208280000Y-33782000D02*
X207010000Y-33782000D01*
X204470000Y-30988000D02*
X205740000Y-30988000D01*
X204470000Y-33782000D02*
X204470000Y-30988000D01*
X205740000Y-33782000D02*
X204470000Y-33782000D01*
X205740000Y-30988000D02*
X205740000Y-33782000D01*
X184023000Y-71501000D02*
X191643000Y-71501000D01*
X184023000Y-74041000D02*
X184023000Y-71501000D01*
X191643000Y-74041000D02*
X184023000Y-74041000D01*
X191643000Y-71501000D02*
X191643000Y-74041000D01*
X190808428Y-38553571D02*
X190832619Y-38577761D01*
X190856809Y-38650333D01*
X190856809Y-38698714D01*
X190832619Y-38771285D01*
X190784238Y-38819666D01*
X190735857Y-38843857D01*
X190639095Y-38868047D01*
X190566523Y-38868047D01*
X190469761Y-38843857D01*
X190421380Y-38819666D01*
X190373000Y-38771285D01*
X190348809Y-38698714D01*
X190348809Y-38650333D01*
X190373000Y-38577761D01*
X190397190Y-38553571D01*
X190856809Y-38069761D02*
X190856809Y-38360047D01*
X190856809Y-38214904D02*
X190348809Y-38214904D01*
X190421380Y-38263285D01*
X190469761Y-38311666D01*
X190493952Y-38360047D01*
X190397190Y-37876238D02*
X190373000Y-37852047D01*
X190348809Y-37803666D01*
X190348809Y-37682714D01*
X190373000Y-37634333D01*
X190397190Y-37610142D01*
X190445571Y-37585952D01*
X190493952Y-37585952D01*
X190566523Y-37610142D01*
X190856809Y-37900428D01*
X190856809Y-37585952D01*
X198259095Y-52184904D02*
X198259095Y-52426809D01*
X198089761Y-51918809D02*
X198259095Y-52184904D01*
X198428428Y-51918809D01*
X198863857Y-52426809D02*
X198573571Y-52426809D01*
X198718714Y-52426809D02*
X198718714Y-51918809D01*
X198670333Y-51991380D01*
X198621952Y-52039761D01*
X198573571Y-52063952D01*
X195749333Y-52505428D02*
X195725142Y-52529619D01*
X195652571Y-52553809D01*
X195604190Y-52553809D01*
X195531619Y-52529619D01*
X195483238Y-52481238D01*
X195459047Y-52432857D01*
X195434857Y-52336095D01*
X195434857Y-52263523D01*
X195459047Y-52166761D01*
X195483238Y-52118380D01*
X195531619Y-52070000D01*
X195604190Y-52045809D01*
X195652571Y-52045809D01*
X195725142Y-52070000D01*
X195749333Y-52094190D01*
X195918666Y-52045809D02*
X196233142Y-52045809D01*
X196063809Y-52239333D01*
X196136380Y-52239333D01*
X196184761Y-52263523D01*
X196208952Y-52287714D01*
X196233142Y-52336095D01*
X196233142Y-52457047D01*
X196208952Y-52505428D01*
X196184761Y-52529619D01*
X196136380Y-52553809D01*
X195991238Y-52553809D01*
X195942857Y-52529619D01*
X195918666Y-52505428D01*
X191443428Y-48217666D02*
X191467619Y-48241857D01*
X191491809Y-48314428D01*
X191491809Y-48362809D01*
X191467619Y-48435380D01*
X191419238Y-48483761D01*
X191370857Y-48507952D01*
X191274095Y-48532142D01*
X191201523Y-48532142D01*
X191104761Y-48507952D01*
X191056380Y-48483761D01*
X191008000Y-48435380D01*
X190983809Y-48362809D01*
X190983809Y-48314428D01*
X191008000Y-48241857D01*
X191032190Y-48217666D01*
X191153142Y-47782238D02*
X191491809Y-47782238D01*
X190959619Y-47903190D02*
X191322476Y-48024142D01*
X191322476Y-47709666D01*
X201083333Y-52505428D02*
X201059142Y-52529619D01*
X200986571Y-52553809D01*
X200938190Y-52553809D01*
X200865619Y-52529619D01*
X200817238Y-52481238D01*
X200793047Y-52432857D01*
X200768857Y-52336095D01*
X200768857Y-52263523D01*
X200793047Y-52166761D01*
X200817238Y-52118380D01*
X200865619Y-52070000D01*
X200938190Y-52045809D01*
X200986571Y-52045809D01*
X201059142Y-52070000D01*
X201083333Y-52094190D01*
X201542952Y-52045809D02*
X201301047Y-52045809D01*
X201276857Y-52287714D01*
X201301047Y-52263523D01*
X201349428Y-52239333D01*
X201470380Y-52239333D01*
X201518761Y-52263523D01*
X201542952Y-52287714D01*
X201567142Y-52336095D01*
X201567142Y-52457047D01*
X201542952Y-52505428D01*
X201518761Y-52529619D01*
X201470380Y-52553809D01*
X201349428Y-52553809D01*
X201301047Y-52529619D01*
X201276857Y-52505428D01*
X185716333Y-33074428D02*
X185692142Y-33098619D01*
X185619571Y-33122809D01*
X185571190Y-33122809D01*
X185498619Y-33098619D01*
X185450238Y-33050238D01*
X185426047Y-33001857D01*
X185401857Y-32905095D01*
X185401857Y-32832523D01*
X185426047Y-32735761D01*
X185450238Y-32687380D01*
X185498619Y-32639000D01*
X185571190Y-32614809D01*
X185619571Y-32614809D01*
X185692142Y-32639000D01*
X185716333Y-32663190D01*
X186151761Y-32614809D02*
X186055000Y-32614809D01*
X186006619Y-32639000D01*
X185982428Y-32663190D01*
X185934047Y-32735761D01*
X185909857Y-32832523D01*
X185909857Y-33026047D01*
X185934047Y-33074428D01*
X185958238Y-33098619D01*
X186006619Y-33122809D01*
X186103380Y-33122809D01*
X186151761Y-33098619D01*
X186175952Y-33074428D01*
X186200142Y-33026047D01*
X186200142Y-32905095D01*
X186175952Y-32856714D01*
X186151761Y-32832523D01*
X186103380Y-32808333D01*
X186006619Y-32808333D01*
X185958238Y-32832523D01*
X185934047Y-32856714D01*
X185909857Y-32905095D01*
X184192333Y-36630428D02*
X184168142Y-36654619D01*
X184095571Y-36678809D01*
X184047190Y-36678809D01*
X183974619Y-36654619D01*
X183926238Y-36606238D01*
X183902047Y-36557857D01*
X183877857Y-36461095D01*
X183877857Y-36388523D01*
X183902047Y-36291761D01*
X183926238Y-36243380D01*
X183974619Y-36195000D01*
X184047190Y-36170809D01*
X184095571Y-36170809D01*
X184168142Y-36195000D01*
X184192333Y-36219190D01*
X184361666Y-36170809D02*
X184700333Y-36170809D01*
X184482619Y-36678809D01*
X176318333Y-36630428D02*
X176294142Y-36654619D01*
X176221571Y-36678809D01*
X176173190Y-36678809D01*
X176100619Y-36654619D01*
X176052238Y-36606238D01*
X176028047Y-36557857D01*
X176003857Y-36461095D01*
X176003857Y-36388523D01*
X176028047Y-36291761D01*
X176052238Y-36243380D01*
X176100619Y-36195000D01*
X176173190Y-36170809D01*
X176221571Y-36170809D01*
X176294142Y-36195000D01*
X176318333Y-36219190D01*
X176608619Y-36388523D02*
X176560238Y-36364333D01*
X176536047Y-36340142D01*
X176511857Y-36291761D01*
X176511857Y-36267571D01*
X176536047Y-36219190D01*
X176560238Y-36195000D01*
X176608619Y-36170809D01*
X176705380Y-36170809D01*
X176753761Y-36195000D01*
X176777952Y-36219190D01*
X176802142Y-36267571D01*
X176802142Y-36291761D01*
X176777952Y-36340142D01*
X176753761Y-36364333D01*
X176705380Y-36388523D01*
X176608619Y-36388523D01*
X176560238Y-36412714D01*
X176536047Y-36436904D01*
X176511857Y-36485285D01*
X176511857Y-36582047D01*
X176536047Y-36630428D01*
X176560238Y-36654619D01*
X176608619Y-36678809D01*
X176705380Y-36678809D01*
X176753761Y-36654619D01*
X176777952Y-36630428D01*
X176802142Y-36582047D01*
X176802142Y-36485285D01*
X176777952Y-36436904D01*
X176753761Y-36412714D01*
X176705380Y-36388523D01*
X193030928Y-46364071D02*
X193055119Y-46388261D01*
X193079309Y-46460833D01*
X193079309Y-46509214D01*
X193055119Y-46581785D01*
X193006738Y-46630166D01*
X192958357Y-46654357D01*
X192861595Y-46678547D01*
X192789023Y-46678547D01*
X192692261Y-46654357D01*
X192643880Y-46630166D01*
X192595500Y-46581785D01*
X192571309Y-46509214D01*
X192571309Y-46460833D01*
X192595500Y-46388261D01*
X192619690Y-46364071D01*
X193079309Y-45880261D02*
X193079309Y-46170547D01*
X193079309Y-46025404D02*
X192571309Y-46025404D01*
X192643880Y-46073785D01*
X192692261Y-46122166D01*
X192716452Y-46170547D01*
X192571309Y-45565785D02*
X192571309Y-45517404D01*
X192595500Y-45469023D01*
X192619690Y-45444833D01*
X192668071Y-45420642D01*
X192764833Y-45396452D01*
X192885785Y-45396452D01*
X192982547Y-45420642D01*
X193030928Y-45444833D01*
X193055119Y-45469023D01*
X193079309Y-45517404D01*
X193079309Y-45565785D01*
X193055119Y-45614166D01*
X193030928Y-45638357D01*
X192982547Y-45662547D01*
X192885785Y-45686738D01*
X192764833Y-45686738D01*
X192668071Y-45662547D01*
X192619690Y-45638357D01*
X192595500Y-45614166D01*
X192571309Y-45565785D01*
X189538428Y-33201428D02*
X189514238Y-33225619D01*
X189441666Y-33249809D01*
X189393285Y-33249809D01*
X189320714Y-33225619D01*
X189272333Y-33177238D01*
X189248142Y-33128857D01*
X189223952Y-33032095D01*
X189223952Y-32959523D01*
X189248142Y-32862761D01*
X189272333Y-32814380D01*
X189320714Y-32766000D01*
X189393285Y-32741809D01*
X189441666Y-32741809D01*
X189514238Y-32766000D01*
X189538428Y-32790190D01*
X190022238Y-33249809D02*
X189731952Y-33249809D01*
X189877095Y-33249809D02*
X189877095Y-32741809D01*
X189828714Y-32814380D01*
X189780333Y-32862761D01*
X189731952Y-32886952D01*
X190506047Y-33249809D02*
X190215761Y-33249809D01*
X190360904Y-33249809D02*
X190360904Y-32741809D01*
X190312523Y-32814380D01*
X190264142Y-32862761D01*
X190215761Y-32886952D01*
D10*
X162790142Y-45727857D02*
X162837761Y-45775476D01*
X162885380Y-45918333D01*
X162885380Y-46013571D01*
X162837761Y-46156428D01*
X162742523Y-46251666D01*
X162647285Y-46299285D01*
X162456809Y-46346904D01*
X162313952Y-46346904D01*
X162123476Y-46299285D01*
X162028238Y-46251666D01*
X161933000Y-46156428D01*
X161885380Y-46013571D01*
X161885380Y-45918333D01*
X161933000Y-45775476D01*
X161980619Y-45727857D01*
X162885380Y-44775476D02*
X162885380Y-45346904D01*
X162885380Y-45061190D02*
X161885380Y-45061190D01*
X162028238Y-45156428D01*
X162123476Y-45251666D01*
X162171095Y-45346904D01*
X161885380Y-44442142D02*
X161885380Y-43823095D01*
X162266333Y-44156428D01*
X162266333Y-44013571D01*
X162313952Y-43918333D01*
X162361571Y-43870714D01*
X162456809Y-43823095D01*
X162694904Y-43823095D01*
X162790142Y-43870714D01*
X162837761Y-43918333D01*
X162885380Y-44013571D01*
X162885380Y-44299285D01*
X162837761Y-44394523D01*
X162790142Y-44442142D01*
X162790142Y-67317857D02*
X162837761Y-67365476D01*
X162885380Y-67508333D01*
X162885380Y-67603571D01*
X162837761Y-67746428D01*
X162742523Y-67841666D01*
X162647285Y-67889285D01*
X162456809Y-67936904D01*
X162313952Y-67936904D01*
X162123476Y-67889285D01*
X162028238Y-67841666D01*
X161933000Y-67746428D01*
X161885380Y-67603571D01*
X161885380Y-67508333D01*
X161933000Y-67365476D01*
X161980619Y-67317857D01*
X162885380Y-66365476D02*
X162885380Y-66936904D01*
X162885380Y-66651190D02*
X161885380Y-66651190D01*
X162028238Y-66746428D01*
X162123476Y-66841666D01*
X162171095Y-66936904D01*
X162218714Y-65508333D02*
X162885380Y-65508333D01*
X161837761Y-65746428D02*
X162552047Y-65984523D01*
X162552047Y-65365476D01*
D15*
X209017809Y-36823952D02*
X208509809Y-36823952D01*
X208509809Y-36703000D01*
X208534000Y-36630428D01*
X208582380Y-36582047D01*
X208630761Y-36557857D01*
X208727523Y-36533666D01*
X208800095Y-36533666D01*
X208896857Y-36557857D01*
X208945238Y-36582047D01*
X208993619Y-36630428D01*
X209017809Y-36703000D01*
X209017809Y-36823952D01*
X209017809Y-36049857D02*
X209017809Y-36340142D01*
X209017809Y-36195000D02*
X208509809Y-36195000D01*
X208582380Y-36243380D01*
X208630761Y-36291761D01*
X208654952Y-36340142D01*
X206477809Y-36823952D02*
X205969809Y-36823952D01*
X205969809Y-36703000D01*
X205994000Y-36630428D01*
X206042380Y-36582047D01*
X206090761Y-36557857D01*
X206187523Y-36533666D01*
X206260095Y-36533666D01*
X206356857Y-36557857D01*
X206405238Y-36582047D01*
X206453619Y-36630428D01*
X206477809Y-36703000D01*
X206477809Y-36823952D01*
X206018190Y-36340142D02*
X205994000Y-36315952D01*
X205969809Y-36267571D01*
X205969809Y-36146619D01*
X205994000Y-36098238D01*
X206018190Y-36074047D01*
X206066571Y-36049857D01*
X206114952Y-36049857D01*
X206187523Y-36074047D01*
X206477809Y-36364333D01*
X206477809Y-36049857D01*
D10*
X218527380Y-60023333D02*
X219241666Y-60023333D01*
X219384523Y-60070952D01*
X219479761Y-60166190D01*
X219527380Y-60309047D01*
X219527380Y-60404285D01*
X219527380Y-59023333D02*
X219527380Y-59594761D01*
X219527380Y-59309047D02*
X218527380Y-59309047D01*
X218670238Y-59404285D01*
X218765476Y-59499523D01*
X218813095Y-59594761D01*
D21*
X195685833Y-34438166D02*
X195685833Y-33549166D01*
X196193833Y-34438166D02*
X195812833Y-33930166D01*
X196193833Y-33549166D02*
X195685833Y-34057166D01*
X197040500Y-34438166D02*
X196532500Y-34438166D01*
X196786500Y-34438166D02*
X196786500Y-33549166D01*
X196701833Y-33676166D01*
X196617166Y-33760833D01*
X196532500Y-33803166D01*
D22*
X194119500Y-32769023D02*
X194210214Y-32799261D01*
X194361404Y-32799261D01*
X194421880Y-32769023D01*
X194452119Y-32738785D01*
X194482357Y-32678309D01*
X194482357Y-32617833D01*
X194452119Y-32557357D01*
X194421880Y-32527119D01*
X194361404Y-32496880D01*
X194240452Y-32466642D01*
X194179976Y-32436404D01*
X194149738Y-32406166D01*
X194119500Y-32345690D01*
X194119500Y-32285214D01*
X194149738Y-32224738D01*
X194179976Y-32194500D01*
X194240452Y-32164261D01*
X194391642Y-32164261D01*
X194482357Y-32194500D01*
X194694023Y-32164261D02*
X194845214Y-32799261D01*
X194966166Y-32345690D01*
X195087119Y-32799261D01*
X195238309Y-32164261D01*
X195329023Y-32859738D02*
X195812833Y-32859738D01*
X196326880Y-32799261D02*
X196115214Y-32496880D01*
X195964023Y-32799261D02*
X195964023Y-32164261D01*
X196205928Y-32164261D01*
X196266404Y-32194500D01*
X196296642Y-32224738D01*
X196326880Y-32285214D01*
X196326880Y-32375928D01*
X196296642Y-32436404D01*
X196266404Y-32466642D01*
X196205928Y-32496880D01*
X195964023Y-32496880D01*
X196599023Y-32466642D02*
X196810690Y-32466642D01*
X196901404Y-32799261D02*
X196599023Y-32799261D01*
X196599023Y-32164261D01*
X196901404Y-32164261D01*
X197143309Y-32769023D02*
X197234023Y-32799261D01*
X197385214Y-32799261D01*
X197445690Y-32769023D01*
X197475928Y-32738785D01*
X197506166Y-32678309D01*
X197506166Y-32617833D01*
X197475928Y-32557357D01*
X197445690Y-32527119D01*
X197385214Y-32496880D01*
X197264261Y-32466642D01*
X197203785Y-32436404D01*
X197173547Y-32406166D01*
X197143309Y-32345690D01*
X197143309Y-32285214D01*
X197173547Y-32224738D01*
X197203785Y-32194500D01*
X197264261Y-32164261D01*
X197415452Y-32164261D01*
X197506166Y-32194500D01*
X197778309Y-32466642D02*
X197989976Y-32466642D01*
X198080690Y-32799261D02*
X197778309Y-32799261D01*
X197778309Y-32164261D01*
X198080690Y-32164261D01*
X198262119Y-32164261D02*
X198624976Y-32164261D01*
X198443547Y-32799261D02*
X198443547Y-32164261D01*
D15*
X183557333Y-52553809D02*
X183388000Y-52311904D01*
X183267047Y-52553809D02*
X183267047Y-52045809D01*
X183460571Y-52045809D01*
X183508952Y-52070000D01*
X183533142Y-52094190D01*
X183557333Y-52142571D01*
X183557333Y-52215142D01*
X183533142Y-52263523D01*
X183508952Y-52287714D01*
X183460571Y-52311904D01*
X183267047Y-52311904D01*
X184041142Y-52553809D02*
X183750857Y-52553809D01*
X183896000Y-52553809D02*
X183896000Y-52045809D01*
X183847619Y-52118380D01*
X183799238Y-52166761D01*
X183750857Y-52190952D01*
X190856809Y-41105666D02*
X190614904Y-41275000D01*
X190856809Y-41395952D02*
X190348809Y-41395952D01*
X190348809Y-41202428D01*
X190373000Y-41154047D01*
X190397190Y-41129857D01*
X190445571Y-41105666D01*
X190518142Y-41105666D01*
X190566523Y-41129857D01*
X190590714Y-41154047D01*
X190614904Y-41202428D01*
X190614904Y-41395952D01*
X190397190Y-40912142D02*
X190373000Y-40887952D01*
X190348809Y-40839571D01*
X190348809Y-40718619D01*
X190373000Y-40670238D01*
X190397190Y-40646047D01*
X190445571Y-40621857D01*
X190493952Y-40621857D01*
X190566523Y-40646047D01*
X190856809Y-40936333D01*
X190856809Y-40621857D01*
D10*
X197866095Y-56348380D02*
X197866095Y-57157904D01*
X197913714Y-57253142D01*
X197961333Y-57300761D01*
X198056571Y-57348380D01*
X198247047Y-57348380D01*
X198342285Y-57300761D01*
X198389904Y-57253142D01*
X198437523Y-57157904D01*
X198437523Y-56348380D01*
X199437523Y-57348380D02*
X198866095Y-57348380D01*
X199151809Y-57348380D02*
X199151809Y-56348380D01*
X199056571Y-56491238D01*
X198961333Y-56586476D01*
X198866095Y-56634095D01*
D21*
X195474166Y-43222333D02*
X196193833Y-43222333D01*
X196278500Y-43180000D01*
X196320833Y-43137666D01*
X196363166Y-43053000D01*
X196363166Y-42883666D01*
X196320833Y-42799000D01*
X196278500Y-42756666D01*
X196193833Y-42714333D01*
X195474166Y-42714333D01*
X195558833Y-42333333D02*
X195516500Y-42291000D01*
X195474166Y-42206333D01*
X195474166Y-41994666D01*
X195516500Y-41910000D01*
X195558833Y-41867666D01*
X195643500Y-41825333D01*
X195728166Y-41825333D01*
X195855166Y-41867666D01*
X196363166Y-42375666D01*
X196363166Y-41825333D01*
X181948666Y-41931166D02*
X181948666Y-42650833D01*
X181991000Y-42735500D01*
X182033333Y-42777833D01*
X182118000Y-42820166D01*
X182287333Y-42820166D01*
X182372000Y-42777833D01*
X182414333Y-42735500D01*
X182456666Y-42650833D01*
X182456666Y-41931166D01*
X182795333Y-41931166D02*
X183345666Y-41931166D01*
X183049333Y-42269833D01*
X183176333Y-42269833D01*
X183261000Y-42312166D01*
X183303333Y-42354500D01*
X183345666Y-42439166D01*
X183345666Y-42650833D01*
X183303333Y-42735500D01*
X183261000Y-42777833D01*
X183176333Y-42820166D01*
X182922333Y-42820166D01*
X182837666Y-42777833D01*
X182795333Y-42735500D01*
D15*
X180098095Y-33388904D02*
X180098095Y-33630809D01*
X179928761Y-33122809D02*
X180098095Y-33388904D01*
X180267428Y-33122809D01*
X180412571Y-33171190D02*
X180436761Y-33147000D01*
X180485142Y-33122809D01*
X180606095Y-33122809D01*
X180654476Y-33147000D01*
X180678666Y-33171190D01*
X180702857Y-33219571D01*
X180702857Y-33267952D01*
X180678666Y-33340523D01*
X180388380Y-33630809D01*
X180702857Y-33630809D01*
D23*
X204938052Y-49228533D02*
X205652766Y-49228533D01*
X205795709Y-49276180D01*
X205891004Y-49371476D01*
X205938652Y-49514419D01*
X205938652Y-49609714D01*
X205938652Y-48704409D02*
X205938652Y-48513819D01*
X205891004Y-48418523D01*
X205843357Y-48370876D01*
X205700414Y-48275580D01*
X205509823Y-48227933D01*
X205128642Y-48227933D01*
X205033347Y-48275580D01*
X204985700Y-48323228D01*
X204938052Y-48418523D01*
X204938052Y-48609114D01*
X204985700Y-48704409D01*
X205033347Y-48752057D01*
X205128642Y-48799704D01*
X205366880Y-48799704D01*
X205462176Y-48752057D01*
X205509823Y-48704409D01*
X205557471Y-48609114D01*
X205557471Y-48418523D01*
X205509823Y-48323228D01*
X205462176Y-48275580D01*
X205366880Y-48227933D01*
D15*
X211557809Y-36823952D02*
X211049809Y-36823952D01*
X211049809Y-36703000D01*
X211074000Y-36630428D01*
X211122380Y-36582047D01*
X211170761Y-36557857D01*
X211267523Y-36533666D01*
X211340095Y-36533666D01*
X211436857Y-36557857D01*
X211485238Y-36582047D01*
X211533619Y-36630428D01*
X211557809Y-36703000D01*
X211557809Y-36823952D01*
X211049809Y-36364333D02*
X211049809Y-36049857D01*
X211243333Y-36219190D01*
X211243333Y-36146619D01*
X211267523Y-36098238D01*
X211291714Y-36074047D01*
X211340095Y-36049857D01*
X211461047Y-36049857D01*
X211509428Y-36074047D01*
X211533619Y-36098238D01*
X211557809Y-36146619D01*
X211557809Y-36291761D01*
X211533619Y-36340142D01*
X211509428Y-36364333D01*
X211557809Y-33485666D02*
X211315904Y-33655000D01*
X211557809Y-33775952D02*
X211049809Y-33775952D01*
X211049809Y-33582428D01*
X211074000Y-33534047D01*
X211098190Y-33509857D01*
X211146571Y-33485666D01*
X211219142Y-33485666D01*
X211267523Y-33509857D01*
X211291714Y-33534047D01*
X211315904Y-33582428D01*
X211315904Y-33775952D01*
X211049809Y-33026047D02*
X211049809Y-33267952D01*
X211291714Y-33292142D01*
X211267523Y-33267952D01*
X211243333Y-33219571D01*
X211243333Y-33098619D01*
X211267523Y-33050238D01*
X211291714Y-33026047D01*
X211340095Y-33001857D01*
X211461047Y-33001857D01*
X211509428Y-33026047D01*
X211533619Y-33050238D01*
X211557809Y-33098619D01*
X211557809Y-33219571D01*
X211533619Y-33267952D01*
X211509428Y-33292142D01*
X203369333Y-59109428D02*
X203345142Y-59133619D01*
X203272571Y-59157809D01*
X203224190Y-59157809D01*
X203151619Y-59133619D01*
X203103238Y-59085238D01*
X203079047Y-59036857D01*
X203054857Y-58940095D01*
X203054857Y-58867523D01*
X203079047Y-58770761D01*
X203103238Y-58722380D01*
X203151619Y-58674000D01*
X203224190Y-58649809D01*
X203272571Y-58649809D01*
X203345142Y-58674000D01*
X203369333Y-58698190D01*
X203853142Y-59157809D02*
X203562857Y-59157809D01*
X203708000Y-59157809D02*
X203708000Y-58649809D01*
X203659619Y-58722380D01*
X203611238Y-58770761D01*
X203562857Y-58794952D01*
X193717333Y-59109428D02*
X193693142Y-59133619D01*
X193620571Y-59157809D01*
X193572190Y-59157809D01*
X193499619Y-59133619D01*
X193451238Y-59085238D01*
X193427047Y-59036857D01*
X193402857Y-58940095D01*
X193402857Y-58867523D01*
X193427047Y-58770761D01*
X193451238Y-58722380D01*
X193499619Y-58674000D01*
X193572190Y-58649809D01*
X193620571Y-58649809D01*
X193693142Y-58674000D01*
X193717333Y-58698190D01*
X193910857Y-58698190D02*
X193935047Y-58674000D01*
X193983428Y-58649809D01*
X194104380Y-58649809D01*
X194152761Y-58674000D01*
X194176952Y-58698190D01*
X194201142Y-58746571D01*
X194201142Y-58794952D01*
X194176952Y-58867523D01*
X193886666Y-59157809D01*
X194201142Y-59157809D01*
X187748333Y-30915428D02*
X187724142Y-30939619D01*
X187651571Y-30963809D01*
X187603190Y-30963809D01*
X187530619Y-30939619D01*
X187482238Y-30891238D01*
X187458047Y-30842857D01*
X187433857Y-30746095D01*
X187433857Y-30673523D01*
X187458047Y-30576761D01*
X187482238Y-30528380D01*
X187530619Y-30480000D01*
X187603190Y-30455809D01*
X187651571Y-30455809D01*
X187724142Y-30480000D01*
X187748333Y-30504190D01*
X187990238Y-30963809D02*
X188087000Y-30963809D01*
X188135380Y-30939619D01*
X188159571Y-30915428D01*
X188207952Y-30842857D01*
X188232142Y-30746095D01*
X188232142Y-30552571D01*
X188207952Y-30504190D01*
X188183761Y-30480000D01*
X188135380Y-30455809D01*
X188038619Y-30455809D01*
X187990238Y-30480000D01*
X187966047Y-30504190D01*
X187941857Y-30552571D01*
X187941857Y-30673523D01*
X187966047Y-30721904D01*
X187990238Y-30746095D01*
X188038619Y-30770285D01*
X188135380Y-30770285D01*
X188183761Y-30746095D01*
X188207952Y-30721904D01*
X188232142Y-30673523D01*
X209017809Y-33485666D02*
X208775904Y-33655000D01*
X209017809Y-33775952D02*
X208509809Y-33775952D01*
X208509809Y-33582428D01*
X208534000Y-33534047D01*
X208558190Y-33509857D01*
X208606571Y-33485666D01*
X208679142Y-33485666D01*
X208727523Y-33509857D01*
X208751714Y-33534047D01*
X208775904Y-33582428D01*
X208775904Y-33775952D01*
X208509809Y-33316333D02*
X208509809Y-33001857D01*
X208703333Y-33171190D01*
X208703333Y-33098619D01*
X208727523Y-33050238D01*
X208751714Y-33026047D01*
X208800095Y-33001857D01*
X208921047Y-33001857D01*
X208969428Y-33026047D01*
X208993619Y-33050238D01*
X209017809Y-33098619D01*
X209017809Y-33243761D01*
X208993619Y-33292142D01*
X208969428Y-33316333D01*
X206477809Y-33485666D02*
X206235904Y-33655000D01*
X206477809Y-33775952D02*
X205969809Y-33775952D01*
X205969809Y-33582428D01*
X205994000Y-33534047D01*
X206018190Y-33509857D01*
X206066571Y-33485666D01*
X206139142Y-33485666D01*
X206187523Y-33509857D01*
X206211714Y-33534047D01*
X206235904Y-33582428D01*
X206235904Y-33775952D01*
X206139142Y-33050238D02*
X206477809Y-33050238D01*
X205945619Y-33171190D02*
X206308476Y-33292142D01*
X206308476Y-32977666D01*
M02*
