G04 #@! TF.GenerationSoftware,KiCad,Pcbnew,5.1.2-1.fc30*
G04 #@! TF.CreationDate,2019-09-11T07:26:08-04:00*
G04 #@! TF.ProjectId,Platypus,506c6174-7970-4757-932e-6b696361645f,rev?*
G04 #@! TF.SameCoordinates,Original*
G04 #@! TF.FileFunction,Copper,L3,Inr*
G04 #@! TF.FilePolarity,Positive*
%FSLAX46Y46*%
G04 Gerber Fmt 4.6, Leading zero omitted, Abs format (unit mm)*
G04 Created by KiCad (PCBNEW 5.1.2-1.fc30) date 2019-09-11 07:26:08*
%MOMM*%
%LPD*%
G04 APERTURE LIST*
%ADD10C,1.651000*%
%ADD11R,1.651000X1.651000*%
%ADD12R,4.500000X2.000000*%
%ADD13R,2.000000X4.500000*%
%ADD14C,2.200000*%
%ADD15R,2.200000X2.200000*%
%ADD16R,1.700000X1.700000*%
%ADD17O,1.700000X1.700000*%
%ADD18C,3.316000*%
%ADD19C,1.428000*%
%ADD20R,1.428000X1.428000*%
%ADD21C,5.000000*%
%ADD22R,2.032000X2.032000*%
%ADD23C,2.032000*%
%ADD24C,0.800000*%
%ADD25C,1.200000*%
%ADD26C,0.500000*%
%ADD27C,1.000000*%
%ADD28C,1.500000*%
%ADD29C,0.254000*%
G04 APERTURE END LIST*
D10*
X176530000Y-72771000D03*
X179070000Y-72771000D03*
D11*
X181610000Y-72771000D03*
X161798000Y-37465000D03*
D10*
X164338000Y-37465000D03*
X166878000Y-37465000D03*
D11*
X161798000Y-34290000D03*
D10*
X164338000Y-34290000D03*
X166878000Y-34290000D03*
X166878000Y-31115000D03*
X164338000Y-31115000D03*
D11*
X161798000Y-31115000D03*
D10*
X171323000Y-31115000D03*
X171323000Y-33655000D03*
X171323000Y-36195000D03*
X171323000Y-38735000D03*
X171323000Y-41275000D03*
X171323000Y-43815000D03*
X171323000Y-46355000D03*
D11*
X171323000Y-48895000D03*
D10*
X158623000Y-31115000D03*
X158623000Y-33655000D03*
X158623000Y-36195000D03*
X158623000Y-38735000D03*
X158623000Y-41275000D03*
X158623000Y-43815000D03*
X158623000Y-46355000D03*
D11*
X158623000Y-48895000D03*
D10*
X166878000Y-59055000D03*
X164338000Y-59055000D03*
D11*
X161798000Y-59055000D03*
D10*
X166878000Y-55880000D03*
X164338000Y-55880000D03*
D11*
X161798000Y-55880000D03*
X161798000Y-52705000D03*
D10*
X164338000Y-52705000D03*
X166878000Y-52705000D03*
D11*
X171323000Y-70485000D03*
D10*
X171323000Y-67945000D03*
X171323000Y-65405000D03*
X171323000Y-62865000D03*
X171323000Y-60325000D03*
X171323000Y-57785000D03*
X171323000Y-55245000D03*
X171323000Y-52705000D03*
D11*
X158623000Y-70485000D03*
D10*
X158623000Y-67945000D03*
X158623000Y-65405000D03*
X158623000Y-62865000D03*
X158623000Y-60325000D03*
X158623000Y-57785000D03*
X158623000Y-55245000D03*
X158623000Y-52705000D03*
D12*
X209550000Y-54990000D03*
D13*
X206550000Y-59690000D03*
X212550000Y-59690000D03*
D14*
X186055000Y-79375000D03*
X183515000Y-79375000D03*
X180975000Y-79375000D03*
D15*
X178435000Y-79375000D03*
X190500000Y-79375000D03*
D14*
X193040000Y-79375000D03*
X195580000Y-79375000D03*
X198120000Y-79375000D03*
D11*
X190373000Y-65786000D03*
D10*
X190373000Y-63246000D03*
X185293000Y-63246000D03*
D11*
X185293000Y-65786000D03*
D14*
X210185000Y-79375000D03*
X207645000Y-79375000D03*
X205105000Y-79375000D03*
D15*
X202565000Y-79375000D03*
X154305000Y-79375000D03*
D14*
X156845000Y-79375000D03*
X159385000Y-79375000D03*
X161925000Y-79375000D03*
X173990000Y-79375000D03*
X171450000Y-79375000D03*
X168910000Y-79375000D03*
D15*
X166370000Y-79375000D03*
D16*
X178181000Y-50419000D03*
D17*
X180721000Y-50419000D03*
X178181000Y-52959000D03*
X180721000Y-52959000D03*
X178181000Y-55499000D03*
X180721000Y-55499000D03*
D15*
X150241000Y-36195000D03*
D14*
X150241000Y-38735000D03*
X150241000Y-41275000D03*
X150241000Y-43815000D03*
D11*
X155448000Y-36195000D03*
D10*
X155448000Y-38735000D03*
X155448000Y-41275000D03*
X155448000Y-43815000D03*
D15*
X150241000Y-57785000D03*
D14*
X150241000Y-60325000D03*
X150241000Y-62865000D03*
X150241000Y-65405000D03*
D10*
X155448000Y-65405000D03*
X155448000Y-62865000D03*
X155448000Y-60325000D03*
D11*
X155448000Y-57785000D03*
D18*
X210196000Y-39045000D03*
X210196000Y-51085000D03*
D19*
X207486000Y-43815000D03*
X207486000Y-46315000D03*
D20*
X205486000Y-43815000D03*
D19*
X205486000Y-46315000D03*
D21*
X216750000Y-31250000D03*
X148250000Y-81750000D03*
X148250000Y-31250000D03*
X216750000Y-81750000D03*
D22*
X215823000Y-67350000D03*
D23*
X215823000Y-72350000D03*
D10*
X190373000Y-72771000D03*
X187833000Y-72771000D03*
D11*
X185293000Y-72771000D03*
D24*
X199009000Y-47752000D03*
X183134000Y-45466000D03*
X183134000Y-39624000D03*
X192659000Y-34798000D03*
X189484000Y-32258000D03*
X182626000Y-33147000D03*
X167000000Y-63000000D03*
D25*
X166846703Y-42449298D03*
X196088000Y-40513000D03*
X203454000Y-32258000D03*
X186955998Y-37084000D03*
X193040000Y-52705000D03*
X196342000Y-53086000D03*
D24*
X188785500Y-46037500D03*
X182372000Y-44767500D03*
X190627000Y-39370000D03*
X188468000Y-42071120D03*
X185547000Y-42164000D03*
X185039000Y-39624000D03*
X194564000Y-43307000D03*
X196977000Y-43307000D03*
D26*
X193548000Y-40513000D02*
X196088000Y-40513000D01*
X196088000Y-40513000D02*
X196936528Y-40513000D01*
X196936528Y-40513000D02*
X201930000Y-40513000D01*
X201930000Y-40513000D02*
X203454000Y-38989000D01*
X203454000Y-38989000D02*
X203454000Y-32258000D01*
X190384998Y-40513000D02*
X186955998Y-37084000D01*
X193040000Y-40640000D02*
X192913000Y-40513000D01*
X196088000Y-40513000D02*
X192913000Y-40513000D01*
X192913000Y-40513000D02*
X190384998Y-40513000D01*
X192943001Y-49499999D02*
X193040000Y-49403000D01*
X193040000Y-52705000D02*
X193040000Y-49403000D01*
X193040000Y-49403000D02*
X193040000Y-40640000D01*
X193421000Y-53086000D02*
X193040000Y-52705000D01*
X196342000Y-53086000D02*
X193421000Y-53086000D01*
X192024000Y-50419000D02*
X193040000Y-49403000D01*
X180721000Y-50419000D02*
X192024000Y-50419000D01*
X161798000Y-52705000D02*
X161798000Y-55880000D01*
X161798000Y-59055000D02*
X161798000Y-55880000D01*
X161163000Y-55245000D02*
X161798000Y-55880000D01*
X158623000Y-55245000D02*
X161163000Y-55245000D01*
X161798000Y-41831002D02*
X161798000Y-37465000D01*
X170137499Y-50170501D02*
X161798000Y-41831002D01*
X172508501Y-50170501D02*
X170137499Y-50170501D01*
X174679002Y-48000000D02*
X172508501Y-50170501D01*
X180721000Y-50419000D02*
X178302000Y-48000000D01*
X178302000Y-48000000D02*
X174679002Y-48000000D01*
X161798000Y-52705000D02*
X161798000Y-37465000D01*
X161798000Y-37465000D02*
X161798000Y-34290000D01*
X161798000Y-34290000D02*
X161798000Y-31115000D01*
X161163000Y-33655000D02*
X161798000Y-34290000D01*
X158623000Y-33655000D02*
X161163000Y-33655000D01*
D27*
X178435000Y-73406000D02*
X179070000Y-72771000D01*
X178435000Y-79375000D02*
X178435000Y-73406000D01*
X181570999Y-51268999D02*
X180721000Y-50419000D01*
X182271001Y-51969001D02*
X181570999Y-51268999D01*
X182271001Y-56243001D02*
X182271001Y-51969001D01*
X179070000Y-72771000D02*
X179070000Y-59444002D01*
X179070000Y-59444002D02*
X182271001Y-56243001D01*
X176634999Y-77574999D02*
X178435000Y-79375000D01*
X168045999Y-77574999D02*
X176634999Y-77574999D01*
X166370000Y-79375000D02*
X166370000Y-79250998D01*
X166370000Y-79250998D02*
X168045999Y-77574999D01*
D28*
X206550000Y-59690000D02*
X206550000Y-64450000D01*
X206550000Y-64450000D02*
X195000000Y-76000000D01*
X206550000Y-63440000D02*
X206550000Y-59690000D01*
X156297500Y-48895000D02*
X158623000Y-48895000D01*
X155220998Y-48895000D02*
X156297500Y-48895000D01*
X148190999Y-55924999D02*
X155220998Y-48895000D01*
X148190999Y-66389001D02*
X148190999Y-55924999D01*
X158623000Y-70485000D02*
X152286998Y-70485000D01*
X152286998Y-70485000D02*
X148190999Y-66389001D01*
X213434001Y-71334001D02*
X206550000Y-64450000D01*
X215823000Y-72350000D02*
X214807001Y-71334001D01*
X214807001Y-71334001D02*
X213434001Y-71334001D01*
X151824001Y-79497501D02*
X151824001Y-80789734D01*
X148190999Y-66389001D02*
X148190999Y-75864499D01*
X148190999Y-75864499D02*
X151824001Y-79497501D01*
X151824001Y-80789734D02*
X153203267Y-82169000D01*
X171450000Y-80930634D02*
X171450000Y-79375000D01*
X153203267Y-82169000D02*
X170211634Y-82169000D01*
X170211634Y-82169000D02*
X171450000Y-80930634D01*
X189430000Y-76000000D02*
X186055000Y-79375000D01*
X195000000Y-76000000D02*
X189430000Y-76000000D01*
X171450000Y-80930634D02*
X172561366Y-82042000D01*
X186055000Y-80930634D02*
X186055000Y-79375000D01*
X172561366Y-82042000D02*
X184943634Y-82042000D01*
X184943634Y-82042000D02*
X186055000Y-80930634D01*
X189430000Y-74881433D02*
X189430000Y-76000000D01*
X190373000Y-72771000D02*
X190373000Y-73938433D01*
X190373000Y-73938433D02*
X189430000Y-74881433D01*
X190373000Y-72771000D02*
X190373000Y-65786000D01*
D29*
G36*
X214314886Y-29251554D02*
G01*
X213971799Y-29765021D01*
X213735476Y-30335554D01*
X213615000Y-30941229D01*
X213615000Y-31558771D01*
X213735476Y-32164446D01*
X213971799Y-32734979D01*
X214314886Y-33248446D01*
X214751554Y-33685114D01*
X215265021Y-34028201D01*
X215835554Y-34264524D01*
X216441229Y-34385000D01*
X217058771Y-34385000D01*
X217664446Y-34264524D01*
X218234979Y-34028201D01*
X218748446Y-33685114D01*
X218873000Y-33560560D01*
X218873000Y-52873000D01*
X211647360Y-52873000D01*
X211657702Y-52866090D01*
X211977090Y-52546702D01*
X212228030Y-52171143D01*
X212400881Y-51753843D01*
X212489000Y-51310841D01*
X212489000Y-50859159D01*
X212400881Y-50416157D01*
X212228030Y-49998857D01*
X211977090Y-49623298D01*
X211657702Y-49303910D01*
X211282143Y-49052970D01*
X210864843Y-48880119D01*
X210421841Y-48792000D01*
X209970159Y-48792000D01*
X209527157Y-48880119D01*
X209109857Y-49052970D01*
X208734298Y-49303910D01*
X208414910Y-49623298D01*
X208163970Y-49998857D01*
X207991119Y-50416157D01*
X207903000Y-50859159D01*
X207903000Y-51310841D01*
X207991119Y-51753843D01*
X208163970Y-52171143D01*
X208414910Y-52546702D01*
X208734298Y-52866090D01*
X208744640Y-52873000D01*
X198500000Y-52873000D01*
X198475224Y-52875440D01*
X198451399Y-52882667D01*
X198429443Y-52894403D01*
X198410197Y-52910197D01*
X198394403Y-52929443D01*
X198382667Y-52951399D01*
X198375440Y-52975224D01*
X198373000Y-53000000D01*
X198373000Y-55873000D01*
X190000000Y-55873000D01*
X189975224Y-55875440D01*
X189951399Y-55882667D01*
X189929443Y-55894403D01*
X189910197Y-55910197D01*
X189894403Y-55929443D01*
X189882667Y-55951399D01*
X189875440Y-55975224D01*
X189873000Y-56000000D01*
X189873000Y-61872273D01*
X189681194Y-61951721D01*
X189441985Y-62111555D01*
X189238555Y-62314985D01*
X189078721Y-62554194D01*
X188968626Y-62819988D01*
X188912500Y-63102153D01*
X188912500Y-63389847D01*
X188968626Y-63672012D01*
X189078721Y-63937806D01*
X189238555Y-64177015D01*
X189402463Y-64340923D01*
X189303320Y-64370998D01*
X189193006Y-64429963D01*
X189096315Y-64509315D01*
X189016963Y-64606006D01*
X188957998Y-64716320D01*
X188921688Y-64836018D01*
X188909428Y-64960500D01*
X188909428Y-66611500D01*
X188921688Y-66735982D01*
X188957998Y-66855680D01*
X188988001Y-66911810D01*
X188988001Y-67873000D01*
X177127000Y-67873000D01*
X177127000Y-64960500D01*
X183829428Y-64960500D01*
X183829428Y-66611500D01*
X183841688Y-66735982D01*
X183877998Y-66855680D01*
X183936963Y-66965994D01*
X184016315Y-67062685D01*
X184113006Y-67142037D01*
X184223320Y-67201002D01*
X184343018Y-67237312D01*
X184467500Y-67249572D01*
X186118500Y-67249572D01*
X186242982Y-67237312D01*
X186362680Y-67201002D01*
X186472994Y-67142037D01*
X186569685Y-67062685D01*
X186649037Y-66965994D01*
X186708002Y-66855680D01*
X186744312Y-66735982D01*
X186756572Y-66611500D01*
X186756572Y-64960500D01*
X186744312Y-64836018D01*
X186708002Y-64716320D01*
X186649037Y-64606006D01*
X186569685Y-64509315D01*
X186472994Y-64429963D01*
X186362680Y-64370998D01*
X186263537Y-64340923D01*
X186427445Y-64177015D01*
X186587279Y-63937806D01*
X186697374Y-63672012D01*
X186753500Y-63389847D01*
X186753500Y-63102153D01*
X186697374Y-62819988D01*
X186587279Y-62554194D01*
X186427445Y-62314985D01*
X186224015Y-62111555D01*
X185984806Y-61951721D01*
X185719012Y-61841626D01*
X185436847Y-61785500D01*
X185149153Y-61785500D01*
X184866988Y-61841626D01*
X184601194Y-61951721D01*
X184361985Y-62111555D01*
X184158555Y-62314985D01*
X183998721Y-62554194D01*
X183888626Y-62819988D01*
X183832500Y-63102153D01*
X183832500Y-63389847D01*
X183888626Y-63672012D01*
X183998721Y-63937806D01*
X184158555Y-64177015D01*
X184322463Y-64340923D01*
X184223320Y-64370998D01*
X184113006Y-64429963D01*
X184016315Y-64509315D01*
X183936963Y-64606006D01*
X183877998Y-64716320D01*
X183841688Y-64836018D01*
X183829428Y-64960500D01*
X177127000Y-64960500D01*
X177127000Y-61500000D01*
X177124560Y-61475224D01*
X177117333Y-61451399D01*
X177105597Y-61429443D01*
X177089803Y-61410197D01*
X177070557Y-61394403D01*
X177048601Y-61382667D01*
X177024776Y-61375440D01*
X177000000Y-61373000D01*
X172340460Y-61373000D01*
X172457445Y-61256015D01*
X172617279Y-61016806D01*
X172727374Y-60751012D01*
X172783500Y-60468847D01*
X172783500Y-60181153D01*
X172727374Y-59898988D01*
X172617279Y-59633194D01*
X172457445Y-59393985D01*
X172254015Y-59190555D01*
X172051142Y-59055000D01*
X172254015Y-58919445D01*
X172457445Y-58716015D01*
X172617279Y-58476806D01*
X172727374Y-58211012D01*
X172783500Y-57928847D01*
X172783500Y-57641153D01*
X172727374Y-57358988D01*
X172617279Y-57093194D01*
X172457445Y-56853985D01*
X172254015Y-56650555D01*
X172051142Y-56515000D01*
X172254015Y-56379445D01*
X172457445Y-56176015D01*
X172617279Y-55936806D01*
X172727374Y-55671012D01*
X172783500Y-55388847D01*
X172783500Y-55101153D01*
X172727374Y-54818988D01*
X172617279Y-54553194D01*
X172457445Y-54313985D01*
X172254015Y-54110555D01*
X172051142Y-53975000D01*
X172254015Y-53839445D01*
X172457445Y-53636015D01*
X172617279Y-53396806D01*
X172727374Y-53131012D01*
X172761589Y-52959000D01*
X176688815Y-52959000D01*
X176717487Y-53250111D01*
X176802401Y-53530034D01*
X176940294Y-53788014D01*
X177125866Y-54014134D01*
X177351986Y-54199706D01*
X177406791Y-54229000D01*
X177351986Y-54258294D01*
X177125866Y-54443866D01*
X176940294Y-54669986D01*
X176802401Y-54927966D01*
X176717487Y-55207889D01*
X176688815Y-55499000D01*
X176717487Y-55790111D01*
X176802401Y-56070034D01*
X176940294Y-56328014D01*
X177125866Y-56554134D01*
X177351986Y-56739706D01*
X177609966Y-56877599D01*
X177889889Y-56962513D01*
X178108050Y-56984000D01*
X178253950Y-56984000D01*
X178472111Y-56962513D01*
X178752034Y-56877599D01*
X179010014Y-56739706D01*
X179236134Y-56554134D01*
X179421706Y-56328014D01*
X179451000Y-56273209D01*
X179480294Y-56328014D01*
X179665866Y-56554134D01*
X179891986Y-56739706D01*
X180149966Y-56877599D01*
X180429889Y-56962513D01*
X180648050Y-56984000D01*
X180793950Y-56984000D01*
X181012111Y-56962513D01*
X181292034Y-56877599D01*
X181550014Y-56739706D01*
X181776134Y-56554134D01*
X181961706Y-56328014D01*
X182099599Y-56070034D01*
X182184513Y-55790111D01*
X182213185Y-55499000D01*
X182184513Y-55207889D01*
X182099599Y-54927966D01*
X181961706Y-54669986D01*
X181776134Y-54443866D01*
X181550014Y-54258294D01*
X181495209Y-54229000D01*
X181550014Y-54199706D01*
X181776134Y-54014134D01*
X181961706Y-53788014D01*
X182099599Y-53530034D01*
X182184513Y-53250111D01*
X182213185Y-52959000D01*
X182184513Y-52667889D01*
X182099599Y-52387966D01*
X181961706Y-52129986D01*
X181776134Y-51903866D01*
X181550014Y-51718294D01*
X181485477Y-51683799D01*
X181602355Y-51614178D01*
X181818588Y-51419269D01*
X181992641Y-51185920D01*
X182117825Y-50923099D01*
X182162476Y-50775890D01*
X182041155Y-50546000D01*
X180848000Y-50546000D01*
X180848000Y-50566000D01*
X180594000Y-50566000D01*
X180594000Y-50546000D01*
X180574000Y-50546000D01*
X180574000Y-50292000D01*
X180594000Y-50292000D01*
X180594000Y-49098186D01*
X180848000Y-49098186D01*
X180848000Y-50292000D01*
X182041155Y-50292000D01*
X182162476Y-50062110D01*
X182117825Y-49914901D01*
X181992641Y-49652080D01*
X181818588Y-49418731D01*
X181602355Y-49223822D01*
X181352252Y-49074843D01*
X181077891Y-48977519D01*
X180848000Y-49098186D01*
X180594000Y-49098186D01*
X180364109Y-48977519D01*
X180089748Y-49074843D01*
X179839645Y-49223822D01*
X179643498Y-49400626D01*
X179620502Y-49324820D01*
X179561537Y-49214506D01*
X179482185Y-49117815D01*
X179385494Y-49038463D01*
X179275180Y-48979498D01*
X179155482Y-48943188D01*
X179031000Y-48930928D01*
X177331000Y-48930928D01*
X177206518Y-48943188D01*
X177086820Y-48979498D01*
X176976506Y-49038463D01*
X176879815Y-49117815D01*
X176800463Y-49214506D01*
X176741498Y-49324820D01*
X176705188Y-49444518D01*
X176692928Y-49569000D01*
X176692928Y-51269000D01*
X176705188Y-51393482D01*
X176741498Y-51513180D01*
X176800463Y-51623494D01*
X176879815Y-51720185D01*
X176976506Y-51799537D01*
X177086820Y-51858502D01*
X177155687Y-51879393D01*
X177125866Y-51903866D01*
X176940294Y-52129986D01*
X176802401Y-52387966D01*
X176717487Y-52667889D01*
X176688815Y-52959000D01*
X172761589Y-52959000D01*
X172783500Y-52848847D01*
X172783500Y-52561153D01*
X172727374Y-52278988D01*
X172617279Y-52013194D01*
X172457445Y-51773985D01*
X172254015Y-51570555D01*
X172014806Y-51410721D01*
X171749012Y-51300626D01*
X171466847Y-51244500D01*
X171179153Y-51244500D01*
X170896988Y-51300626D01*
X170631194Y-51410721D01*
X170391985Y-51570555D01*
X170188555Y-51773985D01*
X170028721Y-52013194D01*
X169918626Y-52278988D01*
X169862500Y-52561153D01*
X169862500Y-52848847D01*
X169918626Y-53131012D01*
X170028721Y-53396806D01*
X170188555Y-53636015D01*
X170391985Y-53839445D01*
X170594858Y-53975000D01*
X170391985Y-54110555D01*
X170188555Y-54313985D01*
X170028721Y-54553194D01*
X169918626Y-54818988D01*
X169862500Y-55101153D01*
X169862500Y-55388847D01*
X169918626Y-55671012D01*
X170028721Y-55936806D01*
X170188555Y-56176015D01*
X170391985Y-56379445D01*
X170594858Y-56515000D01*
X170391985Y-56650555D01*
X170188555Y-56853985D01*
X170028721Y-57093194D01*
X169918626Y-57358988D01*
X169862500Y-57641153D01*
X169862500Y-57928847D01*
X169918626Y-58211012D01*
X170028721Y-58476806D01*
X170188555Y-58716015D01*
X170391985Y-58919445D01*
X170594858Y-59055000D01*
X170391985Y-59190555D01*
X170188555Y-59393985D01*
X170028721Y-59633194D01*
X169918626Y-59898988D01*
X169862500Y-60181153D01*
X169862500Y-60468847D01*
X169918626Y-60751012D01*
X170028721Y-61016806D01*
X170188555Y-61256015D01*
X170305540Y-61373000D01*
X160127000Y-61373000D01*
X160127000Y-59880500D01*
X160334428Y-59880500D01*
X160346688Y-60004982D01*
X160382998Y-60124680D01*
X160441963Y-60234994D01*
X160521315Y-60331685D01*
X160618006Y-60411037D01*
X160728320Y-60470002D01*
X160848018Y-60506312D01*
X160972500Y-60518572D01*
X161512250Y-60515500D01*
X161671000Y-60356750D01*
X161671000Y-59182000D01*
X160496250Y-59182000D01*
X160337500Y-59340750D01*
X160334428Y-59880500D01*
X160127000Y-59880500D01*
X160127000Y-58229500D01*
X160334428Y-58229500D01*
X160337500Y-58769250D01*
X160496250Y-58928000D01*
X161671000Y-58928000D01*
X161671000Y-57753250D01*
X161925000Y-57753250D01*
X161925000Y-58928000D01*
X161945000Y-58928000D01*
X161945000Y-59182000D01*
X161925000Y-59182000D01*
X161925000Y-60356750D01*
X162083750Y-60515500D01*
X162623500Y-60518572D01*
X162747982Y-60506312D01*
X162867680Y-60470002D01*
X162977994Y-60411037D01*
X163074685Y-60331685D01*
X163154037Y-60234994D01*
X163213002Y-60124680D01*
X163243077Y-60025537D01*
X163406985Y-60189445D01*
X163646194Y-60349279D01*
X163911988Y-60459374D01*
X164194153Y-60515500D01*
X164481847Y-60515500D01*
X164764012Y-60459374D01*
X165029806Y-60349279D01*
X165269015Y-60189445D01*
X165472445Y-59986015D01*
X165608000Y-59783142D01*
X165743555Y-59986015D01*
X165946985Y-60189445D01*
X166186194Y-60349279D01*
X166451988Y-60459374D01*
X166734153Y-60515500D01*
X167021847Y-60515500D01*
X167304012Y-60459374D01*
X167569806Y-60349279D01*
X167809015Y-60189445D01*
X168012445Y-59986015D01*
X168172279Y-59746806D01*
X168282374Y-59481012D01*
X168338500Y-59198847D01*
X168338500Y-58911153D01*
X168282374Y-58628988D01*
X168172279Y-58363194D01*
X168012445Y-58123985D01*
X167809015Y-57920555D01*
X167569806Y-57760721D01*
X167304012Y-57650626D01*
X167021847Y-57594500D01*
X166734153Y-57594500D01*
X166451988Y-57650626D01*
X166186194Y-57760721D01*
X165946985Y-57920555D01*
X165743555Y-58123985D01*
X165608000Y-58326858D01*
X165472445Y-58123985D01*
X165269015Y-57920555D01*
X165029806Y-57760721D01*
X164764012Y-57650626D01*
X164481847Y-57594500D01*
X164194153Y-57594500D01*
X163911988Y-57650626D01*
X163646194Y-57760721D01*
X163406985Y-57920555D01*
X163243077Y-58084463D01*
X163213002Y-57985320D01*
X163154037Y-57875006D01*
X163074685Y-57778315D01*
X162977994Y-57698963D01*
X162867680Y-57639998D01*
X162747982Y-57603688D01*
X162623500Y-57591428D01*
X162083750Y-57594500D01*
X161925000Y-57753250D01*
X161671000Y-57753250D01*
X161512250Y-57594500D01*
X160972500Y-57591428D01*
X160848018Y-57603688D01*
X160728320Y-57639998D01*
X160618006Y-57698963D01*
X160521315Y-57778315D01*
X160441963Y-57875006D01*
X160382998Y-57985320D01*
X160346688Y-58105018D01*
X160334428Y-58229500D01*
X160127000Y-58229500D01*
X160127000Y-56705500D01*
X160334428Y-56705500D01*
X160346688Y-56829982D01*
X160382998Y-56949680D01*
X160441963Y-57059994D01*
X160521315Y-57156685D01*
X160618006Y-57236037D01*
X160728320Y-57295002D01*
X160848018Y-57331312D01*
X160972500Y-57343572D01*
X161512250Y-57340500D01*
X161671000Y-57181750D01*
X161671000Y-56007000D01*
X160496250Y-56007000D01*
X160337500Y-56165750D01*
X160334428Y-56705500D01*
X160127000Y-56705500D01*
X160127000Y-55054500D01*
X160334428Y-55054500D01*
X160337500Y-55594250D01*
X160496250Y-55753000D01*
X161671000Y-55753000D01*
X161671000Y-54578250D01*
X161925000Y-54578250D01*
X161925000Y-55753000D01*
X161945000Y-55753000D01*
X161945000Y-56007000D01*
X161925000Y-56007000D01*
X161925000Y-57181750D01*
X162083750Y-57340500D01*
X162623500Y-57343572D01*
X162747982Y-57331312D01*
X162867680Y-57295002D01*
X162977994Y-57236037D01*
X163074685Y-57156685D01*
X163154037Y-57059994D01*
X163213002Y-56949680D01*
X163243077Y-56850537D01*
X163406985Y-57014445D01*
X163646194Y-57174279D01*
X163911988Y-57284374D01*
X164194153Y-57340500D01*
X164481847Y-57340500D01*
X164764012Y-57284374D01*
X165029806Y-57174279D01*
X165269015Y-57014445D01*
X165472445Y-56811015D01*
X165608000Y-56608142D01*
X165743555Y-56811015D01*
X165946985Y-57014445D01*
X166186194Y-57174279D01*
X166451988Y-57284374D01*
X166734153Y-57340500D01*
X167021847Y-57340500D01*
X167304012Y-57284374D01*
X167569806Y-57174279D01*
X167809015Y-57014445D01*
X168012445Y-56811015D01*
X168172279Y-56571806D01*
X168282374Y-56306012D01*
X168338500Y-56023847D01*
X168338500Y-55736153D01*
X168282374Y-55453988D01*
X168172279Y-55188194D01*
X168012445Y-54948985D01*
X167809015Y-54745555D01*
X167569806Y-54585721D01*
X167304012Y-54475626D01*
X167021847Y-54419500D01*
X166734153Y-54419500D01*
X166451988Y-54475626D01*
X166186194Y-54585721D01*
X165946985Y-54745555D01*
X165743555Y-54948985D01*
X165608000Y-55151858D01*
X165472445Y-54948985D01*
X165269015Y-54745555D01*
X165029806Y-54585721D01*
X164764012Y-54475626D01*
X164481847Y-54419500D01*
X164194153Y-54419500D01*
X163911988Y-54475626D01*
X163646194Y-54585721D01*
X163406985Y-54745555D01*
X163243077Y-54909463D01*
X163213002Y-54810320D01*
X163154037Y-54700006D01*
X163074685Y-54603315D01*
X162977994Y-54523963D01*
X162867680Y-54464998D01*
X162747982Y-54428688D01*
X162623500Y-54416428D01*
X162083750Y-54419500D01*
X161925000Y-54578250D01*
X161671000Y-54578250D01*
X161512250Y-54419500D01*
X160972500Y-54416428D01*
X160848018Y-54428688D01*
X160728320Y-54464998D01*
X160618006Y-54523963D01*
X160521315Y-54603315D01*
X160441963Y-54700006D01*
X160382998Y-54810320D01*
X160346688Y-54930018D01*
X160334428Y-55054500D01*
X160127000Y-55054500D01*
X160127000Y-53530500D01*
X160334428Y-53530500D01*
X160346688Y-53654982D01*
X160382998Y-53774680D01*
X160441963Y-53884994D01*
X160521315Y-53981685D01*
X160618006Y-54061037D01*
X160728320Y-54120002D01*
X160848018Y-54156312D01*
X160972500Y-54168572D01*
X161512250Y-54165500D01*
X161671000Y-54006750D01*
X161671000Y-52832000D01*
X160496250Y-52832000D01*
X160337500Y-52990750D01*
X160334428Y-53530500D01*
X160127000Y-53530500D01*
X160127000Y-51879500D01*
X160334428Y-51879500D01*
X160337500Y-52419250D01*
X160496250Y-52578000D01*
X161671000Y-52578000D01*
X161671000Y-51403250D01*
X161925000Y-51403250D01*
X161925000Y-52578000D01*
X161945000Y-52578000D01*
X161945000Y-52832000D01*
X161925000Y-52832000D01*
X161925000Y-54006750D01*
X162083750Y-54165500D01*
X162623500Y-54168572D01*
X162747982Y-54156312D01*
X162867680Y-54120002D01*
X162977994Y-54061037D01*
X163074685Y-53981685D01*
X163154037Y-53884994D01*
X163213002Y-53774680D01*
X163243077Y-53675537D01*
X163406985Y-53839445D01*
X163646194Y-53999279D01*
X163911988Y-54109374D01*
X164194153Y-54165500D01*
X164481847Y-54165500D01*
X164764012Y-54109374D01*
X165029806Y-53999279D01*
X165269015Y-53839445D01*
X165472445Y-53636015D01*
X165608000Y-53433142D01*
X165743555Y-53636015D01*
X165946985Y-53839445D01*
X166186194Y-53999279D01*
X166451988Y-54109374D01*
X166734153Y-54165500D01*
X167021847Y-54165500D01*
X167304012Y-54109374D01*
X167569806Y-53999279D01*
X167809015Y-53839445D01*
X168012445Y-53636015D01*
X168172279Y-53396806D01*
X168282374Y-53131012D01*
X168338500Y-52848847D01*
X168338500Y-52561153D01*
X168282374Y-52278988D01*
X168172279Y-52013194D01*
X168012445Y-51773985D01*
X167809015Y-51570555D01*
X167569806Y-51410721D01*
X167304012Y-51300626D01*
X167021847Y-51244500D01*
X166734153Y-51244500D01*
X166451988Y-51300626D01*
X166186194Y-51410721D01*
X165946985Y-51570555D01*
X165743555Y-51773985D01*
X165608000Y-51976858D01*
X165472445Y-51773985D01*
X165269015Y-51570555D01*
X165029806Y-51410721D01*
X164764012Y-51300626D01*
X164481847Y-51244500D01*
X164194153Y-51244500D01*
X163911988Y-51300626D01*
X163646194Y-51410721D01*
X163406985Y-51570555D01*
X163243077Y-51734463D01*
X163213002Y-51635320D01*
X163154037Y-51525006D01*
X163074685Y-51428315D01*
X162977994Y-51348963D01*
X162867680Y-51289998D01*
X162747982Y-51253688D01*
X162623500Y-51241428D01*
X162083750Y-51244500D01*
X161925000Y-51403250D01*
X161671000Y-51403250D01*
X161512250Y-51244500D01*
X160972500Y-51241428D01*
X160848018Y-51253688D01*
X160728320Y-51289998D01*
X160618006Y-51348963D01*
X160521315Y-51428315D01*
X160441963Y-51525006D01*
X160382998Y-51635320D01*
X160346688Y-51755018D01*
X160334428Y-51879500D01*
X160127000Y-51879500D01*
X160127000Y-48069500D01*
X169859428Y-48069500D01*
X169859428Y-49720500D01*
X169871688Y-49844982D01*
X169907998Y-49964680D01*
X169966963Y-50074994D01*
X170046315Y-50171685D01*
X170143006Y-50251037D01*
X170253320Y-50310002D01*
X170373018Y-50346312D01*
X170497500Y-50358572D01*
X172148500Y-50358572D01*
X172272982Y-50346312D01*
X172392680Y-50310002D01*
X172502994Y-50251037D01*
X172599685Y-50171685D01*
X172679037Y-50074994D01*
X172738002Y-49964680D01*
X172774312Y-49844982D01*
X172786572Y-49720500D01*
X172786572Y-48069500D01*
X172774312Y-47945018D01*
X172738002Y-47825320D01*
X172679037Y-47715006D01*
X172625739Y-47650061D01*
X197974000Y-47650061D01*
X197974000Y-47853939D01*
X198013774Y-48053898D01*
X198091795Y-48242256D01*
X198205063Y-48411774D01*
X198349226Y-48555937D01*
X198518744Y-48669205D01*
X198707102Y-48747226D01*
X198907061Y-48787000D01*
X199110939Y-48787000D01*
X199310898Y-48747226D01*
X199499256Y-48669205D01*
X199668774Y-48555937D01*
X199812937Y-48411774D01*
X199926205Y-48242256D01*
X200004226Y-48053898D01*
X200044000Y-47853939D01*
X200044000Y-47650061D01*
X200004226Y-47450102D01*
X199926205Y-47261744D01*
X199812937Y-47092226D01*
X199668774Y-46948063D01*
X199499256Y-46834795D01*
X199310898Y-46756774D01*
X199110939Y-46717000D01*
X198907061Y-46717000D01*
X198707102Y-46756774D01*
X198518744Y-46834795D01*
X198349226Y-46948063D01*
X198205063Y-47092226D01*
X198091795Y-47261744D01*
X198013774Y-47450102D01*
X197974000Y-47650061D01*
X172625739Y-47650061D01*
X172599685Y-47618315D01*
X172502994Y-47538963D01*
X172392680Y-47479998D01*
X172293537Y-47449923D01*
X172457445Y-47286015D01*
X172617279Y-47046806D01*
X172727374Y-46781012D01*
X172783500Y-46498847D01*
X172783500Y-46211153D01*
X172727374Y-45928988D01*
X172617279Y-45663194D01*
X172457445Y-45423985D01*
X172254015Y-45220555D01*
X172051142Y-45085000D01*
X172254015Y-44949445D01*
X172457445Y-44746015D01*
X172511202Y-44665561D01*
X181337000Y-44665561D01*
X181337000Y-44869439D01*
X181376774Y-45069398D01*
X181454795Y-45257756D01*
X181568063Y-45427274D01*
X181712226Y-45571437D01*
X181881744Y-45684705D01*
X182070102Y-45762726D01*
X182142605Y-45777148D01*
X182216795Y-45956256D01*
X182330063Y-46125774D01*
X182474226Y-46269937D01*
X182643744Y-46383205D01*
X182832102Y-46461226D01*
X183032061Y-46501000D01*
X183235939Y-46501000D01*
X183435898Y-46461226D01*
X183624256Y-46383205D01*
X183793774Y-46269937D01*
X183937937Y-46125774D01*
X184051205Y-45956256D01*
X184059777Y-45935561D01*
X187750500Y-45935561D01*
X187750500Y-46139439D01*
X187790274Y-46339398D01*
X187868295Y-46527756D01*
X187981563Y-46697274D01*
X188125726Y-46841437D01*
X188295244Y-46954705D01*
X188483602Y-47032726D01*
X188683561Y-47072500D01*
X188887439Y-47072500D01*
X189087398Y-47032726D01*
X189275756Y-46954705D01*
X189445274Y-46841437D01*
X189589437Y-46697274D01*
X189702705Y-46527756D01*
X189780726Y-46339398D01*
X189820500Y-46139439D01*
X189820500Y-45935561D01*
X189780726Y-45735602D01*
X189702705Y-45547244D01*
X189589437Y-45377726D01*
X189445274Y-45233563D01*
X189275756Y-45120295D01*
X189087398Y-45042274D01*
X188887439Y-45002500D01*
X188683561Y-45002500D01*
X188483602Y-45042274D01*
X188295244Y-45120295D01*
X188125726Y-45233563D01*
X187981563Y-45377726D01*
X187868295Y-45547244D01*
X187790274Y-45735602D01*
X187750500Y-45935561D01*
X184059777Y-45935561D01*
X184129226Y-45767898D01*
X184169000Y-45567939D01*
X184169000Y-45364061D01*
X184129226Y-45164102D01*
X184051205Y-44975744D01*
X183937937Y-44806226D01*
X183793774Y-44662063D01*
X183624256Y-44548795D01*
X183435898Y-44470774D01*
X183363395Y-44456352D01*
X183289205Y-44277244D01*
X183175937Y-44107726D01*
X183031774Y-43963563D01*
X182862256Y-43850295D01*
X182673898Y-43772274D01*
X182473939Y-43732500D01*
X182270061Y-43732500D01*
X182070102Y-43772274D01*
X181881744Y-43850295D01*
X181712226Y-43963563D01*
X181568063Y-44107726D01*
X181454795Y-44277244D01*
X181376774Y-44465602D01*
X181337000Y-44665561D01*
X172511202Y-44665561D01*
X172617279Y-44506806D01*
X172727374Y-44241012D01*
X172783500Y-43958847D01*
X172783500Y-43671153D01*
X172727374Y-43388988D01*
X172651190Y-43205061D01*
X193529000Y-43205061D01*
X193529000Y-43408939D01*
X193568774Y-43608898D01*
X193646795Y-43797256D01*
X193760063Y-43966774D01*
X193904226Y-44110937D01*
X194073744Y-44224205D01*
X194262102Y-44302226D01*
X194462061Y-44342000D01*
X194665939Y-44342000D01*
X194865898Y-44302226D01*
X195054256Y-44224205D01*
X195223774Y-44110937D01*
X195367937Y-43966774D01*
X195481205Y-43797256D01*
X195559226Y-43608898D01*
X195599000Y-43408939D01*
X195599000Y-43205061D01*
X195942000Y-43205061D01*
X195942000Y-43408939D01*
X195981774Y-43608898D01*
X196059795Y-43797256D01*
X196173063Y-43966774D01*
X196317226Y-44110937D01*
X196486744Y-44224205D01*
X196675102Y-44302226D01*
X196875061Y-44342000D01*
X197078939Y-44342000D01*
X197278898Y-44302226D01*
X197467256Y-44224205D01*
X197636774Y-44110937D01*
X197780937Y-43966774D01*
X197894205Y-43797256D01*
X197972226Y-43608898D01*
X198012000Y-43408939D01*
X198012000Y-43205061D01*
X197991302Y-43101000D01*
X204133928Y-43101000D01*
X204133928Y-44529000D01*
X204146188Y-44653482D01*
X204182498Y-44773180D01*
X204241463Y-44883494D01*
X204320815Y-44980185D01*
X204417506Y-45059537D01*
X204527820Y-45118502D01*
X204647518Y-45154812D01*
X204772000Y-45167072D01*
X204775860Y-45167072D01*
X204626063Y-45267163D01*
X204438163Y-45455063D01*
X204290532Y-45676009D01*
X204188842Y-45921511D01*
X204137000Y-46182135D01*
X204137000Y-46447865D01*
X204188842Y-46708489D01*
X204290532Y-46953991D01*
X204438163Y-47174937D01*
X204626063Y-47362837D01*
X204847009Y-47510468D01*
X205092511Y-47612158D01*
X205353135Y-47664000D01*
X205618865Y-47664000D01*
X205879489Y-47612158D01*
X206124991Y-47510468D01*
X206345937Y-47362837D01*
X206486000Y-47222774D01*
X206626063Y-47362837D01*
X206847009Y-47510468D01*
X207092511Y-47612158D01*
X207353135Y-47664000D01*
X207618865Y-47664000D01*
X207879489Y-47612158D01*
X208124991Y-47510468D01*
X208345937Y-47362837D01*
X208533837Y-47174937D01*
X208681468Y-46953991D01*
X208783158Y-46708489D01*
X208835000Y-46447865D01*
X208835000Y-46182135D01*
X208783158Y-45921511D01*
X208681468Y-45676009D01*
X208533837Y-45455063D01*
X208345937Y-45267163D01*
X208124991Y-45119532D01*
X207993339Y-45065000D01*
X208124991Y-45010468D01*
X208345937Y-44862837D01*
X208533837Y-44674937D01*
X208681468Y-44453991D01*
X208783158Y-44208489D01*
X208835000Y-43947865D01*
X208835000Y-43682135D01*
X208783158Y-43421511D01*
X208681468Y-43176009D01*
X208533837Y-42955063D01*
X208345937Y-42767163D01*
X208124991Y-42619532D01*
X207879489Y-42517842D01*
X207618865Y-42466000D01*
X207353135Y-42466000D01*
X207092511Y-42517842D01*
X206847009Y-42619532D01*
X206704486Y-42714763D01*
X206651185Y-42649815D01*
X206554494Y-42570463D01*
X206444180Y-42511498D01*
X206324482Y-42475188D01*
X206200000Y-42462928D01*
X204772000Y-42462928D01*
X204647518Y-42475188D01*
X204527820Y-42511498D01*
X204417506Y-42570463D01*
X204320815Y-42649815D01*
X204241463Y-42746506D01*
X204182498Y-42856820D01*
X204146188Y-42976518D01*
X204133928Y-43101000D01*
X197991302Y-43101000D01*
X197972226Y-43005102D01*
X197894205Y-42816744D01*
X197780937Y-42647226D01*
X197636774Y-42503063D01*
X197467256Y-42389795D01*
X197278898Y-42311774D01*
X197078939Y-42272000D01*
X196875061Y-42272000D01*
X196675102Y-42311774D01*
X196486744Y-42389795D01*
X196317226Y-42503063D01*
X196173063Y-42647226D01*
X196059795Y-42816744D01*
X195981774Y-43005102D01*
X195942000Y-43205061D01*
X195599000Y-43205061D01*
X195559226Y-43005102D01*
X195481205Y-42816744D01*
X195367937Y-42647226D01*
X195223774Y-42503063D01*
X195054256Y-42389795D01*
X194865898Y-42311774D01*
X194665939Y-42272000D01*
X194462061Y-42272000D01*
X194262102Y-42311774D01*
X194073744Y-42389795D01*
X193904226Y-42503063D01*
X193760063Y-42647226D01*
X193646795Y-42816744D01*
X193568774Y-43005102D01*
X193529000Y-43205061D01*
X172651190Y-43205061D01*
X172617279Y-43123194D01*
X172457445Y-42883985D01*
X172254015Y-42680555D01*
X172051142Y-42545000D01*
X172254015Y-42409445D01*
X172457445Y-42206015D01*
X172553631Y-42062061D01*
X184512000Y-42062061D01*
X184512000Y-42265939D01*
X184551774Y-42465898D01*
X184629795Y-42654256D01*
X184743063Y-42823774D01*
X184887226Y-42967937D01*
X185056744Y-43081205D01*
X185245102Y-43159226D01*
X185445061Y-43199000D01*
X185648939Y-43199000D01*
X185848898Y-43159226D01*
X186037256Y-43081205D01*
X186206774Y-42967937D01*
X186350937Y-42823774D01*
X186464205Y-42654256D01*
X186542226Y-42465898D01*
X186582000Y-42265939D01*
X186582000Y-42062061D01*
X186563526Y-41969181D01*
X187433000Y-41969181D01*
X187433000Y-42173059D01*
X187472774Y-42373018D01*
X187550795Y-42561376D01*
X187664063Y-42730894D01*
X187808226Y-42875057D01*
X187977744Y-42988325D01*
X188166102Y-43066346D01*
X188366061Y-43106120D01*
X188569939Y-43106120D01*
X188769898Y-43066346D01*
X188958256Y-42988325D01*
X189127774Y-42875057D01*
X189271937Y-42730894D01*
X189385205Y-42561376D01*
X189463226Y-42373018D01*
X189503000Y-42173059D01*
X189503000Y-41969181D01*
X189463226Y-41769222D01*
X189385205Y-41580864D01*
X189271937Y-41411346D01*
X189127774Y-41267183D01*
X188958256Y-41153915D01*
X188769898Y-41075894D01*
X188569939Y-41036120D01*
X188366061Y-41036120D01*
X188166102Y-41075894D01*
X187977744Y-41153915D01*
X187808226Y-41267183D01*
X187664063Y-41411346D01*
X187550795Y-41580864D01*
X187472774Y-41769222D01*
X187433000Y-41969181D01*
X186563526Y-41969181D01*
X186542226Y-41862102D01*
X186464205Y-41673744D01*
X186350937Y-41504226D01*
X186206774Y-41360063D01*
X186037256Y-41246795D01*
X185848898Y-41168774D01*
X185648939Y-41129000D01*
X185445061Y-41129000D01*
X185245102Y-41168774D01*
X185056744Y-41246795D01*
X184887226Y-41360063D01*
X184743063Y-41504226D01*
X184629795Y-41673744D01*
X184551774Y-41862102D01*
X184512000Y-42062061D01*
X172553631Y-42062061D01*
X172617279Y-41966806D01*
X172727374Y-41701012D01*
X172783500Y-41418847D01*
X172783500Y-41131153D01*
X172727374Y-40848988D01*
X172617279Y-40583194D01*
X172457445Y-40343985D01*
X172254015Y-40140555D01*
X172051142Y-40005000D01*
X172254015Y-39869445D01*
X172457445Y-39666015D01*
X172553631Y-39522061D01*
X182099000Y-39522061D01*
X182099000Y-39725939D01*
X182138774Y-39925898D01*
X182216795Y-40114256D01*
X182330063Y-40283774D01*
X182474226Y-40427937D01*
X182643744Y-40541205D01*
X182832102Y-40619226D01*
X183032061Y-40659000D01*
X183235939Y-40659000D01*
X183435898Y-40619226D01*
X183624256Y-40541205D01*
X183793774Y-40427937D01*
X183937937Y-40283774D01*
X184051205Y-40114256D01*
X184086500Y-40029047D01*
X184121795Y-40114256D01*
X184235063Y-40283774D01*
X184379226Y-40427937D01*
X184548744Y-40541205D01*
X184737102Y-40619226D01*
X184937061Y-40659000D01*
X185140939Y-40659000D01*
X185340898Y-40619226D01*
X185529256Y-40541205D01*
X185698774Y-40427937D01*
X185842937Y-40283774D01*
X185956205Y-40114256D01*
X186034226Y-39925898D01*
X186074000Y-39725939D01*
X186074000Y-39522061D01*
X186034226Y-39322102D01*
X186011842Y-39268061D01*
X189592000Y-39268061D01*
X189592000Y-39471939D01*
X189631774Y-39671898D01*
X189709795Y-39860256D01*
X189823063Y-40029774D01*
X189967226Y-40173937D01*
X190136744Y-40287205D01*
X190325102Y-40365226D01*
X190525061Y-40405000D01*
X190728939Y-40405000D01*
X190928898Y-40365226D01*
X191117256Y-40287205D01*
X191286774Y-40173937D01*
X191430937Y-40029774D01*
X191544205Y-39860256D01*
X191622226Y-39671898D01*
X191662000Y-39471939D01*
X191662000Y-39268061D01*
X191622226Y-39068102D01*
X191544205Y-38879744D01*
X191503724Y-38819159D01*
X207903000Y-38819159D01*
X207903000Y-39270841D01*
X207991119Y-39713843D01*
X208163970Y-40131143D01*
X208414910Y-40506702D01*
X208734298Y-40826090D01*
X209109857Y-41077030D01*
X209527157Y-41249881D01*
X209970159Y-41338000D01*
X210421841Y-41338000D01*
X210864843Y-41249881D01*
X211282143Y-41077030D01*
X211657702Y-40826090D01*
X211977090Y-40506702D01*
X212228030Y-40131143D01*
X212400881Y-39713843D01*
X212489000Y-39270841D01*
X212489000Y-38819159D01*
X212400881Y-38376157D01*
X212228030Y-37958857D01*
X211977090Y-37583298D01*
X211657702Y-37263910D01*
X211282143Y-37012970D01*
X210864843Y-36840119D01*
X210421841Y-36752000D01*
X209970159Y-36752000D01*
X209527157Y-36840119D01*
X209109857Y-37012970D01*
X208734298Y-37263910D01*
X208414910Y-37583298D01*
X208163970Y-37958857D01*
X207991119Y-38376157D01*
X207903000Y-38819159D01*
X191503724Y-38819159D01*
X191430937Y-38710226D01*
X191286774Y-38566063D01*
X191117256Y-38452795D01*
X190928898Y-38374774D01*
X190728939Y-38335000D01*
X190525061Y-38335000D01*
X190325102Y-38374774D01*
X190136744Y-38452795D01*
X189967226Y-38566063D01*
X189823063Y-38710226D01*
X189709795Y-38879744D01*
X189631774Y-39068102D01*
X189592000Y-39268061D01*
X186011842Y-39268061D01*
X185956205Y-39133744D01*
X185842937Y-38964226D01*
X185698774Y-38820063D01*
X185529256Y-38706795D01*
X185340898Y-38628774D01*
X185140939Y-38589000D01*
X184937061Y-38589000D01*
X184737102Y-38628774D01*
X184548744Y-38706795D01*
X184379226Y-38820063D01*
X184235063Y-38964226D01*
X184121795Y-39133744D01*
X184086500Y-39218953D01*
X184051205Y-39133744D01*
X183937937Y-38964226D01*
X183793774Y-38820063D01*
X183624256Y-38706795D01*
X183435898Y-38628774D01*
X183235939Y-38589000D01*
X183032061Y-38589000D01*
X182832102Y-38628774D01*
X182643744Y-38706795D01*
X182474226Y-38820063D01*
X182330063Y-38964226D01*
X182216795Y-39133744D01*
X182138774Y-39322102D01*
X182099000Y-39522061D01*
X172553631Y-39522061D01*
X172617279Y-39426806D01*
X172727374Y-39161012D01*
X172783500Y-38878847D01*
X172783500Y-38591153D01*
X172727374Y-38308988D01*
X172617279Y-38043194D01*
X172457445Y-37803985D01*
X172254015Y-37600555D01*
X172051142Y-37465000D01*
X172254015Y-37329445D01*
X172457445Y-37126015D01*
X172617279Y-36886806D01*
X172727374Y-36621012D01*
X172783500Y-36338847D01*
X172783500Y-36051153D01*
X172727374Y-35768988D01*
X172617279Y-35503194D01*
X172457445Y-35263985D01*
X172254015Y-35060555D01*
X172051142Y-34925000D01*
X172254015Y-34789445D01*
X172347399Y-34696061D01*
X191624000Y-34696061D01*
X191624000Y-34899939D01*
X191663774Y-35099898D01*
X191741795Y-35288256D01*
X191855063Y-35457774D01*
X191999226Y-35601937D01*
X192168744Y-35715205D01*
X192357102Y-35793226D01*
X192557061Y-35833000D01*
X192760939Y-35833000D01*
X192960898Y-35793226D01*
X193149256Y-35715205D01*
X193318774Y-35601937D01*
X193462937Y-35457774D01*
X193576205Y-35288256D01*
X193654226Y-35099898D01*
X193694000Y-34899939D01*
X193694000Y-34696061D01*
X193654226Y-34496102D01*
X193576205Y-34307744D01*
X193462937Y-34138226D01*
X193318774Y-33994063D01*
X193149256Y-33880795D01*
X192960898Y-33802774D01*
X192760939Y-33763000D01*
X192557061Y-33763000D01*
X192357102Y-33802774D01*
X192168744Y-33880795D01*
X191999226Y-33994063D01*
X191855063Y-34138226D01*
X191741795Y-34307744D01*
X191663774Y-34496102D01*
X191624000Y-34696061D01*
X172347399Y-34696061D01*
X172457445Y-34586015D01*
X172617279Y-34346806D01*
X172727374Y-34081012D01*
X172783500Y-33798847D01*
X172783500Y-33511153D01*
X172727374Y-33228988D01*
X172651190Y-33045061D01*
X181591000Y-33045061D01*
X181591000Y-33248939D01*
X181630774Y-33448898D01*
X181708795Y-33637256D01*
X181822063Y-33806774D01*
X181966226Y-33950937D01*
X182135744Y-34064205D01*
X182324102Y-34142226D01*
X182524061Y-34182000D01*
X182727939Y-34182000D01*
X182927898Y-34142226D01*
X183116256Y-34064205D01*
X183285774Y-33950937D01*
X183429937Y-33806774D01*
X183543205Y-33637256D01*
X183621226Y-33448898D01*
X183661000Y-33248939D01*
X183661000Y-33045061D01*
X183621226Y-32845102D01*
X183543205Y-32656744D01*
X183429937Y-32487226D01*
X183285774Y-32343063D01*
X183116256Y-32229795D01*
X182938248Y-32156061D01*
X188449000Y-32156061D01*
X188449000Y-32359939D01*
X188488774Y-32559898D01*
X188566795Y-32748256D01*
X188680063Y-32917774D01*
X188824226Y-33061937D01*
X188993744Y-33175205D01*
X189182102Y-33253226D01*
X189382061Y-33293000D01*
X189585939Y-33293000D01*
X189785898Y-33253226D01*
X189974256Y-33175205D01*
X190143774Y-33061937D01*
X190287937Y-32917774D01*
X190401205Y-32748256D01*
X190479226Y-32559898D01*
X190519000Y-32359939D01*
X190519000Y-32156061D01*
X190479226Y-31956102D01*
X190401205Y-31767744D01*
X190287937Y-31598226D01*
X190143774Y-31454063D01*
X189974256Y-31340795D01*
X189785898Y-31262774D01*
X189585939Y-31223000D01*
X189382061Y-31223000D01*
X189182102Y-31262774D01*
X188993744Y-31340795D01*
X188824226Y-31454063D01*
X188680063Y-31598226D01*
X188566795Y-31767744D01*
X188488774Y-31956102D01*
X188449000Y-32156061D01*
X182938248Y-32156061D01*
X182927898Y-32151774D01*
X182727939Y-32112000D01*
X182524061Y-32112000D01*
X182324102Y-32151774D01*
X182135744Y-32229795D01*
X181966226Y-32343063D01*
X181822063Y-32487226D01*
X181708795Y-32656744D01*
X181630774Y-32845102D01*
X181591000Y-33045061D01*
X172651190Y-33045061D01*
X172617279Y-32963194D01*
X172457445Y-32723985D01*
X172254015Y-32520555D01*
X172051142Y-32385000D01*
X172254015Y-32249445D01*
X172457445Y-32046015D01*
X172617279Y-31806806D01*
X172727374Y-31541012D01*
X172783500Y-31258847D01*
X172783500Y-30971153D01*
X172727374Y-30688988D01*
X172617279Y-30423194D01*
X172457445Y-30183985D01*
X172254015Y-29980555D01*
X172014806Y-29820721D01*
X171749012Y-29710626D01*
X171466847Y-29654500D01*
X171179153Y-29654500D01*
X170896988Y-29710626D01*
X170631194Y-29820721D01*
X170391985Y-29980555D01*
X170188555Y-30183985D01*
X170028721Y-30423194D01*
X169918626Y-30688988D01*
X169862500Y-30971153D01*
X169862500Y-31258847D01*
X169918626Y-31541012D01*
X170028721Y-31806806D01*
X170188555Y-32046015D01*
X170391985Y-32249445D01*
X170594858Y-32385000D01*
X170391985Y-32520555D01*
X170188555Y-32723985D01*
X170028721Y-32963194D01*
X169918626Y-33228988D01*
X169862500Y-33511153D01*
X169862500Y-33798847D01*
X169918626Y-34081012D01*
X170028721Y-34346806D01*
X170188555Y-34586015D01*
X170391985Y-34789445D01*
X170594858Y-34925000D01*
X170391985Y-35060555D01*
X170188555Y-35263985D01*
X170028721Y-35503194D01*
X169918626Y-35768988D01*
X169862500Y-36051153D01*
X169862500Y-36338847D01*
X169918626Y-36621012D01*
X170028721Y-36886806D01*
X170188555Y-37126015D01*
X170391985Y-37329445D01*
X170594858Y-37465000D01*
X170391985Y-37600555D01*
X170188555Y-37803985D01*
X170028721Y-38043194D01*
X169918626Y-38308988D01*
X169862500Y-38591153D01*
X169862500Y-38878847D01*
X169918626Y-39161012D01*
X170028721Y-39426806D01*
X170188555Y-39666015D01*
X170391985Y-39869445D01*
X170594858Y-40005000D01*
X170391985Y-40140555D01*
X170188555Y-40343985D01*
X170028721Y-40583194D01*
X169918626Y-40848988D01*
X169862500Y-41131153D01*
X169862500Y-41418847D01*
X169918626Y-41701012D01*
X170028721Y-41966806D01*
X170188555Y-42206015D01*
X170391985Y-42409445D01*
X170594858Y-42545000D01*
X170391985Y-42680555D01*
X170188555Y-42883985D01*
X170028721Y-43123194D01*
X169918626Y-43388988D01*
X169862500Y-43671153D01*
X169862500Y-43958847D01*
X169918626Y-44241012D01*
X170028721Y-44506806D01*
X170188555Y-44746015D01*
X170391985Y-44949445D01*
X170594858Y-45085000D01*
X170391985Y-45220555D01*
X170188555Y-45423985D01*
X170028721Y-45663194D01*
X169918626Y-45928988D01*
X169862500Y-46211153D01*
X169862500Y-46498847D01*
X169918626Y-46781012D01*
X170028721Y-47046806D01*
X170188555Y-47286015D01*
X170352463Y-47449923D01*
X170253320Y-47479998D01*
X170143006Y-47538963D01*
X170046315Y-47618315D01*
X169966963Y-47715006D01*
X169907998Y-47825320D01*
X169871688Y-47945018D01*
X169859428Y-48069500D01*
X160127000Y-48069500D01*
X160127000Y-42327661D01*
X165611703Y-42327661D01*
X165611703Y-42570935D01*
X165659163Y-42809534D01*
X165752260Y-43034290D01*
X165887416Y-43236565D01*
X166059436Y-43408585D01*
X166261711Y-43543741D01*
X166486467Y-43636838D01*
X166725066Y-43684298D01*
X166968340Y-43684298D01*
X167206939Y-43636838D01*
X167431695Y-43543741D01*
X167633970Y-43408585D01*
X167805990Y-43236565D01*
X167941146Y-43034290D01*
X168034243Y-42809534D01*
X168081703Y-42570935D01*
X168081703Y-42327661D01*
X168034243Y-42089062D01*
X167941146Y-41864306D01*
X167805990Y-41662031D01*
X167633970Y-41490011D01*
X167431695Y-41354855D01*
X167206939Y-41261758D01*
X166968340Y-41214298D01*
X166725066Y-41214298D01*
X166486467Y-41261758D01*
X166261711Y-41354855D01*
X166059436Y-41490011D01*
X165887416Y-41662031D01*
X165752260Y-41864306D01*
X165659163Y-42089062D01*
X165611703Y-42327661D01*
X160127000Y-42327661D01*
X160127000Y-38290500D01*
X160334428Y-38290500D01*
X160346688Y-38414982D01*
X160382998Y-38534680D01*
X160441963Y-38644994D01*
X160521315Y-38741685D01*
X160618006Y-38821037D01*
X160728320Y-38880002D01*
X160848018Y-38916312D01*
X160972500Y-38928572D01*
X161512250Y-38925500D01*
X161671000Y-38766750D01*
X161671000Y-37592000D01*
X160496250Y-37592000D01*
X160337500Y-37750750D01*
X160334428Y-38290500D01*
X160127000Y-38290500D01*
X160127000Y-36639500D01*
X160334428Y-36639500D01*
X160337500Y-37179250D01*
X160496250Y-37338000D01*
X161671000Y-37338000D01*
X161671000Y-36163250D01*
X161925000Y-36163250D01*
X161925000Y-37338000D01*
X161945000Y-37338000D01*
X161945000Y-37592000D01*
X161925000Y-37592000D01*
X161925000Y-38766750D01*
X162083750Y-38925500D01*
X162623500Y-38928572D01*
X162747982Y-38916312D01*
X162867680Y-38880002D01*
X162977994Y-38821037D01*
X163074685Y-38741685D01*
X163154037Y-38644994D01*
X163213002Y-38534680D01*
X163243077Y-38435537D01*
X163406985Y-38599445D01*
X163646194Y-38759279D01*
X163911988Y-38869374D01*
X164194153Y-38925500D01*
X164481847Y-38925500D01*
X164764012Y-38869374D01*
X165029806Y-38759279D01*
X165269015Y-38599445D01*
X165472445Y-38396015D01*
X165608000Y-38193142D01*
X165743555Y-38396015D01*
X165946985Y-38599445D01*
X166186194Y-38759279D01*
X166451988Y-38869374D01*
X166734153Y-38925500D01*
X167021847Y-38925500D01*
X167304012Y-38869374D01*
X167569806Y-38759279D01*
X167809015Y-38599445D01*
X168012445Y-38396015D01*
X168172279Y-38156806D01*
X168282374Y-37891012D01*
X168338500Y-37608847D01*
X168338500Y-37321153D01*
X168282374Y-37038988D01*
X168172279Y-36773194D01*
X168012445Y-36533985D01*
X167809015Y-36330555D01*
X167569806Y-36170721D01*
X167304012Y-36060626D01*
X167021847Y-36004500D01*
X166734153Y-36004500D01*
X166451988Y-36060626D01*
X166186194Y-36170721D01*
X165946985Y-36330555D01*
X165743555Y-36533985D01*
X165608000Y-36736858D01*
X165472445Y-36533985D01*
X165269015Y-36330555D01*
X165029806Y-36170721D01*
X164764012Y-36060626D01*
X164481847Y-36004500D01*
X164194153Y-36004500D01*
X163911988Y-36060626D01*
X163646194Y-36170721D01*
X163406985Y-36330555D01*
X163243077Y-36494463D01*
X163213002Y-36395320D01*
X163154037Y-36285006D01*
X163074685Y-36188315D01*
X162977994Y-36108963D01*
X162867680Y-36049998D01*
X162747982Y-36013688D01*
X162623500Y-36001428D01*
X162083750Y-36004500D01*
X161925000Y-36163250D01*
X161671000Y-36163250D01*
X161512250Y-36004500D01*
X160972500Y-36001428D01*
X160848018Y-36013688D01*
X160728320Y-36049998D01*
X160618006Y-36108963D01*
X160521315Y-36188315D01*
X160441963Y-36285006D01*
X160382998Y-36395320D01*
X160346688Y-36515018D01*
X160334428Y-36639500D01*
X160127000Y-36639500D01*
X160127000Y-35115500D01*
X160334428Y-35115500D01*
X160346688Y-35239982D01*
X160382998Y-35359680D01*
X160441963Y-35469994D01*
X160521315Y-35566685D01*
X160618006Y-35646037D01*
X160728320Y-35705002D01*
X160848018Y-35741312D01*
X160972500Y-35753572D01*
X161512250Y-35750500D01*
X161671000Y-35591750D01*
X161671000Y-34417000D01*
X160496250Y-34417000D01*
X160337500Y-34575750D01*
X160334428Y-35115500D01*
X160127000Y-35115500D01*
X160127000Y-33464500D01*
X160334428Y-33464500D01*
X160337500Y-34004250D01*
X160496250Y-34163000D01*
X161671000Y-34163000D01*
X161671000Y-32988250D01*
X161925000Y-32988250D01*
X161925000Y-34163000D01*
X161945000Y-34163000D01*
X161945000Y-34417000D01*
X161925000Y-34417000D01*
X161925000Y-35591750D01*
X162083750Y-35750500D01*
X162623500Y-35753572D01*
X162747982Y-35741312D01*
X162867680Y-35705002D01*
X162977994Y-35646037D01*
X163074685Y-35566685D01*
X163154037Y-35469994D01*
X163213002Y-35359680D01*
X163243077Y-35260537D01*
X163406985Y-35424445D01*
X163646194Y-35584279D01*
X163911988Y-35694374D01*
X164194153Y-35750500D01*
X164481847Y-35750500D01*
X164764012Y-35694374D01*
X165029806Y-35584279D01*
X165269015Y-35424445D01*
X165472445Y-35221015D01*
X165608000Y-35018142D01*
X165743555Y-35221015D01*
X165946985Y-35424445D01*
X166186194Y-35584279D01*
X166451988Y-35694374D01*
X166734153Y-35750500D01*
X167021847Y-35750500D01*
X167304012Y-35694374D01*
X167569806Y-35584279D01*
X167809015Y-35424445D01*
X168012445Y-35221015D01*
X168172279Y-34981806D01*
X168282374Y-34716012D01*
X168338500Y-34433847D01*
X168338500Y-34146153D01*
X168282374Y-33863988D01*
X168172279Y-33598194D01*
X168012445Y-33358985D01*
X167809015Y-33155555D01*
X167569806Y-32995721D01*
X167304012Y-32885626D01*
X167021847Y-32829500D01*
X166734153Y-32829500D01*
X166451988Y-32885626D01*
X166186194Y-32995721D01*
X165946985Y-33155555D01*
X165743555Y-33358985D01*
X165608000Y-33561858D01*
X165472445Y-33358985D01*
X165269015Y-33155555D01*
X165029806Y-32995721D01*
X164764012Y-32885626D01*
X164481847Y-32829500D01*
X164194153Y-32829500D01*
X163911988Y-32885626D01*
X163646194Y-32995721D01*
X163406985Y-33155555D01*
X163243077Y-33319463D01*
X163213002Y-33220320D01*
X163154037Y-33110006D01*
X163074685Y-33013315D01*
X162977994Y-32933963D01*
X162867680Y-32874998D01*
X162747982Y-32838688D01*
X162623500Y-32826428D01*
X162083750Y-32829500D01*
X161925000Y-32988250D01*
X161671000Y-32988250D01*
X161512250Y-32829500D01*
X160972500Y-32826428D01*
X160848018Y-32838688D01*
X160728320Y-32874998D01*
X160618006Y-32933963D01*
X160521315Y-33013315D01*
X160441963Y-33110006D01*
X160382998Y-33220320D01*
X160346688Y-33340018D01*
X160334428Y-33464500D01*
X160127000Y-33464500D01*
X160127000Y-31940500D01*
X160334428Y-31940500D01*
X160346688Y-32064982D01*
X160382998Y-32184680D01*
X160441963Y-32294994D01*
X160521315Y-32391685D01*
X160618006Y-32471037D01*
X160728320Y-32530002D01*
X160848018Y-32566312D01*
X160972500Y-32578572D01*
X161512250Y-32575500D01*
X161671000Y-32416750D01*
X161671000Y-31242000D01*
X160496250Y-31242000D01*
X160337500Y-31400750D01*
X160334428Y-31940500D01*
X160127000Y-31940500D01*
X160127000Y-30289500D01*
X160334428Y-30289500D01*
X160337500Y-30829250D01*
X160496250Y-30988000D01*
X161671000Y-30988000D01*
X161671000Y-29813250D01*
X161925000Y-29813250D01*
X161925000Y-30988000D01*
X161945000Y-30988000D01*
X161945000Y-31242000D01*
X161925000Y-31242000D01*
X161925000Y-32416750D01*
X162083750Y-32575500D01*
X162623500Y-32578572D01*
X162747982Y-32566312D01*
X162867680Y-32530002D01*
X162977994Y-32471037D01*
X163074685Y-32391685D01*
X163154037Y-32294994D01*
X163213002Y-32184680D01*
X163243077Y-32085537D01*
X163406985Y-32249445D01*
X163646194Y-32409279D01*
X163911988Y-32519374D01*
X164194153Y-32575500D01*
X164481847Y-32575500D01*
X164764012Y-32519374D01*
X165029806Y-32409279D01*
X165269015Y-32249445D01*
X165472445Y-32046015D01*
X165608000Y-31843142D01*
X165743555Y-32046015D01*
X165946985Y-32249445D01*
X166186194Y-32409279D01*
X166451988Y-32519374D01*
X166734153Y-32575500D01*
X167021847Y-32575500D01*
X167304012Y-32519374D01*
X167569806Y-32409279D01*
X167809015Y-32249445D01*
X168012445Y-32046015D01*
X168172279Y-31806806D01*
X168282374Y-31541012D01*
X168338500Y-31258847D01*
X168338500Y-30971153D01*
X168282374Y-30688988D01*
X168172279Y-30423194D01*
X168012445Y-30183985D01*
X167809015Y-29980555D01*
X167569806Y-29820721D01*
X167304012Y-29710626D01*
X167021847Y-29654500D01*
X166734153Y-29654500D01*
X166451988Y-29710626D01*
X166186194Y-29820721D01*
X165946985Y-29980555D01*
X165743555Y-30183985D01*
X165608000Y-30386858D01*
X165472445Y-30183985D01*
X165269015Y-29980555D01*
X165029806Y-29820721D01*
X164764012Y-29710626D01*
X164481847Y-29654500D01*
X164194153Y-29654500D01*
X163911988Y-29710626D01*
X163646194Y-29820721D01*
X163406985Y-29980555D01*
X163243077Y-30144463D01*
X163213002Y-30045320D01*
X163154037Y-29935006D01*
X163074685Y-29838315D01*
X162977994Y-29758963D01*
X162867680Y-29699998D01*
X162747982Y-29663688D01*
X162623500Y-29651428D01*
X162083750Y-29654500D01*
X161925000Y-29813250D01*
X161671000Y-29813250D01*
X161512250Y-29654500D01*
X160972500Y-29651428D01*
X160848018Y-29663688D01*
X160728320Y-29699998D01*
X160618006Y-29758963D01*
X160521315Y-29838315D01*
X160441963Y-29935006D01*
X160382998Y-30045320D01*
X160346688Y-30165018D01*
X160334428Y-30289500D01*
X160127000Y-30289500D01*
X160127000Y-29127000D01*
X214439440Y-29127000D01*
X214314886Y-29251554D01*
X214314886Y-29251554D01*
G37*
X214314886Y-29251554D02*
X213971799Y-29765021D01*
X213735476Y-30335554D01*
X213615000Y-30941229D01*
X213615000Y-31558771D01*
X213735476Y-32164446D01*
X213971799Y-32734979D01*
X214314886Y-33248446D01*
X214751554Y-33685114D01*
X215265021Y-34028201D01*
X215835554Y-34264524D01*
X216441229Y-34385000D01*
X217058771Y-34385000D01*
X217664446Y-34264524D01*
X218234979Y-34028201D01*
X218748446Y-33685114D01*
X218873000Y-33560560D01*
X218873000Y-52873000D01*
X211647360Y-52873000D01*
X211657702Y-52866090D01*
X211977090Y-52546702D01*
X212228030Y-52171143D01*
X212400881Y-51753843D01*
X212489000Y-51310841D01*
X212489000Y-50859159D01*
X212400881Y-50416157D01*
X212228030Y-49998857D01*
X211977090Y-49623298D01*
X211657702Y-49303910D01*
X211282143Y-49052970D01*
X210864843Y-48880119D01*
X210421841Y-48792000D01*
X209970159Y-48792000D01*
X209527157Y-48880119D01*
X209109857Y-49052970D01*
X208734298Y-49303910D01*
X208414910Y-49623298D01*
X208163970Y-49998857D01*
X207991119Y-50416157D01*
X207903000Y-50859159D01*
X207903000Y-51310841D01*
X207991119Y-51753843D01*
X208163970Y-52171143D01*
X208414910Y-52546702D01*
X208734298Y-52866090D01*
X208744640Y-52873000D01*
X198500000Y-52873000D01*
X198475224Y-52875440D01*
X198451399Y-52882667D01*
X198429443Y-52894403D01*
X198410197Y-52910197D01*
X198394403Y-52929443D01*
X198382667Y-52951399D01*
X198375440Y-52975224D01*
X198373000Y-53000000D01*
X198373000Y-55873000D01*
X190000000Y-55873000D01*
X189975224Y-55875440D01*
X189951399Y-55882667D01*
X189929443Y-55894403D01*
X189910197Y-55910197D01*
X189894403Y-55929443D01*
X189882667Y-55951399D01*
X189875440Y-55975224D01*
X189873000Y-56000000D01*
X189873000Y-61872273D01*
X189681194Y-61951721D01*
X189441985Y-62111555D01*
X189238555Y-62314985D01*
X189078721Y-62554194D01*
X188968626Y-62819988D01*
X188912500Y-63102153D01*
X188912500Y-63389847D01*
X188968626Y-63672012D01*
X189078721Y-63937806D01*
X189238555Y-64177015D01*
X189402463Y-64340923D01*
X189303320Y-64370998D01*
X189193006Y-64429963D01*
X189096315Y-64509315D01*
X189016963Y-64606006D01*
X188957998Y-64716320D01*
X188921688Y-64836018D01*
X188909428Y-64960500D01*
X188909428Y-66611500D01*
X188921688Y-66735982D01*
X188957998Y-66855680D01*
X188988001Y-66911810D01*
X188988001Y-67873000D01*
X177127000Y-67873000D01*
X177127000Y-64960500D01*
X183829428Y-64960500D01*
X183829428Y-66611500D01*
X183841688Y-66735982D01*
X183877998Y-66855680D01*
X183936963Y-66965994D01*
X184016315Y-67062685D01*
X184113006Y-67142037D01*
X184223320Y-67201002D01*
X184343018Y-67237312D01*
X184467500Y-67249572D01*
X186118500Y-67249572D01*
X186242982Y-67237312D01*
X186362680Y-67201002D01*
X186472994Y-67142037D01*
X186569685Y-67062685D01*
X186649037Y-66965994D01*
X186708002Y-66855680D01*
X186744312Y-66735982D01*
X186756572Y-66611500D01*
X186756572Y-64960500D01*
X186744312Y-64836018D01*
X186708002Y-64716320D01*
X186649037Y-64606006D01*
X186569685Y-64509315D01*
X186472994Y-64429963D01*
X186362680Y-64370998D01*
X186263537Y-64340923D01*
X186427445Y-64177015D01*
X186587279Y-63937806D01*
X186697374Y-63672012D01*
X186753500Y-63389847D01*
X186753500Y-63102153D01*
X186697374Y-62819988D01*
X186587279Y-62554194D01*
X186427445Y-62314985D01*
X186224015Y-62111555D01*
X185984806Y-61951721D01*
X185719012Y-61841626D01*
X185436847Y-61785500D01*
X185149153Y-61785500D01*
X184866988Y-61841626D01*
X184601194Y-61951721D01*
X184361985Y-62111555D01*
X184158555Y-62314985D01*
X183998721Y-62554194D01*
X183888626Y-62819988D01*
X183832500Y-63102153D01*
X183832500Y-63389847D01*
X183888626Y-63672012D01*
X183998721Y-63937806D01*
X184158555Y-64177015D01*
X184322463Y-64340923D01*
X184223320Y-64370998D01*
X184113006Y-64429963D01*
X184016315Y-64509315D01*
X183936963Y-64606006D01*
X183877998Y-64716320D01*
X183841688Y-64836018D01*
X183829428Y-64960500D01*
X177127000Y-64960500D01*
X177127000Y-61500000D01*
X177124560Y-61475224D01*
X177117333Y-61451399D01*
X177105597Y-61429443D01*
X177089803Y-61410197D01*
X177070557Y-61394403D01*
X177048601Y-61382667D01*
X177024776Y-61375440D01*
X177000000Y-61373000D01*
X172340460Y-61373000D01*
X172457445Y-61256015D01*
X172617279Y-61016806D01*
X172727374Y-60751012D01*
X172783500Y-60468847D01*
X172783500Y-60181153D01*
X172727374Y-59898988D01*
X172617279Y-59633194D01*
X172457445Y-59393985D01*
X172254015Y-59190555D01*
X172051142Y-59055000D01*
X172254015Y-58919445D01*
X172457445Y-58716015D01*
X172617279Y-58476806D01*
X172727374Y-58211012D01*
X172783500Y-57928847D01*
X172783500Y-57641153D01*
X172727374Y-57358988D01*
X172617279Y-57093194D01*
X172457445Y-56853985D01*
X172254015Y-56650555D01*
X172051142Y-56515000D01*
X172254015Y-56379445D01*
X172457445Y-56176015D01*
X172617279Y-55936806D01*
X172727374Y-55671012D01*
X172783500Y-55388847D01*
X172783500Y-55101153D01*
X172727374Y-54818988D01*
X172617279Y-54553194D01*
X172457445Y-54313985D01*
X172254015Y-54110555D01*
X172051142Y-53975000D01*
X172254015Y-53839445D01*
X172457445Y-53636015D01*
X172617279Y-53396806D01*
X172727374Y-53131012D01*
X172761589Y-52959000D01*
X176688815Y-52959000D01*
X176717487Y-53250111D01*
X176802401Y-53530034D01*
X176940294Y-53788014D01*
X177125866Y-54014134D01*
X177351986Y-54199706D01*
X177406791Y-54229000D01*
X177351986Y-54258294D01*
X177125866Y-54443866D01*
X176940294Y-54669986D01*
X176802401Y-54927966D01*
X176717487Y-55207889D01*
X176688815Y-55499000D01*
X176717487Y-55790111D01*
X176802401Y-56070034D01*
X176940294Y-56328014D01*
X177125866Y-56554134D01*
X177351986Y-56739706D01*
X177609966Y-56877599D01*
X177889889Y-56962513D01*
X178108050Y-56984000D01*
X178253950Y-56984000D01*
X178472111Y-56962513D01*
X178752034Y-56877599D01*
X179010014Y-56739706D01*
X179236134Y-56554134D01*
X179421706Y-56328014D01*
X179451000Y-56273209D01*
X179480294Y-56328014D01*
X179665866Y-56554134D01*
X179891986Y-56739706D01*
X180149966Y-56877599D01*
X180429889Y-56962513D01*
X180648050Y-56984000D01*
X180793950Y-56984000D01*
X181012111Y-56962513D01*
X181292034Y-56877599D01*
X181550014Y-56739706D01*
X181776134Y-56554134D01*
X181961706Y-56328014D01*
X182099599Y-56070034D01*
X182184513Y-55790111D01*
X182213185Y-55499000D01*
X182184513Y-55207889D01*
X182099599Y-54927966D01*
X181961706Y-54669986D01*
X181776134Y-54443866D01*
X181550014Y-54258294D01*
X181495209Y-54229000D01*
X181550014Y-54199706D01*
X181776134Y-54014134D01*
X181961706Y-53788014D01*
X182099599Y-53530034D01*
X182184513Y-53250111D01*
X182213185Y-52959000D01*
X182184513Y-52667889D01*
X182099599Y-52387966D01*
X181961706Y-52129986D01*
X181776134Y-51903866D01*
X181550014Y-51718294D01*
X181485477Y-51683799D01*
X181602355Y-51614178D01*
X181818588Y-51419269D01*
X181992641Y-51185920D01*
X182117825Y-50923099D01*
X182162476Y-50775890D01*
X182041155Y-50546000D01*
X180848000Y-50546000D01*
X180848000Y-50566000D01*
X180594000Y-50566000D01*
X180594000Y-50546000D01*
X180574000Y-50546000D01*
X180574000Y-50292000D01*
X180594000Y-50292000D01*
X180594000Y-49098186D01*
X180848000Y-49098186D01*
X180848000Y-50292000D01*
X182041155Y-50292000D01*
X182162476Y-50062110D01*
X182117825Y-49914901D01*
X181992641Y-49652080D01*
X181818588Y-49418731D01*
X181602355Y-49223822D01*
X181352252Y-49074843D01*
X181077891Y-48977519D01*
X180848000Y-49098186D01*
X180594000Y-49098186D01*
X180364109Y-48977519D01*
X180089748Y-49074843D01*
X179839645Y-49223822D01*
X179643498Y-49400626D01*
X179620502Y-49324820D01*
X179561537Y-49214506D01*
X179482185Y-49117815D01*
X179385494Y-49038463D01*
X179275180Y-48979498D01*
X179155482Y-48943188D01*
X179031000Y-48930928D01*
X177331000Y-48930928D01*
X177206518Y-48943188D01*
X177086820Y-48979498D01*
X176976506Y-49038463D01*
X176879815Y-49117815D01*
X176800463Y-49214506D01*
X176741498Y-49324820D01*
X176705188Y-49444518D01*
X176692928Y-49569000D01*
X176692928Y-51269000D01*
X176705188Y-51393482D01*
X176741498Y-51513180D01*
X176800463Y-51623494D01*
X176879815Y-51720185D01*
X176976506Y-51799537D01*
X177086820Y-51858502D01*
X177155687Y-51879393D01*
X177125866Y-51903866D01*
X176940294Y-52129986D01*
X176802401Y-52387966D01*
X176717487Y-52667889D01*
X176688815Y-52959000D01*
X172761589Y-52959000D01*
X172783500Y-52848847D01*
X172783500Y-52561153D01*
X172727374Y-52278988D01*
X172617279Y-52013194D01*
X172457445Y-51773985D01*
X172254015Y-51570555D01*
X172014806Y-51410721D01*
X171749012Y-51300626D01*
X171466847Y-51244500D01*
X171179153Y-51244500D01*
X170896988Y-51300626D01*
X170631194Y-51410721D01*
X170391985Y-51570555D01*
X170188555Y-51773985D01*
X170028721Y-52013194D01*
X169918626Y-52278988D01*
X169862500Y-52561153D01*
X169862500Y-52848847D01*
X169918626Y-53131012D01*
X170028721Y-53396806D01*
X170188555Y-53636015D01*
X170391985Y-53839445D01*
X170594858Y-53975000D01*
X170391985Y-54110555D01*
X170188555Y-54313985D01*
X170028721Y-54553194D01*
X169918626Y-54818988D01*
X169862500Y-55101153D01*
X169862500Y-55388847D01*
X169918626Y-55671012D01*
X170028721Y-55936806D01*
X170188555Y-56176015D01*
X170391985Y-56379445D01*
X170594858Y-56515000D01*
X170391985Y-56650555D01*
X170188555Y-56853985D01*
X170028721Y-57093194D01*
X169918626Y-57358988D01*
X169862500Y-57641153D01*
X169862500Y-57928847D01*
X169918626Y-58211012D01*
X170028721Y-58476806D01*
X170188555Y-58716015D01*
X170391985Y-58919445D01*
X170594858Y-59055000D01*
X170391985Y-59190555D01*
X170188555Y-59393985D01*
X170028721Y-59633194D01*
X169918626Y-59898988D01*
X169862500Y-60181153D01*
X169862500Y-60468847D01*
X169918626Y-60751012D01*
X170028721Y-61016806D01*
X170188555Y-61256015D01*
X170305540Y-61373000D01*
X160127000Y-61373000D01*
X160127000Y-59880500D01*
X160334428Y-59880500D01*
X160346688Y-60004982D01*
X160382998Y-60124680D01*
X160441963Y-60234994D01*
X160521315Y-60331685D01*
X160618006Y-60411037D01*
X160728320Y-60470002D01*
X160848018Y-60506312D01*
X160972500Y-60518572D01*
X161512250Y-60515500D01*
X161671000Y-60356750D01*
X161671000Y-59182000D01*
X160496250Y-59182000D01*
X160337500Y-59340750D01*
X160334428Y-59880500D01*
X160127000Y-59880500D01*
X160127000Y-58229500D01*
X160334428Y-58229500D01*
X160337500Y-58769250D01*
X160496250Y-58928000D01*
X161671000Y-58928000D01*
X161671000Y-57753250D01*
X161925000Y-57753250D01*
X161925000Y-58928000D01*
X161945000Y-58928000D01*
X161945000Y-59182000D01*
X161925000Y-59182000D01*
X161925000Y-60356750D01*
X162083750Y-60515500D01*
X162623500Y-60518572D01*
X162747982Y-60506312D01*
X162867680Y-60470002D01*
X162977994Y-60411037D01*
X163074685Y-60331685D01*
X163154037Y-60234994D01*
X163213002Y-60124680D01*
X163243077Y-60025537D01*
X163406985Y-60189445D01*
X163646194Y-60349279D01*
X163911988Y-60459374D01*
X164194153Y-60515500D01*
X164481847Y-60515500D01*
X164764012Y-60459374D01*
X165029806Y-60349279D01*
X165269015Y-60189445D01*
X165472445Y-59986015D01*
X165608000Y-59783142D01*
X165743555Y-59986015D01*
X165946985Y-60189445D01*
X166186194Y-60349279D01*
X166451988Y-60459374D01*
X166734153Y-60515500D01*
X167021847Y-60515500D01*
X167304012Y-60459374D01*
X167569806Y-60349279D01*
X167809015Y-60189445D01*
X168012445Y-59986015D01*
X168172279Y-59746806D01*
X168282374Y-59481012D01*
X168338500Y-59198847D01*
X168338500Y-58911153D01*
X168282374Y-58628988D01*
X168172279Y-58363194D01*
X168012445Y-58123985D01*
X167809015Y-57920555D01*
X167569806Y-57760721D01*
X167304012Y-57650626D01*
X167021847Y-57594500D01*
X166734153Y-57594500D01*
X166451988Y-57650626D01*
X166186194Y-57760721D01*
X165946985Y-57920555D01*
X165743555Y-58123985D01*
X165608000Y-58326858D01*
X165472445Y-58123985D01*
X165269015Y-57920555D01*
X165029806Y-57760721D01*
X164764012Y-57650626D01*
X164481847Y-57594500D01*
X164194153Y-57594500D01*
X163911988Y-57650626D01*
X163646194Y-57760721D01*
X163406985Y-57920555D01*
X163243077Y-58084463D01*
X163213002Y-57985320D01*
X163154037Y-57875006D01*
X163074685Y-57778315D01*
X162977994Y-57698963D01*
X162867680Y-57639998D01*
X162747982Y-57603688D01*
X162623500Y-57591428D01*
X162083750Y-57594500D01*
X161925000Y-57753250D01*
X161671000Y-57753250D01*
X161512250Y-57594500D01*
X160972500Y-57591428D01*
X160848018Y-57603688D01*
X160728320Y-57639998D01*
X160618006Y-57698963D01*
X160521315Y-57778315D01*
X160441963Y-57875006D01*
X160382998Y-57985320D01*
X160346688Y-58105018D01*
X160334428Y-58229500D01*
X160127000Y-58229500D01*
X160127000Y-56705500D01*
X160334428Y-56705500D01*
X160346688Y-56829982D01*
X160382998Y-56949680D01*
X160441963Y-57059994D01*
X160521315Y-57156685D01*
X160618006Y-57236037D01*
X160728320Y-57295002D01*
X160848018Y-57331312D01*
X160972500Y-57343572D01*
X161512250Y-57340500D01*
X161671000Y-57181750D01*
X161671000Y-56007000D01*
X160496250Y-56007000D01*
X160337500Y-56165750D01*
X160334428Y-56705500D01*
X160127000Y-56705500D01*
X160127000Y-55054500D01*
X160334428Y-55054500D01*
X160337500Y-55594250D01*
X160496250Y-55753000D01*
X161671000Y-55753000D01*
X161671000Y-54578250D01*
X161925000Y-54578250D01*
X161925000Y-55753000D01*
X161945000Y-55753000D01*
X161945000Y-56007000D01*
X161925000Y-56007000D01*
X161925000Y-57181750D01*
X162083750Y-57340500D01*
X162623500Y-57343572D01*
X162747982Y-57331312D01*
X162867680Y-57295002D01*
X162977994Y-57236037D01*
X163074685Y-57156685D01*
X163154037Y-57059994D01*
X163213002Y-56949680D01*
X163243077Y-56850537D01*
X163406985Y-57014445D01*
X163646194Y-57174279D01*
X163911988Y-57284374D01*
X164194153Y-57340500D01*
X164481847Y-57340500D01*
X164764012Y-57284374D01*
X165029806Y-57174279D01*
X165269015Y-57014445D01*
X165472445Y-56811015D01*
X165608000Y-56608142D01*
X165743555Y-56811015D01*
X165946985Y-57014445D01*
X166186194Y-57174279D01*
X166451988Y-57284374D01*
X166734153Y-57340500D01*
X167021847Y-57340500D01*
X167304012Y-57284374D01*
X167569806Y-57174279D01*
X167809015Y-57014445D01*
X168012445Y-56811015D01*
X168172279Y-56571806D01*
X168282374Y-56306012D01*
X168338500Y-56023847D01*
X168338500Y-55736153D01*
X168282374Y-55453988D01*
X168172279Y-55188194D01*
X168012445Y-54948985D01*
X167809015Y-54745555D01*
X167569806Y-54585721D01*
X167304012Y-54475626D01*
X167021847Y-54419500D01*
X166734153Y-54419500D01*
X166451988Y-54475626D01*
X166186194Y-54585721D01*
X165946985Y-54745555D01*
X165743555Y-54948985D01*
X165608000Y-55151858D01*
X165472445Y-54948985D01*
X165269015Y-54745555D01*
X165029806Y-54585721D01*
X164764012Y-54475626D01*
X164481847Y-54419500D01*
X164194153Y-54419500D01*
X163911988Y-54475626D01*
X163646194Y-54585721D01*
X163406985Y-54745555D01*
X163243077Y-54909463D01*
X163213002Y-54810320D01*
X163154037Y-54700006D01*
X163074685Y-54603315D01*
X162977994Y-54523963D01*
X162867680Y-54464998D01*
X162747982Y-54428688D01*
X162623500Y-54416428D01*
X162083750Y-54419500D01*
X161925000Y-54578250D01*
X161671000Y-54578250D01*
X161512250Y-54419500D01*
X160972500Y-54416428D01*
X160848018Y-54428688D01*
X160728320Y-54464998D01*
X160618006Y-54523963D01*
X160521315Y-54603315D01*
X160441963Y-54700006D01*
X160382998Y-54810320D01*
X160346688Y-54930018D01*
X160334428Y-55054500D01*
X160127000Y-55054500D01*
X160127000Y-53530500D01*
X160334428Y-53530500D01*
X160346688Y-53654982D01*
X160382998Y-53774680D01*
X160441963Y-53884994D01*
X160521315Y-53981685D01*
X160618006Y-54061037D01*
X160728320Y-54120002D01*
X160848018Y-54156312D01*
X160972500Y-54168572D01*
X161512250Y-54165500D01*
X161671000Y-54006750D01*
X161671000Y-52832000D01*
X160496250Y-52832000D01*
X160337500Y-52990750D01*
X160334428Y-53530500D01*
X160127000Y-53530500D01*
X160127000Y-51879500D01*
X160334428Y-51879500D01*
X160337500Y-52419250D01*
X160496250Y-52578000D01*
X161671000Y-52578000D01*
X161671000Y-51403250D01*
X161925000Y-51403250D01*
X161925000Y-52578000D01*
X161945000Y-52578000D01*
X161945000Y-52832000D01*
X161925000Y-52832000D01*
X161925000Y-54006750D01*
X162083750Y-54165500D01*
X162623500Y-54168572D01*
X162747982Y-54156312D01*
X162867680Y-54120002D01*
X162977994Y-54061037D01*
X163074685Y-53981685D01*
X163154037Y-53884994D01*
X163213002Y-53774680D01*
X163243077Y-53675537D01*
X163406985Y-53839445D01*
X163646194Y-53999279D01*
X163911988Y-54109374D01*
X164194153Y-54165500D01*
X164481847Y-54165500D01*
X164764012Y-54109374D01*
X165029806Y-53999279D01*
X165269015Y-53839445D01*
X165472445Y-53636015D01*
X165608000Y-53433142D01*
X165743555Y-53636015D01*
X165946985Y-53839445D01*
X166186194Y-53999279D01*
X166451988Y-54109374D01*
X166734153Y-54165500D01*
X167021847Y-54165500D01*
X167304012Y-54109374D01*
X167569806Y-53999279D01*
X167809015Y-53839445D01*
X168012445Y-53636015D01*
X168172279Y-53396806D01*
X168282374Y-53131012D01*
X168338500Y-52848847D01*
X168338500Y-52561153D01*
X168282374Y-52278988D01*
X168172279Y-52013194D01*
X168012445Y-51773985D01*
X167809015Y-51570555D01*
X167569806Y-51410721D01*
X167304012Y-51300626D01*
X167021847Y-51244500D01*
X166734153Y-51244500D01*
X166451988Y-51300626D01*
X166186194Y-51410721D01*
X165946985Y-51570555D01*
X165743555Y-51773985D01*
X165608000Y-51976858D01*
X165472445Y-51773985D01*
X165269015Y-51570555D01*
X165029806Y-51410721D01*
X164764012Y-51300626D01*
X164481847Y-51244500D01*
X164194153Y-51244500D01*
X163911988Y-51300626D01*
X163646194Y-51410721D01*
X163406985Y-51570555D01*
X163243077Y-51734463D01*
X163213002Y-51635320D01*
X163154037Y-51525006D01*
X163074685Y-51428315D01*
X162977994Y-51348963D01*
X162867680Y-51289998D01*
X162747982Y-51253688D01*
X162623500Y-51241428D01*
X162083750Y-51244500D01*
X161925000Y-51403250D01*
X161671000Y-51403250D01*
X161512250Y-51244500D01*
X160972500Y-51241428D01*
X160848018Y-51253688D01*
X160728320Y-51289998D01*
X160618006Y-51348963D01*
X160521315Y-51428315D01*
X160441963Y-51525006D01*
X160382998Y-51635320D01*
X160346688Y-51755018D01*
X160334428Y-51879500D01*
X160127000Y-51879500D01*
X160127000Y-48069500D01*
X169859428Y-48069500D01*
X169859428Y-49720500D01*
X169871688Y-49844982D01*
X169907998Y-49964680D01*
X169966963Y-50074994D01*
X170046315Y-50171685D01*
X170143006Y-50251037D01*
X170253320Y-50310002D01*
X170373018Y-50346312D01*
X170497500Y-50358572D01*
X172148500Y-50358572D01*
X172272982Y-50346312D01*
X172392680Y-50310002D01*
X172502994Y-50251037D01*
X172599685Y-50171685D01*
X172679037Y-50074994D01*
X172738002Y-49964680D01*
X172774312Y-49844982D01*
X172786572Y-49720500D01*
X172786572Y-48069500D01*
X172774312Y-47945018D01*
X172738002Y-47825320D01*
X172679037Y-47715006D01*
X172625739Y-47650061D01*
X197974000Y-47650061D01*
X197974000Y-47853939D01*
X198013774Y-48053898D01*
X198091795Y-48242256D01*
X198205063Y-48411774D01*
X198349226Y-48555937D01*
X198518744Y-48669205D01*
X198707102Y-48747226D01*
X198907061Y-48787000D01*
X199110939Y-48787000D01*
X199310898Y-48747226D01*
X199499256Y-48669205D01*
X199668774Y-48555937D01*
X199812937Y-48411774D01*
X199926205Y-48242256D01*
X200004226Y-48053898D01*
X200044000Y-47853939D01*
X200044000Y-47650061D01*
X200004226Y-47450102D01*
X199926205Y-47261744D01*
X199812937Y-47092226D01*
X199668774Y-46948063D01*
X199499256Y-46834795D01*
X199310898Y-46756774D01*
X199110939Y-46717000D01*
X198907061Y-46717000D01*
X198707102Y-46756774D01*
X198518744Y-46834795D01*
X198349226Y-46948063D01*
X198205063Y-47092226D01*
X198091795Y-47261744D01*
X198013774Y-47450102D01*
X197974000Y-47650061D01*
X172625739Y-47650061D01*
X172599685Y-47618315D01*
X172502994Y-47538963D01*
X172392680Y-47479998D01*
X172293537Y-47449923D01*
X172457445Y-47286015D01*
X172617279Y-47046806D01*
X172727374Y-46781012D01*
X172783500Y-46498847D01*
X172783500Y-46211153D01*
X172727374Y-45928988D01*
X172617279Y-45663194D01*
X172457445Y-45423985D01*
X172254015Y-45220555D01*
X172051142Y-45085000D01*
X172254015Y-44949445D01*
X172457445Y-44746015D01*
X172511202Y-44665561D01*
X181337000Y-44665561D01*
X181337000Y-44869439D01*
X181376774Y-45069398D01*
X181454795Y-45257756D01*
X181568063Y-45427274D01*
X181712226Y-45571437D01*
X181881744Y-45684705D01*
X182070102Y-45762726D01*
X182142605Y-45777148D01*
X182216795Y-45956256D01*
X182330063Y-46125774D01*
X182474226Y-46269937D01*
X182643744Y-46383205D01*
X182832102Y-46461226D01*
X183032061Y-46501000D01*
X183235939Y-46501000D01*
X183435898Y-46461226D01*
X183624256Y-46383205D01*
X183793774Y-46269937D01*
X183937937Y-46125774D01*
X184051205Y-45956256D01*
X184059777Y-45935561D01*
X187750500Y-45935561D01*
X187750500Y-46139439D01*
X187790274Y-46339398D01*
X187868295Y-46527756D01*
X187981563Y-46697274D01*
X188125726Y-46841437D01*
X188295244Y-46954705D01*
X188483602Y-47032726D01*
X188683561Y-47072500D01*
X188887439Y-47072500D01*
X189087398Y-47032726D01*
X189275756Y-46954705D01*
X189445274Y-46841437D01*
X189589437Y-46697274D01*
X189702705Y-46527756D01*
X189780726Y-46339398D01*
X189820500Y-46139439D01*
X189820500Y-45935561D01*
X189780726Y-45735602D01*
X189702705Y-45547244D01*
X189589437Y-45377726D01*
X189445274Y-45233563D01*
X189275756Y-45120295D01*
X189087398Y-45042274D01*
X188887439Y-45002500D01*
X188683561Y-45002500D01*
X188483602Y-45042274D01*
X188295244Y-45120295D01*
X188125726Y-45233563D01*
X187981563Y-45377726D01*
X187868295Y-45547244D01*
X187790274Y-45735602D01*
X187750500Y-45935561D01*
X184059777Y-45935561D01*
X184129226Y-45767898D01*
X184169000Y-45567939D01*
X184169000Y-45364061D01*
X184129226Y-45164102D01*
X184051205Y-44975744D01*
X183937937Y-44806226D01*
X183793774Y-44662063D01*
X183624256Y-44548795D01*
X183435898Y-44470774D01*
X183363395Y-44456352D01*
X183289205Y-44277244D01*
X183175937Y-44107726D01*
X183031774Y-43963563D01*
X182862256Y-43850295D01*
X182673898Y-43772274D01*
X182473939Y-43732500D01*
X182270061Y-43732500D01*
X182070102Y-43772274D01*
X181881744Y-43850295D01*
X181712226Y-43963563D01*
X181568063Y-44107726D01*
X181454795Y-44277244D01*
X181376774Y-44465602D01*
X181337000Y-44665561D01*
X172511202Y-44665561D01*
X172617279Y-44506806D01*
X172727374Y-44241012D01*
X172783500Y-43958847D01*
X172783500Y-43671153D01*
X172727374Y-43388988D01*
X172651190Y-43205061D01*
X193529000Y-43205061D01*
X193529000Y-43408939D01*
X193568774Y-43608898D01*
X193646795Y-43797256D01*
X193760063Y-43966774D01*
X193904226Y-44110937D01*
X194073744Y-44224205D01*
X194262102Y-44302226D01*
X194462061Y-44342000D01*
X194665939Y-44342000D01*
X194865898Y-44302226D01*
X195054256Y-44224205D01*
X195223774Y-44110937D01*
X195367937Y-43966774D01*
X195481205Y-43797256D01*
X195559226Y-43608898D01*
X195599000Y-43408939D01*
X195599000Y-43205061D01*
X195942000Y-43205061D01*
X195942000Y-43408939D01*
X195981774Y-43608898D01*
X196059795Y-43797256D01*
X196173063Y-43966774D01*
X196317226Y-44110937D01*
X196486744Y-44224205D01*
X196675102Y-44302226D01*
X196875061Y-44342000D01*
X197078939Y-44342000D01*
X197278898Y-44302226D01*
X197467256Y-44224205D01*
X197636774Y-44110937D01*
X197780937Y-43966774D01*
X197894205Y-43797256D01*
X197972226Y-43608898D01*
X198012000Y-43408939D01*
X198012000Y-43205061D01*
X197991302Y-43101000D01*
X204133928Y-43101000D01*
X204133928Y-44529000D01*
X204146188Y-44653482D01*
X204182498Y-44773180D01*
X204241463Y-44883494D01*
X204320815Y-44980185D01*
X204417506Y-45059537D01*
X204527820Y-45118502D01*
X204647518Y-45154812D01*
X204772000Y-45167072D01*
X204775860Y-45167072D01*
X204626063Y-45267163D01*
X204438163Y-45455063D01*
X204290532Y-45676009D01*
X204188842Y-45921511D01*
X204137000Y-46182135D01*
X204137000Y-46447865D01*
X204188842Y-46708489D01*
X204290532Y-46953991D01*
X204438163Y-47174937D01*
X204626063Y-47362837D01*
X204847009Y-47510468D01*
X205092511Y-47612158D01*
X205353135Y-47664000D01*
X205618865Y-47664000D01*
X205879489Y-47612158D01*
X206124991Y-47510468D01*
X206345937Y-47362837D01*
X206486000Y-47222774D01*
X206626063Y-47362837D01*
X206847009Y-47510468D01*
X207092511Y-47612158D01*
X207353135Y-47664000D01*
X207618865Y-47664000D01*
X207879489Y-47612158D01*
X208124991Y-47510468D01*
X208345937Y-47362837D01*
X208533837Y-47174937D01*
X208681468Y-46953991D01*
X208783158Y-46708489D01*
X208835000Y-46447865D01*
X208835000Y-46182135D01*
X208783158Y-45921511D01*
X208681468Y-45676009D01*
X208533837Y-45455063D01*
X208345937Y-45267163D01*
X208124991Y-45119532D01*
X207993339Y-45065000D01*
X208124991Y-45010468D01*
X208345937Y-44862837D01*
X208533837Y-44674937D01*
X208681468Y-44453991D01*
X208783158Y-44208489D01*
X208835000Y-43947865D01*
X208835000Y-43682135D01*
X208783158Y-43421511D01*
X208681468Y-43176009D01*
X208533837Y-42955063D01*
X208345937Y-42767163D01*
X208124991Y-42619532D01*
X207879489Y-42517842D01*
X207618865Y-42466000D01*
X207353135Y-42466000D01*
X207092511Y-42517842D01*
X206847009Y-42619532D01*
X206704486Y-42714763D01*
X206651185Y-42649815D01*
X206554494Y-42570463D01*
X206444180Y-42511498D01*
X206324482Y-42475188D01*
X206200000Y-42462928D01*
X204772000Y-42462928D01*
X204647518Y-42475188D01*
X204527820Y-42511498D01*
X204417506Y-42570463D01*
X204320815Y-42649815D01*
X204241463Y-42746506D01*
X204182498Y-42856820D01*
X204146188Y-42976518D01*
X204133928Y-43101000D01*
X197991302Y-43101000D01*
X197972226Y-43005102D01*
X197894205Y-42816744D01*
X197780937Y-42647226D01*
X197636774Y-42503063D01*
X197467256Y-42389795D01*
X197278898Y-42311774D01*
X197078939Y-42272000D01*
X196875061Y-42272000D01*
X196675102Y-42311774D01*
X196486744Y-42389795D01*
X196317226Y-42503063D01*
X196173063Y-42647226D01*
X196059795Y-42816744D01*
X195981774Y-43005102D01*
X195942000Y-43205061D01*
X195599000Y-43205061D01*
X195559226Y-43005102D01*
X195481205Y-42816744D01*
X195367937Y-42647226D01*
X195223774Y-42503063D01*
X195054256Y-42389795D01*
X194865898Y-42311774D01*
X194665939Y-42272000D01*
X194462061Y-42272000D01*
X194262102Y-42311774D01*
X194073744Y-42389795D01*
X193904226Y-42503063D01*
X193760063Y-42647226D01*
X193646795Y-42816744D01*
X193568774Y-43005102D01*
X193529000Y-43205061D01*
X172651190Y-43205061D01*
X172617279Y-43123194D01*
X172457445Y-42883985D01*
X172254015Y-42680555D01*
X172051142Y-42545000D01*
X172254015Y-42409445D01*
X172457445Y-42206015D01*
X172553631Y-42062061D01*
X184512000Y-42062061D01*
X184512000Y-42265939D01*
X184551774Y-42465898D01*
X184629795Y-42654256D01*
X184743063Y-42823774D01*
X184887226Y-42967937D01*
X185056744Y-43081205D01*
X185245102Y-43159226D01*
X185445061Y-43199000D01*
X185648939Y-43199000D01*
X185848898Y-43159226D01*
X186037256Y-43081205D01*
X186206774Y-42967937D01*
X186350937Y-42823774D01*
X186464205Y-42654256D01*
X186542226Y-42465898D01*
X186582000Y-42265939D01*
X186582000Y-42062061D01*
X186563526Y-41969181D01*
X187433000Y-41969181D01*
X187433000Y-42173059D01*
X187472774Y-42373018D01*
X187550795Y-42561376D01*
X187664063Y-42730894D01*
X187808226Y-42875057D01*
X187977744Y-42988325D01*
X188166102Y-43066346D01*
X188366061Y-43106120D01*
X188569939Y-43106120D01*
X188769898Y-43066346D01*
X188958256Y-42988325D01*
X189127774Y-42875057D01*
X189271937Y-42730894D01*
X189385205Y-42561376D01*
X189463226Y-42373018D01*
X189503000Y-42173059D01*
X189503000Y-41969181D01*
X189463226Y-41769222D01*
X189385205Y-41580864D01*
X189271937Y-41411346D01*
X189127774Y-41267183D01*
X188958256Y-41153915D01*
X188769898Y-41075894D01*
X188569939Y-41036120D01*
X188366061Y-41036120D01*
X188166102Y-41075894D01*
X187977744Y-41153915D01*
X187808226Y-41267183D01*
X187664063Y-41411346D01*
X187550795Y-41580864D01*
X187472774Y-41769222D01*
X187433000Y-41969181D01*
X186563526Y-41969181D01*
X186542226Y-41862102D01*
X186464205Y-41673744D01*
X186350937Y-41504226D01*
X186206774Y-41360063D01*
X186037256Y-41246795D01*
X185848898Y-41168774D01*
X185648939Y-41129000D01*
X185445061Y-41129000D01*
X185245102Y-41168774D01*
X185056744Y-41246795D01*
X184887226Y-41360063D01*
X184743063Y-41504226D01*
X184629795Y-41673744D01*
X184551774Y-41862102D01*
X184512000Y-42062061D01*
X172553631Y-42062061D01*
X172617279Y-41966806D01*
X172727374Y-41701012D01*
X172783500Y-41418847D01*
X172783500Y-41131153D01*
X172727374Y-40848988D01*
X172617279Y-40583194D01*
X172457445Y-40343985D01*
X172254015Y-40140555D01*
X172051142Y-40005000D01*
X172254015Y-39869445D01*
X172457445Y-39666015D01*
X172553631Y-39522061D01*
X182099000Y-39522061D01*
X182099000Y-39725939D01*
X182138774Y-39925898D01*
X182216795Y-40114256D01*
X182330063Y-40283774D01*
X182474226Y-40427937D01*
X182643744Y-40541205D01*
X182832102Y-40619226D01*
X183032061Y-40659000D01*
X183235939Y-40659000D01*
X183435898Y-40619226D01*
X183624256Y-40541205D01*
X183793774Y-40427937D01*
X183937937Y-40283774D01*
X184051205Y-40114256D01*
X184086500Y-40029047D01*
X184121795Y-40114256D01*
X184235063Y-40283774D01*
X184379226Y-40427937D01*
X184548744Y-40541205D01*
X184737102Y-40619226D01*
X184937061Y-40659000D01*
X185140939Y-40659000D01*
X185340898Y-40619226D01*
X185529256Y-40541205D01*
X185698774Y-40427937D01*
X185842937Y-40283774D01*
X185956205Y-40114256D01*
X186034226Y-39925898D01*
X186074000Y-39725939D01*
X186074000Y-39522061D01*
X186034226Y-39322102D01*
X186011842Y-39268061D01*
X189592000Y-39268061D01*
X189592000Y-39471939D01*
X189631774Y-39671898D01*
X189709795Y-39860256D01*
X189823063Y-40029774D01*
X189967226Y-40173937D01*
X190136744Y-40287205D01*
X190325102Y-40365226D01*
X190525061Y-40405000D01*
X190728939Y-40405000D01*
X190928898Y-40365226D01*
X191117256Y-40287205D01*
X191286774Y-40173937D01*
X191430937Y-40029774D01*
X191544205Y-39860256D01*
X191622226Y-39671898D01*
X191662000Y-39471939D01*
X191662000Y-39268061D01*
X191622226Y-39068102D01*
X191544205Y-38879744D01*
X191503724Y-38819159D01*
X207903000Y-38819159D01*
X207903000Y-39270841D01*
X207991119Y-39713843D01*
X208163970Y-40131143D01*
X208414910Y-40506702D01*
X208734298Y-40826090D01*
X209109857Y-41077030D01*
X209527157Y-41249881D01*
X209970159Y-41338000D01*
X210421841Y-41338000D01*
X210864843Y-41249881D01*
X211282143Y-41077030D01*
X211657702Y-40826090D01*
X211977090Y-40506702D01*
X212228030Y-40131143D01*
X212400881Y-39713843D01*
X212489000Y-39270841D01*
X212489000Y-38819159D01*
X212400881Y-38376157D01*
X212228030Y-37958857D01*
X211977090Y-37583298D01*
X211657702Y-37263910D01*
X211282143Y-37012970D01*
X210864843Y-36840119D01*
X210421841Y-36752000D01*
X209970159Y-36752000D01*
X209527157Y-36840119D01*
X209109857Y-37012970D01*
X208734298Y-37263910D01*
X208414910Y-37583298D01*
X208163970Y-37958857D01*
X207991119Y-38376157D01*
X207903000Y-38819159D01*
X191503724Y-38819159D01*
X191430937Y-38710226D01*
X191286774Y-38566063D01*
X191117256Y-38452795D01*
X190928898Y-38374774D01*
X190728939Y-38335000D01*
X190525061Y-38335000D01*
X190325102Y-38374774D01*
X190136744Y-38452795D01*
X189967226Y-38566063D01*
X189823063Y-38710226D01*
X189709795Y-38879744D01*
X189631774Y-39068102D01*
X189592000Y-39268061D01*
X186011842Y-39268061D01*
X185956205Y-39133744D01*
X185842937Y-38964226D01*
X185698774Y-38820063D01*
X185529256Y-38706795D01*
X185340898Y-38628774D01*
X185140939Y-38589000D01*
X184937061Y-38589000D01*
X184737102Y-38628774D01*
X184548744Y-38706795D01*
X184379226Y-38820063D01*
X184235063Y-38964226D01*
X184121795Y-39133744D01*
X184086500Y-39218953D01*
X184051205Y-39133744D01*
X183937937Y-38964226D01*
X183793774Y-38820063D01*
X183624256Y-38706795D01*
X183435898Y-38628774D01*
X183235939Y-38589000D01*
X183032061Y-38589000D01*
X182832102Y-38628774D01*
X182643744Y-38706795D01*
X182474226Y-38820063D01*
X182330063Y-38964226D01*
X182216795Y-39133744D01*
X182138774Y-39322102D01*
X182099000Y-39522061D01*
X172553631Y-39522061D01*
X172617279Y-39426806D01*
X172727374Y-39161012D01*
X172783500Y-38878847D01*
X172783500Y-38591153D01*
X172727374Y-38308988D01*
X172617279Y-38043194D01*
X172457445Y-37803985D01*
X172254015Y-37600555D01*
X172051142Y-37465000D01*
X172254015Y-37329445D01*
X172457445Y-37126015D01*
X172617279Y-36886806D01*
X172727374Y-36621012D01*
X172783500Y-36338847D01*
X172783500Y-36051153D01*
X172727374Y-35768988D01*
X172617279Y-35503194D01*
X172457445Y-35263985D01*
X172254015Y-35060555D01*
X172051142Y-34925000D01*
X172254015Y-34789445D01*
X172347399Y-34696061D01*
X191624000Y-34696061D01*
X191624000Y-34899939D01*
X191663774Y-35099898D01*
X191741795Y-35288256D01*
X191855063Y-35457774D01*
X191999226Y-35601937D01*
X192168744Y-35715205D01*
X192357102Y-35793226D01*
X192557061Y-35833000D01*
X192760939Y-35833000D01*
X192960898Y-35793226D01*
X193149256Y-35715205D01*
X193318774Y-35601937D01*
X193462937Y-35457774D01*
X193576205Y-35288256D01*
X193654226Y-35099898D01*
X193694000Y-34899939D01*
X193694000Y-34696061D01*
X193654226Y-34496102D01*
X193576205Y-34307744D01*
X193462937Y-34138226D01*
X193318774Y-33994063D01*
X193149256Y-33880795D01*
X192960898Y-33802774D01*
X192760939Y-33763000D01*
X192557061Y-33763000D01*
X192357102Y-33802774D01*
X192168744Y-33880795D01*
X191999226Y-33994063D01*
X191855063Y-34138226D01*
X191741795Y-34307744D01*
X191663774Y-34496102D01*
X191624000Y-34696061D01*
X172347399Y-34696061D01*
X172457445Y-34586015D01*
X172617279Y-34346806D01*
X172727374Y-34081012D01*
X172783500Y-33798847D01*
X172783500Y-33511153D01*
X172727374Y-33228988D01*
X172651190Y-33045061D01*
X181591000Y-33045061D01*
X181591000Y-33248939D01*
X181630774Y-33448898D01*
X181708795Y-33637256D01*
X181822063Y-33806774D01*
X181966226Y-33950937D01*
X182135744Y-34064205D01*
X182324102Y-34142226D01*
X182524061Y-34182000D01*
X182727939Y-34182000D01*
X182927898Y-34142226D01*
X183116256Y-34064205D01*
X183285774Y-33950937D01*
X183429937Y-33806774D01*
X183543205Y-33637256D01*
X183621226Y-33448898D01*
X183661000Y-33248939D01*
X183661000Y-33045061D01*
X183621226Y-32845102D01*
X183543205Y-32656744D01*
X183429937Y-32487226D01*
X183285774Y-32343063D01*
X183116256Y-32229795D01*
X182938248Y-32156061D01*
X188449000Y-32156061D01*
X188449000Y-32359939D01*
X188488774Y-32559898D01*
X188566795Y-32748256D01*
X188680063Y-32917774D01*
X188824226Y-33061937D01*
X188993744Y-33175205D01*
X189182102Y-33253226D01*
X189382061Y-33293000D01*
X189585939Y-33293000D01*
X189785898Y-33253226D01*
X189974256Y-33175205D01*
X190143774Y-33061937D01*
X190287937Y-32917774D01*
X190401205Y-32748256D01*
X190479226Y-32559898D01*
X190519000Y-32359939D01*
X190519000Y-32156061D01*
X190479226Y-31956102D01*
X190401205Y-31767744D01*
X190287937Y-31598226D01*
X190143774Y-31454063D01*
X189974256Y-31340795D01*
X189785898Y-31262774D01*
X189585939Y-31223000D01*
X189382061Y-31223000D01*
X189182102Y-31262774D01*
X188993744Y-31340795D01*
X188824226Y-31454063D01*
X188680063Y-31598226D01*
X188566795Y-31767744D01*
X188488774Y-31956102D01*
X188449000Y-32156061D01*
X182938248Y-32156061D01*
X182927898Y-32151774D01*
X182727939Y-32112000D01*
X182524061Y-32112000D01*
X182324102Y-32151774D01*
X182135744Y-32229795D01*
X181966226Y-32343063D01*
X181822063Y-32487226D01*
X181708795Y-32656744D01*
X181630774Y-32845102D01*
X181591000Y-33045061D01*
X172651190Y-33045061D01*
X172617279Y-32963194D01*
X172457445Y-32723985D01*
X172254015Y-32520555D01*
X172051142Y-32385000D01*
X172254015Y-32249445D01*
X172457445Y-32046015D01*
X172617279Y-31806806D01*
X172727374Y-31541012D01*
X172783500Y-31258847D01*
X172783500Y-30971153D01*
X172727374Y-30688988D01*
X172617279Y-30423194D01*
X172457445Y-30183985D01*
X172254015Y-29980555D01*
X172014806Y-29820721D01*
X171749012Y-29710626D01*
X171466847Y-29654500D01*
X171179153Y-29654500D01*
X170896988Y-29710626D01*
X170631194Y-29820721D01*
X170391985Y-29980555D01*
X170188555Y-30183985D01*
X170028721Y-30423194D01*
X169918626Y-30688988D01*
X169862500Y-30971153D01*
X169862500Y-31258847D01*
X169918626Y-31541012D01*
X170028721Y-31806806D01*
X170188555Y-32046015D01*
X170391985Y-32249445D01*
X170594858Y-32385000D01*
X170391985Y-32520555D01*
X170188555Y-32723985D01*
X170028721Y-32963194D01*
X169918626Y-33228988D01*
X169862500Y-33511153D01*
X169862500Y-33798847D01*
X169918626Y-34081012D01*
X170028721Y-34346806D01*
X170188555Y-34586015D01*
X170391985Y-34789445D01*
X170594858Y-34925000D01*
X170391985Y-35060555D01*
X170188555Y-35263985D01*
X170028721Y-35503194D01*
X169918626Y-35768988D01*
X169862500Y-36051153D01*
X169862500Y-36338847D01*
X169918626Y-36621012D01*
X170028721Y-36886806D01*
X170188555Y-37126015D01*
X170391985Y-37329445D01*
X170594858Y-37465000D01*
X170391985Y-37600555D01*
X170188555Y-37803985D01*
X170028721Y-38043194D01*
X169918626Y-38308988D01*
X169862500Y-38591153D01*
X169862500Y-38878847D01*
X169918626Y-39161012D01*
X170028721Y-39426806D01*
X170188555Y-39666015D01*
X170391985Y-39869445D01*
X170594858Y-40005000D01*
X170391985Y-40140555D01*
X170188555Y-40343985D01*
X170028721Y-40583194D01*
X169918626Y-40848988D01*
X169862500Y-41131153D01*
X169862500Y-41418847D01*
X169918626Y-41701012D01*
X170028721Y-41966806D01*
X170188555Y-42206015D01*
X170391985Y-42409445D01*
X170594858Y-42545000D01*
X170391985Y-42680555D01*
X170188555Y-42883985D01*
X170028721Y-43123194D01*
X169918626Y-43388988D01*
X169862500Y-43671153D01*
X169862500Y-43958847D01*
X169918626Y-44241012D01*
X170028721Y-44506806D01*
X170188555Y-44746015D01*
X170391985Y-44949445D01*
X170594858Y-45085000D01*
X170391985Y-45220555D01*
X170188555Y-45423985D01*
X170028721Y-45663194D01*
X169918626Y-45928988D01*
X169862500Y-46211153D01*
X169862500Y-46498847D01*
X169918626Y-46781012D01*
X170028721Y-47046806D01*
X170188555Y-47286015D01*
X170352463Y-47449923D01*
X170253320Y-47479998D01*
X170143006Y-47538963D01*
X170046315Y-47618315D01*
X169966963Y-47715006D01*
X169907998Y-47825320D01*
X169871688Y-47945018D01*
X169859428Y-48069500D01*
X160127000Y-48069500D01*
X160127000Y-42327661D01*
X165611703Y-42327661D01*
X165611703Y-42570935D01*
X165659163Y-42809534D01*
X165752260Y-43034290D01*
X165887416Y-43236565D01*
X166059436Y-43408585D01*
X166261711Y-43543741D01*
X166486467Y-43636838D01*
X166725066Y-43684298D01*
X166968340Y-43684298D01*
X167206939Y-43636838D01*
X167431695Y-43543741D01*
X167633970Y-43408585D01*
X167805990Y-43236565D01*
X167941146Y-43034290D01*
X168034243Y-42809534D01*
X168081703Y-42570935D01*
X168081703Y-42327661D01*
X168034243Y-42089062D01*
X167941146Y-41864306D01*
X167805990Y-41662031D01*
X167633970Y-41490011D01*
X167431695Y-41354855D01*
X167206939Y-41261758D01*
X166968340Y-41214298D01*
X166725066Y-41214298D01*
X166486467Y-41261758D01*
X166261711Y-41354855D01*
X166059436Y-41490011D01*
X165887416Y-41662031D01*
X165752260Y-41864306D01*
X165659163Y-42089062D01*
X165611703Y-42327661D01*
X160127000Y-42327661D01*
X160127000Y-38290500D01*
X160334428Y-38290500D01*
X160346688Y-38414982D01*
X160382998Y-38534680D01*
X160441963Y-38644994D01*
X160521315Y-38741685D01*
X160618006Y-38821037D01*
X160728320Y-38880002D01*
X160848018Y-38916312D01*
X160972500Y-38928572D01*
X161512250Y-38925500D01*
X161671000Y-38766750D01*
X161671000Y-37592000D01*
X160496250Y-37592000D01*
X160337500Y-37750750D01*
X160334428Y-38290500D01*
X160127000Y-38290500D01*
X160127000Y-36639500D01*
X160334428Y-36639500D01*
X160337500Y-37179250D01*
X160496250Y-37338000D01*
X161671000Y-37338000D01*
X161671000Y-36163250D01*
X161925000Y-36163250D01*
X161925000Y-37338000D01*
X161945000Y-37338000D01*
X161945000Y-37592000D01*
X161925000Y-37592000D01*
X161925000Y-38766750D01*
X162083750Y-38925500D01*
X162623500Y-38928572D01*
X162747982Y-38916312D01*
X162867680Y-38880002D01*
X162977994Y-38821037D01*
X163074685Y-38741685D01*
X163154037Y-38644994D01*
X163213002Y-38534680D01*
X163243077Y-38435537D01*
X163406985Y-38599445D01*
X163646194Y-38759279D01*
X163911988Y-38869374D01*
X164194153Y-38925500D01*
X164481847Y-38925500D01*
X164764012Y-38869374D01*
X165029806Y-38759279D01*
X165269015Y-38599445D01*
X165472445Y-38396015D01*
X165608000Y-38193142D01*
X165743555Y-38396015D01*
X165946985Y-38599445D01*
X166186194Y-38759279D01*
X166451988Y-38869374D01*
X166734153Y-38925500D01*
X167021847Y-38925500D01*
X167304012Y-38869374D01*
X167569806Y-38759279D01*
X167809015Y-38599445D01*
X168012445Y-38396015D01*
X168172279Y-38156806D01*
X168282374Y-37891012D01*
X168338500Y-37608847D01*
X168338500Y-37321153D01*
X168282374Y-37038988D01*
X168172279Y-36773194D01*
X168012445Y-36533985D01*
X167809015Y-36330555D01*
X167569806Y-36170721D01*
X167304012Y-36060626D01*
X167021847Y-36004500D01*
X166734153Y-36004500D01*
X166451988Y-36060626D01*
X166186194Y-36170721D01*
X165946985Y-36330555D01*
X165743555Y-36533985D01*
X165608000Y-36736858D01*
X165472445Y-36533985D01*
X165269015Y-36330555D01*
X165029806Y-36170721D01*
X164764012Y-36060626D01*
X164481847Y-36004500D01*
X164194153Y-36004500D01*
X163911988Y-36060626D01*
X163646194Y-36170721D01*
X163406985Y-36330555D01*
X163243077Y-36494463D01*
X163213002Y-36395320D01*
X163154037Y-36285006D01*
X163074685Y-36188315D01*
X162977994Y-36108963D01*
X162867680Y-36049998D01*
X162747982Y-36013688D01*
X162623500Y-36001428D01*
X162083750Y-36004500D01*
X161925000Y-36163250D01*
X161671000Y-36163250D01*
X161512250Y-36004500D01*
X160972500Y-36001428D01*
X160848018Y-36013688D01*
X160728320Y-36049998D01*
X160618006Y-36108963D01*
X160521315Y-36188315D01*
X160441963Y-36285006D01*
X160382998Y-36395320D01*
X160346688Y-36515018D01*
X160334428Y-36639500D01*
X160127000Y-36639500D01*
X160127000Y-35115500D01*
X160334428Y-35115500D01*
X160346688Y-35239982D01*
X160382998Y-35359680D01*
X160441963Y-35469994D01*
X160521315Y-35566685D01*
X160618006Y-35646037D01*
X160728320Y-35705002D01*
X160848018Y-35741312D01*
X160972500Y-35753572D01*
X161512250Y-35750500D01*
X161671000Y-35591750D01*
X161671000Y-34417000D01*
X160496250Y-34417000D01*
X160337500Y-34575750D01*
X160334428Y-35115500D01*
X160127000Y-35115500D01*
X160127000Y-33464500D01*
X160334428Y-33464500D01*
X160337500Y-34004250D01*
X160496250Y-34163000D01*
X161671000Y-34163000D01*
X161671000Y-32988250D01*
X161925000Y-32988250D01*
X161925000Y-34163000D01*
X161945000Y-34163000D01*
X161945000Y-34417000D01*
X161925000Y-34417000D01*
X161925000Y-35591750D01*
X162083750Y-35750500D01*
X162623500Y-35753572D01*
X162747982Y-35741312D01*
X162867680Y-35705002D01*
X162977994Y-35646037D01*
X163074685Y-35566685D01*
X163154037Y-35469994D01*
X163213002Y-35359680D01*
X163243077Y-35260537D01*
X163406985Y-35424445D01*
X163646194Y-35584279D01*
X163911988Y-35694374D01*
X164194153Y-35750500D01*
X164481847Y-35750500D01*
X164764012Y-35694374D01*
X165029806Y-35584279D01*
X165269015Y-35424445D01*
X165472445Y-35221015D01*
X165608000Y-35018142D01*
X165743555Y-35221015D01*
X165946985Y-35424445D01*
X166186194Y-35584279D01*
X166451988Y-35694374D01*
X166734153Y-35750500D01*
X167021847Y-35750500D01*
X167304012Y-35694374D01*
X167569806Y-35584279D01*
X167809015Y-35424445D01*
X168012445Y-35221015D01*
X168172279Y-34981806D01*
X168282374Y-34716012D01*
X168338500Y-34433847D01*
X168338500Y-34146153D01*
X168282374Y-33863988D01*
X168172279Y-33598194D01*
X168012445Y-33358985D01*
X167809015Y-33155555D01*
X167569806Y-32995721D01*
X167304012Y-32885626D01*
X167021847Y-32829500D01*
X166734153Y-32829500D01*
X166451988Y-32885626D01*
X166186194Y-32995721D01*
X165946985Y-33155555D01*
X165743555Y-33358985D01*
X165608000Y-33561858D01*
X165472445Y-33358985D01*
X165269015Y-33155555D01*
X165029806Y-32995721D01*
X164764012Y-32885626D01*
X164481847Y-32829500D01*
X164194153Y-32829500D01*
X163911988Y-32885626D01*
X163646194Y-32995721D01*
X163406985Y-33155555D01*
X163243077Y-33319463D01*
X163213002Y-33220320D01*
X163154037Y-33110006D01*
X163074685Y-33013315D01*
X162977994Y-32933963D01*
X162867680Y-32874998D01*
X162747982Y-32838688D01*
X162623500Y-32826428D01*
X162083750Y-32829500D01*
X161925000Y-32988250D01*
X161671000Y-32988250D01*
X161512250Y-32829500D01*
X160972500Y-32826428D01*
X160848018Y-32838688D01*
X160728320Y-32874998D01*
X160618006Y-32933963D01*
X160521315Y-33013315D01*
X160441963Y-33110006D01*
X160382998Y-33220320D01*
X160346688Y-33340018D01*
X160334428Y-33464500D01*
X160127000Y-33464500D01*
X160127000Y-31940500D01*
X160334428Y-31940500D01*
X160346688Y-32064982D01*
X160382998Y-32184680D01*
X160441963Y-32294994D01*
X160521315Y-32391685D01*
X160618006Y-32471037D01*
X160728320Y-32530002D01*
X160848018Y-32566312D01*
X160972500Y-32578572D01*
X161512250Y-32575500D01*
X161671000Y-32416750D01*
X161671000Y-31242000D01*
X160496250Y-31242000D01*
X160337500Y-31400750D01*
X160334428Y-31940500D01*
X160127000Y-31940500D01*
X160127000Y-30289500D01*
X160334428Y-30289500D01*
X160337500Y-30829250D01*
X160496250Y-30988000D01*
X161671000Y-30988000D01*
X161671000Y-29813250D01*
X161925000Y-29813250D01*
X161925000Y-30988000D01*
X161945000Y-30988000D01*
X161945000Y-31242000D01*
X161925000Y-31242000D01*
X161925000Y-32416750D01*
X162083750Y-32575500D01*
X162623500Y-32578572D01*
X162747982Y-32566312D01*
X162867680Y-32530002D01*
X162977994Y-32471037D01*
X163074685Y-32391685D01*
X163154037Y-32294994D01*
X163213002Y-32184680D01*
X163243077Y-32085537D01*
X163406985Y-32249445D01*
X163646194Y-32409279D01*
X163911988Y-32519374D01*
X164194153Y-32575500D01*
X164481847Y-32575500D01*
X164764012Y-32519374D01*
X165029806Y-32409279D01*
X165269015Y-32249445D01*
X165472445Y-32046015D01*
X165608000Y-31843142D01*
X165743555Y-32046015D01*
X165946985Y-32249445D01*
X166186194Y-32409279D01*
X166451988Y-32519374D01*
X166734153Y-32575500D01*
X167021847Y-32575500D01*
X167304012Y-32519374D01*
X167569806Y-32409279D01*
X167809015Y-32249445D01*
X168012445Y-32046015D01*
X168172279Y-31806806D01*
X168282374Y-31541012D01*
X168338500Y-31258847D01*
X168338500Y-30971153D01*
X168282374Y-30688988D01*
X168172279Y-30423194D01*
X168012445Y-30183985D01*
X167809015Y-29980555D01*
X167569806Y-29820721D01*
X167304012Y-29710626D01*
X167021847Y-29654500D01*
X166734153Y-29654500D01*
X166451988Y-29710626D01*
X166186194Y-29820721D01*
X165946985Y-29980555D01*
X165743555Y-30183985D01*
X165608000Y-30386858D01*
X165472445Y-30183985D01*
X165269015Y-29980555D01*
X165029806Y-29820721D01*
X164764012Y-29710626D01*
X164481847Y-29654500D01*
X164194153Y-29654500D01*
X163911988Y-29710626D01*
X163646194Y-29820721D01*
X163406985Y-29980555D01*
X163243077Y-30144463D01*
X163213002Y-30045320D01*
X163154037Y-29935006D01*
X163074685Y-29838315D01*
X162977994Y-29758963D01*
X162867680Y-29699998D01*
X162747982Y-29663688D01*
X162623500Y-29651428D01*
X162083750Y-29654500D01*
X161925000Y-29813250D01*
X161671000Y-29813250D01*
X161512250Y-29654500D01*
X160972500Y-29651428D01*
X160848018Y-29663688D01*
X160728320Y-29699998D01*
X160618006Y-29758963D01*
X160521315Y-29838315D01*
X160441963Y-29935006D01*
X160382998Y-30045320D01*
X160346688Y-30165018D01*
X160334428Y-30289500D01*
X160127000Y-30289500D01*
X160127000Y-29127000D01*
X214439440Y-29127000D01*
X214314886Y-29251554D01*
G36*
X157162500Y-48609250D02*
G01*
X157321250Y-48768000D01*
X158496000Y-48768000D01*
X158496000Y-48748000D01*
X158750000Y-48748000D01*
X158750000Y-48768000D01*
X158770000Y-48768000D01*
X158770000Y-49022000D01*
X158750000Y-49022000D01*
X158750000Y-50196750D01*
X158873000Y-50319750D01*
X158873000Y-51265615D01*
X158766847Y-51244500D01*
X158479153Y-51244500D01*
X158196988Y-51300626D01*
X157931194Y-51410721D01*
X157691985Y-51570555D01*
X157488555Y-51773985D01*
X157328721Y-52013194D01*
X157218626Y-52278988D01*
X157162500Y-52561153D01*
X157162500Y-52848847D01*
X157218626Y-53131012D01*
X157328721Y-53396806D01*
X157488555Y-53636015D01*
X157691985Y-53839445D01*
X157894858Y-53975000D01*
X157691985Y-54110555D01*
X157488555Y-54313985D01*
X157328721Y-54553194D01*
X157218626Y-54818988D01*
X157162500Y-55101153D01*
X157162500Y-55388847D01*
X157218626Y-55671012D01*
X157328721Y-55936806D01*
X157488555Y-56176015D01*
X157691985Y-56379445D01*
X157894858Y-56515000D01*
X157691985Y-56650555D01*
X157488555Y-56853985D01*
X157328721Y-57093194D01*
X157218626Y-57358988D01*
X157162500Y-57641153D01*
X157162500Y-57928847D01*
X157218626Y-58211012D01*
X157328721Y-58476806D01*
X157488555Y-58716015D01*
X157691985Y-58919445D01*
X157894858Y-59055000D01*
X157691985Y-59190555D01*
X157488555Y-59393985D01*
X157328721Y-59633194D01*
X157218626Y-59898988D01*
X157162500Y-60181153D01*
X157162500Y-60468847D01*
X157218626Y-60751012D01*
X157328721Y-61016806D01*
X157488555Y-61256015D01*
X157691985Y-61459445D01*
X157894858Y-61595000D01*
X157691985Y-61730555D01*
X157488555Y-61933985D01*
X157328721Y-62173194D01*
X157218626Y-62438988D01*
X157162500Y-62721153D01*
X157162500Y-63008847D01*
X157218626Y-63291012D01*
X157328721Y-63556806D01*
X157488555Y-63796015D01*
X157691985Y-63999445D01*
X157894858Y-64135000D01*
X157691985Y-64270555D01*
X157488555Y-64473985D01*
X157328721Y-64713194D01*
X157218626Y-64978988D01*
X157162500Y-65261153D01*
X157162500Y-65548847D01*
X157218626Y-65831012D01*
X157328721Y-66096806D01*
X157488555Y-66336015D01*
X157691985Y-66539445D01*
X157894858Y-66675000D01*
X157691985Y-66810555D01*
X157488555Y-67013985D01*
X157328721Y-67253194D01*
X157218626Y-67518988D01*
X157162500Y-67801153D01*
X157162500Y-68088847D01*
X157218626Y-68371012D01*
X157328721Y-68636806D01*
X157488555Y-68876015D01*
X157652463Y-69039923D01*
X157553320Y-69069998D01*
X157443006Y-69128963D01*
X157346315Y-69208315D01*
X157266963Y-69305006D01*
X157207998Y-69415320D01*
X157171688Y-69535018D01*
X157159428Y-69659500D01*
X157162500Y-70199250D01*
X157321250Y-70358000D01*
X158496000Y-70358000D01*
X158496000Y-70338000D01*
X158750000Y-70338000D01*
X158750000Y-70358000D01*
X158770000Y-70358000D01*
X158770000Y-70612000D01*
X158750000Y-70612000D01*
X158750000Y-71786750D01*
X158873000Y-71909750D01*
X158873000Y-72000000D01*
X158875440Y-72024776D01*
X158882667Y-72048601D01*
X158894403Y-72070557D01*
X158910197Y-72089803D01*
X158929443Y-72105597D01*
X158951399Y-72117333D01*
X158975224Y-72124560D01*
X159000000Y-72127000D01*
X175215919Y-72127000D01*
X175125626Y-72344988D01*
X175069500Y-72627153D01*
X175069500Y-72914847D01*
X175125626Y-73197012D01*
X175235721Y-73462806D01*
X175395555Y-73702015D01*
X175598985Y-73905445D01*
X175838194Y-74065279D01*
X176103988Y-74175374D01*
X176386153Y-74231500D01*
X176673847Y-74231500D01*
X176956012Y-74175374D01*
X177221806Y-74065279D01*
X177300001Y-74013031D01*
X177300000Y-76652467D01*
X177268622Y-76626715D01*
X177071446Y-76521323D01*
X176857498Y-76456422D01*
X176690751Y-76439999D01*
X176690750Y-76439999D01*
X176634999Y-76434508D01*
X176579248Y-76439999D01*
X168101751Y-76439999D01*
X168045999Y-76434508D01*
X167823500Y-76456422D01*
X167609552Y-76521323D01*
X167412376Y-76626715D01*
X167282855Y-76733010D01*
X167282854Y-76733011D01*
X167239550Y-76768550D01*
X167204012Y-76811853D01*
X166378938Y-77636928D01*
X165270000Y-77636928D01*
X165145518Y-77649188D01*
X165025820Y-77685498D01*
X164915506Y-77744463D01*
X164818815Y-77823815D01*
X164739463Y-77920506D01*
X164680498Y-78030820D01*
X164644188Y-78150518D01*
X164631928Y-78275000D01*
X164631928Y-80475000D01*
X164644188Y-80599482D01*
X164680498Y-80719180D01*
X164739463Y-80829494D01*
X164818815Y-80926185D01*
X164915506Y-81005537D01*
X165025820Y-81064502D01*
X165145518Y-81100812D01*
X165270000Y-81113072D01*
X167470000Y-81113072D01*
X167594482Y-81100812D01*
X167714180Y-81064502D01*
X167824494Y-81005537D01*
X167921185Y-80926185D01*
X167987557Y-80845310D01*
X168088169Y-80912537D01*
X168403919Y-81043325D01*
X168739117Y-81110000D01*
X169080883Y-81110000D01*
X169416081Y-81043325D01*
X169731831Y-80912537D01*
X170015998Y-80722663D01*
X170156949Y-80581712D01*
X170422893Y-80581712D01*
X170530726Y-80856338D01*
X170837384Y-81007216D01*
X171167585Y-81095369D01*
X171508639Y-81117409D01*
X171847439Y-81072489D01*
X172170966Y-80962336D01*
X172369274Y-80856338D01*
X172477107Y-80581712D01*
X171450000Y-79554605D01*
X170422893Y-80581712D01*
X170156949Y-80581712D01*
X170257663Y-80480998D01*
X170445469Y-80199926D01*
X171270395Y-79375000D01*
X171256253Y-79360858D01*
X171435858Y-79181253D01*
X171450000Y-79195395D01*
X171464143Y-79181253D01*
X171643748Y-79360858D01*
X171629605Y-79375000D01*
X172454531Y-80199926D01*
X172642337Y-80480998D01*
X172884002Y-80722663D01*
X173168169Y-80912537D01*
X173483919Y-81043325D01*
X173819117Y-81110000D01*
X174160883Y-81110000D01*
X174496081Y-81043325D01*
X174811831Y-80912537D01*
X175095998Y-80722663D01*
X175337663Y-80480998D01*
X175527537Y-80196831D01*
X175658325Y-79881081D01*
X175725000Y-79545883D01*
X175725000Y-79204117D01*
X175658325Y-78868919D01*
X175592498Y-78709999D01*
X176164868Y-78709999D01*
X176696928Y-79242059D01*
X176696928Y-80475000D01*
X176709188Y-80599482D01*
X176745498Y-80719180D01*
X176804463Y-80829494D01*
X176883815Y-80926185D01*
X176980506Y-81005537D01*
X177090820Y-81064502D01*
X177210518Y-81100812D01*
X177335000Y-81113072D01*
X179535000Y-81113072D01*
X179659482Y-81100812D01*
X179779180Y-81064502D01*
X179889494Y-81005537D01*
X179986185Y-80926185D01*
X180052557Y-80845310D01*
X180153169Y-80912537D01*
X180468919Y-81043325D01*
X180804117Y-81110000D01*
X181145883Y-81110000D01*
X181481081Y-81043325D01*
X181796831Y-80912537D01*
X182080998Y-80722663D01*
X182245000Y-80558661D01*
X182409002Y-80722663D01*
X182693169Y-80912537D01*
X183008919Y-81043325D01*
X183344117Y-81110000D01*
X183685883Y-81110000D01*
X184021081Y-81043325D01*
X184336831Y-80912537D01*
X184620998Y-80722663D01*
X184761949Y-80581712D01*
X185027893Y-80581712D01*
X185135726Y-80856338D01*
X185442384Y-81007216D01*
X185772585Y-81095369D01*
X186113639Y-81117409D01*
X186452439Y-81072489D01*
X186775966Y-80962336D01*
X186974274Y-80856338D01*
X187082107Y-80581712D01*
X186055000Y-79554605D01*
X185027893Y-80581712D01*
X184761949Y-80581712D01*
X184862663Y-80480998D01*
X185050469Y-80199926D01*
X185875395Y-79375000D01*
X186234605Y-79375000D01*
X187261712Y-80402107D01*
X187536338Y-80294274D01*
X187687216Y-79987616D01*
X187775369Y-79657415D01*
X187797409Y-79316361D01*
X187752489Y-78977561D01*
X187642336Y-78654034D01*
X187536338Y-78455726D01*
X187261712Y-78347893D01*
X186234605Y-79375000D01*
X185875395Y-79375000D01*
X185050469Y-78550074D01*
X184862663Y-78269002D01*
X184761949Y-78168288D01*
X185027893Y-78168288D01*
X186055000Y-79195395D01*
X186975395Y-78275000D01*
X188761928Y-78275000D01*
X188761928Y-80475000D01*
X188774188Y-80599482D01*
X188810498Y-80719180D01*
X188869463Y-80829494D01*
X188948815Y-80926185D01*
X189045506Y-81005537D01*
X189155820Y-81064502D01*
X189275518Y-81100812D01*
X189400000Y-81113072D01*
X191600000Y-81113072D01*
X191724482Y-81100812D01*
X191844180Y-81064502D01*
X191954494Y-81005537D01*
X192051185Y-80926185D01*
X192117557Y-80845310D01*
X192218169Y-80912537D01*
X192533919Y-81043325D01*
X192869117Y-81110000D01*
X193210883Y-81110000D01*
X193546081Y-81043325D01*
X193861831Y-80912537D01*
X194145998Y-80722663D01*
X194310000Y-80558661D01*
X194474002Y-80722663D01*
X194758169Y-80912537D01*
X195073919Y-81043325D01*
X195409117Y-81110000D01*
X195750883Y-81110000D01*
X196086081Y-81043325D01*
X196401831Y-80912537D01*
X196685998Y-80722663D01*
X196850000Y-80558661D01*
X197014002Y-80722663D01*
X197298169Y-80912537D01*
X197613919Y-81043325D01*
X197949117Y-81110000D01*
X198290883Y-81110000D01*
X198626081Y-81043325D01*
X198941831Y-80912537D01*
X199225998Y-80722663D01*
X199467663Y-80480998D01*
X199657537Y-80196831D01*
X199788325Y-79881081D01*
X199855000Y-79545883D01*
X199855000Y-79204117D01*
X199788325Y-78868919D01*
X199657537Y-78553169D01*
X199471671Y-78275000D01*
X200826928Y-78275000D01*
X200826928Y-80475000D01*
X200839188Y-80599482D01*
X200875498Y-80719180D01*
X200934463Y-80829494D01*
X201013815Y-80926185D01*
X201110506Y-81005537D01*
X201220820Y-81064502D01*
X201340518Y-81100812D01*
X201465000Y-81113072D01*
X203665000Y-81113072D01*
X203789482Y-81100812D01*
X203909180Y-81064502D01*
X204019494Y-81005537D01*
X204116185Y-80926185D01*
X204182557Y-80845310D01*
X204283169Y-80912537D01*
X204598919Y-81043325D01*
X204934117Y-81110000D01*
X205275883Y-81110000D01*
X205611081Y-81043325D01*
X205926831Y-80912537D01*
X206210998Y-80722663D01*
X206375000Y-80558661D01*
X206539002Y-80722663D01*
X206823169Y-80912537D01*
X207138919Y-81043325D01*
X207474117Y-81110000D01*
X207815883Y-81110000D01*
X208151081Y-81043325D01*
X208466831Y-80912537D01*
X208750998Y-80722663D01*
X208915000Y-80558661D01*
X209079002Y-80722663D01*
X209363169Y-80912537D01*
X209678919Y-81043325D01*
X210014117Y-81110000D01*
X210355883Y-81110000D01*
X210691081Y-81043325D01*
X211006831Y-80912537D01*
X211290998Y-80722663D01*
X211532663Y-80480998D01*
X211722537Y-80196831D01*
X211853325Y-79881081D01*
X211920000Y-79545883D01*
X211920000Y-79204117D01*
X211853325Y-78868919D01*
X211722537Y-78553169D01*
X211532663Y-78269002D01*
X211290998Y-78027337D01*
X211006831Y-77837463D01*
X210691081Y-77706675D01*
X210355883Y-77640000D01*
X210014117Y-77640000D01*
X209678919Y-77706675D01*
X209363169Y-77837463D01*
X209079002Y-78027337D01*
X208915000Y-78191339D01*
X208750998Y-78027337D01*
X208466831Y-77837463D01*
X208151081Y-77706675D01*
X207815883Y-77640000D01*
X207474117Y-77640000D01*
X207138919Y-77706675D01*
X206823169Y-77837463D01*
X206539002Y-78027337D01*
X206375000Y-78191339D01*
X206210998Y-78027337D01*
X205926831Y-77837463D01*
X205611081Y-77706675D01*
X205275883Y-77640000D01*
X204934117Y-77640000D01*
X204598919Y-77706675D01*
X204283169Y-77837463D01*
X204182557Y-77904690D01*
X204116185Y-77823815D01*
X204019494Y-77744463D01*
X203909180Y-77685498D01*
X203789482Y-77649188D01*
X203665000Y-77636928D01*
X201465000Y-77636928D01*
X201340518Y-77649188D01*
X201220820Y-77685498D01*
X201110506Y-77744463D01*
X201013815Y-77823815D01*
X200934463Y-77920506D01*
X200875498Y-78030820D01*
X200839188Y-78150518D01*
X200826928Y-78275000D01*
X199471671Y-78275000D01*
X199467663Y-78269002D01*
X199225998Y-78027337D01*
X198941831Y-77837463D01*
X198626081Y-77706675D01*
X198290883Y-77640000D01*
X197949117Y-77640000D01*
X197613919Y-77706675D01*
X197298169Y-77837463D01*
X197014002Y-78027337D01*
X196850000Y-78191339D01*
X196685998Y-78027337D01*
X196401831Y-77837463D01*
X196086081Y-77706675D01*
X195750883Y-77640000D01*
X195409117Y-77640000D01*
X195073919Y-77706675D01*
X194758169Y-77837463D01*
X194474002Y-78027337D01*
X194310000Y-78191339D01*
X194145998Y-78027337D01*
X193861831Y-77837463D01*
X193546081Y-77706675D01*
X193210883Y-77640000D01*
X192869117Y-77640000D01*
X192533919Y-77706675D01*
X192218169Y-77837463D01*
X192117557Y-77904690D01*
X192051185Y-77823815D01*
X191954494Y-77744463D01*
X191844180Y-77685498D01*
X191724482Y-77649188D01*
X191600000Y-77636928D01*
X189400000Y-77636928D01*
X189275518Y-77649188D01*
X189155820Y-77685498D01*
X189045506Y-77744463D01*
X188948815Y-77823815D01*
X188869463Y-77920506D01*
X188810498Y-78030820D01*
X188774188Y-78150518D01*
X188761928Y-78275000D01*
X186975395Y-78275000D01*
X187082107Y-78168288D01*
X186974274Y-77893662D01*
X186667616Y-77742784D01*
X186337415Y-77654631D01*
X185996361Y-77632591D01*
X185657561Y-77677511D01*
X185334034Y-77787664D01*
X185135726Y-77893662D01*
X185027893Y-78168288D01*
X184761949Y-78168288D01*
X184620998Y-78027337D01*
X184336831Y-77837463D01*
X184021081Y-77706675D01*
X183685883Y-77640000D01*
X183344117Y-77640000D01*
X183008919Y-77706675D01*
X182693169Y-77837463D01*
X182409002Y-78027337D01*
X182245000Y-78191339D01*
X182080998Y-78027337D01*
X181796831Y-77837463D01*
X181481081Y-77706675D01*
X181145883Y-77640000D01*
X180804117Y-77640000D01*
X180468919Y-77706675D01*
X180153169Y-77837463D01*
X180052557Y-77904690D01*
X179986185Y-77823815D01*
X179889494Y-77744463D01*
X179779180Y-77685498D01*
X179659482Y-77649188D01*
X179570000Y-77640375D01*
X179570000Y-74144727D01*
X179761806Y-74065279D01*
X180001015Y-73905445D01*
X180164923Y-73741537D01*
X180194998Y-73840680D01*
X180253963Y-73950994D01*
X180333315Y-74047685D01*
X180430006Y-74127037D01*
X180540320Y-74186002D01*
X180660018Y-74222312D01*
X180784500Y-74234572D01*
X182435500Y-74234572D01*
X182559982Y-74222312D01*
X182679680Y-74186002D01*
X182789994Y-74127037D01*
X182886685Y-74047685D01*
X182966037Y-73950994D01*
X183025002Y-73840680D01*
X183061312Y-73720982D01*
X183073572Y-73596500D01*
X183073572Y-72127000D01*
X183829428Y-72127000D01*
X183829428Y-73596500D01*
X183841688Y-73720982D01*
X183877998Y-73840680D01*
X183936963Y-73950994D01*
X184016315Y-74047685D01*
X184113006Y-74127037D01*
X184223320Y-74186002D01*
X184343018Y-74222312D01*
X184467500Y-74234572D01*
X186118500Y-74234572D01*
X186242982Y-74222312D01*
X186362680Y-74186002D01*
X186472994Y-74127037D01*
X186569685Y-74047685D01*
X186649037Y-73950994D01*
X186708002Y-73840680D01*
X186738077Y-73741537D01*
X186901985Y-73905445D01*
X187141194Y-74065279D01*
X187406988Y-74175374D01*
X187689153Y-74231500D01*
X187976847Y-74231500D01*
X188259012Y-74175374D01*
X188524806Y-74065279D01*
X188764015Y-73905445D01*
X188887551Y-73781909D01*
X189541696Y-73781909D01*
X189616367Y-74028481D01*
X189876228Y-74151931D01*
X190155180Y-74222313D01*
X190442502Y-74236921D01*
X190727154Y-74195194D01*
X190998196Y-74098737D01*
X191129633Y-74028481D01*
X191204304Y-73781909D01*
X190373000Y-72950605D01*
X189541696Y-73781909D01*
X188887551Y-73781909D01*
X188967445Y-73702015D01*
X189101494Y-73501395D01*
X189115519Y-73527633D01*
X189362091Y-73602304D01*
X190193395Y-72771000D01*
X190179253Y-72756858D01*
X190358858Y-72577253D01*
X190373000Y-72591395D01*
X190387143Y-72577253D01*
X190566748Y-72756858D01*
X190552605Y-72771000D01*
X191383909Y-73602304D01*
X191630481Y-73527633D01*
X191645117Y-73496823D01*
X214855782Y-73496823D01*
X214953478Y-73762860D01*
X215245821Y-73905348D01*
X215560344Y-73988064D01*
X215884962Y-74007831D01*
X216207198Y-73963888D01*
X216514670Y-73857924D01*
X216692522Y-73762860D01*
X216790218Y-73496823D01*
X215823000Y-72529605D01*
X214855782Y-73496823D01*
X191645117Y-73496823D01*
X191753931Y-73267772D01*
X191824313Y-72988820D01*
X191838921Y-72701498D01*
X191797194Y-72416846D01*
X191795456Y-72411962D01*
X214165169Y-72411962D01*
X214209112Y-72734198D01*
X214315076Y-73041670D01*
X214410140Y-73219522D01*
X214676177Y-73317218D01*
X215643395Y-72350000D01*
X216002605Y-72350000D01*
X216969823Y-73317218D01*
X217235860Y-73219522D01*
X217378348Y-72927179D01*
X217461064Y-72612656D01*
X217480831Y-72288038D01*
X217436888Y-71965802D01*
X217330924Y-71658330D01*
X217235860Y-71480478D01*
X216969823Y-71382782D01*
X216002605Y-72350000D01*
X215643395Y-72350000D01*
X214676177Y-71382782D01*
X214410140Y-71480478D01*
X214267652Y-71772821D01*
X214184936Y-72087344D01*
X214165169Y-72411962D01*
X191795456Y-72411962D01*
X191700737Y-72145804D01*
X191690686Y-72127000D01*
X204000000Y-72127000D01*
X204024776Y-72124560D01*
X204048601Y-72117333D01*
X204070557Y-72105597D01*
X204089803Y-72089803D01*
X204105597Y-72070557D01*
X204117333Y-72048601D01*
X204124560Y-72024776D01*
X204127000Y-72000000D01*
X204127000Y-71203177D01*
X214855782Y-71203177D01*
X215823000Y-72170395D01*
X216790218Y-71203177D01*
X216692522Y-70937140D01*
X216400179Y-70794652D01*
X216085656Y-70711936D01*
X215761038Y-70692169D01*
X215438802Y-70736112D01*
X215131330Y-70842076D01*
X214953478Y-70937140D01*
X214855782Y-71203177D01*
X204127000Y-71203177D01*
X204127000Y-66334000D01*
X214168928Y-66334000D01*
X214168928Y-68366000D01*
X214181188Y-68490482D01*
X214217498Y-68610180D01*
X214276463Y-68720494D01*
X214355815Y-68817185D01*
X214452506Y-68896537D01*
X214562820Y-68955502D01*
X214682518Y-68991812D01*
X214807000Y-69004072D01*
X216839000Y-69004072D01*
X216963482Y-68991812D01*
X217083180Y-68955502D01*
X217193494Y-68896537D01*
X217290185Y-68817185D01*
X217369537Y-68720494D01*
X217428502Y-68610180D01*
X217464812Y-68490482D01*
X217477072Y-68366000D01*
X217477072Y-66334000D01*
X217464812Y-66209518D01*
X217428502Y-66089820D01*
X217369537Y-65979506D01*
X217290185Y-65882815D01*
X217193494Y-65803463D01*
X217083180Y-65744498D01*
X216963482Y-65708188D01*
X216839000Y-65695928D01*
X214807000Y-65695928D01*
X214682518Y-65708188D01*
X214562820Y-65744498D01*
X214452506Y-65803463D01*
X214355815Y-65882815D01*
X214276463Y-65979506D01*
X214217498Y-66089820D01*
X214181188Y-66209518D01*
X214168928Y-66334000D01*
X204127000Y-66334000D01*
X204127000Y-61940000D01*
X204911928Y-61940000D01*
X204924188Y-62064482D01*
X204960498Y-62184180D01*
X205019463Y-62294494D01*
X205098815Y-62391185D01*
X205195506Y-62470537D01*
X205305820Y-62529502D01*
X205425518Y-62565812D01*
X205550000Y-62578072D01*
X206264250Y-62575000D01*
X206423000Y-62416250D01*
X206423000Y-59817000D01*
X206677000Y-59817000D01*
X206677000Y-62416250D01*
X206835750Y-62575000D01*
X207550000Y-62578072D01*
X207674482Y-62565812D01*
X207794180Y-62529502D01*
X207904494Y-62470537D01*
X208001185Y-62391185D01*
X208080537Y-62294494D01*
X208139502Y-62184180D01*
X208175812Y-62064482D01*
X208188072Y-61940000D01*
X208185000Y-59975750D01*
X208026250Y-59817000D01*
X206677000Y-59817000D01*
X206423000Y-59817000D01*
X205073750Y-59817000D01*
X204915000Y-59975750D01*
X204911928Y-61940000D01*
X204127000Y-61940000D01*
X204127000Y-57127000D01*
X204997284Y-57127000D01*
X204960498Y-57195820D01*
X204924188Y-57315518D01*
X204911928Y-57440000D01*
X204915000Y-59404250D01*
X205073750Y-59563000D01*
X206423000Y-59563000D01*
X206423000Y-59543000D01*
X206677000Y-59543000D01*
X206677000Y-59563000D01*
X208026250Y-59563000D01*
X208185000Y-59404250D01*
X208188072Y-57440000D01*
X208175812Y-57315518D01*
X208139502Y-57195820D01*
X208102716Y-57127000D01*
X210997284Y-57127000D01*
X210960498Y-57195820D01*
X210924188Y-57315518D01*
X210911928Y-57440000D01*
X210911928Y-61940000D01*
X210924188Y-62064482D01*
X210960498Y-62184180D01*
X211019463Y-62294494D01*
X211098815Y-62391185D01*
X211195506Y-62470537D01*
X211305820Y-62529502D01*
X211425518Y-62565812D01*
X211550000Y-62578072D01*
X213550000Y-62578072D01*
X213674482Y-62565812D01*
X213794180Y-62529502D01*
X213904494Y-62470537D01*
X214001185Y-62391185D01*
X214080537Y-62294494D01*
X214139502Y-62184180D01*
X214175812Y-62064482D01*
X214188072Y-61940000D01*
X214188072Y-57440000D01*
X214175812Y-57315518D01*
X214139502Y-57195820D01*
X214102716Y-57127000D01*
X218873000Y-57127000D01*
X218873000Y-79439440D01*
X218748446Y-79314886D01*
X218234979Y-78971799D01*
X217664446Y-78735476D01*
X217058771Y-78615000D01*
X216441229Y-78615000D01*
X215835554Y-78735476D01*
X215265021Y-78971799D01*
X214751554Y-79314886D01*
X214314886Y-79751554D01*
X213971799Y-80265021D01*
X213735476Y-80835554D01*
X213615000Y-81441229D01*
X213615000Y-82058771D01*
X213735476Y-82664446D01*
X213971799Y-83234979D01*
X214314886Y-83748446D01*
X214439440Y-83873000D01*
X150560560Y-83873000D01*
X150685114Y-83748446D01*
X151028201Y-83234979D01*
X151264524Y-82664446D01*
X151385000Y-82058771D01*
X151385000Y-81441229D01*
X151264524Y-80835554D01*
X151028201Y-80265021D01*
X150685114Y-79751554D01*
X150248446Y-79314886D01*
X149734979Y-78971799D01*
X149164446Y-78735476D01*
X148558771Y-78615000D01*
X147941229Y-78615000D01*
X147335554Y-78735476D01*
X146765021Y-78971799D01*
X146251554Y-79314886D01*
X146127000Y-79439440D01*
X146127000Y-78275000D01*
X152566928Y-78275000D01*
X152566928Y-80475000D01*
X152579188Y-80599482D01*
X152615498Y-80719180D01*
X152674463Y-80829494D01*
X152753815Y-80926185D01*
X152850506Y-81005537D01*
X152960820Y-81064502D01*
X153080518Y-81100812D01*
X153205000Y-81113072D01*
X155405000Y-81113072D01*
X155529482Y-81100812D01*
X155649180Y-81064502D01*
X155759494Y-81005537D01*
X155856185Y-80926185D01*
X155922557Y-80845310D01*
X156023169Y-80912537D01*
X156338919Y-81043325D01*
X156674117Y-81110000D01*
X157015883Y-81110000D01*
X157351081Y-81043325D01*
X157666831Y-80912537D01*
X157950998Y-80722663D01*
X158115000Y-80558661D01*
X158279002Y-80722663D01*
X158563169Y-80912537D01*
X158878919Y-81043325D01*
X159214117Y-81110000D01*
X159555883Y-81110000D01*
X159891081Y-81043325D01*
X160206831Y-80912537D01*
X160490998Y-80722663D01*
X160655000Y-80558661D01*
X160819002Y-80722663D01*
X161103169Y-80912537D01*
X161418919Y-81043325D01*
X161754117Y-81110000D01*
X162095883Y-81110000D01*
X162431081Y-81043325D01*
X162746831Y-80912537D01*
X163030998Y-80722663D01*
X163272663Y-80480998D01*
X163462537Y-80196831D01*
X163593325Y-79881081D01*
X163660000Y-79545883D01*
X163660000Y-79204117D01*
X163593325Y-78868919D01*
X163462537Y-78553169D01*
X163272663Y-78269002D01*
X163030998Y-78027337D01*
X162746831Y-77837463D01*
X162431081Y-77706675D01*
X162095883Y-77640000D01*
X161754117Y-77640000D01*
X161418919Y-77706675D01*
X161103169Y-77837463D01*
X160819002Y-78027337D01*
X160655000Y-78191339D01*
X160490998Y-78027337D01*
X160206831Y-77837463D01*
X159891081Y-77706675D01*
X159555883Y-77640000D01*
X159214117Y-77640000D01*
X158878919Y-77706675D01*
X158563169Y-77837463D01*
X158279002Y-78027337D01*
X158115000Y-78191339D01*
X157950998Y-78027337D01*
X157666831Y-77837463D01*
X157351081Y-77706675D01*
X157015883Y-77640000D01*
X156674117Y-77640000D01*
X156338919Y-77706675D01*
X156023169Y-77837463D01*
X155922557Y-77904690D01*
X155856185Y-77823815D01*
X155759494Y-77744463D01*
X155649180Y-77685498D01*
X155529482Y-77649188D01*
X155405000Y-77636928D01*
X153205000Y-77636928D01*
X153080518Y-77649188D01*
X152960820Y-77685498D01*
X152850506Y-77744463D01*
X152753815Y-77823815D01*
X152674463Y-77920506D01*
X152615498Y-78030820D01*
X152579188Y-78150518D01*
X152566928Y-78275000D01*
X146127000Y-78275000D01*
X146127000Y-71310500D01*
X157159428Y-71310500D01*
X157171688Y-71434982D01*
X157207998Y-71554680D01*
X157266963Y-71664994D01*
X157346315Y-71761685D01*
X157443006Y-71841037D01*
X157553320Y-71900002D01*
X157673018Y-71936312D01*
X157797500Y-71948572D01*
X158337250Y-71945500D01*
X158496000Y-71786750D01*
X158496000Y-70612000D01*
X157321250Y-70612000D01*
X157162500Y-70770750D01*
X157159428Y-71310500D01*
X146127000Y-71310500D01*
X146127000Y-56685000D01*
X148502928Y-56685000D01*
X148502928Y-58885000D01*
X148515188Y-59009482D01*
X148551498Y-59129180D01*
X148610463Y-59239494D01*
X148689815Y-59336185D01*
X148770690Y-59402557D01*
X148703463Y-59503169D01*
X148572675Y-59818919D01*
X148506000Y-60154117D01*
X148506000Y-60495883D01*
X148572675Y-60831081D01*
X148703463Y-61146831D01*
X148893337Y-61430998D01*
X149057339Y-61595000D01*
X148893337Y-61759002D01*
X148703463Y-62043169D01*
X148572675Y-62358919D01*
X148506000Y-62694117D01*
X148506000Y-63035883D01*
X148572675Y-63371081D01*
X148703463Y-63686831D01*
X148893337Y-63970998D01*
X149057339Y-64135000D01*
X148893337Y-64299002D01*
X148703463Y-64583169D01*
X148572675Y-64898919D01*
X148506000Y-65234117D01*
X148506000Y-65575883D01*
X148572675Y-65911081D01*
X148703463Y-66226831D01*
X148893337Y-66510998D01*
X149135002Y-66752663D01*
X149419169Y-66942537D01*
X149734919Y-67073325D01*
X150070117Y-67140000D01*
X150411883Y-67140000D01*
X150747081Y-67073325D01*
X151062831Y-66942537D01*
X151346998Y-66752663D01*
X151588663Y-66510998D01*
X151778537Y-66226831D01*
X151909325Y-65911081D01*
X151976000Y-65575883D01*
X151976000Y-65234117D01*
X151909325Y-64898919D01*
X151778537Y-64583169D01*
X151588663Y-64299002D01*
X151424661Y-64135000D01*
X151588663Y-63970998D01*
X151778537Y-63686831D01*
X151909325Y-63371081D01*
X151976000Y-63035883D01*
X151976000Y-62694117D01*
X151909325Y-62358919D01*
X151778537Y-62043169D01*
X151588663Y-61759002D01*
X151424661Y-61595000D01*
X151588663Y-61430998D01*
X151778537Y-61146831D01*
X151909325Y-60831081D01*
X151976000Y-60495883D01*
X151976000Y-60154117D01*
X151909325Y-59818919D01*
X151778537Y-59503169D01*
X151711310Y-59402557D01*
X151792185Y-59336185D01*
X151871537Y-59239494D01*
X151930502Y-59129180D01*
X151966812Y-59009482D01*
X151979072Y-58885000D01*
X151979072Y-56959500D01*
X153984428Y-56959500D01*
X153984428Y-58610500D01*
X153996688Y-58734982D01*
X154032998Y-58854680D01*
X154091963Y-58964994D01*
X154171315Y-59061685D01*
X154268006Y-59141037D01*
X154378320Y-59200002D01*
X154477463Y-59230077D01*
X154313555Y-59393985D01*
X154153721Y-59633194D01*
X154043626Y-59898988D01*
X153987500Y-60181153D01*
X153987500Y-60468847D01*
X154043626Y-60751012D01*
X154153721Y-61016806D01*
X154313555Y-61256015D01*
X154516985Y-61459445D01*
X154719858Y-61595000D01*
X154516985Y-61730555D01*
X154313555Y-61933985D01*
X154153721Y-62173194D01*
X154043626Y-62438988D01*
X153987500Y-62721153D01*
X153987500Y-63008847D01*
X154043626Y-63291012D01*
X154153721Y-63556806D01*
X154313555Y-63796015D01*
X154516985Y-63999445D01*
X154719858Y-64135000D01*
X154516985Y-64270555D01*
X154313555Y-64473985D01*
X154153721Y-64713194D01*
X154043626Y-64978988D01*
X153987500Y-65261153D01*
X153987500Y-65548847D01*
X154043626Y-65831012D01*
X154153721Y-66096806D01*
X154313555Y-66336015D01*
X154516985Y-66539445D01*
X154756194Y-66699279D01*
X155021988Y-66809374D01*
X155304153Y-66865500D01*
X155591847Y-66865500D01*
X155874012Y-66809374D01*
X156139806Y-66699279D01*
X156379015Y-66539445D01*
X156582445Y-66336015D01*
X156742279Y-66096806D01*
X156852374Y-65831012D01*
X156908500Y-65548847D01*
X156908500Y-65261153D01*
X156852374Y-64978988D01*
X156742279Y-64713194D01*
X156582445Y-64473985D01*
X156379015Y-64270555D01*
X156176142Y-64135000D01*
X156379015Y-63999445D01*
X156582445Y-63796015D01*
X156742279Y-63556806D01*
X156852374Y-63291012D01*
X156908500Y-63008847D01*
X156908500Y-62721153D01*
X156852374Y-62438988D01*
X156742279Y-62173194D01*
X156582445Y-61933985D01*
X156379015Y-61730555D01*
X156176142Y-61595000D01*
X156379015Y-61459445D01*
X156582445Y-61256015D01*
X156742279Y-61016806D01*
X156852374Y-60751012D01*
X156908500Y-60468847D01*
X156908500Y-60181153D01*
X156852374Y-59898988D01*
X156742279Y-59633194D01*
X156582445Y-59393985D01*
X156418537Y-59230077D01*
X156517680Y-59200002D01*
X156627994Y-59141037D01*
X156724685Y-59061685D01*
X156804037Y-58964994D01*
X156863002Y-58854680D01*
X156899312Y-58734982D01*
X156911572Y-58610500D01*
X156911572Y-56959500D01*
X156899312Y-56835018D01*
X156863002Y-56715320D01*
X156804037Y-56605006D01*
X156724685Y-56508315D01*
X156627994Y-56428963D01*
X156517680Y-56369998D01*
X156397982Y-56333688D01*
X156273500Y-56321428D01*
X154622500Y-56321428D01*
X154498018Y-56333688D01*
X154378320Y-56369998D01*
X154268006Y-56428963D01*
X154171315Y-56508315D01*
X154091963Y-56605006D01*
X154032998Y-56715320D01*
X153996688Y-56835018D01*
X153984428Y-56959500D01*
X151979072Y-56959500D01*
X151979072Y-56685000D01*
X151966812Y-56560518D01*
X151930502Y-56440820D01*
X151871537Y-56330506D01*
X151792185Y-56233815D01*
X151695494Y-56154463D01*
X151585180Y-56095498D01*
X151465482Y-56059188D01*
X151341000Y-56046928D01*
X149141000Y-56046928D01*
X149016518Y-56059188D01*
X148896820Y-56095498D01*
X148786506Y-56154463D01*
X148689815Y-56233815D01*
X148610463Y-56330506D01*
X148551498Y-56440820D01*
X148515188Y-56560518D01*
X148502928Y-56685000D01*
X146127000Y-56685000D01*
X146127000Y-49720500D01*
X157159428Y-49720500D01*
X157171688Y-49844982D01*
X157207998Y-49964680D01*
X157266963Y-50074994D01*
X157346315Y-50171685D01*
X157443006Y-50251037D01*
X157553320Y-50310002D01*
X157673018Y-50346312D01*
X157797500Y-50358572D01*
X158337250Y-50355500D01*
X158496000Y-50196750D01*
X158496000Y-49022000D01*
X157321250Y-49022000D01*
X157162500Y-49180750D01*
X157159428Y-49720500D01*
X146127000Y-49720500D01*
X146127000Y-48127000D01*
X157159755Y-48127000D01*
X157162500Y-48609250D01*
X157162500Y-48609250D01*
G37*
X157162500Y-48609250D02*
X157321250Y-48768000D01*
X158496000Y-48768000D01*
X158496000Y-48748000D01*
X158750000Y-48748000D01*
X158750000Y-48768000D01*
X158770000Y-48768000D01*
X158770000Y-49022000D01*
X158750000Y-49022000D01*
X158750000Y-50196750D01*
X158873000Y-50319750D01*
X158873000Y-51265615D01*
X158766847Y-51244500D01*
X158479153Y-51244500D01*
X158196988Y-51300626D01*
X157931194Y-51410721D01*
X157691985Y-51570555D01*
X157488555Y-51773985D01*
X157328721Y-52013194D01*
X157218626Y-52278988D01*
X157162500Y-52561153D01*
X157162500Y-52848847D01*
X157218626Y-53131012D01*
X157328721Y-53396806D01*
X157488555Y-53636015D01*
X157691985Y-53839445D01*
X157894858Y-53975000D01*
X157691985Y-54110555D01*
X157488555Y-54313985D01*
X157328721Y-54553194D01*
X157218626Y-54818988D01*
X157162500Y-55101153D01*
X157162500Y-55388847D01*
X157218626Y-55671012D01*
X157328721Y-55936806D01*
X157488555Y-56176015D01*
X157691985Y-56379445D01*
X157894858Y-56515000D01*
X157691985Y-56650555D01*
X157488555Y-56853985D01*
X157328721Y-57093194D01*
X157218626Y-57358988D01*
X157162500Y-57641153D01*
X157162500Y-57928847D01*
X157218626Y-58211012D01*
X157328721Y-58476806D01*
X157488555Y-58716015D01*
X157691985Y-58919445D01*
X157894858Y-59055000D01*
X157691985Y-59190555D01*
X157488555Y-59393985D01*
X157328721Y-59633194D01*
X157218626Y-59898988D01*
X157162500Y-60181153D01*
X157162500Y-60468847D01*
X157218626Y-60751012D01*
X157328721Y-61016806D01*
X157488555Y-61256015D01*
X157691985Y-61459445D01*
X157894858Y-61595000D01*
X157691985Y-61730555D01*
X157488555Y-61933985D01*
X157328721Y-62173194D01*
X157218626Y-62438988D01*
X157162500Y-62721153D01*
X157162500Y-63008847D01*
X157218626Y-63291012D01*
X157328721Y-63556806D01*
X157488555Y-63796015D01*
X157691985Y-63999445D01*
X157894858Y-64135000D01*
X157691985Y-64270555D01*
X157488555Y-64473985D01*
X157328721Y-64713194D01*
X157218626Y-64978988D01*
X157162500Y-65261153D01*
X157162500Y-65548847D01*
X157218626Y-65831012D01*
X157328721Y-66096806D01*
X157488555Y-66336015D01*
X157691985Y-66539445D01*
X157894858Y-66675000D01*
X157691985Y-66810555D01*
X157488555Y-67013985D01*
X157328721Y-67253194D01*
X157218626Y-67518988D01*
X157162500Y-67801153D01*
X157162500Y-68088847D01*
X157218626Y-68371012D01*
X157328721Y-68636806D01*
X157488555Y-68876015D01*
X157652463Y-69039923D01*
X157553320Y-69069998D01*
X157443006Y-69128963D01*
X157346315Y-69208315D01*
X157266963Y-69305006D01*
X157207998Y-69415320D01*
X157171688Y-69535018D01*
X157159428Y-69659500D01*
X157162500Y-70199250D01*
X157321250Y-70358000D01*
X158496000Y-70358000D01*
X158496000Y-70338000D01*
X158750000Y-70338000D01*
X158750000Y-70358000D01*
X158770000Y-70358000D01*
X158770000Y-70612000D01*
X158750000Y-70612000D01*
X158750000Y-71786750D01*
X158873000Y-71909750D01*
X158873000Y-72000000D01*
X158875440Y-72024776D01*
X158882667Y-72048601D01*
X158894403Y-72070557D01*
X158910197Y-72089803D01*
X158929443Y-72105597D01*
X158951399Y-72117333D01*
X158975224Y-72124560D01*
X159000000Y-72127000D01*
X175215919Y-72127000D01*
X175125626Y-72344988D01*
X175069500Y-72627153D01*
X175069500Y-72914847D01*
X175125626Y-73197012D01*
X175235721Y-73462806D01*
X175395555Y-73702015D01*
X175598985Y-73905445D01*
X175838194Y-74065279D01*
X176103988Y-74175374D01*
X176386153Y-74231500D01*
X176673847Y-74231500D01*
X176956012Y-74175374D01*
X177221806Y-74065279D01*
X177300001Y-74013031D01*
X177300000Y-76652467D01*
X177268622Y-76626715D01*
X177071446Y-76521323D01*
X176857498Y-76456422D01*
X176690751Y-76439999D01*
X176690750Y-76439999D01*
X176634999Y-76434508D01*
X176579248Y-76439999D01*
X168101751Y-76439999D01*
X168045999Y-76434508D01*
X167823500Y-76456422D01*
X167609552Y-76521323D01*
X167412376Y-76626715D01*
X167282855Y-76733010D01*
X167282854Y-76733011D01*
X167239550Y-76768550D01*
X167204012Y-76811853D01*
X166378938Y-77636928D01*
X165270000Y-77636928D01*
X165145518Y-77649188D01*
X165025820Y-77685498D01*
X164915506Y-77744463D01*
X164818815Y-77823815D01*
X164739463Y-77920506D01*
X164680498Y-78030820D01*
X164644188Y-78150518D01*
X164631928Y-78275000D01*
X164631928Y-80475000D01*
X164644188Y-80599482D01*
X164680498Y-80719180D01*
X164739463Y-80829494D01*
X164818815Y-80926185D01*
X164915506Y-81005537D01*
X165025820Y-81064502D01*
X165145518Y-81100812D01*
X165270000Y-81113072D01*
X167470000Y-81113072D01*
X167594482Y-81100812D01*
X167714180Y-81064502D01*
X167824494Y-81005537D01*
X167921185Y-80926185D01*
X167987557Y-80845310D01*
X168088169Y-80912537D01*
X168403919Y-81043325D01*
X168739117Y-81110000D01*
X169080883Y-81110000D01*
X169416081Y-81043325D01*
X169731831Y-80912537D01*
X170015998Y-80722663D01*
X170156949Y-80581712D01*
X170422893Y-80581712D01*
X170530726Y-80856338D01*
X170837384Y-81007216D01*
X171167585Y-81095369D01*
X171508639Y-81117409D01*
X171847439Y-81072489D01*
X172170966Y-80962336D01*
X172369274Y-80856338D01*
X172477107Y-80581712D01*
X171450000Y-79554605D01*
X170422893Y-80581712D01*
X170156949Y-80581712D01*
X170257663Y-80480998D01*
X170445469Y-80199926D01*
X171270395Y-79375000D01*
X171256253Y-79360858D01*
X171435858Y-79181253D01*
X171450000Y-79195395D01*
X171464143Y-79181253D01*
X171643748Y-79360858D01*
X171629605Y-79375000D01*
X172454531Y-80199926D01*
X172642337Y-80480998D01*
X172884002Y-80722663D01*
X173168169Y-80912537D01*
X173483919Y-81043325D01*
X173819117Y-81110000D01*
X174160883Y-81110000D01*
X174496081Y-81043325D01*
X174811831Y-80912537D01*
X175095998Y-80722663D01*
X175337663Y-80480998D01*
X175527537Y-80196831D01*
X175658325Y-79881081D01*
X175725000Y-79545883D01*
X175725000Y-79204117D01*
X175658325Y-78868919D01*
X175592498Y-78709999D01*
X176164868Y-78709999D01*
X176696928Y-79242059D01*
X176696928Y-80475000D01*
X176709188Y-80599482D01*
X176745498Y-80719180D01*
X176804463Y-80829494D01*
X176883815Y-80926185D01*
X176980506Y-81005537D01*
X177090820Y-81064502D01*
X177210518Y-81100812D01*
X177335000Y-81113072D01*
X179535000Y-81113072D01*
X179659482Y-81100812D01*
X179779180Y-81064502D01*
X179889494Y-81005537D01*
X179986185Y-80926185D01*
X180052557Y-80845310D01*
X180153169Y-80912537D01*
X180468919Y-81043325D01*
X180804117Y-81110000D01*
X181145883Y-81110000D01*
X181481081Y-81043325D01*
X181796831Y-80912537D01*
X182080998Y-80722663D01*
X182245000Y-80558661D01*
X182409002Y-80722663D01*
X182693169Y-80912537D01*
X183008919Y-81043325D01*
X183344117Y-81110000D01*
X183685883Y-81110000D01*
X184021081Y-81043325D01*
X184336831Y-80912537D01*
X184620998Y-80722663D01*
X184761949Y-80581712D01*
X185027893Y-80581712D01*
X185135726Y-80856338D01*
X185442384Y-81007216D01*
X185772585Y-81095369D01*
X186113639Y-81117409D01*
X186452439Y-81072489D01*
X186775966Y-80962336D01*
X186974274Y-80856338D01*
X187082107Y-80581712D01*
X186055000Y-79554605D01*
X185027893Y-80581712D01*
X184761949Y-80581712D01*
X184862663Y-80480998D01*
X185050469Y-80199926D01*
X185875395Y-79375000D01*
X186234605Y-79375000D01*
X187261712Y-80402107D01*
X187536338Y-80294274D01*
X187687216Y-79987616D01*
X187775369Y-79657415D01*
X187797409Y-79316361D01*
X187752489Y-78977561D01*
X187642336Y-78654034D01*
X187536338Y-78455726D01*
X187261712Y-78347893D01*
X186234605Y-79375000D01*
X185875395Y-79375000D01*
X185050469Y-78550074D01*
X184862663Y-78269002D01*
X184761949Y-78168288D01*
X185027893Y-78168288D01*
X186055000Y-79195395D01*
X186975395Y-78275000D01*
X188761928Y-78275000D01*
X188761928Y-80475000D01*
X188774188Y-80599482D01*
X188810498Y-80719180D01*
X188869463Y-80829494D01*
X188948815Y-80926185D01*
X189045506Y-81005537D01*
X189155820Y-81064502D01*
X189275518Y-81100812D01*
X189400000Y-81113072D01*
X191600000Y-81113072D01*
X191724482Y-81100812D01*
X191844180Y-81064502D01*
X191954494Y-81005537D01*
X192051185Y-80926185D01*
X192117557Y-80845310D01*
X192218169Y-80912537D01*
X192533919Y-81043325D01*
X192869117Y-81110000D01*
X193210883Y-81110000D01*
X193546081Y-81043325D01*
X193861831Y-80912537D01*
X194145998Y-80722663D01*
X194310000Y-80558661D01*
X194474002Y-80722663D01*
X194758169Y-80912537D01*
X195073919Y-81043325D01*
X195409117Y-81110000D01*
X195750883Y-81110000D01*
X196086081Y-81043325D01*
X196401831Y-80912537D01*
X196685998Y-80722663D01*
X196850000Y-80558661D01*
X197014002Y-80722663D01*
X197298169Y-80912537D01*
X197613919Y-81043325D01*
X197949117Y-81110000D01*
X198290883Y-81110000D01*
X198626081Y-81043325D01*
X198941831Y-80912537D01*
X199225998Y-80722663D01*
X199467663Y-80480998D01*
X199657537Y-80196831D01*
X199788325Y-79881081D01*
X199855000Y-79545883D01*
X199855000Y-79204117D01*
X199788325Y-78868919D01*
X199657537Y-78553169D01*
X199471671Y-78275000D01*
X200826928Y-78275000D01*
X200826928Y-80475000D01*
X200839188Y-80599482D01*
X200875498Y-80719180D01*
X200934463Y-80829494D01*
X201013815Y-80926185D01*
X201110506Y-81005537D01*
X201220820Y-81064502D01*
X201340518Y-81100812D01*
X201465000Y-81113072D01*
X203665000Y-81113072D01*
X203789482Y-81100812D01*
X203909180Y-81064502D01*
X204019494Y-81005537D01*
X204116185Y-80926185D01*
X204182557Y-80845310D01*
X204283169Y-80912537D01*
X204598919Y-81043325D01*
X204934117Y-81110000D01*
X205275883Y-81110000D01*
X205611081Y-81043325D01*
X205926831Y-80912537D01*
X206210998Y-80722663D01*
X206375000Y-80558661D01*
X206539002Y-80722663D01*
X206823169Y-80912537D01*
X207138919Y-81043325D01*
X207474117Y-81110000D01*
X207815883Y-81110000D01*
X208151081Y-81043325D01*
X208466831Y-80912537D01*
X208750998Y-80722663D01*
X208915000Y-80558661D01*
X209079002Y-80722663D01*
X209363169Y-80912537D01*
X209678919Y-81043325D01*
X210014117Y-81110000D01*
X210355883Y-81110000D01*
X210691081Y-81043325D01*
X211006831Y-80912537D01*
X211290998Y-80722663D01*
X211532663Y-80480998D01*
X211722537Y-80196831D01*
X211853325Y-79881081D01*
X211920000Y-79545883D01*
X211920000Y-79204117D01*
X211853325Y-78868919D01*
X211722537Y-78553169D01*
X211532663Y-78269002D01*
X211290998Y-78027337D01*
X211006831Y-77837463D01*
X210691081Y-77706675D01*
X210355883Y-77640000D01*
X210014117Y-77640000D01*
X209678919Y-77706675D01*
X209363169Y-77837463D01*
X209079002Y-78027337D01*
X208915000Y-78191339D01*
X208750998Y-78027337D01*
X208466831Y-77837463D01*
X208151081Y-77706675D01*
X207815883Y-77640000D01*
X207474117Y-77640000D01*
X207138919Y-77706675D01*
X206823169Y-77837463D01*
X206539002Y-78027337D01*
X206375000Y-78191339D01*
X206210998Y-78027337D01*
X205926831Y-77837463D01*
X205611081Y-77706675D01*
X205275883Y-77640000D01*
X204934117Y-77640000D01*
X204598919Y-77706675D01*
X204283169Y-77837463D01*
X204182557Y-77904690D01*
X204116185Y-77823815D01*
X204019494Y-77744463D01*
X203909180Y-77685498D01*
X203789482Y-77649188D01*
X203665000Y-77636928D01*
X201465000Y-77636928D01*
X201340518Y-77649188D01*
X201220820Y-77685498D01*
X201110506Y-77744463D01*
X201013815Y-77823815D01*
X200934463Y-77920506D01*
X200875498Y-78030820D01*
X200839188Y-78150518D01*
X200826928Y-78275000D01*
X199471671Y-78275000D01*
X199467663Y-78269002D01*
X199225998Y-78027337D01*
X198941831Y-77837463D01*
X198626081Y-77706675D01*
X198290883Y-77640000D01*
X197949117Y-77640000D01*
X197613919Y-77706675D01*
X197298169Y-77837463D01*
X197014002Y-78027337D01*
X196850000Y-78191339D01*
X196685998Y-78027337D01*
X196401831Y-77837463D01*
X196086081Y-77706675D01*
X195750883Y-77640000D01*
X195409117Y-77640000D01*
X195073919Y-77706675D01*
X194758169Y-77837463D01*
X194474002Y-78027337D01*
X194310000Y-78191339D01*
X194145998Y-78027337D01*
X193861831Y-77837463D01*
X193546081Y-77706675D01*
X193210883Y-77640000D01*
X192869117Y-77640000D01*
X192533919Y-77706675D01*
X192218169Y-77837463D01*
X192117557Y-77904690D01*
X192051185Y-77823815D01*
X191954494Y-77744463D01*
X191844180Y-77685498D01*
X191724482Y-77649188D01*
X191600000Y-77636928D01*
X189400000Y-77636928D01*
X189275518Y-77649188D01*
X189155820Y-77685498D01*
X189045506Y-77744463D01*
X188948815Y-77823815D01*
X188869463Y-77920506D01*
X188810498Y-78030820D01*
X188774188Y-78150518D01*
X188761928Y-78275000D01*
X186975395Y-78275000D01*
X187082107Y-78168288D01*
X186974274Y-77893662D01*
X186667616Y-77742784D01*
X186337415Y-77654631D01*
X185996361Y-77632591D01*
X185657561Y-77677511D01*
X185334034Y-77787664D01*
X185135726Y-77893662D01*
X185027893Y-78168288D01*
X184761949Y-78168288D01*
X184620998Y-78027337D01*
X184336831Y-77837463D01*
X184021081Y-77706675D01*
X183685883Y-77640000D01*
X183344117Y-77640000D01*
X183008919Y-77706675D01*
X182693169Y-77837463D01*
X182409002Y-78027337D01*
X182245000Y-78191339D01*
X182080998Y-78027337D01*
X181796831Y-77837463D01*
X181481081Y-77706675D01*
X181145883Y-77640000D01*
X180804117Y-77640000D01*
X180468919Y-77706675D01*
X180153169Y-77837463D01*
X180052557Y-77904690D01*
X179986185Y-77823815D01*
X179889494Y-77744463D01*
X179779180Y-77685498D01*
X179659482Y-77649188D01*
X179570000Y-77640375D01*
X179570000Y-74144727D01*
X179761806Y-74065279D01*
X180001015Y-73905445D01*
X180164923Y-73741537D01*
X180194998Y-73840680D01*
X180253963Y-73950994D01*
X180333315Y-74047685D01*
X180430006Y-74127037D01*
X180540320Y-74186002D01*
X180660018Y-74222312D01*
X180784500Y-74234572D01*
X182435500Y-74234572D01*
X182559982Y-74222312D01*
X182679680Y-74186002D01*
X182789994Y-74127037D01*
X182886685Y-74047685D01*
X182966037Y-73950994D01*
X183025002Y-73840680D01*
X183061312Y-73720982D01*
X183073572Y-73596500D01*
X183073572Y-72127000D01*
X183829428Y-72127000D01*
X183829428Y-73596500D01*
X183841688Y-73720982D01*
X183877998Y-73840680D01*
X183936963Y-73950994D01*
X184016315Y-74047685D01*
X184113006Y-74127037D01*
X184223320Y-74186002D01*
X184343018Y-74222312D01*
X184467500Y-74234572D01*
X186118500Y-74234572D01*
X186242982Y-74222312D01*
X186362680Y-74186002D01*
X186472994Y-74127037D01*
X186569685Y-74047685D01*
X186649037Y-73950994D01*
X186708002Y-73840680D01*
X186738077Y-73741537D01*
X186901985Y-73905445D01*
X187141194Y-74065279D01*
X187406988Y-74175374D01*
X187689153Y-74231500D01*
X187976847Y-74231500D01*
X188259012Y-74175374D01*
X188524806Y-74065279D01*
X188764015Y-73905445D01*
X188887551Y-73781909D01*
X189541696Y-73781909D01*
X189616367Y-74028481D01*
X189876228Y-74151931D01*
X190155180Y-74222313D01*
X190442502Y-74236921D01*
X190727154Y-74195194D01*
X190998196Y-74098737D01*
X191129633Y-74028481D01*
X191204304Y-73781909D01*
X190373000Y-72950605D01*
X189541696Y-73781909D01*
X188887551Y-73781909D01*
X188967445Y-73702015D01*
X189101494Y-73501395D01*
X189115519Y-73527633D01*
X189362091Y-73602304D01*
X190193395Y-72771000D01*
X190179253Y-72756858D01*
X190358858Y-72577253D01*
X190373000Y-72591395D01*
X190387143Y-72577253D01*
X190566748Y-72756858D01*
X190552605Y-72771000D01*
X191383909Y-73602304D01*
X191630481Y-73527633D01*
X191645117Y-73496823D01*
X214855782Y-73496823D01*
X214953478Y-73762860D01*
X215245821Y-73905348D01*
X215560344Y-73988064D01*
X215884962Y-74007831D01*
X216207198Y-73963888D01*
X216514670Y-73857924D01*
X216692522Y-73762860D01*
X216790218Y-73496823D01*
X215823000Y-72529605D01*
X214855782Y-73496823D01*
X191645117Y-73496823D01*
X191753931Y-73267772D01*
X191824313Y-72988820D01*
X191838921Y-72701498D01*
X191797194Y-72416846D01*
X191795456Y-72411962D01*
X214165169Y-72411962D01*
X214209112Y-72734198D01*
X214315076Y-73041670D01*
X214410140Y-73219522D01*
X214676177Y-73317218D01*
X215643395Y-72350000D01*
X216002605Y-72350000D01*
X216969823Y-73317218D01*
X217235860Y-73219522D01*
X217378348Y-72927179D01*
X217461064Y-72612656D01*
X217480831Y-72288038D01*
X217436888Y-71965802D01*
X217330924Y-71658330D01*
X217235860Y-71480478D01*
X216969823Y-71382782D01*
X216002605Y-72350000D01*
X215643395Y-72350000D01*
X214676177Y-71382782D01*
X214410140Y-71480478D01*
X214267652Y-71772821D01*
X214184936Y-72087344D01*
X214165169Y-72411962D01*
X191795456Y-72411962D01*
X191700737Y-72145804D01*
X191690686Y-72127000D01*
X204000000Y-72127000D01*
X204024776Y-72124560D01*
X204048601Y-72117333D01*
X204070557Y-72105597D01*
X204089803Y-72089803D01*
X204105597Y-72070557D01*
X204117333Y-72048601D01*
X204124560Y-72024776D01*
X204127000Y-72000000D01*
X204127000Y-71203177D01*
X214855782Y-71203177D01*
X215823000Y-72170395D01*
X216790218Y-71203177D01*
X216692522Y-70937140D01*
X216400179Y-70794652D01*
X216085656Y-70711936D01*
X215761038Y-70692169D01*
X215438802Y-70736112D01*
X215131330Y-70842076D01*
X214953478Y-70937140D01*
X214855782Y-71203177D01*
X204127000Y-71203177D01*
X204127000Y-66334000D01*
X214168928Y-66334000D01*
X214168928Y-68366000D01*
X214181188Y-68490482D01*
X214217498Y-68610180D01*
X214276463Y-68720494D01*
X214355815Y-68817185D01*
X214452506Y-68896537D01*
X214562820Y-68955502D01*
X214682518Y-68991812D01*
X214807000Y-69004072D01*
X216839000Y-69004072D01*
X216963482Y-68991812D01*
X217083180Y-68955502D01*
X217193494Y-68896537D01*
X217290185Y-68817185D01*
X217369537Y-68720494D01*
X217428502Y-68610180D01*
X217464812Y-68490482D01*
X217477072Y-68366000D01*
X217477072Y-66334000D01*
X217464812Y-66209518D01*
X217428502Y-66089820D01*
X217369537Y-65979506D01*
X217290185Y-65882815D01*
X217193494Y-65803463D01*
X217083180Y-65744498D01*
X216963482Y-65708188D01*
X216839000Y-65695928D01*
X214807000Y-65695928D01*
X214682518Y-65708188D01*
X214562820Y-65744498D01*
X214452506Y-65803463D01*
X214355815Y-65882815D01*
X214276463Y-65979506D01*
X214217498Y-66089820D01*
X214181188Y-66209518D01*
X214168928Y-66334000D01*
X204127000Y-66334000D01*
X204127000Y-61940000D01*
X204911928Y-61940000D01*
X204924188Y-62064482D01*
X204960498Y-62184180D01*
X205019463Y-62294494D01*
X205098815Y-62391185D01*
X205195506Y-62470537D01*
X205305820Y-62529502D01*
X205425518Y-62565812D01*
X205550000Y-62578072D01*
X206264250Y-62575000D01*
X206423000Y-62416250D01*
X206423000Y-59817000D01*
X206677000Y-59817000D01*
X206677000Y-62416250D01*
X206835750Y-62575000D01*
X207550000Y-62578072D01*
X207674482Y-62565812D01*
X207794180Y-62529502D01*
X207904494Y-62470537D01*
X208001185Y-62391185D01*
X208080537Y-62294494D01*
X208139502Y-62184180D01*
X208175812Y-62064482D01*
X208188072Y-61940000D01*
X208185000Y-59975750D01*
X208026250Y-59817000D01*
X206677000Y-59817000D01*
X206423000Y-59817000D01*
X205073750Y-59817000D01*
X204915000Y-59975750D01*
X204911928Y-61940000D01*
X204127000Y-61940000D01*
X204127000Y-57127000D01*
X204997284Y-57127000D01*
X204960498Y-57195820D01*
X204924188Y-57315518D01*
X204911928Y-57440000D01*
X204915000Y-59404250D01*
X205073750Y-59563000D01*
X206423000Y-59563000D01*
X206423000Y-59543000D01*
X206677000Y-59543000D01*
X206677000Y-59563000D01*
X208026250Y-59563000D01*
X208185000Y-59404250D01*
X208188072Y-57440000D01*
X208175812Y-57315518D01*
X208139502Y-57195820D01*
X208102716Y-57127000D01*
X210997284Y-57127000D01*
X210960498Y-57195820D01*
X210924188Y-57315518D01*
X210911928Y-57440000D01*
X210911928Y-61940000D01*
X210924188Y-62064482D01*
X210960498Y-62184180D01*
X211019463Y-62294494D01*
X211098815Y-62391185D01*
X211195506Y-62470537D01*
X211305820Y-62529502D01*
X211425518Y-62565812D01*
X211550000Y-62578072D01*
X213550000Y-62578072D01*
X213674482Y-62565812D01*
X213794180Y-62529502D01*
X213904494Y-62470537D01*
X214001185Y-62391185D01*
X214080537Y-62294494D01*
X214139502Y-62184180D01*
X214175812Y-62064482D01*
X214188072Y-61940000D01*
X214188072Y-57440000D01*
X214175812Y-57315518D01*
X214139502Y-57195820D01*
X214102716Y-57127000D01*
X218873000Y-57127000D01*
X218873000Y-79439440D01*
X218748446Y-79314886D01*
X218234979Y-78971799D01*
X217664446Y-78735476D01*
X217058771Y-78615000D01*
X216441229Y-78615000D01*
X215835554Y-78735476D01*
X215265021Y-78971799D01*
X214751554Y-79314886D01*
X214314886Y-79751554D01*
X213971799Y-80265021D01*
X213735476Y-80835554D01*
X213615000Y-81441229D01*
X213615000Y-82058771D01*
X213735476Y-82664446D01*
X213971799Y-83234979D01*
X214314886Y-83748446D01*
X214439440Y-83873000D01*
X150560560Y-83873000D01*
X150685114Y-83748446D01*
X151028201Y-83234979D01*
X151264524Y-82664446D01*
X151385000Y-82058771D01*
X151385000Y-81441229D01*
X151264524Y-80835554D01*
X151028201Y-80265021D01*
X150685114Y-79751554D01*
X150248446Y-79314886D01*
X149734979Y-78971799D01*
X149164446Y-78735476D01*
X148558771Y-78615000D01*
X147941229Y-78615000D01*
X147335554Y-78735476D01*
X146765021Y-78971799D01*
X146251554Y-79314886D01*
X146127000Y-79439440D01*
X146127000Y-78275000D01*
X152566928Y-78275000D01*
X152566928Y-80475000D01*
X152579188Y-80599482D01*
X152615498Y-80719180D01*
X152674463Y-80829494D01*
X152753815Y-80926185D01*
X152850506Y-81005537D01*
X152960820Y-81064502D01*
X153080518Y-81100812D01*
X153205000Y-81113072D01*
X155405000Y-81113072D01*
X155529482Y-81100812D01*
X155649180Y-81064502D01*
X155759494Y-81005537D01*
X155856185Y-80926185D01*
X155922557Y-80845310D01*
X156023169Y-80912537D01*
X156338919Y-81043325D01*
X156674117Y-81110000D01*
X157015883Y-81110000D01*
X157351081Y-81043325D01*
X157666831Y-80912537D01*
X157950998Y-80722663D01*
X158115000Y-80558661D01*
X158279002Y-80722663D01*
X158563169Y-80912537D01*
X158878919Y-81043325D01*
X159214117Y-81110000D01*
X159555883Y-81110000D01*
X159891081Y-81043325D01*
X160206831Y-80912537D01*
X160490998Y-80722663D01*
X160655000Y-80558661D01*
X160819002Y-80722663D01*
X161103169Y-80912537D01*
X161418919Y-81043325D01*
X161754117Y-81110000D01*
X162095883Y-81110000D01*
X162431081Y-81043325D01*
X162746831Y-80912537D01*
X163030998Y-80722663D01*
X163272663Y-80480998D01*
X163462537Y-80196831D01*
X163593325Y-79881081D01*
X163660000Y-79545883D01*
X163660000Y-79204117D01*
X163593325Y-78868919D01*
X163462537Y-78553169D01*
X163272663Y-78269002D01*
X163030998Y-78027337D01*
X162746831Y-77837463D01*
X162431081Y-77706675D01*
X162095883Y-77640000D01*
X161754117Y-77640000D01*
X161418919Y-77706675D01*
X161103169Y-77837463D01*
X160819002Y-78027337D01*
X160655000Y-78191339D01*
X160490998Y-78027337D01*
X160206831Y-77837463D01*
X159891081Y-77706675D01*
X159555883Y-77640000D01*
X159214117Y-77640000D01*
X158878919Y-77706675D01*
X158563169Y-77837463D01*
X158279002Y-78027337D01*
X158115000Y-78191339D01*
X157950998Y-78027337D01*
X157666831Y-77837463D01*
X157351081Y-77706675D01*
X157015883Y-77640000D01*
X156674117Y-77640000D01*
X156338919Y-77706675D01*
X156023169Y-77837463D01*
X155922557Y-77904690D01*
X155856185Y-77823815D01*
X155759494Y-77744463D01*
X155649180Y-77685498D01*
X155529482Y-77649188D01*
X155405000Y-77636928D01*
X153205000Y-77636928D01*
X153080518Y-77649188D01*
X152960820Y-77685498D01*
X152850506Y-77744463D01*
X152753815Y-77823815D01*
X152674463Y-77920506D01*
X152615498Y-78030820D01*
X152579188Y-78150518D01*
X152566928Y-78275000D01*
X146127000Y-78275000D01*
X146127000Y-71310500D01*
X157159428Y-71310500D01*
X157171688Y-71434982D01*
X157207998Y-71554680D01*
X157266963Y-71664994D01*
X157346315Y-71761685D01*
X157443006Y-71841037D01*
X157553320Y-71900002D01*
X157673018Y-71936312D01*
X157797500Y-71948572D01*
X158337250Y-71945500D01*
X158496000Y-71786750D01*
X158496000Y-70612000D01*
X157321250Y-70612000D01*
X157162500Y-70770750D01*
X157159428Y-71310500D01*
X146127000Y-71310500D01*
X146127000Y-56685000D01*
X148502928Y-56685000D01*
X148502928Y-58885000D01*
X148515188Y-59009482D01*
X148551498Y-59129180D01*
X148610463Y-59239494D01*
X148689815Y-59336185D01*
X148770690Y-59402557D01*
X148703463Y-59503169D01*
X148572675Y-59818919D01*
X148506000Y-60154117D01*
X148506000Y-60495883D01*
X148572675Y-60831081D01*
X148703463Y-61146831D01*
X148893337Y-61430998D01*
X149057339Y-61595000D01*
X148893337Y-61759002D01*
X148703463Y-62043169D01*
X148572675Y-62358919D01*
X148506000Y-62694117D01*
X148506000Y-63035883D01*
X148572675Y-63371081D01*
X148703463Y-63686831D01*
X148893337Y-63970998D01*
X149057339Y-64135000D01*
X148893337Y-64299002D01*
X148703463Y-64583169D01*
X148572675Y-64898919D01*
X148506000Y-65234117D01*
X148506000Y-65575883D01*
X148572675Y-65911081D01*
X148703463Y-66226831D01*
X148893337Y-66510998D01*
X149135002Y-66752663D01*
X149419169Y-66942537D01*
X149734919Y-67073325D01*
X150070117Y-67140000D01*
X150411883Y-67140000D01*
X150747081Y-67073325D01*
X151062831Y-66942537D01*
X151346998Y-66752663D01*
X151588663Y-66510998D01*
X151778537Y-66226831D01*
X151909325Y-65911081D01*
X151976000Y-65575883D01*
X151976000Y-65234117D01*
X151909325Y-64898919D01*
X151778537Y-64583169D01*
X151588663Y-64299002D01*
X151424661Y-64135000D01*
X151588663Y-63970998D01*
X151778537Y-63686831D01*
X151909325Y-63371081D01*
X151976000Y-63035883D01*
X151976000Y-62694117D01*
X151909325Y-62358919D01*
X151778537Y-62043169D01*
X151588663Y-61759002D01*
X151424661Y-61595000D01*
X151588663Y-61430998D01*
X151778537Y-61146831D01*
X151909325Y-60831081D01*
X151976000Y-60495883D01*
X151976000Y-60154117D01*
X151909325Y-59818919D01*
X151778537Y-59503169D01*
X151711310Y-59402557D01*
X151792185Y-59336185D01*
X151871537Y-59239494D01*
X151930502Y-59129180D01*
X151966812Y-59009482D01*
X151979072Y-58885000D01*
X151979072Y-56959500D01*
X153984428Y-56959500D01*
X153984428Y-58610500D01*
X153996688Y-58734982D01*
X154032998Y-58854680D01*
X154091963Y-58964994D01*
X154171315Y-59061685D01*
X154268006Y-59141037D01*
X154378320Y-59200002D01*
X154477463Y-59230077D01*
X154313555Y-59393985D01*
X154153721Y-59633194D01*
X154043626Y-59898988D01*
X153987500Y-60181153D01*
X153987500Y-60468847D01*
X154043626Y-60751012D01*
X154153721Y-61016806D01*
X154313555Y-61256015D01*
X154516985Y-61459445D01*
X154719858Y-61595000D01*
X154516985Y-61730555D01*
X154313555Y-61933985D01*
X154153721Y-62173194D01*
X154043626Y-62438988D01*
X153987500Y-62721153D01*
X153987500Y-63008847D01*
X154043626Y-63291012D01*
X154153721Y-63556806D01*
X154313555Y-63796015D01*
X154516985Y-63999445D01*
X154719858Y-64135000D01*
X154516985Y-64270555D01*
X154313555Y-64473985D01*
X154153721Y-64713194D01*
X154043626Y-64978988D01*
X153987500Y-65261153D01*
X153987500Y-65548847D01*
X154043626Y-65831012D01*
X154153721Y-66096806D01*
X154313555Y-66336015D01*
X154516985Y-66539445D01*
X154756194Y-66699279D01*
X155021988Y-66809374D01*
X155304153Y-66865500D01*
X155591847Y-66865500D01*
X155874012Y-66809374D01*
X156139806Y-66699279D01*
X156379015Y-66539445D01*
X156582445Y-66336015D01*
X156742279Y-66096806D01*
X156852374Y-65831012D01*
X156908500Y-65548847D01*
X156908500Y-65261153D01*
X156852374Y-64978988D01*
X156742279Y-64713194D01*
X156582445Y-64473985D01*
X156379015Y-64270555D01*
X156176142Y-64135000D01*
X156379015Y-63999445D01*
X156582445Y-63796015D01*
X156742279Y-63556806D01*
X156852374Y-63291012D01*
X156908500Y-63008847D01*
X156908500Y-62721153D01*
X156852374Y-62438988D01*
X156742279Y-62173194D01*
X156582445Y-61933985D01*
X156379015Y-61730555D01*
X156176142Y-61595000D01*
X156379015Y-61459445D01*
X156582445Y-61256015D01*
X156742279Y-61016806D01*
X156852374Y-60751012D01*
X156908500Y-60468847D01*
X156908500Y-60181153D01*
X156852374Y-59898988D01*
X156742279Y-59633194D01*
X156582445Y-59393985D01*
X156418537Y-59230077D01*
X156517680Y-59200002D01*
X156627994Y-59141037D01*
X156724685Y-59061685D01*
X156804037Y-58964994D01*
X156863002Y-58854680D01*
X156899312Y-58734982D01*
X156911572Y-58610500D01*
X156911572Y-56959500D01*
X156899312Y-56835018D01*
X156863002Y-56715320D01*
X156804037Y-56605006D01*
X156724685Y-56508315D01*
X156627994Y-56428963D01*
X156517680Y-56369998D01*
X156397982Y-56333688D01*
X156273500Y-56321428D01*
X154622500Y-56321428D01*
X154498018Y-56333688D01*
X154378320Y-56369998D01*
X154268006Y-56428963D01*
X154171315Y-56508315D01*
X154091963Y-56605006D01*
X154032998Y-56715320D01*
X153996688Y-56835018D01*
X153984428Y-56959500D01*
X151979072Y-56959500D01*
X151979072Y-56685000D01*
X151966812Y-56560518D01*
X151930502Y-56440820D01*
X151871537Y-56330506D01*
X151792185Y-56233815D01*
X151695494Y-56154463D01*
X151585180Y-56095498D01*
X151465482Y-56059188D01*
X151341000Y-56046928D01*
X149141000Y-56046928D01*
X149016518Y-56059188D01*
X148896820Y-56095498D01*
X148786506Y-56154463D01*
X148689815Y-56233815D01*
X148610463Y-56330506D01*
X148551498Y-56440820D01*
X148515188Y-56560518D01*
X148502928Y-56685000D01*
X146127000Y-56685000D01*
X146127000Y-49720500D01*
X157159428Y-49720500D01*
X157171688Y-49844982D01*
X157207998Y-49964680D01*
X157266963Y-50074994D01*
X157346315Y-50171685D01*
X157443006Y-50251037D01*
X157553320Y-50310002D01*
X157673018Y-50346312D01*
X157797500Y-50358572D01*
X158337250Y-50355500D01*
X158496000Y-50196750D01*
X158496000Y-49022000D01*
X157321250Y-49022000D01*
X157162500Y-49180750D01*
X157159428Y-49720500D01*
X146127000Y-49720500D01*
X146127000Y-48127000D01*
X157159755Y-48127000D01*
X157162500Y-48609250D01*
G36*
X203873000Y-71873000D02*
G01*
X194306606Y-71873000D01*
X199089803Y-67089803D01*
X199105597Y-67070557D01*
X199117333Y-67048601D01*
X199124560Y-67024776D01*
X199127000Y-67000000D01*
X199127000Y-57127000D01*
X203873000Y-57127000D01*
X203873000Y-71873000D01*
X203873000Y-71873000D01*
G37*
X203873000Y-71873000D02*
X194306606Y-71873000D01*
X199089803Y-67089803D01*
X199105597Y-67070557D01*
X199117333Y-67048601D01*
X199124560Y-67024776D01*
X199127000Y-67000000D01*
X199127000Y-57127000D01*
X203873000Y-57127000D01*
X203873000Y-71873000D01*
M02*
